<svg width="128" height="128" xmlns="http://www.w3.org/2000/svg">

 <g>
  <title>background</title>
  <rect fill="none" id="canvas_background" height="402" width="582" y="-1" x="-1"/>
 </g>
 <g>
  <title>Layer 1</title>
  <path id="svg_3" d="m76.4,104.4c-0.8,0 -1.5,-0.3 -2.1,-0.9l-9.9,-9.9c-1.2,-1.2 -1.2,-3.1 0,-4.2c1.2,-1.2 3.1,-1.2 4.2,0l9.9,9.9c1.2,1.2 1.2,3.1 0,4.2c-0.6,0.6 -1.3,0.9 -2.1,0.9z" fill="#71c2ff"/>
  <path id="svg_4" d="m59,97c-7.2,0 -13,-5.8 -13,-13s5.8,-13 13,-13s13,5.8 13,13s-5.8,13 -13,13zm0,-20c-3.9,0 -7,3.1 -7,7s3.1,7 7,7s7,-3.1 7,-7s-3.1,-7 -7,-7zm32.6,27.4c-0.8,0 -1.5,-0.3 -2.1,-0.9c-1.2,-1.2 -1.2,-3.1 0,-4.2l9.9,-9.9c1.2,-1.2 3.1,-1.2 4.2,0c1.2,1.2 1.2,3.1 0,4.2l-9.9,9.9c-0.6,0.6 -1.3,0.9 -2.1,0.9z" fill="#71c2ff"/>
  <path id="svg_5" d="m109,97c-7.2,0 -13,-5.8 -13,-13s5.8,-13 13,-13s13,5.8 13,13s-5.8,13 -13,13zm0,-20c-3.9,0 -7,3.1 -7,7s3.1,7 7,7s7,-3.1 7,-7s-3.1,-7 -7,-7zm-25,45c-7.2,0 -13,-5.8 -13,-13s5.8,-13 13,-13s13,5.8 13,13s-5.8,13 -13,13zm0,-20c-3.9,0 -7,3.1 -7,7s3.1,7 7,7s7,-3.1 7,-7s-3.1,-7 -7,-7z" fill="#71c2ff"/>
  <g id="svg_6">
   <path id="svg_7" d="m34,97l-5,0c-12.7,0 -23,-10.3 -23,-23s10.3,-23 23,-23l2,0l0,-2c0,-18.2 14.8,-33 33,-33s33,14.8 33,33l0,2l2,0c6.1,0 11.9,2.4 16.3,6.7c1.2,1.2 1.2,3.1 0,4.2c-1.2,1.2 -3.1,1.2 -4.2,0c-3.2,-3.2 -7.5,-5 -12,-5l-5,0c-1.7,0 -3,-1.3 -3,-3l0,-5c0,-14.9 -12.1,-27 -27,-27s-27.1,12.2 -27.1,27.1l0,5c0,1.7 -1.3,3 -3,3l-5,0c-9.4,0 -17,7.6 -17,17s7.6,17 17,17l5,0c1.7,0 3,1.3 3,3s-1.3,3 -3,3z" fill="#444b54"/>
  </g>
 </g>
</svg>