<svg id="svg" version="1.1" xmlns="http://www.w3.org/2000/svg" xmlns:xlink="http://www.w3.org/1999/xlink" width="400" height="400" viewBox="0, 0, 400,400"><g id="svgg"><path id="path0" d="M189.419 23.304 C 189.669 23.956,190.894 24.082,190.678 23.433 C 190.599 23.195,190.234 22.942,189.868 22.871 C 189.433 22.787,189.278 22.937,189.419 23.304 M209.698 23.300 C 209.789 23.575,210.283 23.861,210.796 23.936 C 211.650 24.061,211.675 24.018,211.093 23.436 C 210.336 22.679,209.465 22.594,209.698 23.300 M183.384 24.427 C 183.006 25.038,183.305 25.202,184.313 24.939 C 184.796 24.812,185.092 24.550,184.972 24.355 C 184.670 23.865,183.703 23.909,183.384 24.427 M214.800 24.400 C 214.800 24.620,214.965 24.800,215.167 24.800 C 215.369 24.800,215.864 24.924,216.267 25.075 C 216.912 25.317,216.934 25.269,216.451 24.675 C 215.851 23.937,214.800 23.762,214.800 24.400 M279.600 83.013 C 279.600 83.660,280.225 83.807,280.574 83.242 C 280.696 83.045,280.526 82.781,280.198 82.654 C 279.835 82.515,279.600 82.656,279.600 83.013 M118.135 89.700 C 117.671 90.442,117.621 91.200,118.035 91.200 C 118.236 91.200,118.414 91.065,118.431 90.900 C 118.447 90.735,118.522 90.285,118.595 89.900 C 118.753 89.078,118.573 88.999,118.135 89.700 M282.243 94.731 C 281.928 95.240,282.445 96.819,282.845 96.572 C 283.040 96.451,283.200 96.083,283.200 95.753 C 283.200 95.397,283.010 95.270,282.732 95.442 C 282.417 95.636,282.348 95.513,282.519 95.066 C 282.785 94.375,282.600 94.152,282.243 94.731 M117.090 95.309 C 116.971 95.619,117.012 96.096,117.181 96.370 C 117.408 96.737,117.559 96.683,117.757 96.167 C 117.905 95.781,117.864 95.304,117.666 95.106 C 117.453 94.893,117.218 94.976,117.090 95.309 M282.800 122.524 C 282.800 123.214,283.015 123.600,283.400 123.600 C 284.147 123.600,284.143 123.223,283.387 122.224 C 282.824 121.479,282.800 121.491,282.800 122.524 M116.244 123.030 C 115.906 123.912,116.277 124.283,116.887 123.673 C 117.222 123.338,117.236 123.076,116.933 122.773 C 116.631 122.471,116.430 122.546,116.244 123.030 M86.700 131.872 C 85.481 132.197,85.944 132.856,87.300 132.725 C 88.015 132.656,88.565 132.420,88.521 132.200 C 88.430 131.736,87.699 131.604,86.700 131.872 M311.056 132.072 C 310.704 132.270,306.649 132.379,302.046 132.315 C 297.442 132.252,293.763 132.342,293.871 132.516 C 294.144 132.956,314.000 132.801,314.000 132.358 C 314.000 132.161,313.865 131.977,313.700 131.949 C 312.403 131.728,311.605 131.765,311.056 132.072 M93.300 132.698 C 95.665 132.769,99.535 132.769,101.900 132.698 C 104.265 132.628,102.330 132.570,97.600 132.570 C 92.870 132.570,90.935 132.628,93.300 132.698 M80.133 133.392 C 80.133 133.680,80.446 133.809,80.873 133.697 C 81.967 133.411,82.051 133.008,81.028 132.946 C 80.536 132.917,80.133 133.117,80.133 133.392 M318.628 133.155 C 318.508 133.350,318.737 133.595,319.138 133.700 C 319.580 133.815,319.867 133.676,319.867 133.345 C 319.867 132.739,318.970 132.601,318.628 133.155 M343.402 145.602 C 343.802 146.044,344.215 146.318,344.321 146.212 C 344.590 145.943,343.592 144.800,343.089 144.800 C 342.862 144.800,343.003 145.161,343.402 145.602 M40.465 170.217 C 40.209 170.778,40.007 171.454,40.016 171.719 C 40.024 171.983,40.297 171.588,40.622 170.839 C 41.305 169.265,41.161 168.690,40.465 170.217 M148.616 174.711 C 145.583 176.477,143.753 178.769,142.958 181.800 C 142.785 182.460,142.590 195.690,142.525 211.200 C 142.449 229.234,142.260 239.688,142.001 240.200 C 141.777 240.640,141.435 241.810,141.240 242.800 C 140.391 247.098,135.740 257.587,133.258 260.800 C 132.663 261.570,131.852 262.711,131.456 263.335 C 130.586 264.705,123.680 271.603,119.576 275.200 C 117.944 276.630,115.077 279.264,113.205 281.054 C 105.968 287.971,103.608 289.783,103.038 288.862 C 102.509 288.006,95.009 284.818,93.495 284.806 C 93.107 284.803,92.477 284.633,92.095 284.430 C 88.133 282.319,74.267 282.319,70.305 284.430 C 69.923 284.633,69.169 284.800,68.629 284.800 C 68.089 284.800,67.536 284.980,67.400 285.200 C 67.264 285.420,66.814 285.600,66.401 285.600 C 65.155 285.600,58.884 289.019,55.467 291.561 C 53.266 293.199,48.000 298.491,48.000 299.065 C 48.000 299.254,47.595 299.866,47.100 300.425 C 44.649 303.195,40.400 312.318,40.400 314.811 C 40.400 315.377,40.204 316.036,39.965 316.275 C 39.401 316.839,39.366 332.213,39.925 334.061 C 41.380 338.879,41.915 340.265,43.876 344.300 C 45.078 346.775,46.216 348.800,46.404 348.800 C 46.592 348.800,46.860 349.158,46.999 349.596 C 47.297 350.536,53.934 357.380,56.112 358.993 C 58.063 360.438,59.594 361.319,62.800 362.840 C 64.230 363.518,65.713 364.236,66.095 364.436 C 66.477 364.636,67.064 364.800,67.400 364.800 C 67.736 364.800,68.323 364.960,68.705 365.157 C 72.343 367.023,86.258 367.729,90.644 366.269 C 91.720 365.912,93.770 365.232,95.200 364.759 C 106.637 360.976,117.420 350.495,120.878 339.800 C 122.553 334.622,122.889 332.391,123.071 325.239 C 123.180 320.978,123.091 318.531,122.819 318.259 C 122.589 318.029,122.400 317.164,122.400 316.339 C 122.400 315.513,122.239 314.424,122.042 313.919 C 121.845 313.413,121.452 312.190,121.169 311.200 C 120.887 310.210,120.234 308.622,119.719 307.670 L 118.783 305.941 121.878 303.070 C 123.581 301.492,125.520 299.685,126.187 299.055 C 126.854 298.426,128.827 296.626,130.571 295.055 C 135.387 290.720,143.174 283.272,145.253 281.013 C 148.905 277.046,153.669 270.252,155.200 266.828 C 155.439 266.294,156.321 264.494,157.159 262.828 C 158.672 259.820,159.449 257.754,161.231 252.000 C 162.138 249.072,162.391 247.596,163.255 240.200 C 163.914 234.558,164.165 185.119,163.549 182.400 C 162.033 175.714,153.998 171.577,148.616 174.711 M195.426 174.737 C 193.835 175.636,192.079 177.173,191.140 178.488 C 189.148 181.277,189.200 179.345,189.197 249.720 L 189.194 315.400 186.897 316.140 C 184.022 317.065,177.710 320.148,176.292 321.319 C 175.706 321.804,174.484 322.740,173.576 323.400 C 161.969 331.844,155.069 351.408,158.832 365.200 C 159.283 366.850,159.799 368.740,159.979 369.400 C 160.971 373.024,165.221 381.179,166.754 382.400 C 166.892 382.510,167.817 383.518,168.810 384.640 C 171.904 388.138,176.517 391.688,180.474 393.617 C 181.864 394.294,183.313 395.017,183.695 395.224 C 184.894 395.873,187.764 396.788,188.620 396.794 C 189.071 396.797,189.611 396.963,189.820 397.163 C 191.121 398.406,208.879 398.406,210.180 397.163 C 210.389 396.963,210.929 396.797,211.380 396.794 C 220.322 396.731,236.237 382.044,239.548 370.800 C 239.839 369.810,240.246 368.678,240.452 368.284 C 241.415 366.443,241.790 362.986,241.763 356.200 C 241.732 348.426,241.251 345.323,239.546 341.905 C 239.356 341.523,239.200 340.972,239.200 340.680 C 239.200 338.448,233.411 329.872,229.166 325.817 C 224.836 321.680,216.217 316.400,213.794 316.400 C 213.493 316.400,213.136 316.220,213.000 316.000 C 212.864 315.780,212.313 315.600,211.776 315.600 L 210.800 315.600 210.800 249.728 C 210.800 208.507,210.656 183.397,210.414 182.628 C 210.202 181.953,209.928 180.906,209.807 180.302 C 209.557 179.059,206.441 175.744,204.538 174.695 C 202.832 173.755,197.117 173.781,195.426 174.737 M242.413 174.726 C 239.602 176.092,237.358 178.977,236.443 182.400 C 235.324 186.590,236.305 243.265,237.519 244.479 C 237.783 244.743,238.000 245.856,238.000 246.952 C 238.000 248.047,238.168 249.496,238.373 250.172 C 238.578 250.847,238.959 252.210,239.218 253.200 C 239.478 254.190,239.833 255.360,240.005 255.800 C 240.178 256.240,240.550 257.230,240.831 258.000 C 242.543 262.683,249.207 274.776,250.750 276.000 C 250.889 276.110,251.761 277.190,252.688 278.400 C 254.501 280.766,259.976 286.198,264.784 290.400 C 266.420 291.830,268.312 293.540,268.987 294.200 C 269.998 295.188,279.729 304.164,280.957 305.241 C 281.160 305.419,280.883 306.472,280.315 307.677 C 279.765 308.845,279.086 310.520,278.806 311.400 C 278.527 312.280,278.141 313.413,277.949 313.919 C 277.757 314.424,277.600 315.513,277.600 316.339 C 277.600 317.164,277.411 318.029,277.181 318.259 C 275.428 320.012,277.440 335.869,280.195 342.013 C 281.031 343.876,282.048 345.878,282.457 346.462 C 282.866 347.046,283.200 347.629,283.200 347.757 C 283.200 348.945,290.631 356.863,293.821 359.076 C 297.143 361.380,300.061 363.034,301.911 363.662 C 302.730 363.940,303.580 364.277,303.800 364.411 C 304.020 364.546,305.010 364.887,306.000 365.169 C 306.990 365.452,308.597 365.961,309.571 366.302 C 313.754 367.763,327.564 367.031,331.295 365.150 C 331.677 364.958,332.316 364.800,332.715 364.800 C 333.114 364.800,333.611 364.657,333.820 364.482 C 334.029 364.307,334.892 363.929,335.738 363.642 C 343.138 361.134,352.080 352.684,356.243 344.266 C 357.786 341.145,358.501 339.241,360.073 334.061 C 360.633 332.217,360.600 316.840,360.035 316.275 C 359.796 316.036,359.600 315.380,359.600 314.818 C 359.600 306.514,347.827 292.077,336.700 286.736 C 336.315 286.551,335.642 286.220,335.205 286.000 C 334.768 285.780,334.059 285.600,333.629 285.600 C 333.199 285.600,332.736 285.420,332.600 285.200 C 332.464 284.980,331.911 284.800,331.371 284.800 C 330.831 284.800,330.077 284.633,329.695 284.430 C 325.733 282.319,311.867 282.319,307.905 284.430 C 307.523 284.633,306.769 284.800,306.229 284.800 C 305.689 284.800,305.136 284.980,305.000 285.200 C 304.864 285.420,304.437 285.600,304.051 285.600 C 303.665 285.600,302.417 286.050,301.277 286.600 C 300.137 287.150,299.068 287.604,298.902 287.609 C 298.736 287.614,298.150 287.970,297.600 288.400 C 296.176 289.514,295.635 289.392,293.542 287.489 C 268.317 264.553,264.536 260.112,260.775 249.000 C 260.477 248.120,260.123 247.220,259.989 247.000 C 259.854 246.780,259.550 245.880,259.312 245.000 C 259.075 244.120,258.658 242.590,258.385 241.600 C 258.020 240.276,257.844 232.295,257.717 211.400 C 257.616 194.640,257.393 182.844,257.173 182.620 C 256.968 182.411,256.800 181.817,256.800 181.300 C 256.800 176.209,247.810 172.101,242.413 174.726 M360.256 174.278 C 359.805 174.728,359.981 175.200,360.600 175.200 C 360.930 175.200,361.200 175.031,361.200 174.824 C 361.200 174.319,360.575 173.958,360.256 174.278 M38.860 174.780 C 39.032 175.296,39.581 175.388,39.630 174.910 C 39.647 174.751,39.444 174.548,39.180 174.460 C 38.916 174.372,38.772 174.516,38.860 174.780 M361.042 181.035 C 360.676 181.989,360.764 187.324,361.156 187.943 C 361.732 188.851,361.921 187.960,361.928 184.304 C 361.935 180.985,361.573 179.651,361.042 181.035 M38.000 184.400 C 38.000 187.736,38.373 188.891,38.957 187.367 C 39.268 186.557,39.262 182.873,38.948 181.700 C 38.427 179.756,38.000 180.972,38.000 184.400 M39.073 193.754 C 38.949 194.077,39.077 194.532,39.356 194.764 C 39.740 195.083,39.851 194.994,39.807 194.401 C 39.730 193.356,39.353 193.024,39.073 193.754 M39.867 197.369 C 39.748 197.680,39.909 198.033,40.225 198.154 C 40.557 198.282,40.800 198.137,40.800 197.811 C 40.800 197.013,40.126 196.694,39.867 197.369 M82.047 235.571 C 81.646 235.819,81.669 235.941,82.154 236.127 C 82.495 236.258,82.873 236.205,82.994 236.010 C 83.309 235.500,82.654 235.196,82.047 235.571 M316.800 235.600 C 316.141 236.026,316.180 236.058,317.515 236.197 C 318.019 236.249,318.368 236.103,318.290 235.871 C 318.088 235.263,317.490 235.155,316.800 235.600 M90.862 236.353 C 90.147 236.806,92.048 237.310,93.039 236.930 C 93.690 236.680,93.685 236.638,92.971 236.358 C 91.931 235.951,91.498 235.950,90.862 236.353 M307.417 236.372 C 307.076 236.923,307.736 237.194,308.764 236.925 C 309.442 236.748,309.534 236.604,309.134 236.351 C 308.427 235.903,307.702 235.912,307.417 236.372 M100.000 243.400 C 100.000 243.730,100.264 244.000,100.587 244.000 C 100.945 244.000,101.085 243.765,100.945 243.400 C 100.818 243.070,100.554 242.800,100.357 242.800 C 100.161 242.800,100.000 243.070,100.000 243.400 M88.147 305.652 C 94.176 307.793,98.534 312.201,100.829 318.478 C 101.686 320.824,101.971 330.124,101.200 330.600 C 100.980 330.736,100.800 331.200,100.800 331.632 C 100.800 332.063,100.350 333.129,99.800 334.000 C 99.250 334.871,98.800 335.779,98.800 336.018 C 98.800 337.525,92.028 342.893,88.200 344.421 C 85.643 345.441,79.730 345.872,77.411 345.208 C 76.525 344.954,75.170 344.563,74.400 344.340 C 72.311 343.734,70.573 342.890,70.006 342.207 C 69.729 341.873,69.292 341.600,69.036 341.600 C 68.262 341.600,63.200 335.899,63.200 335.027 C 63.200 334.914,62.765 333.872,62.233 332.711 C 57.495 322.369,63.630 309.196,75.000 305.297 C 77.359 304.488,85.486 304.708,88.147 305.652 M324.772 305.256 C 331.394 307.371,338.800 315.267,338.800 320.213 C 338.800 320.950,338.980 321.664,339.200 321.800 C 339.420 321.936,339.600 323.376,339.600 325.000 C 339.600 326.624,339.420 328.064,339.200 328.200 C 338.980 328.336,338.800 328.919,338.800 329.495 C 338.800 330.780,337.977 333.213,337.300 333.929 C 337.025 334.219,336.800 334.632,336.800 334.845 C 336.800 335.868,331.848 341.600,330.964 341.600 C 330.708 341.600,330.271 341.873,329.994 342.207 C 329.423 342.896,327.665 343.745,325.600 344.331 C 324.830 344.549,323.557 344.924,322.772 345.164 C 319.409 346.190,313.423 345.413,309.800 343.480 C 309.360 343.245,308.472 342.786,307.827 342.461 C 305.913 341.495,301.716 337.012,300.777 334.932 C 300.298 333.869,299.567 332.291,299.153 331.425 C 298.328 329.699,298.037 320.688,298.761 319.295 C 298.959 318.913,299.712 317.340,300.434 315.800 C 304.379 307.384,315.859 302.410,324.772 305.256 M204.200 336.000 C 204.336 336.220,204.837 336.400,205.313 336.400 C 207.618 336.400,216.800 342.516,216.800 344.052 C 216.800 344.253,217.240 345.088,217.778 345.909 C 222.569 353.215,221.224 363.762,214.615 370.710 C 213.512 371.870,211.977 373.150,211.204 373.555 C 210.432 373.961,209.120 374.676,208.288 375.146 C 207.456 375.616,206.432 376.000,206.011 376.000 C 205.591 376.000,205.136 376.180,205.000 376.400 C 204.859 376.629,202.804 376.800,200.200 376.800 C 197.596 376.800,195.541 376.629,195.400 376.400 C 195.264 376.180,194.638 376.000,194.010 376.000 C 193.381 376.000,192.807 375.865,192.733 375.700 C 192.660 375.535,191.534 374.867,190.231 374.215 C 187.791 372.994,183.200 369.088,183.200 368.232 C 183.200 367.968,182.885 367.402,182.500 366.975 C 181.322 365.671,180.877 364.444,179.641 359.094 C 178.972 356.203,179.054 355.317,180.501 349.800 C 181.094 347.537,183.763 343.144,185.516 341.546 C 188.124 339.167,193.044 336.404,194.676 336.402 C 195.158 336.401,195.664 336.220,195.800 336.000 C 195.938 335.777,197.796 335.600,200.000 335.600 C 202.204 335.600,204.062 335.777,204.200 336.000 " stroke="none" fill="#71c1ff" fill-rule="evenodd"></path><path id="path1" d="M191.450 1.885 C 191.277 2.058,189.486 2.323,187.468 2.474 C 182.064 2.877,175.342 4.098,174.634 4.806 C 174.417 5.023,173.657 5.200,172.944 5.200 C 172.231 5.200,171.536 5.380,171.400 5.600 C 171.264 5.820,170.634 6.000,170.000 6.000 C 169.366 6.000,168.736 6.180,168.600 6.400 C 168.464 6.620,167.834 6.800,167.200 6.800 C 166.566 6.800,165.936 6.980,165.800 7.200 C 165.664 7.420,165.293 7.600,164.974 7.600 C 164.656 7.600,163.463 8.050,162.323 8.600 C 161.183 9.150,160.108 9.600,159.935 9.600 C 159.601 9.600,154.661 11.753,153.530 12.391 C 153.161 12.599,151.485 13.502,149.804 14.398 C 146.195 16.321,139.060 20.822,138.400 21.592 C 138.290 21.720,137.461 22.360,136.559 23.013 C 127.579 29.508,116.397 41.897,110.758 51.600 C 109.671 53.470,108.607 55.270,108.395 55.600 C 107.566 56.885,105.200 61.822,105.200 62.265 C 105.200 62.523,105.055 62.793,104.878 62.867 C 104.701 62.940,104.053 64.260,103.438 65.800 C 102.823 67.340,102.158 68.913,101.960 69.295 C 101.762 69.677,101.600 70.316,101.600 70.715 C 101.600 71.114,101.439 71.611,101.243 71.820 C 101.047 72.029,100.406 73.820,99.819 75.800 C 99.232 77.780,98.583 79.953,98.376 80.628 C 98.169 81.304,98.000 82.393,98.000 83.048 C 98.000 83.704,97.836 84.411,97.635 84.620 C 97.435 84.829,97.177 85.990,97.062 87.200 C 96.854 89.401,96.319 93.044,95.588 97.224 C 95.375 98.447,95.200 102.085,95.200 105.307 L 95.200 111.166 87.900 111.342 C 79.080 111.554,72.758 112.441,71.420 113.655 C 71.211 113.845,70.457 114.000,69.744 114.000 C 69.031 114.000,68.336 114.180,68.200 114.400 C 68.064 114.620,67.524 114.800,67.000 114.800 C 66.476 114.800,65.936 114.980,65.800 115.200 C 65.664 115.420,65.201 115.600,64.771 115.600 C 64.341 115.600,63.677 115.772,63.295 115.982 C 62.913 116.193,60.398 117.443,57.707 118.760 C 55.015 120.078,52.585 121.343,52.307 121.572 C 52.028 121.801,50.540 122.827,49.000 123.852 C 47.460 124.877,46.110 125.826,46.000 125.960 C 45.890 126.095,45.124 126.708,44.298 127.324 C 41.864 129.139,35.604 135.512,32.732 139.100 C 29.228 143.478,24.572 151.518,22.829 156.200 C 22.338 157.520,21.770 158.913,21.568 159.295 C 20.916 160.525,20.012 163.376,20.006 164.220 C 20.003 164.671,19.838 165.211,19.641 165.420 C 19.273 165.810,18.933 167.721,18.542 171.600 C 18.421 172.810,18.127 174.037,17.889 174.327 C 17.253 175.103,17.018 189.230,17.592 192.200 C 17.847 193.520,18.211 195.680,18.402 197.000 C 19.078 201.692,20.588 207.707,21.522 209.427 C 21.752 209.852,22.421 211.460,23.008 213.000 C 24.933 218.052,29.885 226.338,33.885 231.200 C 40.084 238.736,49.800 246.360,58.400 250.440 C 59.830 251.118,61.313 251.836,61.695 252.036 C 62.077 252.236,62.628 252.400,62.920 252.400 C 63.212 252.400,64.383 252.850,65.523 253.400 C 66.663 253.950,67.946 254.400,68.374 254.400 C 68.803 254.400,69.252 254.560,69.373 254.756 C 69.494 254.951,70.179 255.214,70.896 255.339 C 71.613 255.464,73.190 255.769,74.400 256.016 C 75.610 256.264,77.770 256.558,79.200 256.670 C 80.630 256.782,82.042 257.073,82.337 257.316 C 83.285 258.099,92.114 258.202,93.624 257.448 C 94.338 257.092,95.091 256.800,95.296 256.800 C 96.263 256.800,99.221 254.128,100.156 252.409 C 101.437 250.057,101.738 244.000,100.575 244.000 C 100.202 244.000,99.996 243.717,100.065 243.300 C 100.128 242.915,100.022 242.347,99.828 242.038 C 99.577 241.637,99.620 241.565,99.978 241.786 C 100.361 242.023,100.383 241.919,100.073 241.348 C 99.598 240.475,96.839 237.753,96.578 237.900 C 96.113 238.161,95.580 237.956,95.800 237.600 C 96.066 237.170,95.854 237.117,93.400 236.995 C 90.193 236.836,90.143 236.825,90.800 236.400 C 91.211 236.135,90.194 236.010,87.580 236.006 C 85.069 236.002,83.586 235.829,83.251 235.500 C 82.972 235.225,82.801 235.180,82.871 235.400 C 83.008 235.825,82.715 236.004,81.900 235.994 C 81.530 235.989,81.541 235.898,81.940 235.645 C 82.286 235.426,81.784 235.289,80.544 235.264 C 79.480 235.243,78.547 235.040,78.471 234.813 C 78.395 234.586,78.158 234.400,77.943 234.400 C 77.728 234.400,77.664 234.580,77.800 234.800 C 77.936 235.020,77.872 235.200,77.657 235.200 C 77.442 235.200,77.204 235.012,77.127 234.782 C 77.051 234.552,76.598 234.335,76.122 234.299 C 75.645 234.263,75.332 234.110,75.425 233.960 C 75.651 233.593,73.668 233.111,73.179 233.413 C 72.967 233.544,72.701 233.407,72.587 233.110 C 72.473 232.812,71.995 232.540,71.526 232.504 C 71.056 232.469,70.566 232.296,70.436 232.120 C 70.306 231.944,69.975 231.755,69.700 231.700 C 69.425 231.645,68.975 231.555,68.700 231.500 C 68.425 231.445,68.108 231.279,67.996 231.132 C 67.884 230.985,67.524 230.805,67.196 230.732 C 66.868 230.659,66.295 230.268,65.921 229.863 C 65.535 229.444,65.034 229.255,64.759 229.425 C 64.453 229.615,64.380 229.555,64.562 229.262 C 64.727 228.995,64.605 228.800,64.273 228.800 C 63.957 228.800,63.476 228.532,63.204 228.204 C 62.932 227.877,62.577 227.690,62.416 227.790 C 62.254 227.890,61.611 227.438,60.986 226.786 C 60.362 226.134,59.638 225.600,59.379 225.600 C 59.120 225.600,57.765 224.443,56.368 223.030 C 54.971 221.616,53.686 220.547,53.514 220.653 C 53.341 220.760,53.200 220.600,53.200 220.298 C 53.200 219.997,52.640 219.221,51.955 218.575 C 51.270 217.929,50.302 216.770,49.804 216.000 C 49.307 215.230,48.436 214.105,47.869 213.500 C 47.302 212.895,46.948 212.400,47.081 212.400 C 47.215 212.400,46.998 212.040,46.600 211.600 C 46.202 211.160,46.007 210.800,46.167 210.800 C 46.326 210.800,46.219 210.536,45.929 210.214 C 44.493 208.622,44.400 208.449,44.400 207.376 C 44.400 207.033,44.220 206.864,44.000 207.000 C 43.780 207.136,43.600 206.877,43.600 206.424 C 43.600 205.971,43.409 205.600,43.176 205.600 C 42.943 205.600,42.863 205.422,42.997 205.204 C 43.132 204.987,42.959 204.213,42.613 203.485 C 42.268 202.756,41.911 201.776,41.820 201.306 C 41.730 200.836,41.488 200.125,41.282 199.726 C 41.076 199.327,40.991 198.769,41.092 198.488 C 41.192 198.206,41.123 198.002,40.937 198.035 C 39.992 198.203,39.806 197.830,39.877 195.915 C 39.921 194.703,39.816 194.050,39.627 194.357 C 39.447 194.648,39.199 194.723,39.076 194.524 C 38.953 194.325,38.991 193.938,39.160 193.664 C 39.483 193.142,39.136 190.343,38.586 189.034 C 38.358 188.493,38.401 188.353,38.732 188.558 C 39.040 188.748,39.189 188.532,39.168 187.924 C 39.151 187.416,39.046 187.225,38.935 187.500 C 38.377 188.882,38.000 187.632,38.000 184.400 C 38.000 181.138,38.456 179.708,38.924 181.500 C 39.034 181.921,39.126 181.753,39.154 181.076 C 39.185 180.321,39.049 180.046,38.738 180.238 C 38.452 180.415,38.385 180.348,38.562 180.061 C 39.049 179.274,39.504 175.588,39.142 175.364 C 38.586 175.020,38.752 174.296,39.337 174.520 C 39.732 174.672,39.891 174.242,39.943 172.886 C 39.982 171.838,40.377 170.432,40.858 169.623 C 41.324 168.840,41.790 167.570,41.894 166.800 C 41.998 166.030,42.245 165.340,42.442 165.267 C 42.639 165.193,42.800 164.788,42.800 164.367 C 42.800 163.945,42.999 163.600,43.243 163.600 C 43.486 163.600,43.584 163.335,43.459 163.011 C 43.335 162.686,43.451 162.281,43.717 162.111 C 43.982 161.940,44.737 160.720,45.393 159.400 C 46.049 158.080,46.935 156.595,47.363 156.100 C 47.790 155.605,47.984 155.200,47.793 155.200 C 47.603 155.200,47.719 154.975,48.050 154.700 C 48.975 153.934,52.000 150.134,52.000 149.739 C 52.000 149.547,52.405 149.212,52.900 148.995 C 53.395 148.778,53.859 148.181,53.932 147.669 C 54.019 147.057,54.258 146.813,54.632 146.957 C 54.964 147.084,55.200 146.931,55.200 146.587 C 55.200 146.264,55.425 146.045,55.700 146.100 C 55.975 146.155,56.151 145.962,56.090 145.670 C 56.030 145.379,56.146 145.243,56.349 145.369 C 56.553 145.494,57.322 145.030,58.059 144.338 C 58.797 143.646,60.255 142.551,61.300 141.905 C 62.345 141.260,63.200 140.607,63.200 140.454 C 63.200 140.301,64.505 139.566,66.100 138.819 C 67.695 138.073,69.110 137.298,69.245 137.097 C 69.379 136.896,69.559 136.773,69.645 136.825 C 70.018 137.048,71.600 136.305,71.600 135.906 C 71.600 135.665,71.721 135.587,71.868 135.735 C 72.016 135.882,72.511 135.761,72.968 135.465 C 73.426 135.169,74.496 134.903,75.346 134.874 C 76.197 134.845,77.106 134.644,77.366 134.428 C 77.626 134.213,78.497 133.992,79.301 133.937 C 80.313 133.869,80.652 133.703,80.399 133.399 C 80.137 133.083,81.012 132.984,83.493 133.050 C 85.589 133.105,86.730 133.004,86.388 132.792 C 86.077 132.601,85.931 132.336,86.063 132.204 C 86.481 131.786,88.603 131.783,88.533 132.200 C 88.490 132.459,91.658 132.566,97.533 132.505 C 102.520 132.452,106.600 132.398,106.600 132.385 C 106.600 132.371,107.429 132.317,108.442 132.266 C 109.544 132.210,110.560 131.897,110.971 131.486 C 111.348 131.109,111.837 130.800,112.056 130.800 C 112.892 130.800,115.931 127.121,116.485 125.438 C 116.999 123.877,116.997 123.703,116.463 123.908 C 116.018 124.079,115.932 123.955,116.131 123.437 C 116.279 123.051,116.400 122.649,116.400 122.544 C 116.400 122.439,116.584 122.467,116.810 122.606 C 117.087 122.777,117.213 118.469,117.200 109.330 C 117.189 101.888,117.185 95.564,117.190 95.276 C 117.196 94.988,117.376 94.862,117.591 94.994 C 117.834 95.144,117.953 94.205,117.907 92.518 C 117.861 90.887,117.991 89.829,118.231 89.872 C 118.450 89.911,118.667 89.497,118.712 88.950 C 118.758 88.404,118.984 87.603,119.216 87.171 C 119.447 86.738,119.516 86.187,119.367 85.947 C 119.219 85.707,119.300 85.386,119.547 85.233 C 119.794 85.080,120.030 84.425,120.071 83.778 C 120.112 83.130,120.307 82.384,120.506 82.119 C 120.704 81.855,120.742 81.247,120.590 80.769 C 120.415 80.217,120.464 79.992,120.724 80.153 C 120.959 80.299,121.424 79.512,121.816 78.303 C 122.191 77.146,122.656 76.029,122.849 75.820 C 123.042 75.611,123.200 74.906,123.200 74.253 C 123.200 73.601,123.323 73.190,123.473 73.340 C 123.733 73.600,124.790 71.635,125.033 70.440 C 125.096 70.132,125.313 69.772,125.515 69.640 C 125.718 69.508,126.100 68.737,126.365 67.926 C 126.629 67.115,126.970 66.395,127.122 66.326 C 127.275 66.257,127.754 65.480,128.187 64.600 C 128.621 63.720,129.387 62.490,129.890 61.866 C 130.394 61.243,130.685 60.523,130.539 60.266 C 130.392 60.010,130.411 59.925,130.580 60.078 C 130.873 60.341,132.800 58.381,132.800 57.819 C 132.800 57.492,135.293 54.249,135.678 54.074 C 135.830 54.005,135.856 53.690,135.735 53.374 C 135.614 53.058,135.683 52.800,135.889 52.800 C 136.095 52.800,138.624 50.460,141.509 47.600 C 144.394 44.740,146.945 42.400,147.177 42.400 C 147.410 42.400,147.600 42.119,147.600 41.776 C 147.600 41.433,147.746 41.243,147.925 41.354 C 148.104 41.464,148.779 41.094,149.425 40.531 C 150.071 39.967,151.320 39.048,152.200 38.488 C 153.080 37.927,154.019 37.183,154.287 36.834 C 154.555 36.485,154.780 36.357,154.787 36.549 C 154.794 36.741,155.076 36.669,155.414 36.389 C 155.751 36.109,156.966 35.376,158.114 34.760 C 159.261 34.145,160.151 33.439,160.090 33.191 C 160.030 32.943,160.158 32.851,160.376 32.985 C 160.593 33.120,161.930 32.593,163.346 31.815 C 164.762 31.037,166.219 30.400,166.584 30.400 C 166.983 30.400,167.134 30.216,166.962 29.938 C 166.781 29.646,166.852 29.585,167.156 29.773 C 167.419 29.936,167.922 29.831,168.272 29.540 C 168.622 29.250,169.109 28.992,169.354 28.967 C 169.599 28.942,170.115 28.894,170.500 28.861 C 170.885 28.827,171.200 28.530,171.200 28.200 C 171.200 27.870,171.380 27.600,171.600 27.600 C 171.820 27.600,172.003 27.825,172.006 28.100 C 172.011 28.498,172.077 28.499,172.329 28.102 C 172.502 27.828,173.120 27.565,173.700 27.517 C 174.423 27.457,174.640 27.289,174.388 26.985 C 174.127 26.671,174.380 26.594,175.254 26.723 C 175.933 26.822,176.608 26.710,176.755 26.473 C 176.901 26.237,177.762 25.999,178.669 25.946 C 179.684 25.886,180.251 25.677,180.146 25.403 C 180.033 25.108,180.470 25.016,181.443 25.129 C 182.496 25.252,183.012 25.122,183.265 24.670 C 183.542 24.174,184.040 24.090,185.602 24.275 C 186.898 24.428,187.790 24.340,188.175 24.020 C 188.500 23.751,188.983 23.666,189.250 23.831 C 189.585 24.038,189.657 23.924,189.481 23.466 C 189.232 22.819,189.978 22.512,190.509 23.042 C 190.642 23.176,194.796 23.257,199.740 23.223 C 205.644 23.182,208.818 23.305,208.988 23.581 C 209.386 24.225,210.005 24.078,209.745 23.400 C 209.411 22.532,210.290 22.664,211.317 23.636 C 212.041 24.322,212.537 24.434,214.070 24.259 C 215.419 24.104,216.073 24.206,216.419 24.622 C 216.682 24.940,217.248 25.200,217.675 25.200 C 218.103 25.200,218.822 25.398,219.275 25.640 C 219.796 25.919,220.003 25.929,219.842 25.668 C 219.702 25.441,219.774 25.139,220.003 24.998 C 220.232 24.856,220.370 24.979,220.310 25.270 C 220.232 25.644,220.701 25.800,221.901 25.800 C 223.563 25.800,224.100 26.130,223.100 26.537 C 222.825 26.649,223.050 26.751,223.600 26.764 C 225.341 26.806,226.000 26.925,226.000 27.200 C 226.000 27.347,226.270 27.497,226.600 27.533 C 226.930 27.570,227.462 27.630,227.783 27.667 C 228.103 27.703,228.459 27.978,228.574 28.276 C 228.702 28.610,229.170 28.749,229.791 28.636 C 230.423 28.521,230.800 28.637,230.800 28.946 C 230.800 29.502,232.993 30.400,234.352 30.400 C 234.847 30.400,235.137 30.579,235.000 30.800 C 234.859 31.028,235.204 31.200,235.800 31.200 C 236.396 31.200,236.741 31.372,236.600 31.600 C 236.464 31.820,236.535 32.000,236.759 32.000 C 236.982 32.000,238.085 32.543,239.211 33.206 C 240.336 33.870,241.451 34.292,241.690 34.144 C 241.928 33.997,242.012 34.057,241.875 34.278 C 241.739 34.499,242.116 34.927,242.714 35.230 C 243.311 35.532,244.310 36.191,244.934 36.693 C 245.557 37.195,246.232 37.504,246.434 37.379 C 246.635 37.255,246.800 37.339,246.800 37.566 C 246.800 37.793,247.295 38.244,247.900 38.567 C 248.505 38.890,249.619 39.694,250.376 40.354 C 251.132 41.014,251.861 41.486,251.995 41.403 C 252.129 41.320,252.500 41.418,252.819 41.620 C 253.322 41.939,253.320 41.990,252.800 42.008 C 252.400 42.022,252.488 42.190,253.066 42.514 C 254.037 43.060,257.697 46.535,261.600 50.619 C 263.030 52.115,264.290 53.323,264.400 53.303 C 264.510 53.283,264.690 53.371,264.800 53.497 C 264.910 53.624,264.775 53.599,264.500 53.441 C 263.439 52.830,264.480 54.338,266.700 56.627 C 266.975 56.911,267.200 57.346,267.200 57.595 C 267.200 57.844,267.408 57.919,267.662 57.762 C 267.916 57.605,268.016 57.650,267.885 57.863 C 267.560 58.388,268.974 60.485,269.394 60.103 C 269.578 59.936,269.608 60.010,269.460 60.268 C 269.313 60.525,269.464 61.007,269.796 61.339 C 270.128 61.671,270.400 62.146,270.400 62.395 C 270.400 62.644,270.578 62.737,270.795 62.603 C 271.016 62.466,271.093 62.614,270.969 62.938 C 270.841 63.271,271.136 63.790,271.662 64.158 C 272.166 64.511,272.468 64.800,272.335 64.800 C 272.201 64.800,272.971 66.533,274.046 68.650 C 275.121 70.768,276.000 72.758,276.000 73.074 C 276.000 73.389,276.180 73.536,276.400 73.400 C 276.746 73.186,276.988 73.989,276.850 74.892 C 276.825 75.053,277.167 75.829,277.609 76.616 C 278.051 77.403,278.449 78.487,278.494 79.024 C 278.538 79.561,278.786 80.000,279.044 80.000 C 279.339 80.000,279.463 80.517,279.378 81.393 C 279.304 82.159,279.368 82.768,279.521 82.745 C 280.497 82.605,280.933 82.827,280.509 83.251 C 280.247 83.513,280.182 84.058,280.353 84.551 C 280.516 85.018,280.627 85.670,280.600 86.000 C 280.573 86.330,280.709 86.813,280.901 87.072 C 281.094 87.332,281.267 88.081,281.286 88.737 C 281.309 89.565,281.485 89.866,281.860 89.722 C 282.157 89.608,282.400 89.714,282.400 89.957 C 282.400 90.201,282.208 90.400,281.973 90.400 C 281.738 90.400,281.641 90.715,281.757 91.100 C 281.873 91.485,282.020 92.730,282.083 93.867 C 282.157 95.191,282.342 95.814,282.599 95.600 C 282.866 95.379,282.960 99.618,282.879 108.272 C 282.775 119.490,282.844 121.407,283.379 122.225 C 284.144 123.391,284.153 123.600,283.439 123.600 C 282.408 123.600,284.167 127.252,286.185 129.300 C 287.780 130.919,288.216 131.161,289.129 130.934 C 290.131 130.684,290.161 130.715,289.600 131.409 C 289.057 132.079,289.066 132.125,289.687 131.892 C 290.065 131.751,290.488 131.819,290.627 132.043 C 290.766 132.268,291.356 132.421,291.940 132.384 C 292.523 132.346,293.090 132.338,293.200 132.365 C 294.106 132.593,311.081 132.531,310.938 132.300 C 310.836 132.135,310.898 131.987,311.076 131.970 C 311.254 131.954,311.762 131.872,312.204 131.787 C 313.387 131.562,314.398 132.273,313.612 132.778 C 313.224 133.028,314.206 133.120,316.501 133.050 C 319.071 132.972,319.879 133.064,319.599 133.401 C 319.324 133.732,319.796 133.884,321.310 133.951 C 322.459 134.002,323.460 134.214,323.533 134.422 C 323.607 134.630,324.181 134.800,324.810 134.800 C 325.438 134.800,326.064 134.980,326.200 135.200 C 326.336 135.420,326.897 135.600,327.447 135.600 C 328.012 135.600,328.340 135.774,328.200 136.000 C 328.064 136.220,328.144 136.400,328.378 136.400 C 328.612 136.400,329.737 136.850,330.877 137.400 C 332.017 137.950,333.186 138.400,333.475 138.400 C 333.764 138.400,334.000 138.580,334.000 138.800 C 334.000 139.020,334.270 139.200,334.600 139.200 C 334.930 139.200,335.560 139.560,336.000 140.000 C 336.440 140.440,336.918 140.800,337.062 140.800 C 337.206 140.800,337.914 141.250,338.636 141.800 C 339.357 142.350,340.073 142.800,340.226 142.800 C 340.380 142.800,340.812 143.153,341.187 143.585 C 341.561 144.016,342.365 144.558,342.972 144.789 C 343.580 145.021,344.168 145.555,344.278 145.977 C 344.389 146.399,344.687 146.665,344.942 146.567 C 345.197 146.469,345.591 146.796,345.817 147.295 C 346.044 147.793,346.461 148.151,346.744 148.090 C 347.028 148.030,347.150 148.157,347.017 148.373 C 346.884 148.588,347.236 149.067,347.800 149.437 C 348.364 149.806,348.736 150.198,348.626 150.307 C 348.517 150.416,349.052 151.234,349.814 152.125 C 350.576 153.015,351.200 153.902,351.200 154.096 C 351.200 154.289,351.425 154.318,351.700 154.159 C 351.975 154.001,352.070 154.016,351.911 154.192 C 351.584 154.553,352.789 156.800,353.310 156.800 C 353.495 156.800,353.550 156.957,353.431 157.150 C 353.312 157.342,353.657 157.976,354.197 158.559 C 354.737 159.142,355.207 159.750,355.241 159.910 C 355.384 160.592,355.781 161.463,356.354 162.358 C 356.692 162.886,357.026 163.696,357.096 164.158 C 357.166 164.621,357.399 165.060,357.614 165.134 C 357.829 165.208,357.898 165.441,357.768 165.652 C 357.638 165.863,357.772 166.325,358.066 166.679 C 358.360 167.033,358.564 167.430,358.519 167.561 C 358.350 168.064,359.307 171.181,359.580 171.013 C 359.877 170.829,359.903 170.944,360.039 173.086 C 360.084 173.794,360.261 174.286,360.433 174.180 C 360.604 174.074,360.870 174.190,361.024 174.438 C 361.177 174.686,361.076 175.029,360.800 175.200 C 360.524 175.371,360.425 175.717,360.581 175.969 C 360.737 176.222,360.859 177.542,360.853 178.905 C 360.846 180.363,360.976 181.162,361.170 180.848 C 361.729 179.944,361.924 180.862,361.924 184.400 C 361.924 187.959,361.731 188.850,361.156 187.943 C 360.833 187.434,360.555 191.637,360.759 193.936 C 360.804 194.452,360.680 194.773,360.481 194.650 C 360.283 194.528,360.084 195.006,360.039 195.714 C 359.903 197.845,359.877 197.971,359.601 197.800 C 359.265 197.593,357.857 201.991,358.162 202.296 C 358.286 202.420,358.104 202.729,357.756 202.982 C 357.409 203.236,357.097 203.912,357.063 204.484 C 357.028 205.055,356.853 205.432,356.673 205.321 C 356.494 205.211,356.380 205.363,356.421 205.660 C 356.564 206.707,356.396 207.244,356.000 207.000 C 355.632 206.773,355.427 207.546,355.560 208.654 C 355.590 208.904,355.341 209.214,355.007 209.342 C 354.673 209.470,354.400 209.823,354.400 210.125 C 354.400 210.428,354.044 210.998,353.609 211.391 C 353.175 211.785,352.915 212.263,353.033 212.453 C 353.151 212.644,353.057 212.800,352.824 212.800 C 352.591 212.800,352.400 213.051,352.400 213.357 C 352.400 213.664,352.119 214.022,351.775 214.154 C 351.431 214.286,351.261 214.576,351.398 214.797 C 351.535 215.019,351.347 215.200,350.981 215.200 C 350.515 215.200,350.394 215.407,350.578 215.888 C 350.724 216.266,350.732 216.465,350.597 216.331 C 350.462 216.196,349.508 217.011,348.476 218.143 C 347.444 219.274,346.375 220.344,346.100 220.520 C 345.825 220.696,345.600 221.101,345.600 221.420 C 345.600 221.739,345.319 222.000,344.976 222.000 C 344.633 222.000,344.464 222.180,344.600 222.400 C 344.736 222.620,344.602 222.800,344.302 222.800 C 344.002 222.800,343.146 223.430,342.400 224.200 C 341.654 224.970,340.798 225.600,340.498 225.600 C 340.198 225.600,340.051 225.760,340.172 225.955 C 340.292 226.150,340.078 226.422,339.696 226.561 C 338.934 226.837,338.507 227.091,335.092 229.304 C 333.823 230.127,332.608 230.800,332.392 230.800 C 332.177 230.800,332.000 230.950,332.000 231.133 C 332.000 231.317,331.775 231.486,331.500 231.510 C 330.562 231.591,329.801 231.838,328.800 232.387 C 328.250 232.688,327.800 232.884,327.800 232.822 C 327.800 232.759,327.035 232.937,326.100 233.217 C 325.165 233.497,324.400 233.878,324.400 234.063 C 324.400 234.248,323.950 234.400,323.400 234.400 C 322.761 234.400,322.400 234.625,322.400 235.024 C 322.400 235.367,322.217 235.534,321.993 235.396 C 321.770 235.258,321.714 234.932,321.870 234.672 C 322.058 234.359,321.941 234.372,321.523 234.710 C 321.177 234.991,320.259 235.245,319.483 235.274 C 318.647 235.305,318.142 235.504,318.241 235.763 C 318.358 236.068,316.927 236.164,313.504 236.082 C 310.047 235.998,308.777 236.085,309.200 236.375 C 309.826 236.806,309.826 236.806,307.900 236.960 C 307.625 236.982,307.448 236.767,307.506 236.483 C 307.588 236.081,307.427 236.065,306.780 236.411 C 306.322 236.656,305.596 236.924,305.166 237.007 C 303.319 237.362,299.951 240.611,299.860 242.125 C 299.827 242.674,299.684 243.052,299.542 242.964 C 299.092 242.686,298.916 243.707,298.832 247.068 C 298.741 250.745,299.379 252.507,301.583 254.662 C 302.825 255.875,303.204 256.103,306.146 257.400 C 307.964 258.201,316.649 258.153,317.639 257.337 C 317.947 257.082,319.370 256.782,320.800 256.670 C 322.230 256.558,324.390 256.264,325.600 256.016 C 326.810 255.769,328.387 255.464,329.104 255.339 C 329.821 255.214,330.506 254.951,330.627 254.756 C 330.748 254.560,331.190 254.400,331.610 254.400 C 332.030 254.400,333.054 254.105,333.886 253.745 C 334.719 253.384,335.760 252.958,336.200 252.798 C 341.378 250.914,346.270 248.241,352.800 243.728 C 363.299 236.471,373.003 223.698,378.120 210.400 C 379.791 206.056,379.605 206.682,380.854 201.200 C 381.079 200.210,381.348 198.500,381.451 197.400 C 381.554 196.300,381.855 194.968,382.119 194.439 C 382.451 193.776,382.600 190.669,382.600 184.400 C 382.600 178.131,382.451 175.024,382.119 174.361 C 381.855 173.832,381.547 172.500,381.435 171.400 C 381.054 167.664,380.719 165.801,380.359 165.420 C 380.162 165.211,380.000 164.668,380.000 164.214 C 380.000 162.689,376.613 154.264,374.125 149.600 C 369.447 140.830,363.164 133.398,354.360 126.217 C 352.413 124.630,348.475 122.000,348.044 122.000 C 347.800 122.000,347.600 121.859,347.600 121.686 C 347.600 121.514,345.755 120.447,343.500 119.316 C 337.399 116.257,335.922 115.600,335.148 115.600 C 334.763 115.600,334.336 115.420,334.200 115.200 C 334.064 114.980,333.524 114.800,333.000 114.800 C 332.476 114.800,331.948 114.640,331.827 114.444 C 331.706 114.249,331.021 113.998,330.304 113.887 C 329.587 113.776,328.010 113.375,326.800 112.996 C 323.339 111.912,319.953 111.531,312.126 111.342 L 304.851 111.166 304.647 104.283 C 304.367 94.883,303.288 85.591,302.362 84.620 C 302.163 84.411,302.000 83.567,302.000 82.744 C 302.000 81.921,301.820 81.136,301.600 81.000 C 301.380 80.864,301.200 80.232,301.200 79.595 C 301.200 78.959,301.036 78.024,300.836 77.519 C 300.636 77.013,300.170 75.565,299.799 74.301 C 299.429 73.036,298.963 71.901,298.763 71.777 C 298.563 71.654,298.400 71.201,298.400 70.771 C 298.400 70.341,298.234 69.677,298.032 69.295 C 297.830 68.913,297.256 67.520,296.757 66.200 C 294.641 60.601,287.363 47.769,283.749 43.267 C 277.401 35.358,273.722 31.503,267.196 25.922 C 263.959 23.154,257.476 18.425,256.900 18.412 C 256.625 18.405,256.400 18.220,256.400 18.000 C 256.400 17.780,256.189 17.600,255.931 17.600 C 255.674 17.600,255.172 17.337,254.817 17.016 C 253.933 16.216,246.544 12.335,242.400 10.494 C 240.886 9.822,238.010 8.672,234.200 7.217 C 232.301 6.491,230.483 6.000,229.695 6.000 C 229.229 6.000,228.736 5.820,228.600 5.600 C 228.464 5.380,227.748 5.200,227.010 5.200 C 226.271 5.200,225.606 5.018,225.532 4.795 C 225.350 4.251,218.728 3.015,212.400 2.345 C 207.454 1.820,191.854 1.478,191.450 1.885 M142.101 238.600 C 142.105 239.480,142.187 239.793,142.283 239.295 C 142.379 238.798,142.375 238.078,142.275 237.695 C 142.175 237.313,142.096 237.720,142.101 238.600 " stroke="none" fill="#444c54" fill-rule="evenodd"></path></g></svg>