<svg id="svg" version="1.1" xmlns="http://www.w3.org/2000/svg" xmlns:xlink="http://www.w3.org/1999/xlink" width="400" height="400" viewBox="0, 0, 400,400"><g id="svgg"><path id="path0" d="M186.919 0.562 C 186.215 0.818,185.510 1.157,185.353 1.314 C 185.195 1.471,184.770 1.600,184.407 1.600 C 183.098 1.600,175.200 6.161,175.200 6.917 C 175.200 7.099,175.045 7.151,174.855 7.034 C 173.516 6.206,163.792 17.725,162.342 21.856 C 162.044 22.705,161.575 23.638,161.300 23.929 C 161.025 24.219,160.800 24.794,160.800 25.205 C 160.800 25.616,160.641 26.051,160.446 26.171 C 160.251 26.292,159.999 26.887,159.886 27.495 C 159.773 28.103,159.310 30.062,158.858 31.849 C 157.450 37.417,157.891 49.261,159.627 52.495 C 159.832 52.877,160.000 53.437,160.000 53.740 C 160.000 54.678,162.357 60.062,163.697 62.183 C 167.890 68.823,173.935 74.773,178.800 77.049 C 179.130 77.204,179.901 77.678,180.514 78.103 C 181.127 78.527,181.847 78.918,182.114 78.971 C 182.645 79.076,184.594 79.877,185.695 80.443 C 186.077 80.639,186.831 80.800,187.371 80.800 C 187.911 80.800,188.464 80.980,188.600 81.200 C 188.736 81.420,189.521 81.600,190.344 81.600 C 191.167 81.600,192.065 81.825,192.340 82.100 C 193.051 82.811,206.949 82.811,207.660 82.100 C 207.935 81.825,208.833 81.600,209.656 81.600 C 210.479 81.600,211.264 81.420,211.400 81.200 C 211.536 80.980,212.141 80.800,212.744 80.800 C 213.347 80.800,214.011 80.642,214.220 80.448 C 214.429 80.255,215.320 79.868,216.200 79.589 C 217.628 79.136,218.740 78.555,223.336 75.858 C 230.034 71.928,240.000 58.646,240.000 53.648 C 240.000 53.270,240.184 52.776,240.409 52.551 C 240.634 52.326,240.900 51.502,241.001 50.720 C 241.101 49.938,241.357 48.839,241.570 48.278 C 242.075 46.952,242.075 34.248,241.570 32.922 C 241.357 32.361,241.101 31.262,241.001 30.480 C 240.900 29.698,240.634 28.874,240.409 28.649 C 240.184 28.424,240.000 27.914,240.000 27.515 C 240.000 27.116,239.836 26.477,239.636 26.095 C 239.436 25.713,238.814 24.281,238.253 22.913 C 234.355 13.399,225.670 5.485,214.047 0.857 C 211.517 -0.150,189.532 -0.389,186.919 0.562 M204.480 19.245 C 222.817 23.095,228.062 47.467,212.885 58.297 C 199.726 67.687,181.385 60.246,178.560 44.371 C 175.875 29.283,189.479 16.095,204.480 19.245 M135.600 62.656 C 134.583 63.000,133.030 63.675,132.400 64.047 C 132.070 64.242,131.391 64.579,130.891 64.795 C 130.098 65.137,127.423 66.723,124.977 68.301 C 124.549 68.576,123.791 68.979,123.291 69.195 C 122.498 69.537,119.823 71.123,117.377 72.701 C 116.949 72.976,116.233 73.363,115.785 73.559 C 114.626 74.066,112.256 76.788,111.743 78.203 C 110.778 80.859,110.390 83.234,110.796 83.993 C 111.018 84.408,111.200 85.126,111.200 85.590 C 111.200 88.463,115.281 92.558,119.000 93.417 C 122.949 94.329,125.805 93.439,132.223 89.299 C 132.651 89.024,133.450 88.606,134.000 88.371 C 134.550 88.136,135.931 87.327,137.068 86.572 C 138.205 85.817,139.230 85.200,139.346 85.200 C 139.813 85.200,144.461 82.303,145.313 81.481 C 147.211 79.650,147.782 78.356,148.676 73.861 C 149.415 70.144,145.012 63.600,141.772 63.600 C 141.494 63.600,141.203 63.409,141.125 63.175 C 140.975 62.724,136.611 62.313,135.600 62.656 M258.150 63.545 C 254.589 65.107,252.000 67.887,252.000 70.148 C 252.000 70.701,251.838 71.253,251.640 71.375 C 251.221 71.634,251.349 74.275,251.895 76.650 C 252.583 79.642,255.283 82.436,259.600 84.621 C 260.810 85.233,262.070 85.956,262.400 86.227 C 263.050 86.760,266.547 88.748,268.800 89.865 C 269.570 90.246,270.290 90.675,270.400 90.819 C 271.366 92.076,275.721 93.647,278.400 93.705 C 281.376 93.768,287.261 91.069,286.572 89.955 C 286.452 89.760,286.546 89.600,286.782 89.600 C 287.455 89.600,288.797 87.121,288.799 85.874 C 288.799 85.254,288.980 84.412,289.199 84.002 C 289.627 83.203,288.775 79.096,287.789 77.200 C 286.700 75.108,282.389 72.077,275.200 68.349 C 273.770 67.607,272.381 66.794,272.114 66.542 C 271.846 66.291,270.856 65.697,269.914 65.223 C 268.971 64.749,267.930 64.217,267.600 64.042 C 267.270 63.868,266.572 63.500,266.048 63.226 C 264.166 62.241,260.812 62.377,258.150 63.545 M52.400 77.205 C 52.070 77.416,51.237 77.591,50.549 77.594 C 49.861 77.597,48.646 77.872,47.849 78.205 C 47.052 78.538,46.400 78.712,46.400 78.591 C 46.400 78.471,45.995 78.594,45.500 78.866 C 45.005 79.138,44.240 79.420,43.800 79.492 C 43.360 79.564,42.940 79.798,42.867 80.012 C 42.793 80.225,42.516 80.400,42.251 80.400 C 39.634 80.400,30.429 87.312,26.800 92.000 C 26.034 92.990,25.136 94.102,24.804 94.471 C 23.846 95.537,20.195 102.820,19.626 104.800 C 19.342 105.790,18.960 106.960,18.779 107.400 C 18.598 107.840,18.357 108.830,18.245 109.600 C 18.132 110.370,17.836 112.170,17.588 113.600 C 17.089 116.468,17.319 124.869,17.939 126.430 C 18.150 126.964,18.551 128.480,18.829 129.800 C 19.106 131.120,19.578 132.695,19.877 133.300 C 20.176 133.905,20.316 134.400,20.189 134.400 C 19.911 134.400,23.963 142.012,24.574 142.637 C 24.808 142.877,25.450 143.686,26.000 144.435 C 29.680 149.448,38.844 156.800,41.412 156.800 C 41.735 156.800,42.000 156.966,42.000 157.168 C 42.000 157.371,42.585 157.662,43.300 157.815 C 44.015 157.969,44.780 158.203,45.000 158.336 C 45.220 158.469,45.580 158.615,45.800 158.661 C 46.020 158.707,46.740 158.922,47.400 159.138 C 48.060 159.355,49.292 159.746,50.139 160.006 C 52.058 160.597,67.191 160.647,68.275 160.067 C 68.689 159.845,69.561 159.588,70.214 159.495 C 70.866 159.403,71.670 159.225,72.000 159.100 C 72.330 158.975,73.545 158.551,74.700 158.157 C 75.855 157.764,76.800 157.298,76.800 157.121 C 76.800 156.944,77.115 156.787,77.500 156.771 C 77.885 156.755,78.740 156.397,79.400 155.975 C 80.060 155.554,80.870 155.089,81.200 154.942 C 85.587 152.994,96.384 141.332,96.950 137.929 C 96.999 137.638,97.294 136.950,97.607 136.400 C 98.224 135.315,99.135 133.021,99.393 131.898 C 99.482 131.513,99.672 131.007,99.816 130.774 C 99.960 130.541,100.168 129.777,100.278 129.075 C 100.389 128.374,100.648 127.484,100.855 127.098 C 101.311 126.245,101.268 111.274,100.807 110.412 C 100.627 110.075,100.389 109.226,100.278 108.525 C 100.168 107.823,99.958 107.055,99.811 106.818 C 99.665 106.581,99.457 105.895,99.349 105.293 C 99.241 104.692,98.984 104.140,98.776 104.067 C 98.569 103.993,98.400 103.633,98.400 103.267 C 98.400 102.384,95.548 96.400,95.128 96.400 C 94.948 96.400,94.800 96.209,94.800 95.977 C 94.800 94.123,83.247 82.800,81.356 82.800 C 81.087 82.800,80.807 82.665,80.733 82.500 C 80.554 82.097,77.130 80.397,76.500 80.399 C 76.225 80.400,76.000 80.248,76.000 80.063 C 76.000 79.782,73.544 78.851,72.504 78.737 C 72.337 78.719,71.750 78.520,71.200 78.294 C 68.440 77.162,53.798 76.314,52.400 77.205 M333.600 77.184 C 333.270 77.406,332.437 77.591,331.749 77.594 C 331.061 77.597,329.846 77.872,329.049 78.205 C 328.252 78.538,327.600 78.712,327.600 78.591 C 327.600 78.471,327.195 78.594,326.700 78.866 C 326.205 79.138,325.440 79.420,325.000 79.492 C 324.560 79.564,324.140 79.798,324.067 80.012 C 323.993 80.225,323.689 80.400,323.391 80.400 C 322.198 80.400,315.330 84.660,313.280 86.672 C 312.994 86.953,312.544 87.321,312.280 87.491 C 311.150 88.218,306.803 93.281,307.015 93.624 C 307.143 93.831,307.055 94.000,306.820 94.000 C 306.385 94.000,303.902 97.746,304.009 98.240 C 304.042 98.389,303.897 98.621,303.687 98.755 C 303.158 99.095,301.600 102.409,301.600 103.195 C 301.600 103.550,301.442 104.011,301.248 104.220 C 300.849 104.652,300.055 107.004,299.760 108.631 C 299.651 109.232,299.399 110.029,299.199 110.402 C 298.599 111.523,298.770 125.485,299.413 127.936 C 301.644 136.439,305.038 142.663,310.382 148.050 C 314.509 152.210,319.056 155.586,321.272 156.136 C 321.862 156.282,322.605 156.662,322.924 156.981 C 323.243 157.300,324.020 157.684,324.652 157.835 C 325.283 157.987,326.025 158.288,326.300 158.504 C 326.575 158.721,326.800 158.781,326.800 158.639 C 326.800 158.496,327.331 158.654,327.980 158.990 C 328.629 159.325,329.673 159.600,330.300 159.600 C 330.927 159.600,331.636 159.796,331.876 160.036 C 332.439 160.599,348.411 160.636,349.458 160.077 C 349.866 159.859,350.740 159.625,351.400 159.556 C 352.060 159.487,352.780 159.313,353.000 159.170 C 353.220 159.027,353.921 158.785,354.558 158.633 C 355.787 158.339,360.670 156.027,362.479 154.882 C 366.430 152.384,370.087 149.421,369.699 149.032 C 369.571 148.904,369.722 148.785,370.033 148.767 C 370.573 148.736,372.774 146.317,375.161 143.132 C 375.766 142.325,377.127 139.895,378.185 137.732 C 379.244 135.570,380.265 133.487,380.455 133.105 C 380.645 132.723,380.800 131.969,380.800 131.429 C 380.800 130.889,380.980 130.336,381.200 130.200 C 381.420 130.064,381.600 129.356,381.600 128.627 C 381.600 127.897,381.864 126.552,382.187 125.638 C 382.942 123.497,382.869 111.909,382.095 111.135 C 381.823 110.863,381.600 110.104,381.600 109.448 C 381.600 108.321,381.100 106.377,380.353 104.600 C 379.616 102.847,379.071 101.372,378.965 100.840 C 378.904 100.532,378.706 100.172,378.527 100.040 C 378.347 99.908,377.685 98.810,377.057 97.600 C 375.112 93.858,368.031 85.600,366.767 85.600 C 366.607 85.600,365.757 85.000,364.879 84.266 C 363.158 82.828,356.048 79.184,354.776 79.088 C 354.349 79.056,354.000 78.908,354.000 78.760 C 354.000 78.612,353.415 78.374,352.700 78.230 C 351.985 78.087,350.500 77.779,349.400 77.545 C 346.622 76.955,334.357 76.675,333.600 77.184 M66.200 98.043 C 81.734 102.883,86.309 123.310,74.381 134.562 C 63.729 144.611,46.367 141.623,39.989 128.643 C 31.365 111.095,47.529 92.224,66.200 98.043 M346.913 97.864 C 359.940 101.688,366.173 116.399,359.988 128.718 C 353.382 141.876,335.796 144.679,325.367 134.237 C 309.371 118.220,325.206 91.490,346.913 97.864 M191.600 131.609 C 144.554 138.146,117.669 187.431,138.013 229.843 C 154.456 264.123,196.042 278.548,230.200 261.821 C 270.991 241.846,281.571 188.843,251.619 154.521 C 237.105 137.891,212.898 128.650,191.600 131.609 M212.600 132.780 C 241.507 138.633,261.973 159.680,267.655 189.400 C 268.373 193.151,268.372 206.854,267.654 210.600 C 261.028 245.196,234.185 268.109,200.200 268.179 C 149.162 268.285,116.166 215.018,139.010 169.400 C 152.574 142.314,183.552 126.899,212.600 132.780 M57.600 180.000 C 57.270 180.213,56.623 180.391,56.161 180.394 C 54.103 180.409,51.077 182.847,49.790 185.526 C 49.401 186.337,48.935 187.303,48.754 187.674 C 48.280 188.647,48.335 211.913,48.812 212.207 C 49.025 212.339,49.201 212.752,49.202 213.124 C 49.207 215.175,52.939 218.877,55.789 219.659 C 61.959 221.350,66.336 219.430,69.143 213.800 L 70.340 211.400 70.345 199.990 C 70.349 188.003,70.404 188.447,68.454 184.463 C 67.468 182.448,64.405 180.400,62.378 180.400 C 61.756 180.400,61.136 180.220,61.000 180.000 C 60.685 179.490,58.388 179.490,57.600 180.000 M339.023 179.962 C 338.874 180.203,338.251 180.400,337.638 180.400 C 335.112 180.400,332.491 182.562,330.850 186.000 L 329.800 188.200 329.800 200.039 C 329.800 208.679,329.935 212.166,330.300 212.939 C 330.575 213.523,331.025 214.480,331.300 215.067 C 333.709 220.205,341.671 221.847,347.015 218.307 C 348.440 217.363,350.374 214.998,350.382 214.190 C 350.383 214.081,350.657 213.462,350.992 212.816 C 351.495 211.843,351.600 209.634,351.600 200.011 L 351.600 188.383 350.336 185.790 C 348.791 182.622,346.672 180.913,343.400 180.198 C 340.755 179.620,339.284 179.540,339.023 179.962 M57.995 239.337 C 57.882 239.451,56.275 239.584,54.425 239.633 C 52.575 239.682,50.597 239.860,50.030 240.028 C 45.634 241.334,43.817 242.005,40.000 243.732 C 38.684 244.328,35.906 246.083,35.400 246.638 C 35.180 246.880,34.370 247.459,33.600 247.925 C 31.130 249.420,25.441 255.708,23.581 259.000 C 21.206 263.202,19.973 265.600,20.186 265.600 C 20.315 265.600,20.176 266.095,19.877 266.700 C 19.578 267.305,19.106 268.880,18.829 270.200 C 18.551 271.520,18.150 273.036,17.939 273.570 C 17.343 275.070,17.086 283.519,17.555 286.200 C 17.786 287.520,18.078 289.230,18.204 290.000 C 18.463 291.582,19.139 294.204,19.598 295.400 C 20.586 297.980,21.414 299.826,21.664 300.008 C 21.821 300.122,22.298 301.022,22.723 302.008 C 24.610 306.381,31.501 313.759,36.515 316.773 C 38.801 318.147,41.743 319.596,42.251 319.598 C 42.499 319.599,42.924 319.868,43.196 320.196 C 43.468 320.523,43.818 320.712,43.974 320.616 C 44.130 320.520,44.773 320.708,45.402 321.035 C 46.032 321.362,46.762 321.547,47.025 321.446 C 47.288 321.345,47.675 321.435,47.885 321.645 C 49.621 323.381,69.179 323.381,70.915 321.645 C 71.125 321.435,71.548 321.359,71.854 321.476 C 72.160 321.593,72.647 321.493,72.936 321.253 C 73.226 321.012,73.814 320.762,74.243 320.697 C 74.996 320.582,79.630 318.325,82.294 316.776 C 83.964 315.804,88.799 312.007,88.803 311.663 C 88.805 311.519,89.876 310.265,91.183 308.877 C 92.491 307.490,93.672 306.005,93.807 305.577 C 93.943 305.150,94.222 304.800,94.427 304.800 C 94.632 304.800,94.800 304.530,94.800 304.200 C 94.800 303.870,94.948 303.600,95.128 303.600 C 95.308 303.600,96.137 302.115,96.970 300.300 C 97.802 298.485,98.655 296.632,98.865 296.183 C 99.075 295.733,99.286 295.103,99.334 294.783 C 99.383 294.462,99.556 293.987,99.718 293.727 C 100.860 291.900,101.758 275.163,100.837 272.848 C 100.608 272.272,100.341 271.321,100.243 270.735 C 100.146 270.149,99.889 269.339,99.672 268.935 C 99.456 268.531,99.280 268.057,99.281 267.883 C 99.306 263.889,90.130 250.977,84.935 247.695 C 83.981 247.093,83.201 246.465,83.201 246.300 C 83.200 246.135,82.930 246.000,82.600 246.000 C 82.270 246.000,82.000 245.858,82.000 245.684 C 82.000 245.111,73.640 241.200,72.413 241.200 C 71.992 241.200,71.536 241.020,71.400 240.800 C 71.264 240.580,70.544 240.400,69.800 240.400 C 69.056 240.400,68.354 240.250,68.241 240.066 C 68.128 239.883,66.902 239.702,65.517 239.664 C 64.133 239.627,61.920 239.491,60.600 239.363 C 59.280 239.235,58.108 239.223,57.995 239.337 M339.149 239.385 C 339.061 239.472,337.462 239.580,335.595 239.624 C 333.728 239.667,332.020 239.841,331.800 240.010 C 331.580 240.179,330.744 240.403,329.942 240.509 C 329.140 240.614,328.240 240.853,327.942 241.039 C 327.644 241.225,327.056 241.430,326.635 241.496 C 326.214 241.561,324.814 242.152,323.523 242.807 C 322.232 243.463,320.998 244.000,320.779 244.000 C 320.285 244.000,317.267 245.958,316.311 246.900 C 315.920 247.285,315.441 247.600,315.247 247.600 C 314.452 247.600,307.596 254.814,305.681 257.665 C 302.965 261.709,300.129 268.112,299.774 271.000 C 299.720 271.440,299.488 272.283,299.258 272.873 C 298.729 274.233,298.699 288.664,299.224 289.645 C 299.437 290.044,299.681 290.872,299.766 291.485 C 299.955 292.861,300.790 295.269,301.255 295.780 C 301.445 295.989,301.600 296.450,301.600 296.805 C 301.600 300.463,313.843 316.000,316.725 316.000 C 316.950 316.000,317.193 316.157,317.267 316.350 C 317.416 316.741,325.200 320.881,325.200 320.570 C 325.200 320.461,325.601 320.586,326.091 320.848 C 327.077 321.376,328.781 321.861,331.800 322.471 C 334.827 323.083,345.948 323.339,347.598 322.835 C 348.369 322.599,349.540 322.343,350.200 322.266 C 350.860 322.190,351.670 322.034,352.000 321.920 C 352.330 321.806,353.320 321.492,354.200 321.222 C 355.750 320.747,359.994 318.818,360.400 318.404 C 360.510 318.292,360.833 318.152,361.117 318.094 C 363.027 317.704,370.158 311.970,372.491 308.950 C 373.431 307.733,374.595 306.267,375.078 305.693 C 375.561 305.118,376.281 304.008,376.678 303.224 C 377.075 302.441,377.502 301.710,377.628 301.600 C 377.979 301.291,379.765 297.473,379.865 296.817 C 379.914 296.497,380.119 295.867,380.321 295.417 C 381.057 293.783,381.600 291.717,381.600 290.552 C 381.600 289.896,381.823 289.137,382.095 288.865 C 382.869 288.091,382.942 276.503,382.187 274.362 C 381.864 273.448,381.600 272.103,381.600 271.373 C 381.600 270.644,381.420 269.936,381.200 269.800 C 380.980 269.664,380.800 269.111,380.800 268.571 C 380.800 268.031,380.638 267.277,380.440 266.895 C 380.241 266.513,379.395 264.715,378.558 262.900 C 377.722 261.085,376.894 259.600,376.719 259.600 C 376.543 259.600,376.400 259.343,376.400 259.029 C 376.400 258.714,376.169 258.219,375.887 257.929 C 375.605 257.638,374.936 256.770,374.400 256.000 C 373.281 254.391,373.320 254.436,370.402 251.394 C 369.193 250.134,367.393 248.558,366.402 247.892 C 365.411 247.225,364.240 246.370,363.800 245.990 C 361.595 244.090,355.465 241.488,349.800 240.047 C 348.178 239.635,339.442 239.091,339.149 239.385 M65.227 260.239 C 89.447 267.357,84.600 302.886,59.400 302.958 C 40.380 303.013,30.472 280.433,43.393 266.477 C 48.806 260.630,57.808 258.058,65.227 260.239 M346.348 260.181 C 362.288 264.424,367.817 284.835,356.205 296.570 C 345.661 307.225,327.605 304.352,321.206 291.000 C 313.022 273.925,328.179 255.345,346.348 260.181 M118.931 306.800 C 115.428 307.530,112.419 310.180,111.579 313.275 C 111.321 314.224,110.929 315.495,110.707 316.100 C 110.435 316.840,110.435 317.560,110.707 318.300 C 110.929 318.905,111.313 320.149,111.561 321.066 C 112.119 323.127,114.632 325.999,116.778 327.027 C 117.665 327.452,118.393 327.915,118.395 328.057 C 118.398 328.198,119.075 328.604,119.900 328.959 C 120.725 329.314,122.543 330.323,123.940 331.202 C 125.337 332.081,126.629 332.800,126.812 332.800 C 126.994 332.800,127.381 333.025,127.671 333.300 C 128.242 333.839,130.716 335.236,133.600 336.646 C 141.003 340.267,150.825 332.298,148.414 324.628 C 148.202 323.953,147.923 322.885,147.795 322.255 C 147.520 320.901,144.002 317.271,142.000 316.275 C 140.510 315.533,140.129 315.311,137.000 313.366 C 135.900 312.682,134.010 311.581,132.800 310.919 C 128.556 308.599,126.596 307.490,126.200 307.186 C 125.543 306.682,120.726 306.426,118.931 306.800 M275.122 306.939 C 274.090 307.228,273.008 307.662,272.718 307.902 C 272.429 308.142,270.780 309.073,269.054 309.972 C 267.329 310.870,265.419 311.959,264.811 312.392 C 264.203 312.825,262.488 313.825,260.999 314.615 C 259.510 315.405,258.052 316.265,257.760 316.526 C 256.463 317.682,256.073 317.940,255.892 317.759 C 255.540 317.407,252.386 321.313,252.171 322.367 C 252.055 322.935,251.773 324.038,251.543 324.818 C 250.959 326.804,251.619 330.194,253.025 332.433 C 255.204 335.900,258.852 337.752,262.982 337.486 C 264.547 337.385,265.831 337.108,265.916 336.853 C 265.999 336.604,266.316 336.400,266.621 336.400 C 266.926 336.400,267.856 336.015,268.688 335.543 C 269.520 335.072,271.010 334.235,272.000 333.683 C 272.990 333.131,273.890 332.562,274.000 332.419 C 274.110 332.275,274.830 331.848,275.600 331.468 C 277.160 330.699,277.558 330.467,281.028 328.310 C 282.363 327.479,283.625 326.800,283.832 326.800 C 284.661 326.800,287.587 323.453,288.134 321.878 C 289.517 317.899,289.702 316.937,289.245 316.084 C 289.000 315.627,288.800 314.872,288.800 314.406 C 288.800 309.476,281.091 305.267,275.122 306.939 M194.400 317.624 C 193.410 317.799,191.835 318.110,190.900 318.317 C 189.965 318.524,189.200 318.605,189.200 318.497 C 189.200 318.390,188.923 318.532,188.584 318.814 C 188.244 319.095,187.569 319.347,187.084 319.374 C 186.598 319.402,185.976 319.564,185.702 319.735 C 185.427 319.905,184.877 320.108,184.479 320.185 C 175.953 321.827,162.987 335.601,159.990 346.200 C 158.154 352.694,158.063 353.312,158.058 359.332 C 158.053 365.136,158.322 367.174,159.676 371.600 C 160.364 373.847,161.350 376.180,161.723 376.445 C 161.913 376.579,162.034 376.812,161.993 376.962 C 161.607 378.352,165.564 384.268,170.000 388.932 C 173.593 392.710,182.283 398.400,184.459 398.400 C 184.830 398.400,185.193 398.569,185.267 398.776 C 185.545 399.563,188.160 399.764,199.856 399.896 L 211.911 400.033 215.256 398.639 C 221.218 396.153,226.993 392.596,228.800 390.297 C 229.130 389.877,230.159 388.805,231.086 387.915 C 234.371 384.761,240.000 374.994,240.000 372.448 C 240.000 372.070,240.184 371.576,240.409 371.351 C 240.781 370.979,241.239 368.872,241.334 367.100 C 241.355 366.715,241.504 366.400,241.667 366.400 C 242.107 366.400,242.018 352.899,241.569 351.719 C 241.357 351.160,241.101 350.062,241.001 349.280 C 240.900 348.498,240.634 347.674,240.409 347.449 C 240.184 347.224,240.000 346.730,240.000 346.352 C 240.000 340.681,229.036 326.966,221.331 323.000 C 220.049 322.340,218.940 321.665,218.867 321.500 C 218.793 321.335,218.551 321.200,218.327 321.200 C 218.104 321.200,217.264 320.912,216.460 320.559 C 213.535 319.276,211.490 318.646,208.800 318.201 C 208.030 318.074,206.500 317.810,205.400 317.614 C 202.976 317.183,196.872 317.189,194.400 317.624 M204.445 337.998 C 214.247 339.806,221.761 349.093,221.761 359.400 C 221.761 379.057,197.714 388.667,184.248 374.392 C 169.620 358.885,183.370 334.109,204.445 337.998 " stroke="none" fill="#74c4fc" fill-rule="evenodd"></path><path id="path1" d="M188.800 111.593 C 188.470 111.810,187.458 111.991,186.551 111.994 C 185.644 111.997,183.484 112.380,181.751 112.845 C 180.018 113.309,177.924 113.778,177.097 113.887 C 176.271 113.996,175.495 114.245,175.374 114.442 C 175.252 114.639,174.634 114.800,174.000 114.800 C 173.366 114.800,172.736 114.980,172.600 115.200 C 172.464 115.420,171.924 115.600,171.400 115.600 C 170.876 115.600,170.336 115.780,170.200 116.000 C 170.064 116.220,169.698 116.400,169.387 116.400 C 169.076 116.400,167.782 116.869,166.511 117.441 C 165.240 118.014,163.750 118.669,163.200 118.898 C 162.650 119.126,161.300 119.769,160.200 120.327 C 158.293 121.295,157.225 121.877,154.300 123.539 C 144.002 129.391,132.886 140.130,125.580 151.287 C 121.967 156.804,116.400 167.780,116.400 169.387 C 116.400 169.698,116.241 170.051,116.046 170.171 C 115.851 170.292,115.596 170.887,115.479 171.495 C 115.362 172.103,115.059 173.320,114.806 174.200 C 114.554 175.080,114.189 176.430,113.995 177.200 C 113.802 177.970,113.343 179.680,112.975 181.000 C 110.842 188.657,110.842 211.343,112.975 219.000 C 113.343 220.320,113.802 222.030,113.995 222.800 C 114.189 223.570,114.539 224.875,114.773 225.700 C 115.008 226.525,115.359 227.785,115.553 228.500 C 115.948 229.956,116.319 230.925,117.586 233.813 C 121.375 242.449,126.453 250.799,131.688 257.000 C 136.451 262.642,136.265 262.454,143.231 268.625 C 144.793 270.008,152.318 275.336,154.300 276.462 C 157.283 278.155,158.309 278.713,160.400 279.774 C 161.610 280.387,162.913 281.049,163.295 281.245 C 163.677 281.440,164.262 281.600,164.595 281.600 C 164.928 281.600,165.200 281.743,165.200 281.917 C 165.200 282.092,166.235 282.573,167.500 282.988 C 168.765 283.402,169.971 283.890,170.180 284.071 C 170.389 284.252,170.963 284.400,171.456 284.400 C 171.949 284.400,172.464 284.580,172.600 284.800 C 172.736 285.020,173.366 285.200,174.000 285.200 C 174.634 285.200,175.264 285.380,175.400 285.600 C 175.536 285.820,176.231 286.000,176.944 286.000 C 177.657 286.000,178.426 286.186,178.654 286.414 C 179.086 286.846,181.470 287.372,186.200 288.080 C 189.831 288.623,210.169 288.623,213.800 288.080 C 218.530 287.372,220.914 286.846,221.346 286.414 C 221.574 286.186,222.343 286.000,223.056 286.000 C 223.769 286.000,224.464 285.820,224.600 285.600 C 224.736 285.380,225.289 285.200,225.829 285.200 C 226.369 285.200,227.123 285.038,227.505 284.839 C 227.887 284.640,229.010 284.241,230.000 283.952 C 230.990 283.663,232.250 283.196,232.800 282.915 C 233.350 282.635,234.025 282.404,234.300 282.402 C 234.575 282.401,234.800 282.220,234.800 282.000 C 234.800 281.780,235.075 281.600,235.411 281.600 C 236.265 281.600,241.856 278.918,243.872 277.542 C 244.792 276.914,245.643 276.400,245.764 276.400 C 246.331 276.400,254.380 270.750,256.496 268.866 C 263.595 262.547,264.295 261.846,268.800 256.562 C 273.165 251.441,279.015 242.033,281.212 236.600 C 281.390 236.160,281.971 234.810,282.504 233.600 C 283.872 230.494,284.171 229.592,285.688 224.000 C 285.897 223.230,286.252 222.060,286.477 221.400 C 288.013 216.894,288.499 211.755,288.499 200.000 C 288.499 188.221,288.004 183.008,286.468 178.600 C 286.237 177.940,285.834 176.590,285.571 175.600 C 284.009 169.730,283.619 168.695,280.135 161.200 C 277.473 155.474,272.456 147.657,268.600 143.227 C 263.069 136.873,259.168 133.160,253.800 129.140 C 252.040 127.822,250.283 126.486,249.895 126.172 C 249.508 125.857,249.072 125.600,248.927 125.600 C 248.782 125.600,248.379 125.348,248.031 125.041 C 247.684 124.733,246.750 124.120,245.955 123.678 C 243.126 122.106,242.598 121.798,242.400 121.600 C 242.179 121.379,237.868 119.296,236.600 118.797 C 236.160 118.624,234.810 118.040,233.600 117.499 C 232.390 116.958,230.680 116.287,229.800 116.008 C 228.920 115.730,227.887 115.344,227.505 115.151 C 227.123 114.958,226.369 114.800,225.829 114.800 C 225.289 114.800,224.748 114.639,224.626 114.442 C 224.505 114.245,223.729 113.992,222.903 113.878 C 222.076 113.765,220.320 113.365,219.000 112.990 C 214.055 111.583,190.474 110.492,188.800 111.593 M213.845 132.566 C 257.886 141.818,281.527 189.926,261.823 230.200 C 243.596 267.456,196.509 280.327,162.213 257.427 C 120.975 229.891,120.842 170.425,161.957 142.750 C 176.935 132.669,196.270 128.874,213.845 132.566 " stroke="none" fill="#444c54" fill-rule="evenodd"></path></g></svg>