<svg id="svg" version="1.1" xmlns="http://www.w3.org/2000/svg" xmlns:xlink="http://www.w3.org/1999/xlink" width="400" height="400" viewBox="0, 0, 400,400"><g id="svgg"><path id="path0" d="M188.626 22.758 C 188.504 22.955,188.656 23.213,188.964 23.331 C 189.682 23.606,191.200 23.214,191.200 22.753 C 191.200 22.290,188.913 22.294,188.626 22.758 M208.992 23.024 C 209.888 23.702,210.852 23.645,211.100 22.900 C 211.214 22.557,210.786 22.404,209.733 22.413 C 208.285 22.425,208.244 22.459,208.992 23.024 M183.839 23.494 C 183.410 23.923,183.587 24.400,184.176 24.400 C 184.493 24.400,184.852 24.239,184.974 24.042 C 185.229 23.630,184.200 23.134,183.839 23.494 M215.300 23.492 C 215.025 23.588,214.800 23.832,214.800 24.033 C 214.800 24.506,216.283 24.513,216.574 24.042 C 216.840 23.611,215.999 23.248,215.300 23.492 M179.600 24.800 C 179.600 25.020,179.870 25.200,180.200 25.200 C 180.530 25.200,180.800 25.020,180.800 24.800 C 180.800 24.580,180.530 24.400,180.200 24.400 C 179.870 24.400,179.600 24.580,179.600 24.800 M219.200 24.800 C 219.200 25.020,219.470 25.200,219.800 25.200 C 220.130 25.200,220.400 25.020,220.400 24.800 C 220.400 24.580,220.130 24.400,219.800 24.400 C 219.470 24.400,219.200 24.580,219.200 24.800 M176.400 25.600 C 176.400 25.820,176.670 26.000,177.000 26.000 C 177.330 26.000,177.600 25.820,177.600 25.600 C 177.600 25.380,177.330 25.200,177.000 25.200 C 176.670 25.200,176.400 25.380,176.400 25.600 M173.600 26.400 C 173.600 26.620,173.870 26.800,174.200 26.800 C 174.530 26.800,174.800 26.620,174.800 26.400 C 174.800 26.180,174.530 26.000,174.200 26.000 C 173.870 26.000,173.600 26.180,173.600 26.400 M171.200 27.400 C 171.200 27.730,171.380 28.000,171.600 28.000 C 171.820 28.000,172.000 27.730,172.000 27.400 C 172.000 27.070,171.820 26.800,171.600 26.800 C 171.380 26.800,171.200 27.070,171.200 27.400 M249.002 38.402 C 249.402 38.844,249.811 39.122,249.912 39.021 C 250.128 38.805,248.988 37.600,248.567 37.600 C 248.407 37.600,248.603 37.961,249.002 38.402 M146.100 41.798 C 145.357 42.642,145.494 42.873,146.400 42.307 C 146.840 42.032,147.200 41.671,147.200 41.504 C 147.200 41.027,146.649 41.175,146.100 41.798 M134.800 53.000 C 134.800 53.330,134.620 53.600,134.400 53.600 C 134.180 53.600,134.000 53.782,134.000 54.003 C 134.000 54.243,134.326 54.203,134.800 53.907 C 135.633 53.387,135.895 52.400,135.200 52.400 C 134.980 52.400,134.800 52.670,134.800 53.000 M264.400 53.000 C 264.400 53.330,264.580 53.600,264.800 53.600 C 265.020 53.600,265.200 53.330,265.200 53.000 C 265.200 52.670,265.020 52.400,264.800 52.400 C 264.580 52.400,264.400 52.670,264.400 53.000 M122.400 73.400 C 122.400 73.730,122.580 74.000,122.800 74.000 C 123.020 74.000,123.200 73.730,123.200 73.400 C 123.200 73.070,123.020 72.800,122.800 72.800 C 122.580 72.800,122.400 73.070,122.400 73.400 M276.800 73.400 C 276.800 73.730,276.980 74.000,277.200 74.000 C 277.420 74.000,277.600 73.730,277.600 73.400 C 277.600 73.070,277.420 72.800,277.200 72.800 C 276.980 72.800,276.800 73.070,276.800 73.400 M278.400 77.800 C 278.400 78.130,278.580 78.400,278.800 78.400 C 279.020 78.400,279.200 78.130,279.200 77.800 C 279.200 77.470,279.020 77.200,278.800 77.200 C 278.580 77.200,278.400 77.470,278.400 77.800 M280.267 82.667 C 279.806 83.127,279.975 83.600,280.600 83.600 C 280.930 83.600,281.200 83.330,281.200 83.000 C 281.200 82.375,280.727 82.206,280.267 82.667 M118.000 86.167 C 118.000 86.735,118.180 87.200,118.400 87.200 C 118.620 87.200,118.800 86.930,118.800 86.600 C 118.800 86.270,118.814 85.870,118.830 85.710 C 118.846 85.550,118.666 85.356,118.430 85.277 C 118.194 85.198,118.000 85.598,118.000 86.167 M281.200 86.400 C 281.200 86.840,281.380 87.200,281.600 87.200 C 281.820 87.200,282.000 86.840,282.000 86.400 C 282.000 85.960,281.820 85.600,281.600 85.600 C 281.380 85.600,281.200 85.960,281.200 86.400 M117.500 89.429 C 117.335 89.596,117.200 90.189,117.200 90.747 C 117.200 91.475,117.322 91.638,117.634 91.326 C 117.872 91.088,118.007 90.494,117.934 90.008 C 117.860 89.522,117.665 89.261,117.500 89.429 M282.000 90.400 C 282.000 90.840,282.180 91.200,282.400 91.200 C 282.620 91.200,282.800 90.840,282.800 90.400 C 282.800 89.960,282.620 89.600,282.400 89.600 C 282.180 89.600,282.000 89.960,282.000 90.400 M116.400 95.576 C 116.400 96.249,116.580 96.800,116.800 96.800 C 117.020 96.800,117.200 96.361,117.200 95.824 C 117.200 95.287,117.020 94.736,116.800 94.600 C 116.567 94.456,116.400 94.863,116.400 95.576 M283.067 94.667 C 282.648 95.085,282.755 96.800,283.200 96.800 C 283.420 96.800,283.600 96.260,283.600 95.600 C 283.600 94.357,283.519 94.215,283.067 94.667 M115.600 123.424 C 115.600 124.004,115.773 124.340,116.000 124.200 C 116.220 124.064,116.400 123.603,116.400 123.176 C 116.400 122.749,116.220 122.400,116.000 122.400 C 115.780 122.400,115.600 122.861,115.600 123.424 M283.805 122.792 C 283.643 123.055,283.690 123.450,283.910 123.670 C 284.431 124.191,284.845 123.521,284.424 122.838 C 284.178 122.440,284.029 122.429,283.805 122.792 M110.000 130.987 C 110.000 131.345,110.235 131.485,110.600 131.345 C 110.930 131.218,111.200 130.954,111.200 130.757 C 111.200 130.561,110.930 130.400,110.600 130.400 C 110.270 130.400,110.000 130.664,110.000 130.987 M289.200 131.000 C 289.474 131.330,289.850 131.600,290.036 131.600 C 290.223 131.600,290.271 131.330,290.145 131.000 C 290.018 130.670,289.642 130.400,289.308 130.400 C 288.815 130.400,288.795 130.512,289.200 131.000 M85.800 131.582 C 85.226 131.842,85.169 131.964,85.600 132.015 C 86.794 132.158,106.204 131.922,106.367 131.763 C 106.458 131.673,102.678 131.598,97.967 131.596 C 93.255 131.593,88.770 131.508,88.000 131.405 C 87.230 131.303,86.240 131.382,85.800 131.582 M302.600 131.593 L 293.000 131.822 301.800 131.967 C 306.640 132.047,311.320 132.156,312.200 132.209 C 313.080 132.262,314.070 132.152,314.400 131.965 C 314.933 131.662,314.933 131.622,314.400 131.607 C 314.070 131.597,313.440 131.538,313.000 131.477 C 312.560 131.415,307.880 131.467,302.600 131.593 M80.000 132.797 C 80.000 133.016,80.355 133.141,80.790 133.074 C 82.042 132.883,82.241 132.400,81.067 132.400 C 80.480 132.400,80.000 132.579,80.000 132.797 M318.600 132.800 C 318.736 133.020,319.197 133.200,319.624 133.200 C 320.051 133.200,320.400 133.020,320.400 132.800 C 320.400 132.580,319.939 132.400,319.376 132.400 C 318.796 132.400,318.460 132.573,318.600 132.800 M325.200 134.400 C 325.200 134.620,325.470 134.800,325.800 134.800 C 326.130 134.800,326.400 134.620,326.400 134.400 C 326.400 134.180,326.130 134.000,325.800 134.000 C 325.470 134.000,325.200 134.180,325.200 134.400 M54.400 146.000 C 53.850 146.647,53.252 147.181,53.071 147.188 C 52.592 147.206,51.600 148.273,51.600 148.771 C 51.600 149.007,51.420 149.200,51.200 149.200 C 50.980 149.200,50.806 149.425,50.813 149.700 C 50.820 149.975,51.261 149.705,51.793 149.100 C 52.326 148.495,52.873 148.000,53.009 148.000 C 53.146 148.000,53.469 147.767,53.729 147.482 C 55.704 145.311,56.094 144.801,55.770 144.812 C 55.566 144.819,54.950 145.353,54.400 146.000 M344.000 145.040 C 344.000 145.171,344.585 145.806,345.300 146.450 C 346.015 147.094,347.185 148.192,347.900 148.891 C 348.615 149.590,349.200 149.945,349.200 149.681 C 349.200 149.416,349.020 149.200,348.800 149.200 C 348.580 149.200,348.400 149.007,348.400 148.771 C 348.400 148.299,347.413 147.200,346.989 147.200 C 346.842 147.200,346.217 146.660,345.600 146.000 C 344.522 144.846,344.000 144.532,344.000 145.040 M48.400 153.200 C 48.400 153.420,48.130 153.600,47.800 153.600 C 47.470 153.600,47.200 153.786,47.200 154.014 C 47.200 154.299,47.443 154.298,47.978 154.012 C 48.915 153.510,49.411 152.800,48.824 152.800 C 48.591 152.800,48.400 152.980,48.400 153.200 M351.693 153.600 C 352.162 154.351,352.800 154.680,352.800 154.171 C 352.800 153.873,351.725 152.800,351.425 152.800 C 351.298 152.800,351.418 153.160,351.693 153.600 M360.000 170.600 C 360.000 170.930,360.180 171.200,360.400 171.200 C 360.620 171.200,360.800 170.930,360.800 170.600 C 360.800 170.270,360.620 170.000,360.400 170.000 C 360.180 170.000,360.000 170.270,360.000 170.600 M39.200 170.976 C 39.200 171.293,39.361 171.652,39.558 171.774 C 39.970 172.029,40.466 171.000,40.106 170.639 C 39.677 170.210,39.200 170.387,39.200 170.976 M38.400 174.576 C 38.400 175.139,38.580 175.600,38.800 175.600 C 39.020 175.600,39.200 175.251,39.200 174.824 C 39.200 174.397,39.020 173.936,38.800 173.800 C 38.573 173.660,38.400 173.996,38.400 174.576 M361.067 173.867 C 360.652 174.282,360.753 175.600,361.200 175.600 C 361.420 175.600,361.600 175.150,361.600 174.600 C 361.600 173.553,361.508 173.426,361.067 173.867 M149.200 175.200 C 149.200 175.420,148.840 175.600,148.400 175.600 C 147.956 175.600,147.600 175.867,147.600 176.200 C 147.600 176.530,147.399 176.800,147.154 176.800 C 146.285 176.800,144.000 179.731,144.000 180.845 C 144.000 181.444,143.775 182.008,143.500 182.100 C 143.107 182.231,142.977 188.512,142.892 211.333 C 142.823 229.992,142.644 240.400,142.392 240.400 C 142.177 240.400,142.000 241.199,142.000 242.176 C 142.000 243.153,141.820 244.064,141.600 244.200 C 141.380 244.336,141.200 244.887,141.200 245.424 C 141.200 245.961,141.020 246.400,140.800 246.400 C 140.580 246.400,140.400 247.030,140.400 247.800 C 140.400 248.570,140.220 249.200,140.000 249.200 C 139.780 249.200,139.600 249.422,139.600 249.694 C 139.600 249.966,139.126 251.181,138.548 252.394 C 137.969 253.607,137.130 255.365,136.685 256.300 C 136.239 257.235,135.723 258.000,135.537 258.000 C 135.352 258.000,135.200 258.360,135.200 258.800 C 135.200 259.240,135.025 259.600,134.810 259.600 C 134.596 259.600,134.121 260.185,133.754 260.900 C 133.388 261.615,132.977 262.290,132.842 262.400 C 132.706 262.510,132.064 263.320,131.415 264.200 C 130.765 265.080,129.731 266.277,129.117 266.860 C 128.503 267.444,128.000 268.042,128.000 268.189 C 128.000 268.523,126.943 269.600,126.615 269.600 C 126.250 269.600,123.600 272.325,123.600 272.700 C 123.600 272.880,123.025 273.367,122.322 273.783 C 120.382 274.929,114.800 280.113,114.800 280.769 C 114.800 281.006,114.626 281.200,114.413 281.200 C 114.054 281.200,112.387 282.576,110.174 284.700 C 109.658 285.195,109.130 285.600,109.001 285.600 C 108.871 285.600,107.783 286.590,106.583 287.800 C 104.567 289.831,103.200 290.562,103.200 289.608 C 103.200 289.392,102.750 289.102,102.200 288.964 C 101.650 288.826,101.200 288.553,101.200 288.357 C 101.200 288.160,100.840 288.000,100.400 288.000 C 99.960 288.000,99.600 287.820,99.600 287.600 C 99.600 287.380,99.150 287.200,98.600 287.200 C 98.050 287.200,97.600 287.020,97.600 286.800 C 97.600 286.580,97.060 286.400,96.400 286.400 C 95.740 286.400,95.200 286.220,95.200 286.000 C 95.200 285.780,94.589 285.600,93.843 285.600 C 93.005 285.600,92.397 285.370,92.255 285.000 C 92.100 284.594,91.464 284.400,90.293 284.400 C 89.340 284.400,88.371 284.211,88.141 283.981 C 87.197 283.037,71.241 283.987,70.368 285.039 C 70.112 285.348,69.382 285.600,68.746 285.600 C 68.110 285.600,67.277 285.759,66.895 285.953 C 66.513 286.148,65.750 286.489,65.200 286.712 C 61.977 288.018,59.600 289.242,59.600 289.595 C 59.600 289.818,59.280 290.000,58.888 290.000 C 58.497 290.000,57.917 290.360,57.600 290.800 C 57.283 291.240,56.801 291.600,56.529 291.600 C 56.257 291.600,55.037 292.590,53.817 293.800 C 52.598 295.010,51.420 296.000,51.200 296.000 C 50.980 296.000,50.800 296.153,50.800 296.341 C 50.800 296.528,50.260 297.246,49.600 297.937 C 48.940 298.628,48.400 299.329,48.400 299.496 C 48.400 299.663,47.770 300.508,47.000 301.373 C 46.230 302.238,45.600 303.183,45.600 303.473 C 45.600 303.763,45.420 304.000,45.200 304.000 C 44.980 304.000,44.800 304.450,44.800 305.000 C 44.800 305.550,44.620 306.000,44.400 306.000 C 44.180 306.000,44.000 306.341,44.000 306.757 C 44.000 307.174,43.768 307.603,43.485 307.712 C 43.201 307.821,42.715 308.842,42.405 309.980 C 42.095 311.119,41.697 312.140,41.521 312.249 C 41.344 312.358,41.200 313.157,41.200 314.024 C 41.200 314.891,41.020 315.600,40.800 315.600 C 40.562 315.600,40.400 317.125,40.400 319.376 C 40.400 321.463,40.221 323.263,40.000 323.400 C 39.780 323.536,39.600 324.357,39.600 325.224 C 39.600 326.091,39.780 326.800,40.000 326.800 C 40.237 326.800,40.400 328.267,40.400 330.400 C 40.400 332.533,40.563 334.000,40.800 334.000 C 41.020 334.000,41.200 334.810,41.200 335.800 C 41.200 336.790,41.380 337.600,41.600 337.600 C 41.820 337.600,42.000 338.129,42.000 338.776 C 42.000 339.423,42.180 340.064,42.400 340.200 C 42.620 340.336,42.800 340.777,42.800 341.181 C 42.800 341.584,43.070 342.018,43.400 342.145 C 43.730 342.271,44.000 342.615,44.000 342.908 C 44.000 343.653,44.938 345.593,45.300 345.597 C 45.465 345.599,45.600 345.960,45.600 346.400 C 45.600 346.840,45.780 347.200,46.000 347.200 C 46.220 347.200,46.400 347.432,46.400 347.717 C 46.400 348.001,46.986 348.856,47.703 349.617 C 48.420 350.377,49.439 351.630,49.969 352.400 C 50.976 353.865,51.727 354.610,54.201 356.600 C 55.021 357.260,56.113 358.205,56.628 358.700 C 57.143 359.195,57.823 359.600,58.139 359.600 C 58.455 359.600,58.818 359.870,58.945 360.200 C 59.071 360.530,59.526 360.800,59.954 360.800 C 60.383 360.800,60.793 360.943,60.867 361.119 C 61.047 361.549,64.639 363.200,65.396 363.200 C 65.728 363.200,66.000 363.380,66.000 363.600 C 66.000 363.820,66.546 364.000,67.213 364.000 C 67.921 364.000,68.521 364.249,68.655 364.600 C 68.805 364.989,69.425 365.200,70.419 365.200 C 71.263 365.200,72.064 365.380,72.200 365.600 C 72.336 365.820,73.776 366.000,75.400 366.000 C 77.024 366.000,78.464 366.180,78.600 366.400 C 78.736 366.620,79.906 366.800,81.200 366.800 C 82.494 366.800,83.664 366.620,83.800 366.400 C 83.936 366.180,85.466 366.000,87.200 366.000 C 88.934 366.000,90.464 365.820,90.600 365.600 C 90.736 365.380,91.445 365.200,92.175 365.200 C 92.905 365.200,93.726 364.930,94.000 364.600 C 94.274 364.270,95.016 364.000,95.649 364.000 C 96.282 364.000,96.800 363.820,96.800 363.600 C 96.800 363.380,97.250 363.200,97.800 363.200 C 98.350 363.200,98.800 363.020,98.800 362.800 C 98.800 362.580,99.160 362.400,99.600 362.400 C 100.040 362.400,100.400 362.220,100.400 362.000 C 100.400 361.780,100.676 361.600,101.014 361.600 C 101.744 361.600,103.539 360.507,104.447 359.510 C 104.803 359.120,105.388 358.800,105.747 358.800 C 106.106 358.800,106.400 358.650,106.400 358.468 C 106.400 358.285,106.850 357.894,107.400 357.600 C 107.950 357.306,108.400 356.907,108.400 356.714 C 108.400 356.324,110.229 354.400,110.600 354.400 C 110.906 354.400,112.800 352.509,112.800 352.204 C 112.800 352.076,113.168 351.573,113.618 351.086 C 115.440 349.111,116.399 347.768,116.400 347.188 C 116.400 346.852,116.760 346.317,117.200 346.000 C 117.640 345.683,118.000 345.013,118.000 344.512 C 118.000 344.010,118.147 343.600,118.326 343.600 C 118.774 343.600,120.000 340.953,120.000 339.986 C 120.000 339.554,120.180 339.200,120.400 339.200 C 120.620 339.200,120.800 338.671,120.800 338.024 C 120.800 337.377,120.980 336.736,121.200 336.600 C 121.420 336.464,121.600 335.474,121.600 334.400 C 121.600 333.326,121.780 332.336,122.000 332.200 C 122.243 332.050,122.400 329.129,122.400 324.776 C 122.400 320.259,122.252 317.600,122.000 317.600 C 121.780 317.600,121.600 316.801,121.600 315.824 C 121.600 314.847,121.420 313.936,121.200 313.800 C 120.980 313.664,120.800 313.034,120.800 312.400 C 120.800 311.766,120.620 311.136,120.400 311.000 C 120.180 310.864,120.000 310.223,120.000 309.576 C 120.000 308.929,119.820 308.400,119.600 308.400 C 119.380 308.400,119.200 308.040,119.200 307.600 C 119.200 307.156,118.933 306.800,118.600 306.800 C 117.175 306.800,118.007 305.828,124.700 299.674 C 125.415 299.017,126.000 298.358,126.000 298.211 C 126.000 297.887,127.053 296.800,127.367 296.800 C 127.663 296.800,129.062 295.666,130.453 294.300 C 131.069 293.695,131.662 293.200,131.772 293.200 C 131.881 293.200,133.798 291.445,136.032 289.300 C 143.499 282.132,146.090 279.428,148.226 276.571 C 148.871 275.707,149.715 274.652,150.100 274.225 C 150.485 273.798,150.800 273.189,150.800 272.871 C 150.800 272.554,151.120 272.003,151.510 271.647 C 152.507 270.739,153.600 268.944,153.600 268.214 C 153.600 267.876,153.746 267.600,153.925 267.600 C 154.104 267.600,154.498 266.970,154.800 266.200 C 155.102 265.430,155.496 264.800,155.675 264.800 C 155.854 264.800,156.000 264.344,156.000 263.787 C 156.000 263.231,156.270 262.671,156.600 262.545 C 156.930 262.418,157.200 261.984,157.200 261.581 C 157.200 261.177,157.380 260.736,157.600 260.600 C 157.820 260.464,158.000 260.003,158.000 259.576 C 158.000 259.149,158.180 258.800,158.400 258.800 C 158.620 258.800,158.800 258.170,158.800 257.400 C 158.800 256.630,158.980 256.000,159.200 256.000 C 159.420 256.000,159.600 255.537,159.600 254.971 C 159.600 254.406,159.870 253.673,160.200 253.343 C 160.530 253.013,160.800 252.226,160.800 251.595 C 160.800 250.964,160.980 250.336,161.200 250.200 C 161.420 250.064,161.600 248.804,161.600 247.400 C 161.600 245.996,161.780 244.736,162.000 244.600 C 162.220 244.464,162.400 242.844,162.400 241.000 C 162.400 239.156,162.580 237.536,162.800 237.400 C 163.060 237.239,163.200 227.529,163.200 209.576 C 163.200 191.459,163.063 182.000,162.800 182.000 C 162.580 182.000,162.400 181.505,162.400 180.900 C 162.399 179.891,160.889 177.600,160.225 177.600 C 159.790 177.600,158.800 176.509,158.800 176.029 C 158.800 175.793,158.440 175.600,158.000 175.600 C 157.560 175.600,157.200 175.420,157.200 175.200 C 157.200 174.960,155.600 174.800,153.200 174.800 C 150.800 174.800,149.200 174.960,149.200 175.200 M196.000 175.200 C 196.000 175.420,195.640 175.600,195.200 175.600 C 194.760 175.600,194.400 175.793,194.400 176.029 C 194.400 176.489,193.417 177.600,193.010 177.600 C 192.257 177.600,190.800 179.697,190.800 180.782 C 190.800 181.452,190.620 182.000,190.400 182.000 C 190.135 182.000,190.000 204.667,190.000 249.200 L 190.000 316.400 188.595 316.400 C 187.822 316.400,186.877 316.559,186.495 316.753 C 185.372 317.324,183.866 317.931,182.900 318.202 C 182.405 318.340,182.000 318.622,182.000 318.827 C 182.000 319.032,181.747 319.200,181.438 319.200 C 180.681 319.200,177.600 320.865,177.600 321.274 C 177.600 321.453,177.368 321.600,177.083 321.600 C 176.799 321.600,175.899 322.230,175.082 323.000 C 174.266 323.770,173.464 324.405,173.299 324.411 C 172.846 324.427,169.940 327.217,168.728 328.800 C 168.138 329.570,167.104 330.830,166.429 331.600 C 165.754 332.370,165.201 333.225,165.201 333.500 C 165.200 333.775,165.020 334.000,164.800 334.000 C 164.580 334.000,164.400 334.450,164.400 335.000 C 164.400 335.622,164.173 336.000,163.800 336.000 C 163.467 336.000,163.200 336.356,163.200 336.800 C 163.200 337.240,163.020 337.600,162.800 337.600 C 162.580 337.600,162.400 338.050,162.400 338.600 C 162.400 339.150,162.220 339.600,162.000 339.600 C 161.780 339.600,161.600 339.949,161.600 340.376 C 161.600 340.803,161.420 341.264,161.200 341.400 C 160.980 341.536,160.800 342.162,160.800 342.790 C 160.800 343.419,160.597 344.001,160.349 344.084 C 159.216 344.461,158.132 363.492,159.184 364.544 C 159.413 364.773,159.600 365.541,159.600 366.251 C 159.600 366.962,159.870 367.813,160.200 368.143 C 160.530 368.473,160.800 369.296,160.800 369.971 C 160.800 370.647,160.980 371.200,161.200 371.200 C 161.420 371.200,161.600 371.650,161.600 372.200 C 161.600 372.750,161.780 373.200,162.000 373.200 C 162.220 373.200,162.400 373.472,162.400 373.805 C 162.400 374.572,163.245 376.101,163.900 376.520 C 164.175 376.696,164.400 377.191,164.400 377.620 C 164.400 378.049,164.580 378.400,164.800 378.400 C 165.020 378.400,165.200 378.720,165.200 379.112 C 165.200 379.503,165.560 380.083,166.000 380.400 C 166.440 380.717,166.800 381.124,166.800 381.305 C 166.800 382.015,173.355 388.800,174.041 388.800 C 174.285 388.800,174.839 389.250,175.271 389.800 C 175.704 390.350,176.365 390.800,176.741 390.800 C 177.116 390.800,177.683 391.160,178.000 391.600 C 178.317 392.040,178.897 392.400,179.288 392.400 C 179.680 392.400,180.000 392.580,180.000 392.800 C 180.000 393.020,180.431 393.200,180.957 393.200 C 181.484 393.200,182.018 393.470,182.145 393.800 C 182.271 394.130,182.730 394.400,183.164 394.400 C 183.598 394.400,184.064 394.580,184.200 394.800 C 184.336 395.020,184.887 395.200,185.424 395.200 C 185.961 395.200,186.400 395.380,186.400 395.600 C 186.400 395.820,187.019 396.000,187.776 396.000 C 188.533 396.000,189.264 396.180,189.400 396.400 C 189.536 396.620,190.717 396.800,192.024 396.800 C 193.341 396.800,194.400 396.978,194.400 397.200 C 194.400 397.448,196.533 397.600,200.000 397.600 C 203.467 397.600,205.600 397.448,205.600 397.200 C 205.600 396.978,206.659 396.800,207.976 396.800 C 209.283 396.800,210.464 396.620,210.600 396.400 C 210.736 396.180,211.467 396.000,212.224 396.000 C 212.981 396.000,213.600 395.820,213.600 395.600 C 213.600 395.380,214.022 395.200,214.539 395.200 C 215.656 395.200,218.000 394.097,218.000 393.571 C 218.000 393.367,218.450 393.200,219.000 393.200 C 219.550 393.200,220.000 393.020,220.000 392.800 C 220.000 392.580,220.320 392.400,220.712 392.400 C 221.103 392.400,221.683 392.040,222.000 391.600 C 222.317 391.160,222.852 390.794,223.188 390.787 C 223.980 390.771,225.200 389.842,225.200 389.256 C 225.200 389.005,225.506 388.800,225.880 388.800 C 226.691 388.800,233.200 382.136,233.200 381.305 C 233.200 381.124,233.560 380.717,234.000 380.400 C 234.440 380.083,234.800 379.522,234.800 379.154 C 234.800 378.787,235.070 378.382,235.400 378.255 C 235.730 378.129,236.000 377.659,236.000 377.213 C 236.000 376.766,236.135 376.399,236.300 376.397 C 236.659 376.393,237.600 374.456,237.600 373.720 C 237.600 373.434,237.780 373.200,238.000 373.200 C 238.220 373.200,238.400 372.750,238.400 372.200 C 238.400 371.650,238.580 371.200,238.800 371.200 C 239.020 371.200,239.200 370.589,239.200 369.843 C 239.200 369.005,239.430 368.397,239.800 368.255 C 240.189 368.106,240.400 367.486,240.400 366.493 C 240.400 365.650,240.587 364.773,240.816 364.544 C 241.868 363.492,240.784 344.461,239.651 344.084 C 239.403 344.001,239.200 343.419,239.200 342.790 C 239.200 342.162,239.020 341.536,238.800 341.400 C 238.580 341.264,238.400 340.803,238.400 340.376 C 238.400 339.949,238.220 339.600,238.000 339.600 C 237.780 339.600,237.600 339.150,237.600 338.600 C 237.600 338.050,237.420 337.600,237.200 337.600 C 236.980 337.600,236.800 337.240,236.800 336.800 C 236.800 336.360,236.640 336.000,236.443 336.000 C 236.247 336.000,235.974 335.550,235.836 335.000 C 235.698 334.450,235.408 334.000,235.192 334.000 C 234.977 334.000,234.800 333.764,234.800 333.475 C 234.800 333.187,234.485 332.602,234.100 332.175 C 233.715 331.748,232.910 330.742,232.310 329.940 C 230.831 327.958,227.277 324.400,226.778 324.400 C 226.556 324.400,225.743 323.770,224.973 323.000 C 224.203 322.230,223.309 321.600,222.987 321.600 C 222.664 321.600,222.400 321.453,222.400 321.274 C 222.400 320.865,219.319 319.200,218.562 319.200 C 218.253 319.200,218.000 319.055,218.000 318.877 C 218.000 318.479,215.170 317.200,214.289 317.200 C 213.936 317.200,213.536 317.020,213.400 316.800 C 213.264 316.580,212.443 316.400,211.576 316.400 L 210.000 316.400 210.000 249.200 C 210.000 204.667,209.865 182.000,209.600 182.000 C 209.380 182.000,209.200 181.454,209.200 180.787 C 209.200 179.584,206.974 176.800,206.013 176.800 C 205.786 176.800,205.600 176.530,205.600 176.200 C 205.600 175.867,205.244 175.600,204.800 175.600 C 204.360 175.600,204.000 175.420,204.000 175.200 C 204.000 174.960,202.400 174.800,200.000 174.800 C 197.600 174.800,196.000 174.960,196.000 175.200 M243.000 175.200 C 242.864 175.420,242.403 175.600,241.976 175.600 C 241.549 175.600,241.200 175.788,241.200 176.018 C 241.200 176.481,239.397 178.400,238.962 178.400 C 238.401 178.400,237.625 179.837,237.613 180.900 C 237.606 181.505,237.420 182.000,237.200 182.000 C 236.937 182.000,236.800 191.459,236.800 209.576 C 236.800 227.529,236.940 237.239,237.200 237.400 C 237.420 237.536,237.600 239.156,237.600 241.000 C 237.600 242.844,237.780 244.464,238.000 244.600 C 238.220 244.736,238.400 245.895,238.400 247.175 C 238.400 248.755,238.592 249.662,239.000 250.000 C 239.345 250.286,239.600 251.158,239.600 252.049 C 239.600 252.902,239.780 253.600,240.000 253.600 C 240.220 253.600,240.400 254.140,240.400 254.800 C 240.400 255.460,240.580 256.000,240.800 256.000 C 241.020 256.000,241.200 256.452,241.200 257.005 C 241.200 257.558,241.380 258.368,241.600 258.805 C 241.820 259.242,242.180 259.958,242.400 260.395 C 242.620 260.832,242.800 261.462,242.800 261.795 C 242.800 262.128,243.070 262.400,243.400 262.400 C 243.730 262.400,244.000 262.743,244.000 263.162 C 244.000 263.978,245.601 267.312,246.100 267.533 C 246.265 267.607,246.400 268.017,246.400 268.446 C 246.400 268.874,246.670 269.329,247.000 269.455 C 247.330 269.582,247.600 269.960,247.600 270.296 C 247.600 270.632,247.916 271.197,248.303 271.553 C 248.689 271.909,249.274 272.740,249.603 273.400 C 250.324 274.850,250.996 275.600,251.571 275.600 C 251.807 275.600,252.000 275.960,252.000 276.400 C 252.000 276.840,252.180 277.200,252.400 277.200 C 252.620 277.200,252.800 277.386,252.800 277.613 C 252.800 278.151,255.449 280.800,255.987 280.800 C 256.214 280.800,256.400 280.985,256.400 281.211 C 256.400 281.745,259.855 285.200,260.389 285.200 C 260.615 285.200,260.800 285.386,260.800 285.613 C 260.800 286.033,263.395 288.800,263.788 288.800 C 263.906 288.800,264.857 289.609,265.901 290.598 C 266.946 291.587,267.948 292.397,268.129 292.398 C 268.524 292.400,269.600 293.434,269.600 293.811 C 269.600 293.958,270.185 294.609,270.900 295.258 C 271.615 295.906,273.338 297.463,274.728 298.718 C 276.119 299.973,277.957 301.675,278.812 302.500 C 279.668 303.325,280.478 304.000,280.613 304.000 C 280.747 304.000,281.114 304.257,281.429 304.571 C 282.081 305.223,282.202 306.800,281.600 306.800 C 281.380 306.800,281.200 307.141,281.200 307.557 C 281.200 307.974,280.930 308.418,280.600 308.545 C 280.270 308.671,280.000 309.220,280.000 309.764 C 280.000 310.308,279.820 310.864,279.600 311.000 C 279.380 311.136,279.200 311.766,279.200 312.400 C 279.200 313.034,279.020 313.664,278.800 313.800 C 278.580 313.936,278.400 314.847,278.400 315.824 C 278.400 316.801,278.220 317.600,278.000 317.600 C 277.748 317.600,277.600 320.259,277.600 324.776 C 277.600 329.129,277.757 332.050,278.000 332.200 C 278.220 332.336,278.400 333.326,278.400 334.400 C 278.400 335.474,278.580 336.464,278.800 336.600 C 279.020 336.736,279.200 337.377,279.200 338.024 C 279.200 338.671,279.380 339.200,279.600 339.200 C 279.820 339.200,280.000 339.637,280.000 340.171 C 280.000 340.706,280.270 341.413,280.600 341.743 C 280.930 342.073,281.200 342.626,281.200 342.971 C 281.200 343.317,281.380 343.600,281.600 343.600 C 281.820 343.600,282.000 344.010,282.000 344.512 C 282.000 345.013,282.360 345.683,282.800 346.000 C 283.240 346.317,283.600 346.878,283.600 347.246 C 283.600 347.615,284.047 348.340,284.593 348.858 C 285.139 349.376,285.589 349.985,285.593 350.212 C 285.597 350.438,285.960 350.883,286.400 351.200 C 286.840 351.517,287.200 351.925,287.200 352.106 C 287.200 352.482,289.040 354.400,289.400 354.400 C 289.751 354.400,291.599 356.313,291.605 356.682 C 291.611 357.066,294.222 358.800,294.794 358.800 C 295.017 358.800,295.200 358.952,295.200 359.137 C 295.200 359.322,295.830 359.813,296.600 360.228 C 297.370 360.643,298.000 361.121,298.000 361.291 C 298.000 361.461,298.360 361.600,298.800 361.600 C 299.240 361.600,299.600 361.780,299.600 362.000 C 299.600 362.220,299.872 362.400,300.205 362.400 C 300.538 362.400,301.168 362.580,301.605 362.800 C 302.042 363.020,302.758 363.380,303.195 363.600 C 303.632 363.820,304.364 364.000,304.823 364.000 C 305.282 364.000,305.927 364.270,306.257 364.600 C 306.587 364.930,307.474 365.200,308.229 365.200 C 308.983 365.200,309.600 365.380,309.600 365.600 C 309.600 365.833,310.925 366.000,312.776 366.000 C 314.523 366.000,316.064 366.180,316.200 366.400 C 316.336 366.620,317.506 366.800,318.800 366.800 C 320.094 366.800,321.264 366.620,321.400 366.400 C 321.536 366.180,323.077 366.000,324.824 366.000 C 326.675 366.000,328.000 365.833,328.000 365.600 C 328.000 365.380,328.726 365.200,329.613 365.200 C 330.677 365.200,331.303 364.996,331.455 364.600 C 331.587 364.258,332.183 364.000,332.843 364.000 C 333.479 364.000,334.000 363.820,334.000 363.600 C 334.000 363.380,334.439 363.200,334.976 363.200 C 335.513 363.200,336.064 363.020,336.200 362.800 C 336.336 362.580,336.763 362.400,337.148 362.400 C 337.534 362.400,338.236 362.040,338.708 361.600 C 339.180 361.160,339.850 360.800,340.196 360.800 C 340.542 360.800,340.929 360.530,341.055 360.200 C 341.182 359.870,341.534 359.600,341.838 359.600 C 342.418 359.600,343.336 358.931,345.267 357.100 C 345.905 356.495,346.534 356.000,346.664 356.000 C 347.051 356.000,350.800 352.007,350.800 351.595 C 350.800 351.386,351.430 350.566,352.200 349.773 C 352.970 348.980,353.600 348.077,353.600 347.766 C 353.600 347.455,353.780 347.200,354.000 347.200 C 354.220 347.200,354.400 346.840,354.400 346.400 C 354.400 345.960,354.535 345.599,354.700 345.597 C 355.062 345.593,356.000 343.653,356.000 342.908 C 356.000 342.615,356.270 342.271,356.600 342.145 C 356.930 342.018,357.200 341.584,357.200 341.181 C 357.200 340.777,357.380 340.336,357.600 340.200 C 357.820 340.064,358.000 339.423,358.000 338.776 C 358.000 338.129,358.180 337.600,358.400 337.600 C 358.620 337.600,358.800 336.790,358.800 335.800 C 358.800 334.810,358.980 334.000,359.200 334.000 C 359.437 334.000,359.600 332.533,359.600 330.400 C 359.600 328.267,359.763 326.800,360.000 326.800 C 360.220 326.800,360.400 326.091,360.400 325.224 C 360.400 324.357,360.220 323.536,360.000 323.400 C 359.779 323.263,359.600 321.463,359.600 319.376 C 359.600 317.125,359.438 315.600,359.200 315.600 C 358.980 315.600,358.800 314.968,358.800 314.195 C 358.800 312.845,358.694 312.500,357.662 310.505 C 357.408 310.013,357.200 309.243,357.200 308.793 C 357.200 308.343,356.930 307.871,356.600 307.745 C 356.270 307.618,356.000 307.174,356.000 306.757 C 356.000 306.341,355.820 306.000,355.600 306.000 C 355.380 306.000,355.200 305.550,355.200 305.000 C 355.200 304.450,355.041 304.000,354.846 304.000 C 354.651 304.000,354.209 303.406,353.864 302.679 C 353.519 301.952,352.869 301.024,352.419 300.617 C 351.968 300.209,351.600 299.716,351.600 299.520 C 351.600 299.324,351.195 298.754,350.700 298.254 C 350.205 297.754,349.442 296.862,349.005 296.272 C 348.568 295.682,348.065 295.200,347.887 295.200 C 347.468 295.200,345.600 293.334,345.600 292.916 C 345.600 292.740,345.015 292.340,344.300 292.028 C 343.585 291.716,342.709 291.132,342.353 290.730 C 341.997 290.329,341.412 290.000,341.053 290.000 C 340.694 290.000,340.400 289.835,340.400 289.634 C 340.400 289.190,336.921 287.200,336.144 287.200 C 335.839 287.200,335.232 287.020,334.795 286.800 C 334.358 286.580,333.642 286.220,333.205 286.000 C 332.768 285.780,331.890 285.600,331.254 285.600 C 330.618 285.600,329.874 285.330,329.600 285.000 C 329.316 284.658,328.444 284.400,327.575 284.400 C 326.735 284.400,325.936 284.220,325.800 284.000 C 325.651 283.759,322.870 283.600,318.800 283.600 C 314.730 283.600,311.949 283.759,311.800 284.000 C 311.664 284.220,310.748 284.400,309.764 284.400 C 308.543 284.400,307.902 284.590,307.745 285.000 C 307.603 285.370,306.995 285.600,306.157 285.600 C 305.411 285.600,304.800 285.780,304.800 286.000 C 304.800 286.220,304.260 286.400,303.600 286.400 C 302.940 286.400,302.400 286.580,302.400 286.800 C 302.400 287.020,301.950 287.200,301.400 287.200 C 300.850 287.200,300.400 287.380,300.400 287.600 C 300.400 287.820,300.040 288.000,299.600 288.000 C 299.160 288.000,298.800 288.180,298.800 288.400 C 298.800 288.620,298.552 288.800,298.249 288.800 C 297.946 288.800,297.474 289.070,297.200 289.400 C 296.514 290.227,295.725 290.151,294.683 289.159 C 294.197 288.697,293.175 287.842,292.411 287.259 C 291.646 286.677,289.900 285.075,288.531 283.700 C 287.161 282.325,285.851 281.200,285.620 281.200 C 285.389 281.200,285.200 280.973,285.200 280.695 C 285.200 280.417,284.739 279.844,284.176 279.421 C 283.613 278.998,282.668 278.236,282.076 277.727 C 281.484 277.218,280.775 276.801,280.500 276.800 C 280.225 276.800,280.000 276.614,280.000 276.387 C 280.000 275.849,277.351 273.200,276.813 273.200 C 276.586 273.200,276.400 273.002,276.400 272.760 C 276.400 272.351,275.972 271.903,272.952 269.150 C 272.318 268.573,271.260 267.452,270.600 266.659 C 269.940 265.866,269.175 265.213,268.900 265.209 C 268.625 265.204,268.400 264.840,268.400 264.400 C 268.400 263.960,268.220 263.600,268.000 263.600 C 267.780 263.600,267.600 263.370,267.600 263.088 C 267.600 262.807,267.240 262.317,266.800 262.000 C 266.360 261.683,266.000 261.103,266.000 260.712 C 266.000 260.320,265.861 260.000,265.691 260.000 C 265.521 260.000,265.043 259.370,264.628 258.600 C 264.213 257.830,263.722 257.200,263.537 257.200 C 263.352 257.200,263.200 256.851,263.200 256.424 C 263.200 255.997,263.020 255.536,262.800 255.400 C 262.580 255.264,262.400 254.803,262.400 254.376 C 262.400 253.949,262.253 253.600,262.072 253.600 C 261.892 253.600,261.494 252.680,261.188 251.555 C 260.881 250.430,260.399 249.421,260.115 249.312 C 259.832 249.203,259.600 248.604,259.600 247.981 C 259.600 247.357,259.420 246.736,259.200 246.600 C 258.980 246.464,258.800 246.003,258.800 245.576 C 258.800 245.149,258.620 244.800,258.400 244.800 C 258.180 244.800,258.000 243.810,258.000 242.600 C 258.000 241.390,257.820 240.400,257.600 240.400 C 257.337 240.400,257.200 230.543,257.200 211.629 C 257.200 186.587,257.122 182.779,256.600 182.257 C 256.270 181.927,256.000 181.226,256.000 180.699 C 256.000 179.567,252.473 175.600,251.466 175.600 C 251.100 175.600,250.800 175.420,250.800 175.200 C 250.800 174.962,249.275 174.800,247.024 174.800 C 244.937 174.800,243.137 174.979,243.000 175.200 M37.600 184.400 C 37.600 187.067,37.758 188.800,38.000 188.800 C 38.242 188.800,38.400 187.067,38.400 184.400 C 38.400 181.733,38.242 180.000,38.000 180.000 C 37.758 180.000,37.600 181.733,37.600 184.400 M361.867 180.267 C 361.428 180.705,361.554 188.800,362.000 188.800 C 362.242 188.800,362.400 187.067,362.400 184.400 C 362.400 180.007,362.369 179.765,361.867 180.267 M38.400 194.000 C 38.400 194.660,38.580 195.200,38.800 195.200 C 39.020 195.200,39.200 194.660,39.200 194.000 C 39.200 193.340,39.020 192.800,38.800 192.800 C 38.580 192.800,38.400 193.340,38.400 194.000 M360.800 193.800 C 360.800 194.350,360.980 194.800,361.200 194.800 C 361.420 194.800,361.600 194.350,361.600 193.800 C 361.600 193.250,361.420 192.800,361.200 192.800 C 360.980 192.800,360.800 193.250,360.800 193.800 M39.200 197.589 C 39.200 198.009,39.380 198.464,39.600 198.600 C 39.820 198.736,40.000 198.761,40.000 198.656 C 40.000 198.551,40.100 198.204,40.223 197.884 C 40.346 197.565,40.166 197.196,39.823 197.064 C 39.393 196.899,39.200 197.062,39.200 197.589 M360.000 198.000 C 360.000 198.440,360.180 198.800,360.400 198.800 C 360.620 198.800,360.800 198.440,360.800 198.000 C 360.800 197.560,360.620 197.200,360.400 197.200 C 360.180 197.200,360.000 197.560,360.000 198.000 M355.600 209.000 C 355.600 209.330,355.780 209.600,356.000 209.600 C 356.220 209.600,356.400 209.330,356.400 209.000 C 356.400 208.670,356.220 208.400,356.000 208.400 C 355.780 208.400,355.600 208.670,355.600 209.000 M337.600 228.400 C 337.600 228.620,337.870 228.800,338.200 228.800 C 338.530 228.800,338.800 228.620,338.800 228.400 C 338.800 228.180,338.530 228.000,338.200 228.000 C 337.870 228.000,337.600 228.180,337.600 228.400 M324.656 234.278 C 324.205 234.728,324.381 235.200,325.000 235.200 C 325.330 235.200,325.600 235.031,325.600 234.824 C 325.600 234.319,324.975 233.958,324.656 234.278 M74.400 234.800 C 74.400 235.020,74.670 235.200,75.000 235.200 C 75.330 235.200,75.600 235.020,75.600 234.800 C 75.600 234.580,75.330 234.400,75.000 234.400 C 74.670 234.400,74.400 234.580,74.400 234.800 M81.600 236.400 C 81.600 236.620,82.050 236.800,82.600 236.800 C 83.150 236.800,83.600 236.620,83.600 236.400 C 83.600 236.180,83.150 236.000,82.600 236.000 C 82.050 236.000,81.600 236.180,81.600 236.400 M316.600 236.400 C 316.460 236.627,316.796 236.800,317.376 236.800 C 317.939 236.800,318.400 236.620,318.400 236.400 C 318.400 236.180,318.051 236.000,317.624 236.000 C 317.197 236.000,316.736 236.180,316.600 236.400 M91.000 237.200 C 90.856 237.433,91.263 237.600,91.976 237.600 C 92.649 237.600,93.200 237.420,93.200 237.200 C 93.200 236.980,92.761 236.800,92.224 236.800 C 91.687 236.800,91.136 236.980,91.000 237.200 M306.800 237.200 C 306.800 237.420,307.340 237.600,308.000 237.600 C 308.660 237.600,309.200 237.420,309.200 237.200 C 309.200 236.980,308.660 236.800,308.000 236.800 C 307.340 236.800,306.800 236.980,306.800 237.200 M86.400 304.400 C 86.400 304.620,86.929 304.800,87.576 304.800 C 88.223 304.800,88.864 304.980,89.000 305.200 C 89.136 305.420,89.514 305.600,89.840 305.600 C 90.396 305.600,90.804 305.861,92.185 307.100 C 92.492 307.375,93.029 307.600,93.379 307.600 C 94.180 307.600,98.800 312.209,98.800 313.007 C 98.800 313.333,98.980 313.600,99.200 313.600 C 99.420 313.600,99.600 313.960,99.600 314.400 C 99.600 314.840,99.780 315.200,100.000 315.200 C 100.220 315.200,100.400 315.549,100.400 315.976 C 100.400 316.403,100.560 316.851,100.755 316.972 C 100.950 317.093,101.228 317.823,101.373 318.596 C 101.518 319.368,101.808 320.000,102.018 320.000 C 102.714 320.000,102.501 330.276,101.800 330.545 C 101.449 330.679,101.200 331.279,101.200 331.987 C 101.200 332.654,101.020 333.200,100.800 333.200 C 100.580 333.200,100.400 333.650,100.400 334.200 C 100.400 334.750,100.220 335.200,100.000 335.200 C 99.780 335.200,99.600 335.478,99.600 335.819 C 99.600 336.623,93.401 342.800,92.593 342.800 C 92.253 342.800,91.871 343.070,91.745 343.400 C 91.618 343.730,91.174 344.000,90.757 344.000 C 90.341 344.000,90.000 344.180,90.000 344.400 C 90.000 344.620,89.550 344.800,89.000 344.800 C 88.450 344.800,88.000 344.980,88.000 345.200 C 88.000 345.420,87.280 345.600,86.400 345.600 C 85.520 345.600,84.800 345.780,84.800 346.000 C 84.800 346.233,83.475 346.400,81.624 346.400 C 79.877 346.400,78.336 346.220,78.200 346.000 C 78.064 345.780,77.243 345.600,76.376 345.600 C 75.509 345.600,74.800 345.420,74.800 345.200 C 74.800 344.980,74.170 344.800,73.400 344.800 C 72.630 344.800,72.000 344.620,72.000 344.400 C 72.000 344.180,71.711 344.000,71.358 344.000 C 71.004 344.000,70.361 343.550,69.929 343.000 C 69.496 342.450,68.878 342.000,68.555 342.000 C 67.849 342.000,64.000 338.175,64.000 337.472 C 64.000 337.200,63.640 336.717,63.200 336.400 C 62.760 336.083,62.400 335.413,62.400 334.912 C 62.400 334.410,62.220 334.000,62.000 334.000 C 61.780 334.000,61.600 333.460,61.600 332.800 C 61.600 332.140,61.420 331.600,61.200 331.600 C 60.980 331.600,60.800 330.874,60.800 329.987 C 60.800 328.923,60.596 328.297,60.200 328.145 C 59.752 327.973,59.600 327.258,59.600 325.329 C 59.600 323.563,59.790 322.552,60.200 322.143 C 60.553 321.790,60.800 320.813,60.800 319.771 C 60.800 318.797,60.980 318.000,61.200 318.000 C 61.420 318.000,61.600 317.640,61.600 317.200 C 61.600 316.760,61.780 316.400,62.000 316.400 C 62.220 316.400,62.400 316.051,62.400 315.624 C 62.400 315.197,62.580 314.736,62.800 314.600 C 63.020 314.464,63.200 314.107,63.200 313.807 C 63.200 313.006,68.462 307.817,69.936 307.164 C 70.631 306.856,71.200 306.379,71.200 306.102 C 71.200 305.826,71.650 305.600,72.200 305.600 C 72.750 305.600,73.200 305.420,73.200 305.200 C 73.200 304.980,73.740 304.800,74.400 304.800 C 75.060 304.800,75.600 304.620,75.600 304.400 C 75.600 304.153,77.667 304.000,81.000 304.000 C 84.333 304.000,86.400 304.153,86.400 304.400 M324.400 304.400 C 324.400 304.620,325.030 304.800,325.800 304.800 C 326.570 304.800,327.200 304.980,327.200 305.200 C 327.200 305.420,327.560 305.600,328.000 305.600 C 328.440 305.600,328.800 305.826,328.800 306.102 C 328.800 306.379,329.369 306.857,330.065 307.165 C 331.577 307.834,336.800 312.963,336.800 313.779 C 336.800 314.095,336.980 314.464,337.200 314.600 C 337.420 314.736,337.600 315.197,337.600 315.624 C 337.600 316.051,337.780 316.400,338.000 316.400 C 338.220 316.400,338.400 316.760,338.400 317.200 C 338.400 317.644,338.667 318.000,339.000 318.000 C 339.461 318.000,339.600 318.511,339.600 320.200 C 339.600 321.410,339.780 322.400,340.000 322.400 C 340.229 322.400,340.400 323.600,340.400 325.200 C 340.400 326.800,340.229 328.000,340.000 328.000 C 339.780 328.000,339.600 328.791,339.600 329.757 C 339.600 330.950,339.407 331.588,339.000 331.745 C 338.670 331.871,338.400 332.431,338.400 332.987 C 338.400 333.544,338.220 334.000,338.000 334.000 C 337.780 334.000,337.600 334.410,337.600 334.912 C 337.600 335.413,337.240 336.083,336.800 336.400 C 336.360 336.717,336.000 337.297,336.000 337.688 C 336.000 338.080,335.820 338.400,335.600 338.400 C 335.380 338.400,335.200 338.670,335.200 339.000 C 335.200 339.330,335.002 339.600,334.760 339.600 C 334.519 339.600,333.817 340.140,333.200 340.800 C 332.583 341.460,331.804 342.000,331.469 342.000 C 331.133 342.000,330.504 342.450,330.071 343.000 C 329.639 343.550,328.996 344.000,328.642 344.000 C 328.289 344.000,328.000 344.180,328.000 344.400 C 328.000 344.620,327.370 344.800,326.600 344.800 C 325.830 344.800,325.200 344.980,325.200 345.200 C 325.200 345.420,324.491 345.600,323.624 345.600 C 322.757 345.600,321.936 345.780,321.800 346.000 C 321.664 346.220,320.224 346.400,318.600 346.400 C 316.976 346.400,315.536 346.220,315.400 346.000 C 315.264 345.780,314.443 345.600,313.576 345.600 C 312.709 345.600,312.000 345.420,312.000 345.200 C 312.000 344.980,311.550 344.800,311.000 344.800 C 310.450 344.800,310.000 344.620,310.000 344.400 C 310.000 344.180,309.659 344.000,309.243 344.000 C 308.826 344.000,308.382 343.730,308.255 343.400 C 308.129 343.070,307.766 342.800,307.449 342.800 C 306.671 342.800,300.400 336.583,300.400 335.811 C 300.400 335.475,300.220 335.200,300.000 335.200 C 299.780 335.200,299.600 334.750,299.600 334.200 C 299.600 333.650,299.420 333.200,299.200 333.200 C 298.980 333.200,298.800 332.654,298.800 331.987 C 298.800 331.279,298.551 330.679,298.200 330.545 C 297.710 330.357,297.600 329.378,297.600 325.206 C 297.600 321.154,297.724 319.995,298.200 319.600 C 298.530 319.326,298.800 318.685,298.800 318.175 C 298.800 317.665,298.980 317.136,299.200 317.000 C 299.420 316.864,299.600 316.403,299.600 315.976 C 299.600 315.549,299.780 315.200,300.000 315.200 C 300.220 315.200,300.400 314.840,300.400 314.400 C 300.400 313.960,300.580 313.600,300.800 313.600 C 301.020 313.600,301.200 313.240,301.200 312.800 C 301.200 312.360,301.393 312.000,301.629 312.000 C 302.086 312.000,303.200 311.018,303.200 310.615 C 303.200 310.085,306.014 307.600,306.615 307.600 C 306.968 307.600,307.508 307.375,307.815 307.100 C 309.238 305.823,309.621 305.600,310.383 305.600 C 310.832 305.600,311.200 305.420,311.200 305.200 C 311.200 304.980,311.740 304.800,312.400 304.800 C 313.060 304.800,313.600 304.620,313.600 304.400 C 313.600 304.153,315.667 304.000,319.000 304.000 C 322.333 304.000,324.400 304.153,324.400 304.400 M204.257 335.400 C 204.587 335.730,205.474 336.000,206.229 336.000 C 206.983 336.000,207.600 336.180,207.600 336.400 C 207.600 336.620,207.949 336.800,208.376 336.800 C 208.803 336.800,209.264 336.980,209.400 337.200 C 209.536 337.420,209.957 337.600,210.335 337.600 C 210.714 337.600,211.283 337.960,211.600 338.400 C 211.917 338.840,212.400 339.200,212.672 339.200 C 213.255 339.200,217.200 342.992,217.200 343.552 C 217.200 344.126,218.555 346.395,218.900 346.397 C 219.065 346.399,219.200 346.760,219.200 347.200 C 219.200 347.640,219.380 348.000,219.600 348.000 C 219.820 348.000,220.000 348.450,220.000 349.000 C 220.000 349.550,220.180 350.000,220.400 350.000 C 220.622 350.000,220.800 351.059,220.800 352.376 C 220.800 353.683,220.980 354.864,221.200 355.000 C 221.420 355.136,221.600 355.766,221.600 356.400 C 221.600 357.034,221.420 357.664,221.200 357.800 C 220.980 357.936,220.800 359.027,220.800 360.224 C 220.800 361.421,220.620 362.400,220.400 362.400 C 220.180 362.400,220.000 363.030,220.000 363.800 C 220.000 364.570,219.820 365.200,219.600 365.200 C 219.380 365.200,219.200 365.489,219.200 365.842 C 219.200 366.196,218.750 366.839,218.200 367.271 C 217.650 367.704,217.200 368.329,217.200 368.661 C 217.200 369.393,212.484 374.000,211.734 374.000 C 211.440 374.000,211.200 374.180,211.200 374.400 C 211.200 374.620,210.851 374.800,210.424 374.800 C 209.997 374.800,209.536 374.980,209.400 375.200 C 209.264 375.420,208.803 375.600,208.376 375.600 C 207.949 375.600,207.600 375.870,207.600 376.200 C 207.600 376.619,207.178 376.800,206.200 376.800 C 205.430 376.800,204.800 376.980,204.800 377.200 C 204.800 377.444,202.933 377.600,200.000 377.600 C 197.067 377.600,195.200 377.444,195.200 377.200 C 195.200 376.980,194.570 376.800,193.800 376.800 C 192.822 376.800,192.400 376.619,192.400 376.200 C 192.400 375.867,192.044 375.600,191.600 375.600 C 191.160 375.600,190.800 375.420,190.800 375.200 C 190.800 374.980,190.390 374.800,189.888 374.800 C 189.387 374.800,188.717 374.440,188.400 374.000 C 188.083 373.560,187.600 373.200,187.328 373.200 C 186.673 373.200,182.804 369.378,182.787 368.716 C 182.770 368.002,181.808 366.800,181.256 366.800 C 181.005 366.800,180.800 366.440,180.800 366.000 C 180.800 365.560,180.620 365.200,180.400 365.200 C 180.180 365.200,180.000 364.570,180.000 363.800 C 180.000 363.030,179.820 362.400,179.600 362.400 C 179.378 362.400,179.200 361.341,179.200 360.024 C 179.200 358.717,179.020 357.536,178.800 357.400 C 178.580 357.264,178.400 356.724,178.400 356.200 C 178.400 355.676,178.580 355.136,178.800 355.000 C 179.020 354.864,179.200 353.683,179.200 352.376 C 179.200 351.059,179.378 350.000,179.600 350.000 C 179.820 350.000,180.000 349.550,180.000 349.000 C 180.000 348.450,180.180 348.000,180.400 348.000 C 180.620 348.000,180.800 347.683,180.800 347.296 C 180.800 346.909,181.228 346.130,181.751 345.567 C 182.273 345.003,182.823 344.159,182.971 343.691 C 183.299 342.659,185.351 340.400,185.960 340.400 C 186.202 340.400,186.400 340.130,186.400 339.800 C 186.400 339.470,186.720 339.200,187.112 339.200 C 187.503 339.200,188.083 338.840,188.400 338.400 C 188.717 337.960,189.387 337.600,189.888 337.600 C 190.390 337.600,190.800 337.420,190.800 337.200 C 190.800 336.980,191.160 336.800,191.600 336.800 C 192.040 336.800,192.400 336.620,192.400 336.400 C 192.400 336.180,193.023 336.000,193.784 336.000 C 194.546 336.000,195.401 335.737,195.684 335.415 C 196.431 334.569,203.413 334.556,204.257 335.400 " stroke="none" fill="#71c1ff" fill-rule="evenodd"></path><path id="path1" d="M190.800 2.800 C 190.800 3.039,189.267 3.200,187.000 3.200 C 184.733 3.200,183.200 3.361,183.200 3.600 C 183.200 3.822,182.133 4.000,180.800 4.000 C 179.467 4.000,178.400 4.178,178.400 4.400 C 178.400 4.620,177.590 4.800,176.600 4.800 C 175.267 4.800,174.800 4.956,174.800 5.400 C 174.800 5.844,174.333 6.000,173.000 6.000 C 172.010 6.000,171.200 6.180,171.200 6.400 C 171.200 6.620,170.581 6.800,169.824 6.800 C 169.067 6.800,168.336 6.980,168.200 7.200 C 168.064 7.420,167.524 7.600,167.000 7.600 C 166.476 7.600,165.936 7.780,165.800 8.000 C 165.664 8.220,165.023 8.400,164.376 8.400 C 163.729 8.400,163.200 8.580,163.200 8.800 C 163.200 9.020,162.853 9.200,162.429 9.200 C 162.004 9.200,161.387 9.470,161.057 9.800 C 160.727 10.130,160.084 10.400,159.629 10.400 C 159.173 10.400,158.800 10.580,158.800 10.800 C 158.800 11.020,158.451 11.200,158.024 11.200 C 157.597 11.200,157.136 11.380,157.000 11.600 C 156.864 11.820,156.313 12.000,155.776 12.000 C 155.239 12.000,154.800 12.180,154.800 12.400 C 154.800 12.620,154.524 12.800,154.186 12.800 C 153.619 12.800,151.665 13.862,151.200 14.423 C 151.090 14.556,150.415 14.919,149.700 15.230 C 148.985 15.541,148.400 15.931,148.400 16.098 C 148.400 16.264,148.175 16.400,147.900 16.399 C 147.022 16.397,144.000 18.180,144.000 18.699 C 144.000 18.975,143.674 19.200,143.275 19.200 C 142.877 19.200,142.164 19.560,141.692 20.000 C 141.220 20.440,140.661 20.800,140.451 20.800 C 140.241 20.800,139.420 21.430,138.627 22.200 C 137.834 22.970,136.958 23.600,136.681 23.600 C 136.404 23.600,135.917 23.960,135.600 24.400 C 135.283 24.840,134.870 25.200,134.683 25.200 C 134.201 25.200,133.200 26.261,133.200 26.771 C 133.200 27.007,132.975 27.200,132.700 27.200 C 132.425 27.201,131.720 27.606,131.134 28.100 C 130.547 28.595,129.737 29.280,129.334 29.622 C 128.930 29.965,128.242 30.730,127.805 31.322 C 127.368 31.915,126.865 32.400,126.687 32.400 C 126.329 32.400,124.400 34.238,124.400 34.579 C 124.400 34.698,123.590 35.617,122.600 36.621 C 121.610 37.625,120.800 38.629,120.800 38.851 C 120.800 39.073,119.990 40.031,119.000 40.979 C 118.010 41.928,117.200 42.923,117.200 43.192 C 117.200 43.460,116.660 44.183,116.000 44.800 C 115.340 45.417,114.800 46.299,114.800 46.760 C 114.800 47.222,114.607 47.600,114.371 47.600 C 113.810 47.600,112.800 48.621,112.800 49.188 C 112.800 49.433,112.440 50.020,112.000 50.492 C 111.560 50.964,111.200 51.677,111.200 52.075 C 111.200 52.474,111.020 52.800,110.800 52.800 C 110.580 52.800,110.400 53.095,110.400 53.456 C 110.400 53.817,110.152 54.312,109.850 54.556 C 109.138 55.131,106.800 59.476,106.800 60.225 C 106.800 60.541,106.620 60.800,106.400 60.800 C 106.180 60.800,106.000 61.231,106.000 61.757 C 106.000 62.284,105.730 62.818,105.400 62.945 C 105.070 63.071,104.800 63.631,104.800 64.187 C 104.800 64.744,104.620 65.200,104.400 65.200 C 104.180 65.200,104.000 65.560,104.000 66.000 C 104.000 66.440,103.820 66.800,103.600 66.800 C 103.380 66.800,103.200 67.430,103.200 68.200 C 103.200 68.970,103.020 69.600,102.800 69.600 C 102.580 69.600,102.400 70.050,102.400 70.600 C 102.400 71.150,102.241 71.600,102.046 71.600 C 101.597 71.600,100.400 75.217,100.400 76.575 C 100.400 77.139,100.220 77.600,100.000 77.600 C 99.780 77.600,99.600 78.230,99.600 79.000 C 99.600 79.770,99.420 80.400,99.200 80.400 C 98.980 80.400,98.800 81.289,98.800 82.376 C 98.800 83.463,98.620 84.464,98.400 84.600 C 98.180 84.736,98.000 85.749,98.000 86.852 C 98.000 88.101,97.774 89.083,97.400 89.457 C 96.975 89.882,96.800 90.918,96.800 93.005 C 96.800 94.626,96.620 96.064,96.400 96.200 C 96.156 96.351,96.000 99.471,96.000 104.224 L 96.000 112.000 88.024 112.000 C 83.137 112.000,79.951 112.155,79.800 112.400 C 79.664 112.620,78.584 112.800,77.400 112.800 C 76.216 112.800,75.136 112.980,75.000 113.200 C 74.864 113.420,74.038 113.600,73.164 113.600 C 72.120 113.600,71.496 113.806,71.345 114.200 C 71.195 114.591,70.572 114.800,69.557 114.800 C 68.701 114.800,68.000 114.980,68.000 115.200 C 68.000 115.420,67.561 115.600,67.024 115.600 C 66.487 115.600,65.936 115.780,65.800 116.000 C 65.664 116.220,65.023 116.400,64.376 116.400 C 63.729 116.400,63.200 116.541,63.200 116.713 C 63.200 116.885,62.397 117.262,61.416 117.552 C 60.435 117.842,59.423 118.331,59.167 118.639 C 58.911 118.948,58.364 119.200,57.951 119.200 C 57.538 119.200,57.200 119.380,57.200 119.600 C 57.200 119.820,56.840 120.000,56.400 120.000 C 55.960 120.000,55.600 120.146,55.600 120.325 C 55.600 120.504,54.970 120.898,54.200 121.200 C 53.430 121.502,52.800 121.986,52.800 122.275 C 52.800 122.564,52.474 122.800,52.075 122.800 C 51.677 122.800,50.964 123.160,50.492 123.600 C 50.020 124.040,49.396 124.400,49.105 124.400 C 48.814 124.400,48.317 124.760,48.000 125.200 C 47.683 125.640,47.212 126.000,46.954 126.000 C 46.697 126.000,46.382 126.270,46.255 126.600 C 46.129 126.930,45.789 127.200,45.501 127.200 C 45.213 127.200,44.717 127.560,44.400 128.000 C 44.083 128.440,43.675 128.800,43.494 128.800 C 43.118 128.800,41.200 130.640,41.200 131.000 C 41.200 131.314,39.305 133.200,38.990 133.200 C 38.672 133.200,37.600 134.268,37.600 134.585 C 37.600 134.998,34.850 137.600,34.413 137.600 C 34.186 137.600,34.000 137.870,34.000 138.200 C 34.000 138.530,33.820 138.800,33.600 138.800 C 33.380 138.800,33.200 139.027,33.200 139.304 C 33.200 139.582,32.573 140.527,31.808 141.404 C 31.042 142.282,30.412 143.185,30.408 143.412 C 30.403 143.638,30.040 144.083,29.600 144.400 C 29.160 144.717,28.800 145.297,28.800 145.688 C 28.800 146.080,28.620 146.400,28.400 146.400 C 28.180 146.400,28.000 146.715,28.000 147.100 C 27.999 147.485,27.549 148.323,27.000 148.962 C 26.450 149.601,26.000 150.366,26.000 150.662 C 26.000 150.958,25.820 151.200,25.600 151.200 C 25.380 151.200,25.200 151.560,25.200 152.000 C 25.200 152.440,25.020 152.800,24.800 152.800 C 24.580 152.800,24.400 153.239,24.400 153.776 C 24.400 154.313,24.220 154.864,24.000 155.000 C 23.780 155.136,23.600 155.687,23.600 156.224 C 23.600 156.761,23.420 157.200,23.200 157.200 C 22.980 157.200,22.800 157.628,22.800 158.151 C 22.800 158.674,22.530 159.326,22.200 159.600 C 21.870 159.874,21.600 160.515,21.600 161.025 C 21.600 161.535,21.420 162.064,21.200 162.200 C 20.980 162.336,20.800 163.067,20.800 163.824 C 20.800 164.581,20.620 165.200,20.400 165.200 C 20.180 165.200,20.000 166.010,20.000 167.000 C 20.000 167.990,19.820 168.800,19.600 168.800 C 19.377 168.800,19.200 169.876,19.200 171.229 C 19.200 172.854,19.002 173.856,18.600 174.257 C 17.721 175.136,17.709 193.463,18.587 194.624 C 18.939 195.089,19.180 196.312,19.187 197.676 C 19.194 198.928,19.380 200.064,19.600 200.200 C 19.820 200.336,20.000 201.146,20.000 202.000 C 20.000 202.854,20.180 203.664,20.400 203.800 C 20.620 203.936,20.800 204.566,20.800 205.200 C 20.800 205.834,20.980 206.464,21.200 206.600 C 21.420 206.736,21.600 207.377,21.600 208.024 C 21.600 208.803,21.803 209.200,22.200 209.200 C 22.597 209.200,22.800 209.597,22.800 210.376 C 22.800 211.023,22.980 211.664,23.200 211.800 C 23.420 211.936,23.600 212.397,23.600 212.824 C 23.600 213.251,23.780 213.600,24.000 213.600 C 24.220 213.600,24.400 214.050,24.400 214.600 C 24.400 215.150,24.580 215.600,24.800 215.600 C 25.020 215.600,25.200 215.960,25.200 216.400 C 25.200 216.840,25.380 217.200,25.600 217.200 C 25.820 217.200,26.000 217.566,26.000 218.013 C 26.000 218.459,26.270 218.929,26.600 219.055 C 26.930 219.182,27.200 219.626,27.200 220.043 C 27.200 220.459,27.380 220.800,27.600 220.800 C 27.820 220.800,28.000 221.160,28.000 221.600 C 28.000 222.040,28.180 222.400,28.400 222.400 C 28.620 222.400,28.800 222.670,28.800 223.000 C 28.800 223.330,28.980 223.600,29.200 223.600 C 29.420 223.600,29.600 223.883,29.600 224.229 C 29.600 224.947,30.534 226.000,31.171 226.000 C 31.407 226.000,31.600 226.333,31.600 226.741 C 31.600 227.148,32.107 228.012,32.726 228.660 C 33.346 229.308,33.970 230.145,34.114 230.519 C 34.257 230.894,34.561 231.200,34.787 231.200 C 35.014 231.200,35.200 231.393,35.200 231.630 C 35.200 232.213,44.356 241.200,44.950 241.200 C 45.211 241.200,45.683 241.560,46.000 242.000 C 46.317 242.440,46.724 242.800,46.905 242.800 C 47.256 242.800,47.863 243.262,49.401 244.700 C 49.930 245.195,50.692 245.600,51.094 245.600 C 51.495 245.600,52.083 245.960,52.400 246.400 C 52.717 246.840,53.278 247.200,53.646 247.200 C 54.013 247.200,54.418 247.470,54.545 247.800 C 54.671 248.130,55.141 248.400,55.587 248.400 C 56.034 248.400,56.400 248.580,56.400 248.800 C 56.400 249.020,56.760 249.200,57.200 249.200 C 57.640 249.200,58.000 249.380,58.000 249.600 C 58.000 249.820,58.349 250.000,58.776 250.000 C 59.203 250.000,59.664 250.180,59.800 250.400 C 59.936 250.620,60.397 250.800,60.824 250.800 C 61.251 250.800,61.600 250.980,61.600 251.200 C 61.600 251.420,62.146 251.600,62.813 251.600 C 63.521 251.600,64.121 251.849,64.255 252.200 C 64.382 252.530,64.816 252.800,65.219 252.800 C 65.623 252.800,66.064 252.980,66.200 253.200 C 66.336 253.420,66.966 253.600,67.600 253.600 C 68.234 253.600,68.864 253.780,69.000 254.000 C 69.136 254.220,69.856 254.400,70.600 254.400 C 71.344 254.400,72.064 254.580,72.200 254.800 C 72.336 255.020,73.247 255.200,74.224 255.200 C 75.201 255.200,76.000 255.380,76.000 255.600 C 76.000 255.831,77.252 256.000,78.957 256.000 C 81.217 256.000,81.969 256.142,82.145 256.600 C 82.335 257.095,83.385 257.200,88.145 257.200 C 92.904 257.200,93.955 257.095,94.145 256.600 C 94.271 256.270,94.741 256.000,95.187 256.000 C 95.634 256.000,96.000 255.820,96.000 255.600 C 96.000 255.380,96.299 255.200,96.664 255.200 C 97.423 255.200,99.600 252.922,99.600 252.128 C 99.600 251.838,99.780 251.600,100.000 251.600 C 100.239 251.600,100.400 250.067,100.400 247.800 C 100.400 245.533,100.239 244.000,100.000 244.000 C 99.780 244.000,99.600 243.550,99.600 243.000 C 99.600 242.450,99.420 242.000,99.200 242.000 C 98.980 242.000,98.800 241.640,98.800 241.200 C 98.800 240.760,98.607 240.400,98.371 240.400 C 97.818 240.400,96.800 239.382,96.800 238.829 C 96.800 238.593,96.429 238.400,95.976 238.400 C 95.523 238.400,95.264 238.220,95.400 238.000 C 95.555 237.750,94.730 237.600,93.200 237.600 C 91.670 237.600,90.845 237.450,91.000 237.200 C 91.160 236.942,89.537 236.800,86.424 236.800 C 83.475 236.800,81.600 236.645,81.600 236.400 C 81.600 236.180,80.610 236.000,79.400 236.000 C 78.190 236.000,77.200 235.820,77.200 235.600 C 77.200 235.380,76.570 235.200,75.800 235.200 C 74.428 235.200,73.912 234.664,74.900 234.265 C 75.175 234.154,74.941 234.049,74.380 234.032 C 73.819 234.014,73.118 233.775,72.821 233.500 C 72.390 233.100,72.339 233.100,72.565 233.500 C 72.720 233.775,72.657 234.000,72.424 234.000 C 72.191 234.000,72.000 233.820,72.000 233.600 C 72.000 233.380,71.640 233.200,71.200 233.200 C 70.760 233.200,70.400 233.058,70.400 232.885 C 70.400 232.712,69.815 232.526,69.100 232.472 C 68.385 232.419,67.740 232.200,67.667 231.987 C 67.593 231.774,67.188 231.600,66.767 231.600 C 66.345 231.600,66.000 231.395,66.000 231.144 C 66.000 230.529,64.765 229.628,63.900 229.613 C 63.515 229.606,63.200 229.420,63.200 229.200 C 63.200 228.980,62.880 228.800,62.488 228.800 C 62.097 228.800,61.517 228.440,61.200 228.000 C 60.883 227.560,60.213 227.200,59.712 227.200 C 59.210 227.200,58.800 227.020,58.800 226.800 C 58.800 226.580,59.025 226.397,59.300 226.394 C 59.638 226.390,59.609 226.267,59.211 226.015 C 58.822 225.769,58.517 225.805,58.317 226.121 C 58.089 226.479,58.011 226.466,58.006 226.071 C 58.000 225.531,57.055 224.400,56.610 224.400 C 56.295 224.400,54.400 222.514,54.400 222.200 C 54.400 221.886,52.505 220.000,52.190 220.000 C 51.858 220.000,50.800 218.926,50.800 218.589 C 50.800 218.442,50.241 217.799,49.558 217.160 C 48.874 216.522,48.527 216.000,48.786 216.000 C 49.090 216.000,49.044 215.787,48.657 215.400 C 48.327 215.070,47.941 214.800,47.800 214.800 C 47.270 214.800,46.400 213.630,46.400 212.917 C 46.400 212.510,46.040 211.917,45.600 211.600 C 45.160 211.283,44.800 210.703,44.800 210.312 C 44.800 209.920,44.620 209.600,44.400 209.600 C 44.180 209.600,44.000 209.066,44.000 208.413 C 44.000 207.521,43.850 207.283,43.400 207.455 C 42.988 207.613,42.800 207.431,42.800 206.876 C 42.800 206.431,42.575 205.975,42.300 205.864 C 41.924 205.711,41.948 205.556,42.400 205.237 C 42.807 204.949,42.839 204.810,42.500 204.806 C 42.225 204.803,42.000 204.440,42.000 204.000 C 42.000 203.560,41.820 203.200,41.600 203.200 C 41.380 203.200,41.200 202.739,41.200 202.176 C 41.200 201.553,41.033 201.256,40.773 201.417 C 40.539 201.562,40.380 201.437,40.421 201.140 C 40.565 200.091,40.334 197.807,40.134 198.302 C 39.751 199.252,39.200 198.351,39.200 196.776 C 39.200 195.909,39.020 195.200,38.800 195.200 C 38.567 195.200,38.400 193.867,38.400 192.000 C 38.400 190.133,38.233 188.800,38.000 188.800 C 37.758 188.800,37.600 187.067,37.600 184.400 C 37.600 181.733,37.758 180.000,38.000 180.000 C 38.234 180.000,38.400 178.659,38.400 176.776 C 38.400 174.729,38.546 173.643,38.800 173.800 C 39.184 174.037,39.386 172.680,39.211 171.044 C 39.154 170.503,39.311 170.357,39.765 170.531 C 40.279 170.729,40.400 170.473,40.400 169.187 C 40.400 168.314,40.580 167.600,40.800 167.600 C 41.020 167.600,41.200 166.959,41.200 166.176 C 41.200 165.329,41.362 164.853,41.600 165.000 C 41.827 165.140,42.000 164.804,42.000 164.224 C 42.000 163.661,42.180 163.200,42.400 163.200 C 42.620 163.200,42.800 162.859,42.800 162.443 C 42.800 162.026,43.070 161.582,43.400 161.455 C 43.730 161.329,44.000 160.859,44.000 160.413 C 44.000 159.966,44.180 159.600,44.400 159.600 C 44.620 159.600,44.800 159.280,44.800 158.888 C 44.800 158.497,45.156 157.920,45.591 157.606 C 46.155 157.200,46.245 156.951,45.904 156.741 C 45.565 156.531,45.683 156.222,46.313 155.676 C 46.801 155.252,47.200 154.612,47.200 154.253 C 47.200 153.894,47.393 153.600,47.629 153.600 C 48.139 153.600,49.200 152.599,49.200 152.117 C 49.200 151.930,49.560 151.517,50.000 151.200 C 50.440 150.883,50.800 150.303,50.800 149.912 C 50.800 149.520,50.980 149.200,51.200 149.200 C 51.420 149.200,51.600 148.930,51.600 148.600 C 51.600 148.270,51.799 148.000,52.043 148.000 C 52.289 148.000,52.374 148.291,52.234 148.657 C 52.016 149.223,52.071 149.239,52.635 148.771 C 53.041 148.434,53.120 148.173,52.844 148.081 C 52.270 147.890,52.266 147.200,52.840 147.200 C 53.081 147.200,53.783 146.660,54.400 146.000 C 55.017 145.340,55.822 144.800,56.189 144.800 C 56.844 144.800,58.000 143.907,58.000 143.400 C 58.000 142.937,59.099 142.032,59.352 142.286 C 59.489 142.422,59.600 142.233,59.600 141.867 C 59.600 141.422,59.933 141.200,60.600 141.200 C 61.150 141.200,61.600 141.020,61.600 140.800 C 61.600 140.580,61.960 140.400,62.400 140.400 C 62.840 140.400,63.200 140.209,63.200 139.976 C 63.200 139.743,63.020 139.664,62.800 139.800 C 62.580 139.936,62.400 139.857,62.400 139.624 C 62.400 139.391,62.760 139.200,63.200 139.200 C 63.640 139.200,64.000 139.020,64.000 138.800 C 64.000 138.580,64.450 138.400,65.000 138.400 C 65.550 138.400,66.000 138.220,66.000 138.000 C 66.000 137.780,66.360 137.600,66.800 137.600 C 67.240 137.600,67.600 137.420,67.600 137.200 C 67.600 136.980,67.924 136.800,68.320 136.800 C 69.405 136.800,71.193 135.867,71.197 135.300 C 71.199 135.012,71.708 134.800,72.400 134.800 C 73.060 134.800,73.600 134.620,73.600 134.400 C 73.600 134.180,74.230 134.000,75.000 134.000 C 75.770 134.000,76.400 133.820,76.400 133.600 C 76.400 133.380,77.210 133.200,78.200 133.200 C 79.190 133.200,80.000 133.020,80.000 132.800 C 80.000 132.568,81.304 132.397,83.100 132.394 C 84.947 132.390,85.984 132.251,85.666 132.049 C 84.722 131.451,86.232 131.389,96.600 131.598 L 106.600 131.800 97.600 132.019 L 88.600 132.238 97.600 132.165 C 107.400 132.084,110.000 131.831,110.000 130.958 C 110.000 130.629,110.411 130.400,111.000 130.400 C 111.550 130.400,112.000 130.220,112.000 130.000 C 112.000 129.780,112.405 129.586,112.900 129.568 C 113.395 129.551,113.577 129.447,113.304 129.336 C 112.713 129.098,113.629 128.000,114.418 128.000 C 114.709 128.000,114.819 127.613,114.702 127.000 C 114.574 126.329,114.690 126.000,115.055 126.000 C 115.434 126.000,115.600 125.452,115.600 124.200 C 115.600 123.210,115.780 122.400,116.000 122.400 C 116.259 122.400,116.400 117.459,116.400 108.376 C 116.400 99.129,116.536 94.437,116.800 94.600 C 117.051 94.755,117.200 93.879,117.200 92.247 C 117.200 90.817,117.380 89.536,117.600 89.400 C 117.820 89.264,118.000 88.244,118.000 87.134 C 118.000 85.460,118.108 85.156,118.631 85.356 C 119.146 85.554,119.241 85.325,119.150 84.099 C 119.076 83.097,119.199 82.633,119.520 82.700 C 119.831 82.765,120.000 82.229,120.000 81.176 C 120.000 80.196,120.158 79.651,120.400 79.800 C 120.638 79.947,120.800 79.471,120.800 78.624 C 120.800 77.841,120.980 77.200,121.200 77.200 C 121.420 77.200,121.600 76.660,121.600 76.000 C 121.600 75.340,121.780 74.800,122.000 74.800 C 122.220 74.800,122.400 74.331,122.400 73.757 C 122.400 72.995,122.561 72.776,123.000 72.945 C 123.433 73.111,123.600 72.901,123.600 72.187 C 123.600 71.644,123.780 71.200,124.000 71.200 C 124.220 71.200,124.400 70.840,124.400 70.400 C 124.400 69.960,124.580 69.600,124.800 69.600 C 125.020 69.600,125.200 69.150,125.200 68.600 C 125.200 68.050,125.380 67.600,125.600 67.600 C 125.820 67.600,126.000 67.306,126.000 66.947 C 126.000 66.587,126.495 65.860,127.100 65.332 C 127.735 64.776,127.904 64.479,127.500 64.628 C 127.100 64.775,126.800 64.696,126.800 64.443 C 126.800 64.199,127.070 64.000,127.400 64.000 C 127.730 64.000,128.000 63.680,128.000 63.288 C 128.000 62.897,128.360 62.317,128.800 62.000 C 129.240 61.683,129.600 61.090,129.600 60.683 C 129.600 59.872,130.494 58.800,131.171 58.800 C 131.553 58.800,131.659 58.525,131.573 57.764 C 131.559 57.634,131.874 57.279,132.273 56.976 C 132.673 56.673,132.837 56.420,132.639 56.413 C 132.440 56.406,132.665 56.064,133.139 55.653 C 133.612 55.242,134.000 54.612,134.000 54.253 C 134.000 53.894,134.180 53.600,134.400 53.600 C 134.620 53.600,134.800 53.330,134.800 53.000 C 134.800 52.273,135.454 52.204,135.735 52.900 C 135.854 53.195,135.950 53.108,135.968 52.689 C 136.002 51.926,139.308 48.400,139.989 48.400 C 140.215 48.400,140.400 48.214,140.400 47.987 C 140.400 47.550,143.002 44.800,143.415 44.800 C 143.732 44.800,144.800 43.728,144.800 43.410 C 144.800 42.889,146.795 41.200,147.410 41.200 C 148.144 41.200,149.200 40.273,149.200 39.629 C 149.200 39.393,149.481 39.200,149.824 39.200 C 150.193 39.200,150.331 39.012,150.162 38.738 C 149.993 38.464,150.051 38.385,150.306 38.542 C 150.542 38.688,151.007 38.536,151.339 38.204 C 151.671 37.872,152.070 37.600,152.225 37.600 C 152.379 37.600,152.842 37.212,153.253 36.739 C 153.664 36.265,154.000 36.098,154.000 36.367 C 154.000 36.705,154.187 36.670,154.600 36.257 C 154.930 35.927,155.200 35.541,155.200 35.400 C 155.200 34.768,156.481 33.883,156.754 34.326 C 156.945 34.635,157.220 34.527,157.606 33.991 C 157.920 33.556,158.497 33.200,158.888 33.200 C 159.280 33.200,159.600 33.058,159.600 32.885 C 159.600 32.712,160.002 32.540,160.494 32.503 C 160.986 32.466,161.451 32.248,161.527 32.018 C 161.604 31.788,162.012 31.600,162.433 31.600 C 162.855 31.600,163.200 31.330,163.200 31.000 C 163.200 30.591,163.614 30.398,164.500 30.394 C 165.486 30.389,165.655 30.294,165.200 30.000 C 164.732 29.698,164.843 29.611,165.700 29.606 C 166.305 29.603,166.800 29.420,166.800 29.200 C 166.800 28.980,167.430 28.800,168.200 28.800 C 168.970 28.800,169.600 28.620,169.600 28.400 C 169.600 28.180,169.960 28.000,170.400 28.000 C 170.844 28.000,171.200 27.733,171.200 27.400 C 171.200 27.000,171.600 26.800,172.400 26.800 C 173.060 26.800,173.600 26.620,173.600 26.400 C 173.600 26.180,174.230 26.000,175.000 26.000 C 175.770 26.000,176.400 25.820,176.400 25.600 C 176.400 25.380,177.120 25.200,178.000 25.200 C 178.880 25.200,179.600 25.020,179.600 24.800 C 179.600 24.580,180.485 24.400,181.567 24.400 C 182.716 24.400,183.598 24.205,183.690 23.931 C 183.792 23.624,184.810 23.480,186.623 23.515 C 188.150 23.545,189.174 23.471,188.898 23.351 C 188.621 23.230,188.497 22.967,188.621 22.766 C 188.959 22.219,191.103 22.325,191.335 22.900 C 191.496 23.300,191.543 23.300,191.568 22.900 C 191.593 22.514,193.852 22.400,201.443 22.400 C 210.219 22.400,211.260 22.468,211.045 23.027 C 210.841 23.560,211.183 23.646,213.302 23.596 C 216.687 23.516,216.884 23.540,216.600 24.000 C 216.448 24.247,217.129 24.400,218.376 24.400 C 219.489 24.400,220.400 24.580,220.400 24.800 C 220.400 25.020,221.105 25.200,221.967 25.200 C 222.828 25.200,223.597 25.391,223.675 25.624 C 223.752 25.857,224.397 26.065,225.108 26.085 C 225.819 26.105,226.400 26.274,226.400 26.461 C 226.400 26.647,226.959 26.800,227.643 26.800 C 228.583 26.800,228.830 26.946,228.655 27.400 C 228.437 27.968,229.489 28.239,231.100 28.030 C 231.375 27.994,231.600 28.153,231.600 28.382 C 231.600 28.612,231.960 28.800,232.400 28.800 C 232.840 28.800,233.200 28.980,233.200 29.200 C 233.200 29.420,233.650 29.600,234.200 29.600 C 234.750 29.600,235.200 29.780,235.200 30.000 C 235.200 30.220,235.560 30.400,236.000 30.400 C 236.444 30.400,236.800 30.667,236.800 31.000 C 236.800 31.333,237.156 31.600,237.600 31.600 C 238.040 31.600,238.400 31.780,238.400 32.000 C 238.400 32.220,238.850 32.400,239.400 32.400 C 239.950 32.400,240.400 32.580,240.400 32.800 C 240.400 33.020,240.750 33.200,241.177 33.200 C 241.605 33.200,242.216 33.573,242.535 34.028 C 242.943 34.612,243.166 34.701,243.289 34.332 C 243.497 33.710,244.800 34.820,244.800 35.618 C 244.800 35.896,245.132 36.007,245.600 35.884 C 246.120 35.748,246.400 35.872,246.400 36.237 C 246.400 36.547,246.670 36.800,247.000 36.800 C 247.330 36.800,247.600 36.980,247.600 37.200 C 247.600 37.420,247.878 37.600,248.218 37.600 C 248.914 37.600,250.800 39.340,250.800 39.982 C 250.800 40.212,251.070 40.400,251.400 40.400 C 251.730 40.400,252.000 40.580,252.000 40.800 C 252.000 41.020,252.270 41.200,252.601 41.200 C 252.931 41.200,255.534 43.540,258.385 46.400 C 261.236 49.260,263.678 51.600,263.813 51.600 C 264.309 51.600,265.200 52.763,265.200 53.411 C 265.200 53.778,265.734 54.578,266.386 55.187 C 267.038 55.796,267.451 56.416,267.303 56.563 C 267.156 56.711,267.430 56.935,267.913 57.061 C 268.396 57.188,268.700 57.439,268.588 57.620 C 268.476 57.800,268.864 58.428,269.451 59.014 C 270.154 59.717,270.364 60.175,270.067 60.358 C 269.767 60.544,269.881 60.826,270.409 61.206 C 270.844 61.520,271.203 62.142,271.206 62.588 C 271.211 63.259,271.280 63.296,271.600 62.800 C 271.896 62.342,271.989 62.494,271.994 63.444 C 271.998 64.299,272.312 64.923,273.000 65.439 C 273.550 65.852,274.000 66.507,274.000 66.895 C 274.000 67.283,274.180 67.600,274.400 67.600 C 274.620 67.600,274.800 68.050,274.800 68.600 C 274.800 69.150,274.980 69.600,275.200 69.600 C 275.420 69.600,275.600 69.917,275.600 70.304 C 275.600 70.691,276.050 71.493,276.600 72.087 C 277.150 72.680,277.600 73.533,277.600 73.983 C 277.600 74.432,277.780 74.800,278.000 74.800 C 278.220 74.800,278.400 75.340,278.400 76.000 C 278.400 76.660,278.580 77.200,278.800 77.200 C 279.020 77.200,279.200 77.830,279.200 78.600 C 279.200 79.370,279.380 80.000,279.600 80.000 C 279.820 80.000,280.000 80.624,280.000 81.387 C 280.000 82.456,280.138 82.722,280.600 82.545 C 281.073 82.363,281.200 82.661,281.200 83.957 C 281.200 84.861,281.380 85.600,281.600 85.600 C 281.820 85.600,282.000 86.500,282.000 87.600 C 282.000 88.700,282.180 89.600,282.400 89.600 C 282.979 89.600,282.893 91.096,282.300 91.335 C 281.900 91.496,281.900 91.543,282.300 91.568 C 282.613 91.588,282.800 92.208,282.800 93.224 C 282.800 94.204,282.958 94.749,283.200 94.600 C 283.464 94.437,283.600 99.204,283.600 108.600 C 283.600 117.996,283.736 122.763,284.000 122.600 C 284.220 122.464,284.400 122.543,284.400 122.776 C 284.400 123.471,284.219 123.806,283.900 123.700 C 283.735 123.645,283.600 123.780,283.600 124.000 C 283.600 124.220,283.780 124.400,284.000 124.400 C 284.220 124.400,284.414 124.985,284.432 125.700 C 284.449 126.415,284.554 126.775,284.665 126.500 C 284.983 125.711,285.600 125.917,285.600 126.813 C 285.600 127.793,288.102 130.400,289.043 130.400 C 289.411 130.400,289.917 130.680,290.167 131.023 C 290.607 131.624,311.077 131.971,312.011 131.393 C 312.180 131.289,312.891 131.318,313.591 131.458 C 314.488 131.638,314.707 131.813,314.332 132.050 C 314.018 132.250,315.152 132.390,317.100 132.394 C 319.029 132.397,320.400 132.566,320.400 132.800 C 320.400 133.020,321.120 133.200,322.000 133.200 C 322.880 133.200,323.600 133.380,323.600 133.600 C 323.600 133.820,324.230 134.000,325.000 134.000 C 325.770 134.000,326.400 134.180,326.400 134.400 C 326.400 134.620,326.959 134.800,327.643 134.800 C 328.583 134.800,328.830 134.946,328.655 135.400 C 328.500 135.804,328.674 136.000,329.189 136.000 C 329.609 136.000,330.064 136.180,330.200 136.400 C 330.336 136.620,330.887 136.800,331.424 136.800 C 331.961 136.800,332.400 136.980,332.400 137.200 C 332.400 137.420,332.760 137.600,333.200 137.600 C 333.640 137.600,334.000 137.780,334.000 138.000 C 334.000 138.220,334.450 138.400,335.000 138.400 C 335.550 138.400,336.000 138.580,336.000 138.800 C 336.000 139.020,336.379 139.200,336.843 139.200 C 337.428 139.200,337.615 139.384,337.455 139.800 C 337.315 140.165,337.455 140.400,337.813 140.400 C 338.136 140.400,338.400 140.580,338.400 140.800 C 338.400 141.020,338.768 141.200,339.218 141.200 C 339.981 141.200,342.000 142.824,342.000 143.438 C 342.000 143.851,343.325 144.773,343.940 144.787 C 344.236 144.794,344.983 145.340,345.600 146.000 C 346.217 146.660,346.919 147.200,347.160 147.200 C 347.402 147.200,347.600 147.399,347.600 147.643 C 347.600 147.886,347.321 147.978,346.979 147.847 C 346.610 147.706,346.462 147.776,346.613 148.021 C 346.753 148.247,347.212 148.323,347.634 148.189 C 348.166 148.020,348.400 148.137,348.400 148.573 C 348.400 148.918,348.580 149.200,348.800 149.200 C 349.020 149.200,349.200 149.520,349.200 149.912 C 349.200 150.303,349.560 150.883,350.000 151.200 C 350.440 151.517,350.800 152.007,350.800 152.288 C 350.800 152.570,350.993 152.800,351.229 152.800 C 351.831 152.800,352.800 153.838,352.800 154.483 C 352.800 154.780,353.160 155.283,353.600 155.600 C 354.040 155.917,354.400 156.587,354.400 157.088 C 354.400 157.590,354.580 158.000,354.800 158.000 C 355.020 158.000,355.200 158.360,355.200 158.800 C 355.200 159.244,355.467 159.600,355.800 159.600 C 356.173 159.600,356.400 159.978,356.400 160.600 C 356.400 161.150,356.580 161.600,356.800 161.600 C 357.020 161.600,357.200 161.960,357.200 162.400 C 357.200 162.840,357.380 163.200,357.600 163.200 C 357.820 163.200,358.000 163.560,358.000 164.000 C 358.000 164.440,358.188 164.800,358.418 164.800 C 358.647 164.800,358.806 165.025,358.770 165.300 C 358.636 166.337,358.872 168.579,359.065 168.100 C 359.495 167.033,359.802 167.684,359.725 169.500 C 359.681 170.545,359.737 171.085,359.851 170.700 C 360.265 169.302,360.800 170.048,360.800 172.024 C 360.800 173.271,360.953 173.952,361.200 173.800 C 361.455 173.642,361.600 174.804,361.600 177.000 C 361.600 179.196,361.745 180.358,362.000 180.200 C 362.257 180.041,362.400 181.529,362.400 184.376 C 362.400 187.059,362.243 188.800,362.000 188.800 C 361.769 188.800,361.600 190.067,361.600 191.800 C 361.600 193.533,361.431 194.800,361.200 194.800 C 360.980 194.800,360.800 195.700,360.800 196.800 C 360.800 198.671,360.323 199.436,359.865 198.300 C 359.754 198.025,359.649 198.385,359.632 199.100 C 359.614 199.815,359.420 200.400,359.200 200.400 C 358.980 200.400,358.800 201.030,358.800 201.800 C 358.800 202.570,358.620 203.200,358.400 203.200 C 358.180 203.200,358.000 203.560,358.000 204.000 C 358.000 204.440,357.775 204.803,357.500 204.806 C 357.161 204.810,357.193 204.949,357.600 205.237 C 358.052 205.556,358.076 205.711,357.700 205.864 C 357.425 205.975,357.200 206.412,357.200 206.833 C 357.200 207.255,357.020 207.600,356.800 207.600 C 356.580 207.600,356.400 208.050,356.400 208.600 C 356.400 209.646,355.812 209.960,355.465 209.100 C 355.354 208.825,355.246 209.230,355.225 210.000 C 355.197 211.058,355.093 211.253,354.800 210.800 C 354.486 210.315,354.411 210.372,354.406 211.100 C 354.403 211.595,354.220 212.000,354.000 212.000 C 353.780 212.000,353.600 212.410,353.600 212.912 C 353.600 213.413,353.240 214.083,352.800 214.400 C 352.360 214.717,352.000 215.297,352.000 215.688 C 352.000 216.503,351.366 216.647,351.065 215.900 C 350.954 215.625,350.849 215.765,350.832 216.212 C 350.814 216.658,350.440 217.283,350.000 217.600 C 349.560 217.917,349.200 218.325,349.200 218.506 C 349.200 218.888,347.357 220.800,346.990 220.800 C 346.669 220.800,345.600 221.869,345.600 222.190 C 345.600 222.511,343.711 224.400,343.390 224.400 C 342.999 224.400,342.000 225.503,342.000 225.934 C 342.000 226.149,341.637 226.230,341.194 226.114 C 340.574 225.952,340.446 226.053,340.637 226.552 C 340.792 226.957,340.678 227.200,340.331 227.200 C 340.026 227.200,339.517 227.560,339.200 228.000 C 338.883 228.440,338.213 228.800,337.712 228.800 C 337.210 228.800,336.800 228.980,336.800 229.200 C 336.800 229.420,336.440 229.600,336.000 229.600 C 335.560 229.600,335.200 229.780,335.200 230.000 C 335.200 230.220,334.846 230.400,334.413 230.400 C 333.842 230.400,333.696 230.584,333.881 231.066 C 334.044 231.490,333.978 231.634,333.700 231.462 C 333.461 231.314,332.993 231.464,332.661 231.796 C 332.329 232.128,331.684 232.400,331.229 232.400 C 330.773 232.400,330.397 232.625,330.394 232.900 C 330.390 233.233,330.258 233.200,330.000 232.800 C 329.742 232.400,329.610 232.367,329.606 232.700 C 329.603 232.975,329.240 233.200,328.800 233.200 C 328.360 233.200,328.000 233.380,328.000 233.600 C 328.000 233.820,327.376 234.000,326.613 234.000 C 325.544 234.000,325.278 234.138,325.455 234.600 C 325.634 235.065,325.361 235.200,324.243 235.200 C 323.449 235.200,322.800 235.351,322.800 235.537 C 322.800 235.722,321.855 235.906,320.700 235.946 C 319.545 235.987,318.540 236.195,318.467 236.410 C 318.390 236.633,316.376 236.800,313.767 236.800 C 310.989 236.800,309.200 236.957,309.200 237.200 C 309.200 237.420,308.165 237.606,306.900 237.613 C 304.818 237.624,303.200 238.219,303.200 238.973 C 303.200 239.410,302.110 240.400,301.629 240.400 C 301.393 240.400,301.197 240.805,301.194 241.300 C 301.189 242.028,301.114 242.085,300.800 241.600 C 300.512 241.154,300.411 241.384,300.406 242.500 C 300.403 243.325,300.220 244.000,300.000 244.000 C 299.761 244.000,299.600 245.533,299.600 247.800 C 299.600 250.067,299.761 251.600,300.000 251.600 C 300.220 251.600,300.400 251.838,300.400 252.128 C 300.400 252.922,302.577 255.200,303.336 255.200 C 303.701 255.200,304.000 255.380,304.000 255.600 C 304.000 255.820,304.450 256.000,305.000 256.000 C 305.622 256.000,306.000 256.227,306.000 256.600 C 306.000 257.106,306.913 257.200,311.813 257.200 C 316.610 257.200,317.665 257.095,317.855 256.600 C 318.031 256.142,318.783 256.000,321.043 256.000 C 322.748 256.000,324.000 255.831,324.000 255.600 C 324.000 255.380,324.900 255.200,326.000 255.200 C 327.100 255.200,328.000 255.020,328.000 254.800 C 328.000 254.580,328.619 254.400,329.376 254.400 C 330.133 254.400,330.864 254.220,331.000 254.000 C 331.136 253.780,331.766 253.600,332.400 253.600 C 333.034 253.600,333.664 253.420,333.800 253.200 C 333.936 252.980,334.402 252.800,334.836 252.800 C 335.270 252.800,335.729 252.530,335.855 252.200 C 335.987 251.858,336.583 251.600,337.243 251.600 C 337.879 251.600,338.400 251.420,338.400 251.200 C 338.400 250.980,338.850 250.800,339.400 250.800 C 339.950 250.800,340.400 250.620,340.400 250.400 C 340.400 250.180,340.760 250.000,341.200 250.000 C 341.640 250.000,342.000 249.820,342.000 249.600 C 342.000 249.380,342.242 249.200,342.539 249.200 C 343.341 249.200,345.600 247.998,345.600 247.571 C 345.600 247.367,345.960 247.200,346.400 247.200 C 346.840 247.200,347.200 247.020,347.200 246.800 C 347.200 246.580,347.470 246.400,347.800 246.400 C 348.130 246.400,348.400 246.220,348.400 246.000 C 348.400 245.780,348.678 245.600,349.018 245.600 C 349.358 245.600,350.070 245.195,350.599 244.700 C 352.137 243.262,352.744 242.800,353.095 242.800 C 353.276 242.800,353.683 242.440,354.000 242.000 C 354.317 241.560,354.809 241.200,355.092 241.200 C 355.725 241.200,366.000 231.000,366.000 230.371 C 366.000 230.124,366.540 229.417,367.200 228.800 C 367.860 228.183,368.400 227.301,368.400 226.840 C 368.400 226.378,368.593 226.000,368.829 226.000 C 369.466 226.000,370.400 224.947,370.400 224.229 C 370.400 223.883,370.580 223.600,370.800 223.600 C 371.020 223.600,371.200 223.330,371.200 223.000 C 371.200 222.670,371.380 222.400,371.600 222.400 C 371.820 222.400,372.000 222.040,372.000 221.600 C 372.000 221.160,372.167 220.800,372.371 220.800 C 372.798 220.800,374.000 218.541,374.000 217.739 C 374.000 217.442,374.180 217.200,374.400 217.200 C 374.620 217.200,374.800 216.840,374.800 216.400 C 374.800 215.960,374.980 215.600,375.200 215.600 C 375.420 215.600,375.600 215.150,375.600 214.600 C 375.600 214.050,375.780 213.600,376.000 213.600 C 376.220 213.600,376.400 213.317,376.400 212.971 C 376.400 212.626,376.670 212.073,377.000 211.743 C 377.330 211.413,377.600 210.706,377.600 210.171 C 377.600 209.637,377.780 209.200,378.000 209.200 C 378.220 209.200,378.400 208.671,378.400 208.024 C 378.400 207.377,378.580 206.736,378.800 206.600 C 379.020 206.464,379.200 205.834,379.200 205.200 C 379.200 204.566,379.380 203.936,379.600 203.800 C 379.820 203.664,380.000 202.854,380.000 202.000 C 380.000 201.146,380.180 200.336,380.400 200.200 C 380.620 200.064,380.800 198.905,380.800 197.625 C 380.800 196.045,380.992 195.138,381.400 194.800 C 381.904 194.382,382.000 192.707,382.000 184.338 C 382.000 175.851,381.911 174.341,381.400 174.145 C 380.953 173.973,380.800 173.261,380.800 171.357 C 380.800 169.919,380.625 168.800,380.400 168.800 C 380.180 168.800,380.000 167.990,380.000 167.000 C 380.000 166.010,379.820 165.200,379.600 165.200 C 379.380 165.200,379.200 164.581,379.200 163.824 C 379.200 163.067,379.020 162.336,378.800 162.200 C 378.580 162.064,378.400 161.423,378.400 160.776 C 378.400 160.129,378.220 159.600,378.000 159.600 C 377.780 159.600,377.600 159.144,377.600 158.587 C 377.600 158.031,377.330 157.471,377.000 157.345 C 376.670 157.218,376.400 156.694,376.400 156.181 C 376.400 155.667,376.220 155.136,376.000 155.000 C 375.780 154.864,375.600 154.313,375.600 153.776 C 375.600 153.239,375.420 152.800,375.200 152.800 C 374.980 152.800,374.800 152.575,374.801 152.300 C 374.803 151.422,373.020 148.400,372.501 148.400 C 372.225 148.400,372.000 147.950,372.000 147.400 C 372.000 146.850,371.820 146.400,371.600 146.400 C 371.380 146.400,371.200 146.080,371.200 145.688 C 371.200 145.297,370.840 144.717,370.400 144.400 C 369.960 144.083,369.600 143.590,369.600 143.305 C 369.600 143.019,368.970 142.174,368.200 141.426 C 367.430 140.679,366.800 139.782,366.800 139.433 C 366.800 139.085,366.620 138.800,366.400 138.800 C 366.180 138.800,366.000 138.607,366.000 138.371 C 366.000 137.911,365.017 136.800,364.610 136.800 C 364.295 136.800,362.400 134.914,362.400 134.600 C 362.400 134.286,360.505 132.400,360.190 132.400 C 359.869 132.400,358.800 131.331,358.800 131.010 C 358.800 130.643,356.888 128.800,356.506 128.800 C 356.325 128.800,355.917 128.440,355.600 128.000 C 355.283 127.560,354.703 127.200,354.312 127.200 C 353.920 127.200,353.600 126.960,353.600 126.668 C 353.600 126.375,353.150 125.894,352.600 125.600 C 352.050 125.306,351.600 124.915,351.600 124.732 C 351.600 124.550,351.280 124.400,350.888 124.400 C 350.497 124.400,349.917 124.040,349.600 123.600 C 349.283 123.160,348.613 122.800,348.112 122.800 C 347.568 122.800,347.200 122.558,347.200 122.200 C 347.200 121.870,346.922 121.600,346.583 121.600 C 346.244 121.600,345.580 121.240,345.108 120.800 C 344.636 120.360,343.923 120.000,343.525 120.000 C 343.126 120.000,342.800 119.820,342.800 119.600 C 342.800 119.380,342.517 119.200,342.171 119.200 C 341.826 119.200,341.296 118.953,340.994 118.651 C 340.691 118.349,339.624 117.859,338.622 117.563 C 337.620 117.267,336.800 116.885,336.800 116.713 C 336.800 116.541,336.361 116.400,335.824 116.400 C 335.287 116.400,334.736 116.220,334.600 116.000 C 334.464 115.780,333.823 115.600,333.176 115.600 C 332.529 115.600,332.000 115.420,332.000 115.200 C 332.000 114.980,331.299 114.800,330.443 114.800 C 329.428 114.800,328.805 114.591,328.655 114.200 C 328.503 113.804,327.877 113.600,326.813 113.600 C 325.926 113.600,325.200 113.420,325.200 113.200 C 325.200 112.978,324.141 112.800,322.824 112.800 C 321.517 112.800,320.336 112.620,320.200 112.400 C 320.049 112.155,316.863 112.000,311.976 112.000 L 304.000 112.000 304.000 104.224 C 304.000 99.471,303.844 96.351,303.600 96.200 C 303.380 96.064,303.200 94.534,303.200 92.800 C 303.200 91.066,303.020 89.536,302.800 89.400 C 302.580 89.264,302.400 88.168,302.400 86.964 C 302.400 85.387,302.232 84.710,301.800 84.545 C 301.394 84.389,301.200 83.753,301.200 82.581 C 301.200 81.627,301.020 80.736,300.800 80.600 C 300.580 80.464,300.400 79.733,300.400 78.976 C 300.400 78.219,300.239 77.600,300.042 77.600 C 299.845 77.600,299.585 76.925,299.465 76.100 C 299.016 73.030,298.685 71.931,298.150 71.725 C 297.847 71.609,297.600 71.084,297.600 70.557 C 297.600 70.031,297.420 69.600,297.200 69.600 C 296.980 69.600,296.800 68.970,296.800 68.200 C 296.800 67.430,296.620 66.800,296.400 66.800 C 296.180 66.800,296.000 66.440,296.000 66.000 C 296.000 65.560,295.820 65.200,295.600 65.200 C 295.380 65.200,295.200 64.900,295.200 64.534 C 295.200 63.636,293.927 60.800,293.523 60.800 C 293.345 60.800,293.200 60.451,293.200 60.024 C 293.200 59.597,293.020 59.136,292.800 59.000 C 292.580 58.864,292.400 58.403,292.400 57.976 C 292.400 57.549,292.254 57.200,292.075 57.200 C 291.896 57.200,291.502 56.570,291.200 55.800 C 290.898 55.030,290.504 54.400,290.325 54.400 C 290.146 54.400,290.000 54.124,290.000 53.787 C 290.000 53.451,289.730 53.071,289.400 52.945 C 289.070 52.818,288.800 52.374,288.800 51.957 C 288.800 51.541,288.620 51.200,288.400 51.200 C 288.180 51.200,288.000 50.930,288.000 50.600 C 288.000 50.270,287.820 50.000,287.600 50.000 C 287.380 50.000,287.200 49.717,287.200 49.371 C 287.200 48.653,286.266 47.600,285.629 47.600 C 285.393 47.600,285.200 47.222,285.200 46.760 C 285.200 46.299,284.660 45.417,284.000 44.800 C 283.340 44.183,282.794 43.436,282.787 43.140 C 282.773 42.525,281.851 41.200,281.438 41.200 C 281.005 41.200,279.200 39.281,279.200 38.821 C 279.200 38.592,278.390 37.583,277.400 36.579 C 276.410 35.575,275.600 34.668,275.600 34.563 C 275.600 34.188,272.817 31.600,272.413 31.600 C 272.186 31.600,272.000 31.399,272.000 31.154 C 272.000 30.537,269.281 28.103,267.920 27.500 C 267.304 27.228,266.800 26.821,266.800 26.597 C 266.800 26.373,266.320 25.832,265.734 25.395 C 265.148 24.958,264.441 24.375,264.163 24.100 C 263.885 23.825,263.468 23.600,263.236 23.600 C 263.004 23.600,262.166 22.970,261.373 22.200 C 260.580 21.430,259.759 20.800,259.549 20.800 C 259.339 20.800,258.780 20.440,258.308 20.000 C 257.836 19.560,257.123 19.200,256.725 19.200 C 256.326 19.200,256.000 18.952,256.000 18.649 C 256.000 18.345,255.460 17.873,254.800 17.600 C 254.140 17.327,253.600 16.945,253.600 16.751 C 253.600 16.558,253.150 16.400,252.600 16.400 C 252.050 16.400,251.600 16.220,251.600 16.000 C 251.600 15.780,251.423 15.600,251.208 15.600 C 250.992 15.600,249.867 15.010,248.708 14.288 C 247.548 13.566,246.060 12.735,245.400 12.441 C 244.740 12.147,243.887 11.748,243.505 11.553 C 243.123 11.359,242.448 11.200,242.005 11.200 C 241.562 11.200,241.200 11.020,241.200 10.800 C 241.200 10.580,240.769 10.400,240.243 10.400 C 239.716 10.400,239.182 10.130,239.055 9.800 C 238.929 9.470,238.369 9.200,237.813 9.200 C 237.256 9.200,236.800 9.020,236.800 8.800 C 236.800 8.580,236.361 8.400,235.824 8.400 C 235.287 8.400,234.736 8.220,234.600 8.000 C 234.464 7.780,233.834 7.600,233.200 7.600 C 232.566 7.600,231.936 7.420,231.800 7.200 C 231.664 6.980,230.933 6.800,230.176 6.800 C 229.419 6.800,228.800 6.620,228.800 6.400 C 228.800 6.180,228.074 6.000,227.187 6.000 C 226.123 6.000,225.497 5.796,225.345 5.400 C 225.188 4.993,224.550 4.800,223.357 4.800 C 222.391 4.800,221.600 4.620,221.600 4.400 C 221.600 4.180,220.621 4.000,219.424 4.000 C 218.227 4.000,217.136 3.820,217.000 3.600 C 216.863 3.379,215.063 3.200,212.976 3.200 C 210.725 3.200,209.200 3.038,209.200 2.800 C 209.200 2.545,205.867 2.400,200.000 2.400 C 194.133 2.400,190.800 2.545,190.800 2.800 M297.678 132.298 C 300.031 132.369,303.991 132.369,306.478 132.299 C 308.965 132.229,307.040 132.171,302.200 132.170 C 297.360 132.170,295.325 132.228,297.678 132.298 " stroke="none" fill="#444b54" fill-rule="evenodd"></path></g></svg>