<svg id="svg" version="1.1" xmlns="http://www.w3.org/2000/svg" xmlns:xlink="http://www.w3.org/1999/xlink" width="400" height="400" viewBox="0, 0, 400,400"><g id="svgg"><path id="path0" d="M189.400 0.445 C 188.520 0.661,187.291 0.942,186.668 1.069 C 186.046 1.196,185.442 1.548,185.325 1.850 C 185.209 2.153,184.594 2.400,183.957 2.400 C 183.321 2.400,182.800 2.580,182.800 2.800 C 182.800 3.020,182.440 3.200,182.000 3.200 C 181.560 3.200,181.200 3.380,181.200 3.600 C 181.200 3.820,180.832 4.000,180.383 4.000 C 179.560 4.000,179.157 4.257,177.399 5.900 C 176.870 6.395,176.170 6.800,175.844 6.800 C 175.104 6.800,167.202 14.608,166.432 16.100 C 166.120 16.705,165.715 17.200,165.532 17.200 C 165.350 17.200,165.200 17.470,165.200 17.800 C 165.200 18.130,165.020 18.400,164.800 18.400 C 164.580 18.400,164.400 18.760,164.400 19.200 C 164.400 19.644,164.133 20.000,163.800 20.000 C 163.470 20.000,163.200 20.349,163.200 20.776 C 163.200 21.203,163.020 21.664,162.800 21.800 C 162.580 21.936,162.400 22.397,162.400 22.824 C 162.400 23.251,162.220 23.600,162.000 23.600 C 161.780 23.600,161.600 24.140,161.600 24.800 C 161.600 25.460,161.420 26.000,161.200 26.000 C 160.980 26.000,160.800 26.611,160.800 27.357 C 160.800 28.195,160.570 28.803,160.200 28.945 C 159.806 29.096,159.600 29.720,159.600 30.764 C 159.600 31.638,159.420 32.464,159.200 32.600 C 158.955 32.751,158.800 35.930,158.800 40.800 C 158.800 45.670,158.955 48.849,159.200 49.000 C 159.420 49.136,159.600 49.845,159.600 50.575 C 159.600 51.305,159.870 52.126,160.200 52.400 C 160.530 52.674,160.800 53.416,160.800 54.049 C 160.800 54.682,160.980 55.200,161.200 55.200 C 161.420 55.200,161.600 55.729,161.600 56.376 C 161.600 57.023,161.780 57.664,162.000 57.800 C 162.220 57.936,162.400 58.397,162.400 58.824 C 162.400 59.251,162.580 59.600,162.800 59.600 C 163.020 59.600,163.200 59.827,163.200 60.104 C 163.200 60.381,163.650 61.093,164.200 61.687 C 164.750 62.280,165.200 63.043,165.200 63.383 C 165.200 63.722,165.380 64.000,165.600 64.000 C 165.820 64.000,166.000 64.270,166.000 64.600 C 166.000 64.930,166.180 65.200,166.400 65.200 C 166.620 65.200,166.800 65.447,166.800 65.749 C 166.800 66.051,167.430 66.836,168.200 67.494 C 168.970 68.152,169.600 68.822,169.600 68.984 C 169.600 69.284,170.698 70.343,173.466 72.715 C 175.749 74.671,175.930 74.800,176.383 74.800 C 176.612 74.800,176.800 74.980,176.800 75.200 C 176.800 75.420,177.078 75.600,177.417 75.600 C 177.756 75.600,178.431 75.972,178.917 76.426 C 179.403 76.881,180.430 77.526,181.200 77.860 C 181.970 78.194,182.913 78.632,183.295 78.834 C 183.677 79.035,184.352 79.200,184.795 79.200 C 185.238 79.200,185.600 79.380,185.600 79.600 C 185.600 79.820,186.129 80.000,186.776 80.000 C 187.423 80.000,188.064 80.180,188.200 80.400 C 188.336 80.620,189.169 80.800,190.052 80.800 C 190.945 80.800,191.923 81.066,192.257 81.400 C 193.141 82.284,206.859 82.284,207.743 81.400 C 208.077 81.066,209.055 80.800,209.948 80.800 C 210.831 80.800,211.664 80.620,211.800 80.400 C 211.936 80.180,212.577 80.000,213.224 80.000 C 213.871 80.000,214.400 79.820,214.400 79.600 C 214.400 79.380,214.755 79.200,215.188 79.200 C 216.301 79.200,220.473 77.233,221.247 76.344 C 221.603 75.935,222.143 75.600,222.447 75.600 C 222.751 75.599,223.517 75.154,224.149 74.611 C 224.781 74.067,225.636 73.516,226.049 73.384 C 226.462 73.253,226.800 72.888,226.800 72.573 C 226.800 72.258,226.986 72.000,227.213 72.000 C 227.751 72.000,230.400 69.351,230.400 68.813 C 230.400 68.586,230.604 68.400,230.853 68.400 C 231.429 68.400,233.199 66.363,233.200 65.700 C 233.200 65.425,233.380 65.200,233.600 65.200 C 233.820 65.200,234.000 64.930,234.000 64.600 C 234.000 64.270,234.180 64.000,234.400 64.000 C 234.620 64.000,234.800 63.640,234.800 63.200 C 234.800 62.756,235.067 62.400,235.400 62.400 C 235.730 62.400,236.000 62.130,236.000 61.800 C 236.000 61.470,236.180 61.200,236.400 61.200 C 236.620 61.200,236.800 60.840,236.800 60.400 C 236.800 59.960,236.980 59.600,237.200 59.600 C 237.420 59.600,237.600 59.251,237.600 58.824 C 237.600 58.397,237.780 57.936,238.000 57.800 C 238.220 57.664,238.400 57.023,238.400 56.376 C 238.400 55.729,238.580 55.200,238.800 55.200 C 239.020 55.200,239.200 54.654,239.200 53.987 C 239.200 53.279,239.449 52.679,239.800 52.545 C 240.189 52.395,240.400 51.775,240.400 50.781 C 240.400 49.937,240.580 49.136,240.800 49.000 C 241.046 48.848,241.200 45.596,241.200 40.576 C 241.200 35.392,241.054 32.400,240.800 32.400 C 240.580 32.400,240.400 31.590,240.400 30.600 C 240.400 29.267,240.244 28.800,239.800 28.800 C 239.381 28.800,239.200 28.378,239.200 27.400 C 239.200 26.630,239.020 26.000,238.800 26.000 C 238.580 26.000,238.400 25.460,238.400 24.800 C 238.400 24.140,238.220 23.600,238.000 23.600 C 237.780 23.600,237.600 23.251,237.600 22.824 C 237.600 22.397,237.420 21.936,237.200 21.800 C 236.980 21.664,236.800 21.281,236.800 20.948 C 236.800 20.615,236.575 20.092,236.300 19.785 C 235.113 18.462,234.800 18.009,234.800 17.617 C 234.800 17.388,234.620 17.200,234.400 17.200 C 234.180 17.200,234.000 16.922,234.000 16.583 C 234.000 15.796,224.981 6.800,224.191 6.800 C 223.866 6.800,223.600 6.620,223.600 6.400 C 223.600 6.180,223.407 6.000,223.171 6.000 C 222.936 6.000,222.492 5.775,222.185 5.500 C 220.804 4.261,220.396 4.000,219.840 4.000 C 219.514 4.000,219.136 3.820,219.000 3.600 C 218.864 3.380,218.403 3.200,217.976 3.200 C 217.549 3.200,217.200 3.020,217.200 2.800 C 217.200 2.580,216.786 2.400,216.280 2.400 C 215.774 2.400,215.150 2.190,214.893 1.933 C 213.322 0.362,194.275 -0.749,189.400 0.445 M204.800 19.357 C 211.487 20.965,217.144 25.461,219.702 31.200 C 220.143 32.190,220.633 33.270,220.790 33.600 C 224.887 42.190,218.809 56.296,209.200 60.494 C 205.572 62.080,204.923 62.200,200.000 62.200 C 195.075 62.200,194.417 62.078,190.800 60.493 C 181.100 56.242,175.701 43.761,179.252 33.800 C 183.074 23.082,194.178 16.804,204.800 19.357 M134.145 63.800 C 134.018 64.130,133.574 64.400,133.157 64.400 C 132.741 64.400,132.400 64.580,132.400 64.800 C 132.400 65.020,132.147 65.200,131.838 65.200 C 131.081 65.200,128.000 66.865,128.000 67.274 C 128.000 67.453,127.634 67.600,127.187 67.600 C 126.741 67.600,126.271 67.870,126.145 68.200 C 126.018 68.530,125.574 68.800,125.157 68.800 C 124.741 68.800,124.400 68.946,124.400 69.125 C 124.400 69.304,123.770 69.698,123.000 70.000 C 122.230 70.302,121.600 70.696,121.600 70.875 C 121.600 71.054,121.317 71.200,120.971 71.200 C 120.626 71.200,120.092 71.425,119.785 71.700 C 118.760 72.619,118.208 72.996,117.001 73.600 C 114.419 74.891,112.000 77.985,112.000 79.995 C 112.000 80.658,111.820 81.200,111.600 81.200 C 111.380 81.200,111.200 81.999,111.200 82.976 C 111.200 83.953,111.380 84.864,111.600 85.000 C 111.820 85.136,112.000 85.777,112.000 86.424 C 112.000 88.260,116.295 92.400,118.200 92.400 C 118.970 92.400,119.600 92.580,119.600 92.800 C 119.600 93.020,120.399 93.200,121.376 93.200 C 122.353 93.200,123.264 93.020,123.400 92.800 C 123.536 92.580,124.166 92.400,124.800 92.400 C 125.434 92.400,126.064 92.220,126.200 92.000 C 126.336 91.780,126.797 91.600,127.224 91.600 C 127.651 91.600,128.000 91.420,128.000 91.200 C 128.000 90.980,128.278 90.800,128.617 90.800 C 129.183 90.800,129.527 90.587,130.914 89.375 C 131.181 89.142,131.985 88.693,132.700 88.378 C 133.415 88.063,134.000 87.669,134.000 87.502 C 134.000 87.336,134.276 87.200,134.614 87.200 C 135.344 87.200,137.139 86.107,138.047 85.110 C 138.403 84.720,139.078 84.400,139.547 84.400 C 140.016 84.400,140.400 84.220,140.400 84.000 C 140.400 83.780,140.760 83.600,141.200 83.600 C 141.640 83.600,142.000 83.432,142.000 83.227 C 142.000 83.022,142.374 82.735,142.830 82.590 C 143.971 82.228,146.400 79.808,146.400 79.033 C 146.400 78.685,146.580 78.400,146.800 78.400 C 147.020 78.400,147.200 77.847,147.200 77.171 C 147.200 76.496,147.470 75.673,147.800 75.343 C 148.130 75.013,148.400 74.058,148.400 73.220 C 148.400 72.355,148.141 71.483,147.800 71.200 C 147.470 70.926,147.200 70.274,147.200 69.751 C 147.200 69.228,147.020 68.800,146.800 68.800 C 146.580 68.800,146.400 68.432,146.400 67.982 C 146.400 67.033,144.714 65.200,143.842 65.200 C 143.515 65.200,143.136 65.020,143.000 64.800 C 142.864 64.580,142.423 64.400,142.019 64.400 C 141.616 64.400,141.182 64.130,141.055 63.800 C 140.877 63.335,140.098 63.200,137.600 63.200 C 135.102 63.200,134.323 63.335,134.145 63.800 M258.945 63.800 C 258.818 64.130,258.469 64.400,258.169 64.400 C 256.575 64.400,253.637 66.786,253.613 68.100 C 253.606 68.485,253.420 68.800,253.200 68.800 C 252.980 68.800,252.800 69.239,252.800 69.776 C 252.800 70.313,252.620 70.864,252.400 71.000 C 252.180 71.136,252.000 72.227,252.000 73.424 C 252.000 74.621,252.180 75.600,252.400 75.600 C 252.620 75.600,252.800 76.230,252.800 77.000 C 252.800 77.770,252.980 78.400,253.200 78.400 C 253.420 78.400,253.600 78.682,253.600 79.027 C 253.600 79.761,256.141 82.264,257.241 82.613 C 257.659 82.746,258.000 83.022,258.000 83.227 C 258.000 83.432,258.349 83.600,258.776 83.600 C 259.203 83.600,259.664 83.780,259.800 84.000 C 259.936 84.220,260.314 84.400,260.641 84.400 C 260.968 84.400,261.720 84.850,262.313 85.400 C 262.907 85.950,263.619 86.400,263.896 86.400 C 264.173 86.400,264.400 86.580,264.400 86.800 C 264.400 87.020,264.760 87.200,265.200 87.200 C 265.640 87.200,266.000 87.380,266.000 87.600 C 266.000 87.820,266.360 88.000,266.800 88.000 C 267.240 88.000,267.600 88.180,267.600 88.400 C 267.600 88.620,267.855 88.800,268.167 88.800 C 268.478 88.800,268.793 88.960,268.867 89.156 C 269.121 89.834,274.472 92.400,275.633 92.400 C 276.275 92.400,276.800 92.580,276.800 92.800 C 276.800 93.020,277.599 93.200,278.576 93.200 C 279.553 93.200,280.464 93.020,280.600 92.800 C 280.736 92.580,281.467 92.400,282.224 92.400 C 282.981 92.400,283.600 92.250,283.600 92.068 C 283.600 91.885,284.069 91.484,284.643 91.177 C 286.102 90.396,288.000 87.498,288.000 86.052 C 288.000 85.389,288.180 84.736,288.400 84.600 C 288.620 84.464,288.800 83.643,288.800 82.776 C 288.800 81.909,288.620 81.200,288.400 81.200 C 288.180 81.200,288.000 80.696,288.000 80.080 C 288.000 78.864,287.184 76.808,286.700 76.803 C 286.535 76.801,286.400 76.530,286.400 76.200 C 286.400 75.870,286.170 75.600,285.888 75.600 C 285.607 75.600,285.117 75.240,284.800 74.800 C 284.483 74.360,284.038 74.000,283.812 74.000 C 283.585 73.999,282.877 73.549,282.238 73.000 C 281.599 72.450,280.834 72.000,280.538 72.000 C 280.242 72.000,280.000 71.820,280.000 71.600 C 280.000 71.380,279.640 71.200,279.200 71.200 C 278.760 71.200,278.400 71.054,278.400 70.875 C 278.400 70.696,277.770 70.302,277.000 70.000 C 276.230 69.698,275.600 69.304,275.600 69.125 C 275.600 68.946,275.259 68.800,274.843 68.800 C 274.426 68.800,273.982 68.530,273.855 68.200 C 273.729 67.870,273.342 67.600,272.996 67.600 C 272.650 67.600,271.980 67.240,271.508 66.800 C 271.036 66.360,270.413 66.000,270.125 66.000 C 269.836 66.000,269.600 65.820,269.600 65.600 C 269.600 65.380,269.150 65.200,268.600 65.200 C 268.050 65.200,267.600 65.020,267.600 64.800 C 267.600 64.580,267.259 64.400,266.843 64.400 C 266.426 64.400,265.982 64.130,265.855 63.800 C 265.677 63.335,264.898 63.200,262.400 63.200 C 259.902 63.200,259.123 63.335,258.945 63.800 M52.000 78.000 C 52.000 78.220,51.201 78.400,50.224 78.400 C 49.247 78.400,48.336 78.580,48.200 78.800 C 48.064 79.020,47.558 79.203,47.076 79.206 C 45.818 79.215,43.054 80.237,42.881 80.758 C 42.800 81.001,42.388 81.200,41.967 81.200 C 41.545 81.200,41.200 81.380,41.200 81.600 C 41.200 81.820,40.851 82.000,40.424 82.000 C 39.997 82.000,39.536 82.180,39.400 82.400 C 39.264 82.620,38.803 82.800,38.376 82.800 C 37.949 82.800,37.600 82.936,37.600 83.102 C 37.600 83.269,37.060 83.644,36.400 83.936 C 35.740 84.228,35.200 84.722,35.200 85.034 C 35.200 85.345,34.930 85.600,34.600 85.600 C 34.270 85.600,34.000 85.780,34.000 86.000 C 34.000 86.220,33.714 86.400,33.364 86.400 C 32.719 86.400,27.200 91.680,27.200 92.297 C 27.200 92.482,26.570 93.301,25.800 94.118 C 25.030 94.934,24.400 95.871,24.400 96.201 C 24.400 96.530,24.265 96.801,24.100 96.803 C 23.752 96.807,22.800 98.735,22.800 99.437 C 22.800 99.700,22.530 100.018,22.200 100.145 C 21.870 100.271,21.600 100.653,21.600 100.993 C 21.600 101.333,21.392 102.013,21.138 102.505 C 20.126 104.462,20.000 104.826,20.000 105.795 C 20.000 106.348,19.820 106.800,19.600 106.800 C 19.380 106.800,19.200 107.678,19.200 108.751 C 19.200 109.997,18.983 110.882,18.600 111.200 C 18.108 111.609,18.000 112.977,18.000 118.820 C 18.000 124.618,18.112 126.054,18.600 126.543 C 18.937 126.880,19.200 127.857,19.200 128.771 C 19.200 129.667,19.380 130.400,19.600 130.400 C 19.820 130.400,20.000 131.030,20.000 131.800 C 20.000 132.570,20.180 133.200,20.400 133.200 C 20.620 133.200,20.800 133.740,20.800 134.400 C 20.800 135.060,20.980 135.600,21.200 135.600 C 21.420 135.600,21.600 135.966,21.600 136.413 C 21.600 136.859,21.870 137.329,22.200 137.455 C 22.530 137.582,22.800 138.026,22.800 138.443 C 22.800 138.859,22.946 139.200,23.125 139.200 C 23.304 139.200,23.698 139.830,24.000 140.600 C 24.302 141.370,24.657 142.000,24.788 142.000 C 24.920 142.000,25.361 142.564,25.768 143.253 C 26.175 143.942,27.384 145.401,28.454 146.494 C 29.524 147.587,30.400 148.643,30.400 148.841 C 30.400 149.038,30.598 149.200,30.840 149.200 C 31.081 149.200,31.783 149.740,32.400 150.400 C 33.017 151.060,33.642 151.600,33.789 151.600 C 33.937 151.600,34.308 151.825,34.615 152.100 C 35.879 153.234,36.420 153.625,37.788 154.393 C 38.578 154.837,39.489 155.200,39.812 155.200 C 40.135 155.200,40.400 155.380,40.400 155.600 C 40.400 155.820,40.745 156.000,41.167 156.000 C 41.588 156.000,42.000 156.199,42.081 156.442 C 42.242 156.926,44.983 157.984,46.100 157.994 C 46.485 157.997,46.800 158.180,46.800 158.400 C 46.800 158.620,47.520 158.800,48.400 158.800 C 49.280 158.800,50.000 158.980,50.000 159.200 C 50.000 159.438,51.525 159.600,53.776 159.600 C 55.863 159.600,57.663 159.779,57.800 160.000 C 57.936 160.220,58.757 160.400,59.624 160.400 C 60.491 160.400,61.200 160.220,61.200 160.000 C 61.200 159.763,62.667 159.600,64.800 159.600 C 66.933 159.600,68.400 159.437,68.400 159.200 C 68.400 158.980,69.210 158.800,70.200 158.800 C 71.190 158.800,72.000 158.620,72.000 158.400 C 72.000 158.180,72.529 158.000,73.176 158.000 C 73.823 158.000,74.464 157.820,74.600 157.600 C 74.736 157.380,75.197 157.200,75.624 157.200 C 76.051 157.200,76.400 156.930,76.400 156.600 C 76.400 156.227,76.778 156.000,77.400 156.000 C 77.950 156.000,78.400 155.820,78.400 155.600 C 78.400 155.380,78.760 155.200,79.200 155.200 C 79.640 155.200,80.000 155.020,80.000 154.800 C 80.000 154.580,80.315 154.400,80.700 154.400 C 81.358 154.399,82.646 153.501,84.686 151.618 C 85.173 151.168,85.666 150.800,85.783 150.800 C 86.548 150.800,92.400 144.774,92.400 143.987 C 92.400 143.774,92.580 143.600,92.800 143.600 C 93.020 143.600,93.200 143.240,93.200 142.800 C 93.200 142.360,93.405 142.000,93.656 142.000 C 94.271 142.000,95.172 140.765,95.187 139.900 C 95.194 139.515,95.380 139.200,95.600 139.200 C 95.820 139.200,96.000 138.840,96.000 138.400 C 96.000 137.960,96.180 137.600,96.400 137.600 C 96.620 137.600,96.800 137.240,96.800 136.800 C 96.800 136.360,96.980 136.000,97.200 136.000 C 97.420 136.000,97.600 135.627,97.600 135.171 C 97.600 134.716,97.870 134.073,98.200 133.743 C 98.530 133.413,98.800 132.716,98.800 132.195 C 98.800 131.674,98.980 131.136,99.200 131.000 C 99.420 130.864,99.600 130.169,99.600 129.456 C 99.600 128.743,99.787 127.973,100.016 127.744 C 100.884 126.876,100.084 107.147,99.158 106.574 C 98.961 106.452,98.800 105.908,98.800 105.364 C 98.800 104.820,98.530 104.271,98.200 104.145 C 97.858 104.013,97.600 103.417,97.600 102.757 C 97.600 102.121,97.420 101.600,97.200 101.600 C 96.980 101.600,96.800 101.150,96.800 100.600 C 96.800 100.050,96.620 99.600,96.400 99.600 C 96.180 99.600,96.000 99.240,96.000 98.800 C 96.000 98.360,95.820 98.000,95.600 98.000 C 95.380 98.000,95.200 97.730,95.200 97.400 C 95.200 97.070,95.020 96.800,94.800 96.800 C 94.580 96.800,94.400 96.555,94.400 96.256 C 94.400 95.957,93.950 95.374,93.400 94.961 C 92.850 94.548,92.400 93.928,92.400 93.583 C 92.400 92.846,89.895 90.000,89.246 90.000 C 89.001 90.000,88.800 89.814,88.800 89.587 C 88.800 89.049,86.151 86.400,85.613 86.400 C 85.386 86.400,85.200 86.220,85.200 86.000 C 85.200 85.780,84.840 85.600,84.400 85.600 C 83.960 85.600,83.600 85.395,83.600 85.144 C 83.600 84.529,82.365 83.628,81.500 83.613 C 81.115 83.606,80.800 83.453,80.800 83.274 C 80.800 82.880,77.732 81.200,77.011 81.200 C 76.729 81.200,76.274 80.930,76.000 80.600 C 75.726 80.270,75.074 80.000,74.551 80.000 C 74.028 80.000,73.600 79.820,73.600 79.600 C 73.600 79.380,73.071 79.200,72.424 79.200 C 71.777 79.200,71.136 79.020,71.000 78.800 C 70.864 78.580,69.863 78.400,68.776 78.400 C 67.689 78.400,66.800 78.220,66.800 78.000 C 66.800 77.748,64.067 77.600,59.400 77.600 C 54.733 77.600,52.000 77.748,52.000 78.000 M333.200 78.000 C 333.200 78.220,332.300 78.400,331.200 78.400 C 330.100 78.400,329.200 78.580,329.200 78.800 C 329.200 79.020,328.570 79.200,327.800 79.200 C 327.030 79.200,326.400 79.380,326.400 79.600 C 326.400 79.820,325.972 80.000,325.449 80.000 C 324.926 80.000,324.274 80.270,324.000 80.600 C 323.726 80.930,323.164 81.200,322.751 81.200 C 322.338 81.200,322.000 81.380,322.000 81.600 C 322.000 81.820,321.674 82.000,321.275 82.000 C 320.877 82.000,320.164 82.360,319.692 82.800 C 319.220 83.240,318.601 83.606,318.317 83.613 C 317.603 83.630,316.400 84.591,316.400 85.144 C 316.400 85.395,316.132 85.600,315.805 85.600 C 315.477 85.600,314.829 85.915,314.364 86.300 C 312.470 87.870,311.200 89.140,311.200 89.466 C 311.200 89.655,310.719 90.168,310.130 90.605 C 308.509 91.810,307.600 92.881,307.600 93.587 C 307.600 93.937,307.240 94.483,306.800 94.800 C 306.360 95.117,306.000 95.564,306.000 95.792 C 306.000 96.021,305.550 96.693,305.000 97.287 C 304.450 97.880,304.000 98.643,304.000 98.983 C 304.000 99.322,303.820 99.600,303.600 99.600 C 303.380 99.600,303.200 100.050,303.200 100.600 C 303.200 101.150,303.020 101.600,302.800 101.600 C 302.580 101.600,302.400 102.121,302.400 102.757 C 302.400 103.417,302.142 104.013,301.800 104.145 C 301.470 104.271,301.200 104.820,301.200 105.364 C 301.200 105.908,301.020 106.464,300.800 106.600 C 300.580 106.736,300.400 107.456,300.400 108.200 C 300.400 108.944,300.220 109.664,300.000 109.800 C 299.753 109.953,299.600 113.404,299.600 118.824 C 299.600 124.408,299.745 127.600,300.000 127.600 C 300.220 127.600,300.400 128.309,300.400 129.176 C 300.400 130.043,300.580 130.864,300.800 131.000 C 301.020 131.136,301.200 131.674,301.200 132.195 C 301.200 132.716,301.470 133.413,301.800 133.743 C 302.130 134.073,302.400 134.716,302.400 135.171 C 302.400 135.627,302.580 136.000,302.800 136.000 C 303.020 136.000,303.200 136.360,303.200 136.800 C 303.200 137.240,303.380 137.600,303.600 137.600 C 303.820 137.600,304.000 137.960,304.000 138.400 C 304.000 138.840,304.180 139.200,304.400 139.200 C 304.620 139.200,304.800 139.535,304.800 139.944 C 304.800 140.353,305.250 141.026,305.800 141.439 C 306.350 141.852,306.800 142.507,306.800 142.895 C 306.800 143.283,306.980 143.600,307.200 143.600 C 307.420 143.600,307.600 143.788,307.600 144.018 C 307.600 144.561,309.439 146.400,309.982 146.400 C 310.212 146.400,310.400 146.639,310.400 146.930 C 310.400 147.222,310.715 147.757,311.100 148.121 C 313.400 150.292,313.988 150.800,314.200 150.800 C 314.330 150.800,314.870 151.205,315.399 151.700 C 317.004 153.200,317.547 153.600,317.983 153.600 C 318.212 153.600,318.400 153.780,318.400 154.000 C 318.400 154.220,318.760 154.400,319.200 154.400 C 319.640 154.400,320.000 154.580,320.000 154.800 C 320.000 155.020,320.360 155.200,320.800 155.200 C 321.240 155.200,321.600 155.380,321.600 155.600 C 321.600 155.820,322.050 156.000,322.600 156.000 C 323.222 156.000,323.600 156.227,323.600 156.600 C 323.600 156.930,323.949 157.200,324.376 157.200 C 324.803 157.200,325.264 157.380,325.400 157.600 C 325.536 157.820,326.177 158.000,326.824 158.000 C 327.471 158.000,328.000 158.180,328.000 158.400 C 328.000 158.620,328.810 158.800,329.800 158.800 C 330.790 158.800,331.600 158.980,331.600 159.200 C 331.600 159.437,333.067 159.600,335.200 159.600 C 337.333 159.600,338.800 159.763,338.800 160.000 C 338.800 160.522,341.878 160.522,342.200 160.000 C 342.337 159.779,344.137 159.600,346.224 159.600 C 348.475 159.600,350.000 159.438,350.000 159.200 C 350.000 158.980,350.709 158.800,351.576 158.800 C 352.443 158.800,353.264 158.620,353.400 158.400 C 353.536 158.180,354.076 158.000,354.600 158.000 C 355.124 158.000,355.664 157.820,355.800 157.600 C 355.936 157.380,356.402 157.200,356.836 157.200 C 357.270 157.200,357.729 156.930,357.855 156.600 C 357.982 156.270,358.426 156.000,358.843 156.000 C 359.259 156.000,359.600 155.820,359.600 155.600 C 359.600 155.380,360.050 155.200,360.600 155.200 C 361.150 155.200,361.600 155.020,361.600 154.800 C 361.600 154.580,361.825 154.400,362.100 154.400 C 362.375 154.399,363.123 153.949,363.762 153.400 C 364.401 152.850,365.055 152.400,365.214 152.400 C 365.373 152.400,366.245 151.680,367.152 150.800 C 368.059 149.920,368.904 149.200,369.029 149.200 C 369.332 149.200,370.400 148.122,370.400 147.816 C 370.400 147.684,371.300 146.703,372.400 145.638 C 373.500 144.572,374.400 143.510,374.400 143.278 C 374.400 143.047,374.625 142.619,374.900 142.329 C 375.175 142.038,375.670 141.260,375.999 140.600 C 376.329 139.940,376.693 139.310,376.809 139.200 C 377.393 138.643,378.400 136.753,378.400 136.214 C 378.400 135.876,378.580 135.600,378.800 135.600 C 379.020 135.600,379.200 135.060,379.200 134.400 C 379.200 133.740,379.380 133.200,379.600 133.200 C 379.820 133.200,380.000 132.570,380.000 131.800 C 380.000 131.030,380.180 130.400,380.400 130.400 C 380.620 130.400,380.800 129.667,380.800 128.771 C 380.800 127.857,381.063 126.880,381.400 126.543 C 381.890 126.053,382.000 124.595,382.000 118.614 C 382.000 112.469,381.903 111.248,381.400 111.055 C 380.977 110.893,380.800 110.232,380.800 108.813 C 380.800 107.706,380.620 106.800,380.400 106.800 C 380.180 106.800,380.000 106.271,380.000 105.624 C 380.000 104.977,379.820 104.336,379.600 104.200 C 379.380 104.064,379.200 103.603,379.200 103.176 C 379.200 102.749,379.020 102.400,378.800 102.400 C 378.580 102.400,378.400 101.950,378.400 101.400 C 378.400 100.850,378.220 100.400,378.000 100.400 C 377.780 100.400,377.600 100.059,377.600 99.643 C 377.600 99.226,377.330 98.782,377.000 98.655 C 376.670 98.529,376.400 98.059,376.400 97.613 C 376.400 97.166,376.220 96.800,376.000 96.800 C 375.780 96.800,375.600 96.528,375.600 96.196 C 375.600 95.864,375.060 95.028,374.400 94.337 C 373.740 93.646,373.200 92.933,373.200 92.751 C 373.200 92.280,367.376 86.400,366.909 86.400 C 366.697 86.400,365.874 85.770,365.081 85.000 C 364.288 84.230,363.361 83.600,363.020 83.600 C 362.679 83.600,362.400 83.464,362.400 83.298 C 362.400 83.131,361.815 82.760,361.100 82.471 C 360.385 82.183,359.487 81.779,359.105 81.574 C 358.723 81.368,358.153 81.200,357.839 81.200 C 357.524 81.200,357.200 81.001,357.119 80.758 C 356.946 80.237,354.182 79.215,352.924 79.206 C 352.442 79.203,351.936 79.020,351.800 78.800 C 351.664 78.580,350.753 78.400,349.776 78.400 C 348.799 78.400,348.000 78.220,348.000 78.000 C 348.000 77.748,345.267 77.600,340.600 77.600 C 335.933 77.600,333.200 77.748,333.200 78.000 M65.000 97.664 C 84.990 102.775,86.830 131.279,67.669 138.995 C 52.392 145.147,36.559 133.423,37.768 116.853 C 38.743 103.479,51.788 94.286,65.000 97.664 M347.947 98.254 C 366.641 104.418,367.266 131.528,348.886 138.996 C 329.915 146.705,311.846 126.307,321.515 108.098 C 326.285 99.113,337.681 94.869,347.947 98.254 M192.800 131.560 C 191.810 131.692,195.050 131.800,200.000 131.800 C 204.950 131.800,208.100 131.681,207.000 131.535 C 204.567 131.213,195.284 131.229,192.800 131.560 M187.200 132.400 L 186.200 132.720 187.200 132.732 C 187.750 132.738,188.560 132.589,189.000 132.400 L 189.800 132.056 189.000 132.068 C 188.560 132.074,187.750 132.224,187.200 132.400 M211.000 132.400 C 211.440 132.589,212.250 132.738,212.800 132.732 L 213.800 132.720 212.800 132.400 C 212.250 132.224,211.440 132.074,211.000 132.068 L 210.200 132.056 211.000 132.400 M183.600 133.200 C 182.805 133.714,183.804 133.714,185.000 133.200 L 185.800 132.856 185.000 132.834 C 184.560 132.822,183.930 132.987,183.600 133.200 M215.000 133.200 C 215.440 133.389,216.160 133.544,216.600 133.544 L 217.400 133.544 216.600 133.200 C 216.160 133.011,215.440 132.856,215.000 132.856 L 214.200 132.856 215.000 133.200 M178.800 134.467 C 172.931 136.566,172.790 136.940,178.600 134.997 C 180.800 134.261,182.240 133.664,181.800 133.669 C 181.360 133.675,180.010 134.034,178.800 134.467 M221.400 135.005 C 225.618 136.451,226.188 136.603,225.176 136.011 C 224.282 135.487,218.559 133.597,217.929 133.617 C 217.638 133.626,219.200 134.250,221.400 135.005 M169.200 138.456 C 156.846 145.119,147.544 153.792,140.840 164.900 C 140.342 165.725,140.027 166.400,140.139 166.400 C 140.251 166.400,141.194 165.035,142.234 163.366 C 143.274 161.697,144.322 160.122,144.563 159.866 C 144.803 159.610,145.524 158.680,146.164 157.800 C 147.744 155.627,155.682 147.634,157.485 146.398 C 158.287 145.849,159.135 145.215,159.371 144.989 C 160.349 144.052,165.901 140.618,168.842 139.131 C 171.713 137.679,172.526 137.139,171.700 137.235 C 171.535 137.254,170.410 137.804,169.200 138.456 M229.633 138.157 C 230.083 138.581,232.913 140.020,233.042 139.891 C 233.124 139.810,232.455 139.351,231.557 138.872 C 230.070 138.077,229.210 137.758,229.633 138.157 M233.600 140.157 C 233.600 140.259,234.710 141.016,236.067 141.841 C 239.258 143.779,243.247 146.828,245.928 149.377 C 247.098 150.490,248.268 151.471,248.528 151.559 C 249.096 151.750,246.671 149.443,243.468 146.745 C 240.211 144.002,233.600 139.589,233.600 140.157 M251.040 154.500 C 254.030 157.665,258.434 163.892,260.374 167.699 C 260.682 168.304,261.003 168.731,261.086 168.647 C 261.805 167.928,251.103 152.900,249.817 152.823 C 249.606 152.810,250.156 153.565,251.040 154.500 M138.463 169.263 C 137.764 170.618,137.270 171.803,137.363 171.897 C 137.457 171.990,138.085 170.938,138.758 169.558 C 139.431 168.178,139.926 166.993,139.858 166.924 C 139.789 166.856,139.162 167.908,138.463 169.263 M262.833 172.432 C 262.815 172.560,263.242 173.730,263.783 175.032 C 264.324 176.334,264.763 177.130,264.759 176.800 C 264.751 176.201,262.896 171.993,262.833 172.432 M135.995 174.433 C 135.992 174.525,135.454 176.130,134.800 178.000 C 134.146 179.870,133.622 181.670,133.635 182.000 C 133.648 182.330,134.261 180.800,134.997 178.600 C 135.732 176.401,136.259 174.526,136.167 174.434 C 136.075 174.342,135.998 174.342,135.995 174.433 M57.457 180.600 C 57.127 180.930,56.304 181.200,55.629 181.200 C 54.953 181.200,54.400 181.380,54.400 181.600 C 54.400 181.820,54.128 182.000,53.796 182.000 C 52.972 182.000,50.800 184.133,50.800 184.943 C 50.800 185.304,50.620 185.600,50.400 185.600 C 50.180 185.600,50.000 185.960,50.000 186.400 C 50.000 186.840,49.820 187.200,49.600 187.200 C 49.342 187.200,49.200 191.733,49.200 200.000 C 49.200 208.267,49.342 212.800,49.600 212.800 C 49.820 212.800,50.000 213.049,50.000 213.354 C 50.000 214.760,52.608 218.000,53.739 218.000 C 54.055 218.000,54.418 218.270,54.545 218.600 C 54.678 218.947,55.276 219.200,55.964 219.200 C 56.618 219.200,57.264 219.380,57.400 219.600 C 57.536 219.820,58.346 220.000,59.200 220.000 C 60.054 220.000,60.864 219.820,61.000 219.600 C 61.136 219.380,61.782 219.200,62.436 219.200 C 63.124 219.200,63.722 218.947,63.855 218.600 C 63.982 218.270,64.435 218.000,64.861 218.000 C 66.081 218.000,68.400 215.243,68.400 213.793 C 68.400 213.453,68.670 213.071,69.000 212.945 C 69.516 212.747,69.600 210.933,69.600 200.006 C 69.600 189.198,69.510 187.224,69.000 186.800 C 68.670 186.526,68.400 185.964,68.400 185.551 C 68.400 185.138,68.220 184.800,68.000 184.800 C 67.780 184.800,67.600 184.612,67.600 184.382 C 67.600 183.653,65.669 182.000,64.818 182.000 C 64.368 182.000,64.000 181.820,64.000 181.600 C 64.000 181.380,63.482 181.200,62.849 181.200 C 62.216 181.200,61.474 180.930,61.200 180.600 C 60.926 180.270,60.107 180.000,59.380 180.000 C 58.652 180.000,57.787 180.270,57.457 180.600 M265.612 180.400 C 265.612 180.730,265.787 181.270,266.000 181.600 C 266.345 182.133,266.388 182.133,266.388 181.600 C 266.388 181.270,266.213 180.730,266.000 180.400 C 265.655 179.867,265.612 179.867,265.612 180.400 M338.945 180.600 C 338.803 180.970,338.195 181.200,337.357 181.200 C 336.611 181.200,336.000 181.380,336.000 181.600 C 336.000 181.820,335.632 182.000,335.182 182.000 C 334.331 182.000,332.400 183.653,332.400 184.382 C 332.400 184.612,332.220 184.800,332.000 184.800 C 331.780 184.800,331.600 185.138,331.600 185.551 C 331.600 185.964,331.330 186.526,331.000 186.800 C 330.490 187.223,330.400 189.197,330.400 200.000 C 330.400 210.803,330.490 212.777,331.000 213.200 C 331.330 213.474,331.600 214.001,331.600 214.371 C 331.600 215.368,334.177 218.000,335.154 218.000 C 335.639 218.000,336.000 218.256,336.000 218.600 C 336.000 219.017,336.420 219.200,337.376 219.200 C 338.133 219.200,338.874 219.397,339.023 219.638 C 339.451 220.329,345.160 219.369,345.474 218.553 C 345.590 218.249,345.935 218.000,346.240 218.000 C 347.483 218.000,350.000 214.880,350.000 213.339 C 350.000 213.042,350.180 212.800,350.400 212.800 C 350.658 212.800,350.800 208.267,350.800 200.000 C 350.800 191.733,350.658 187.200,350.400 187.200 C 350.180 187.200,350.000 186.840,350.000 186.400 C 350.000 185.960,349.820 185.600,349.600 185.600 C 349.380 185.600,349.200 185.270,349.200 184.866 C 349.200 184.016,347.092 182.000,346.203 182.000 C 345.872 182.000,345.600 181.820,345.600 181.600 C 345.600 181.380,345.047 181.200,344.371 181.200 C 343.696 181.200,342.873 180.930,342.543 180.600 C 342.213 180.270,341.320 180.000,340.559 180.000 C 339.698 180.000,339.088 180.227,338.945 180.600 M133.000 184.000 C 132.848 184.691,132.814 185.347,132.924 185.457 C 133.034 185.567,133.248 185.091,133.400 184.400 C 133.552 183.709,133.586 183.053,133.476 182.943 C 133.366 182.833,133.152 183.309,133.000 184.000 M266.434 183.400 C 266.422 183.840,266.587 184.470,266.800 184.800 C 267.314 185.595,267.314 184.596,266.800 183.400 L 266.456 182.600 266.434 183.400 M267.228 186.833 C 267.244 187.365,267.419 188.160,267.619 188.600 C 267.871 189.158,267.907 188.915,267.738 187.800 C 267.455 185.943,267.187 185.436,267.228 186.833 M132.222 187.822 C 132.072 188.625,132.038 189.372,132.148 189.482 C 132.258 189.592,132.472 189.025,132.622 188.222 C 132.773 187.419,132.806 186.673,132.696 186.563 C 132.586 186.453,132.373 187.019,132.222 187.822 M268.200 200.000 C 268.200 205.390,268.315 208.720,268.457 207.400 C 268.598 206.080,268.713 202.750,268.713 200.000 C 268.713 197.250,268.598 193.920,268.457 192.600 C 268.315 191.280,268.200 194.610,268.200 200.000 M131.457 193.659 C 131.137 196.720,131.182 204.332,131.535 207.000 C 131.681 208.100,131.802 204.995,131.804 200.100 C 131.809 190.165,131.814 190.247,131.457 193.659 M132.068 211.000 C 132.074 211.440,132.224 212.250,132.400 212.800 L 132.720 213.800 132.732 212.800 C 132.738 212.250,132.589 211.440,132.400 211.000 L 132.056 210.200 132.068 211.000 M267.456 211.684 C 267.321 212.188,267.227 212.960,267.246 213.400 C 267.265 213.840,267.445 213.498,267.646 212.640 C 268.036 210.978,267.870 210.140,267.456 211.684 M132.856 215.000 C 132.856 215.440,133.011 216.160,133.200 216.600 L 133.544 217.400 133.544 216.600 C 133.544 216.160,133.389 215.440,133.200 215.000 L 132.856 214.200 132.856 215.000 M266.673 215.353 C 266.523 215.745,266.411 216.366,266.425 216.733 C 266.442 217.175,266.581 217.074,266.837 216.434 C 267.049 215.903,267.161 215.282,267.085 215.054 C 267.009 214.827,266.824 214.961,266.673 215.353 M133.617 217.929 C 133.597 218.559,135.487 224.282,136.011 225.176 C 136.211 225.519,136.376 225.710,136.376 225.600 C 136.376 225.094,133.631 217.463,133.617 217.929 M264.091 224.100 C 263.410 225.984,263.504 226.494,264.226 224.830 C 264.553 224.077,264.766 223.299,264.701 223.102 C 264.635 222.905,264.360 223.354,264.091 224.100 M138.000 229.696 C 138.000 230.113,139.740 233.193,139.891 233.042 C 139.973 232.961,139.651 232.198,139.177 231.347 C 138.251 229.687,138.000 229.335,138.000 229.696 M260.062 232.862 C 259.577 233.770,259.242 234.576,259.318 234.652 C 259.395 234.728,259.854 234.047,260.338 233.138 C 260.823 232.230,261.158 231.424,261.082 231.348 C 261.005 231.272,260.546 231.953,260.062 232.862 M140.448 234.500 C 141.414 236.327,144.839 241.204,146.745 243.468 C 149.443 246.671,151.750 249.096,151.559 248.528 C 151.471 248.268,150.490 247.098,149.377 245.928 C 146.828 243.247,143.779 239.258,141.841 236.067 C 140.398 233.692,139.466 232.644,140.448 234.500 M257.732 236.727 C 256.638 238.643,252.865 243.636,250.934 245.724 C 250.125 246.597,249.658 247.242,249.896 247.156 C 251.019 246.750,259.735 235.195,258.912 235.203 C 258.740 235.205,258.209 235.890,257.732 236.727 M57.800 240.000 C 57.663 240.221,55.863 240.400,53.776 240.400 C 51.525 240.400,50.000 240.562,50.000 240.800 C 50.000 241.020,49.291 241.200,48.424 241.200 C 47.557 241.200,46.758 241.344,46.649 241.521 C 46.540 241.697,45.519 242.095,44.380 242.405 C 43.242 242.715,42.221 243.201,42.112 243.485 C 42.003 243.768,41.574 244.000,41.157 244.000 C 40.741 244.000,40.400 244.180,40.400 244.400 C 40.400 244.620,40.147 244.800,39.838 244.800 C 38.894 244.800,36.000 246.515,36.000 247.074 C 36.000 247.363,35.640 247.600,35.200 247.600 C 34.760 247.600,34.400 247.780,34.400 248.000 C 34.400 248.220,34.214 248.400,33.986 248.400 C 33.454 248.400,27.755 254.106,26.196 256.200 C 25.541 257.080,24.899 257.890,24.770 258.000 C 24.641 258.110,24.281 258.785,23.970 259.500 C 23.659 260.215,23.269 260.800,23.102 260.800 C 22.936 260.800,22.800 261.141,22.800 261.557 C 22.800 261.974,22.530 262.418,22.200 262.545 C 21.870 262.671,21.600 263.141,21.600 263.587 C 21.600 264.034,21.420 264.400,21.200 264.400 C 20.980 264.400,20.800 264.940,20.800 265.600 C 20.800 266.260,20.620 266.800,20.400 266.800 C 20.180 266.800,20.000 267.430,20.000 268.200 C 20.000 268.970,19.820 269.600,19.600 269.600 C 19.380 269.600,19.200 270.333,19.200 271.229 C 19.200 272.143,18.937 273.120,18.600 273.457 C 17.714 274.343,17.714 288.065,18.600 288.800 C 18.983 289.118,19.200 290.003,19.200 291.249 C 19.200 292.322,19.380 293.200,19.600 293.200 C 19.820 293.200,20.000 293.652,20.000 294.205 C 20.000 294.758,20.180 295.568,20.400 296.005 C 20.620 296.442,20.980 297.158,21.200 297.595 C 21.420 298.032,21.600 298.653,21.600 298.975 C 21.600 299.297,21.825 299.704,22.100 299.880 C 22.755 300.299,23.600 301.828,23.600 302.595 C 23.600 302.928,23.780 303.200,24.000 303.200 C 24.220 303.200,24.400 303.470,24.400 303.799 C 24.400 304.129,25.030 305.066,25.800 305.882 C 26.570 306.699,27.200 307.518,27.200 307.703 C 27.200 308.186,32.649 313.600,33.136 313.600 C 33.360 313.600,34.211 314.230,35.027 315.000 C 35.844 315.770,36.757 316.400,37.056 316.400 C 37.355 316.400,37.600 316.580,37.600 316.800 C 37.600 317.020,38.050 317.200,38.600 317.200 C 39.150 317.200,39.600 317.380,39.600 317.600 C 39.600 317.820,39.960 318.000,40.400 318.000 C 40.840 318.000,41.200 318.172,41.200 318.381 C 41.200 318.733,41.984 319.147,44.919 320.344 C 45.534 320.595,46.469 320.800,46.995 320.800 C 47.522 320.800,48.064 320.980,48.200 321.200 C 48.336 321.420,49.247 321.600,50.224 321.600 C 51.201 321.600,52.000 321.780,52.000 322.000 C 52.000 322.252,54.733 322.400,59.400 322.400 C 64.067 322.400,66.800 322.252,66.800 322.000 C 66.800 321.780,67.689 321.600,68.776 321.600 C 69.863 321.600,70.864 321.420,71.000 321.200 C 71.136 320.980,71.777 320.800,72.424 320.800 C 73.071 320.800,73.600 320.620,73.600 320.400 C 73.600 320.180,73.942 320.000,74.359 320.000 C 75.288 320.000,80.800 317.209,80.800 316.739 C 80.800 316.552,81.168 316.400,81.618 316.400 C 82.068 316.400,82.870 315.995,83.399 315.500 C 84.829 314.163,85.539 313.600,85.796 313.600 C 86.201 313.600,88.800 310.843,88.800 310.413 C 88.800 310.186,89.001 310.000,89.246 310.000 C 89.895 310.000,92.400 307.154,92.400 306.417 C 92.400 306.072,92.850 305.452,93.400 305.039 C 93.950 304.626,94.400 304.043,94.400 303.744 C 94.400 303.445,94.580 303.200,94.800 303.200 C 95.020 303.200,95.200 302.930,95.200 302.600 C 95.200 302.270,95.380 302.000,95.600 302.000 C 95.820 302.000,96.000 301.640,96.000 301.200 C 96.000 300.760,96.180 300.400,96.400 300.400 C 96.620 300.400,96.800 300.051,96.800 299.624 C 96.800 299.197,96.980 298.736,97.200 298.600 C 97.420 298.464,97.600 297.823,97.600 297.176 C 97.600 296.397,97.803 296.000,98.200 296.000 C 98.597 296.000,98.800 295.603,98.800 294.824 C 98.800 294.177,98.980 293.536,99.200 293.400 C 99.420 293.264,99.600 292.544,99.600 291.800 C 99.600 291.056,99.780 290.336,100.000 290.200 C 100.544 289.864,100.544 272.400,100.000 272.400 C 99.780 272.400,99.600 271.691,99.600 270.824 C 99.600 269.957,99.420 269.136,99.200 269.000 C 98.980 268.864,98.800 268.326,98.800 267.805 C 98.800 267.284,98.530 266.587,98.200 266.257 C 97.870 265.927,97.600 265.374,97.600 265.029 C 97.600 264.683,97.420 264.400,97.200 264.400 C 96.980 264.400,96.800 263.950,96.800 263.400 C 96.800 262.850,96.620 262.400,96.400 262.400 C 96.180 262.400,96.000 262.040,96.000 261.600 C 96.000 261.160,95.820 260.800,95.600 260.800 C 95.380 260.800,95.200 260.459,95.200 260.042 C 95.200 259.625,94.753 258.860,94.207 258.342 C 93.661 257.824,93.211 257.175,93.207 256.900 C 93.203 256.625,93.020 256.400,92.800 256.400 C 92.580 256.400,92.400 256.225,92.400 256.011 C 92.400 255.650,89.663 252.462,88.481 251.446 C 88.195 251.201,87.528 250.595,86.999 250.100 C 86.470 249.605,85.888 249.200,85.706 249.200 C 85.525 249.200,85.117 248.840,84.800 248.400 C 84.483 247.960,84.038 247.597,83.812 247.593 C 83.585 247.589,82.976 247.139,82.458 246.593 C 81.940 246.047,81.175 245.600,80.758 245.600 C 80.341 245.600,80.000 245.420,80.000 245.200 C 80.000 244.980,79.640 244.800,79.200 244.800 C 78.760 244.800,78.400 244.620,78.400 244.400 C 78.400 244.180,77.950 244.000,77.400 244.000 C 76.778 244.000,76.400 243.773,76.400 243.400 C 76.400 243.070,76.051 242.800,75.624 242.800 C 75.197 242.800,74.736 242.620,74.600 242.400 C 74.464 242.180,73.823 242.000,73.176 242.000 C 72.529 242.000,72.000 241.820,72.000 241.600 C 72.000 241.380,71.190 241.200,70.200 241.200 C 69.210 241.200,68.400 241.020,68.400 240.800 C 68.400 240.563,66.933 240.400,64.800 240.400 C 62.667 240.400,61.200 240.237,61.200 240.000 C 61.200 239.780,60.491 239.600,59.624 239.600 C 58.757 239.600,57.936 239.780,57.800 240.000 M338.800 240.000 C 338.800 240.237,337.333 240.400,335.200 240.400 C 333.067 240.400,331.600 240.563,331.600 240.800 C 331.600 241.020,330.790 241.200,329.800 241.200 C 328.810 241.200,328.000 241.380,328.000 241.600 C 328.000 241.820,327.727 242.000,327.394 242.000 C 326.161 242.000,323.600 243.011,323.600 243.497 C 323.600 243.774,323.150 244.000,322.600 244.000 C 322.050 244.000,321.600 244.180,321.600 244.400 C 321.600 244.620,321.240 244.800,320.800 244.800 C 320.360 244.800,320.000 244.980,320.000 245.200 C 320.000 245.420,319.640 245.600,319.200 245.600 C 318.760 245.600,318.400 245.780,318.400 246.000 C 318.400 246.220,318.149 246.400,317.843 246.400 C 317.536 246.400,317.182 246.670,317.055 247.000 C 316.929 247.330,316.589 247.600,316.301 247.600 C 316.013 247.600,315.517 247.960,315.200 248.400 C 314.883 248.840,314.475 249.200,314.294 249.200 C 313.997 249.200,313.466 249.646,311.100 251.879 C 310.715 252.243,310.400 252.778,310.400 253.070 C 310.400 253.361,310.173 253.600,309.895 253.600 C 309.617 253.600,309.032 254.080,308.595 254.666 C 308.158 255.252,307.575 255.959,307.300 256.237 C 307.025 256.515,306.800 256.917,306.800 257.129 C 306.800 257.342,306.353 257.940,305.807 258.458 C 305.261 258.976,304.811 259.715,304.807 260.100 C 304.803 260.485,304.620 260.800,304.400 260.800 C 304.180 260.800,304.000 261.160,304.000 261.600 C 304.000 262.040,303.820 262.400,303.600 262.400 C 303.380 262.400,303.200 262.850,303.200 263.400 C 303.200 263.950,303.020 264.400,302.800 264.400 C 302.580 264.400,302.400 264.683,302.400 265.029 C 302.400 265.374,302.130 265.927,301.800 266.257 C 301.470 266.587,301.200 267.284,301.200 267.805 C 301.200 268.326,301.020 268.864,300.800 269.000 C 300.580 269.136,300.400 269.957,300.400 270.824 C 300.400 271.691,300.220 272.400,300.000 272.400 C 299.745 272.400,299.600 275.592,299.600 281.176 C 299.600 286.596,299.753 290.047,300.000 290.200 C 300.220 290.336,300.400 291.056,300.400 291.800 C 300.400 292.544,300.580 293.264,300.800 293.400 C 301.020 293.536,301.200 294.092,301.200 294.636 C 301.200 295.180,301.470 295.729,301.800 295.855 C 302.138 295.985,302.400 296.581,302.400 297.219 C 302.400 297.843,302.580 298.464,302.800 298.600 C 303.020 298.736,303.200 299.197,303.200 299.624 C 303.200 300.051,303.380 300.400,303.600 300.400 C 303.820 300.400,304.000 300.760,304.000 301.200 C 304.000 301.640,304.180 302.000,304.400 302.000 C 304.620 302.000,304.800 302.251,304.800 302.557 C 304.800 302.864,305.070 303.218,305.400 303.345 C 305.730 303.471,306.000 303.811,306.000 304.099 C 306.000 304.387,306.360 304.883,306.800 305.200 C 307.240 305.517,307.600 306.052,307.600 306.388 C 307.601 307.025,309.283 309.200,309.775 309.200 C 310.134 309.200,311.200 310.256,311.200 310.611 C 311.200 310.935,313.064 312.699,314.570 313.800 C 315.172 314.240,316.145 315.005,316.732 315.500 C 317.320 315.994,318.033 316.399,318.317 316.400 C 318.601 316.400,319.220 316.760,319.692 317.200 C 320.164 317.640,320.877 318.000,321.275 318.000 C 321.674 318.000,322.000 318.145,322.000 318.323 C 322.000 318.727,324.836 320.000,325.734 320.000 C 326.100 320.000,326.400 320.180,326.400 320.400 C 326.400 320.620,326.929 320.800,327.576 320.800 C 328.223 320.800,328.864 320.980,329.000 321.200 C 329.136 321.420,330.137 321.600,331.224 321.600 C 332.311 321.600,333.200 321.780,333.200 322.000 C 333.200 322.252,335.933 322.400,340.600 322.400 C 345.267 322.400,348.000 322.252,348.000 322.000 C 348.000 321.780,348.799 321.600,349.776 321.600 C 350.753 321.600,351.664 321.420,351.800 321.200 C 351.936 320.980,352.656 320.800,353.400 320.800 C 354.144 320.800,354.864 320.620,355.000 320.400 C 355.136 320.180,355.687 320.000,356.224 320.000 C 356.761 320.000,357.200 319.820,357.200 319.600 C 357.200 319.380,357.560 319.200,358.000 319.200 C 358.444 319.200,358.800 318.933,358.800 318.600 C 358.800 318.227,359.178 318.000,359.800 318.000 C 360.350 318.000,360.800 317.820,360.800 317.600 C 360.800 317.380,361.160 317.200,361.600 317.200 C 362.040 317.200,362.400 317.020,362.400 316.800 C 362.400 316.580,362.668 316.400,362.995 316.400 C 363.610 316.400,364.842 315.523,365.946 314.300 C 366.294 313.915,366.719 313.600,366.893 313.600 C 367.066 313.600,367.772 313.060,368.463 312.400 C 369.154 311.740,369.872 311.200,370.059 311.200 C 370.247 311.200,370.400 311.014,370.400 310.787 C 370.400 310.559,371.030 309.743,371.800 308.973 C 372.570 308.203,373.200 307.426,373.200 307.246 C 373.200 307.066,373.740 306.354,374.400 305.663 C 375.060 304.972,375.600 304.136,375.600 303.804 C 375.600 303.472,375.760 303.200,375.957 303.200 C 376.153 303.200,376.426 302.750,376.564 302.200 C 376.702 301.650,376.992 301.200,377.208 301.200 C 377.423 301.200,377.600 300.840,377.600 300.400 C 377.600 299.960,377.780 299.600,378.000 299.600 C 378.220 299.600,378.400 299.150,378.400 298.600 C 378.400 298.050,378.580 297.600,378.800 297.600 C 379.020 297.600,379.200 297.240,379.200 296.800 C 379.200 296.360,379.380 296.000,379.600 296.000 C 379.820 296.000,380.000 295.370,380.000 294.600 C 380.000 293.830,380.180 293.200,380.400 293.200 C 380.620 293.200,380.800 292.412,380.800 291.449 C 380.800 290.380,381.034 289.504,381.400 289.200 C 381.893 288.791,382.000 287.400,382.000 281.380 C 382.000 275.404,381.890 273.947,381.400 273.457 C 381.063 273.120,380.800 272.143,380.800 271.229 C 380.800 270.333,380.620 269.600,380.400 269.600 C 380.180 269.600,380.000 268.970,380.000 268.200 C 380.000 267.430,379.820 266.800,379.600 266.800 C 379.380 266.800,379.200 266.260,379.200 265.600 C 379.200 264.940,379.020 264.400,378.800 264.400 C 378.580 264.400,378.400 264.158,378.400 263.861 C 378.400 263.134,377.215 260.800,376.845 260.800 C 376.683 260.800,376.302 260.170,376.000 259.400 C 375.698 258.630,375.316 258.000,375.152 258.000 C 374.988 258.000,374.733 257.618,374.584 257.150 C 374.436 256.683,373.254 255.246,371.957 253.957 C 370.661 252.669,369.600 251.432,369.600 251.207 C 369.600 250.983,369.420 250.800,369.200 250.800 C 368.981 250.800,368.059 250.080,367.152 249.200 C 366.245 248.320,365.165 247.600,364.752 247.600 C 364.338 247.600,364.000 247.345,364.000 247.034 C 364.000 246.722,363.460 246.228,362.800 245.936 C 362.140 245.644,361.600 245.269,361.600 245.102 C 361.600 244.936,361.150 244.800,360.600 244.800 C 360.050 244.800,359.600 244.620,359.600 244.400 C 359.600 244.180,359.259 244.000,358.843 244.000 C 358.426 244.000,357.997 243.768,357.888 243.485 C 357.779 243.201,356.758 242.715,355.620 242.405 C 354.481 242.095,353.460 241.697,353.351 241.521 C 353.242 241.344,352.443 241.200,351.576 241.200 C 350.709 241.200,350.000 241.020,350.000 240.800 C 350.000 240.562,348.475 240.400,346.224 240.400 C 344.137 240.400,342.337 240.221,342.200 240.000 C 342.064 239.780,341.243 239.600,340.376 239.600 C 339.509 239.600,338.800 239.780,338.800 240.000 M247.200 249.503 C 244.881 251.840,239.981 255.722,237.311 257.337 C 236.163 258.031,235.218 258.746,235.211 258.924 C 235.189 259.563,243.466 253.517,246.600 250.605 C 248.360 248.970,249.620 247.645,249.400 247.660 C 249.180 247.676,248.190 248.505,247.200 249.503 M152.000 248.945 C 152.000 250.350,167.835 261.898,168.647 261.086 C 168.731 261.003,168.304 260.682,167.699 260.373 C 165.087 259.040,157.651 253.977,155.989 252.400 C 152.882 249.452,152.000 248.688,152.000 248.945 M232.702 260.104 C 231.879 260.563,231.273 261.006,231.355 261.089 C 231.486 261.220,234.312 259.785,234.767 259.357 C 235.214 258.935,234.036 259.362,232.702 260.104 M65.798 260.428 C 82.996 265.741,86.725 288.119,72.219 298.969 C 62.961 305.894,48.132 303.575,41.715 294.200 C 29.845 276.857,45.935 254.293,65.798 260.428 M346.270 260.161 C 363.891 264.852,368.175 288.019,353.448 298.980 C 342.298 307.278,324.535 302.041,320.279 289.200 C 314.520 271.824,329.060 255.579,346.270 260.161 M229.253 261.853 C 228.513 262.176,228.001 262.534,228.116 262.650 C 228.337 262.871,230.800 261.715,230.800 261.390 C 230.800 261.163,230.913 261.129,229.253 261.853 M174.200 263.809 C 175.300 264.327,176.470 264.754,176.800 264.759 C 177.130 264.763,176.334 264.324,175.032 263.783 C 172.054 262.547,171.553 262.562,174.200 263.809 M223.800 264.214 C 222.185 264.954,223.151 264.955,224.854 264.216 C 225.594 263.894,225.930 263.639,225.600 263.648 C 225.270 263.657,224.460 263.912,223.800 264.214 M180.400 266.000 C 180.730 266.213,181.270 266.388,181.600 266.388 C 182.133 266.388,182.133 266.345,181.600 266.000 C 181.270 265.787,180.730 265.612,180.400 265.612 C 179.867 265.612,179.867 265.655,180.400 266.000 M183.400 266.800 C 184.596 267.314,185.595 267.314,184.800 266.800 C 184.470 266.587,183.840 266.422,183.400 266.434 L 182.600 266.456 183.400 266.800 M215.400 266.800 C 214.896 267.017,214.822 267.144,215.200 267.144 C 215.530 267.144,216.160 266.989,216.600 266.800 C 217.104 266.583,217.178 266.456,216.800 266.456 C 216.470 266.456,215.840 266.611,215.400 266.800 M186.033 267.347 C 186.125 267.428,186.920 267.604,187.800 267.738 C 188.915 267.907,189.158 267.871,188.600 267.619 C 187.832 267.271,185.690 267.044,186.033 267.347 M211.400 267.619 C 210.842 267.871,211.085 267.907,212.200 267.738 C 213.080 267.604,213.875 267.428,213.967 267.347 C 214.310 267.044,212.168 267.271,211.400 267.619 M192.600 268.457 C 193.920 268.598,197.250 268.713,200.000 268.713 C 202.750 268.713,206.080 268.598,207.400 268.457 C 208.720 268.315,205.390 268.200,200.000 268.200 C 194.610 268.200,191.280 268.315,192.600 268.457 M120.200 307.200 C 120.064 307.420,119.243 307.600,118.376 307.600 C 117.509 307.600,116.800 307.780,116.800 308.000 C 116.800 308.220,116.607 308.400,116.371 308.400 C 115.818 308.400,114.800 309.418,114.800 309.971 C 114.800 310.207,114.596 310.400,114.347 310.400 C 113.549 310.400,112.001 312.562,112.000 313.676 C 112.000 314.268,111.820 314.864,111.600 315.000 C 111.380 315.136,111.200 316.047,111.200 317.024 C 111.200 318.001,111.380 318.800,111.600 318.800 C 111.820 318.800,112.000 319.319,112.000 319.954 C 112.000 321.883,114.997 326.000,116.401 326.000 C 116.620 326.000,116.800 326.180,116.800 326.400 C 116.800 326.620,117.141 326.800,117.557 326.800 C 117.974 326.800,118.418 327.070,118.545 327.400 C 118.671 327.730,119.051 328.000,119.387 328.000 C 119.724 328.000,120.000 328.180,120.000 328.400 C 120.000 328.620,120.360 328.800,120.800 328.800 C 121.240 328.800,121.600 328.936,121.600 329.102 C 121.600 329.269,122.185 329.659,122.900 329.970 C 123.615 330.281,124.290 330.644,124.400 330.777 C 124.865 331.338,126.819 332.400,127.386 332.400 C 127.724 332.400,128.000 332.547,128.000 332.726 C 128.000 333.135,131.081 334.800,131.838 334.800 C 132.147 334.800,132.400 334.967,132.400 335.171 C 132.400 335.375,132.968 335.825,133.661 336.171 C 135.094 336.885,141.200 337.071,141.200 336.400 C 141.200 336.180,141.547 336.000,141.971 336.000 C 142.396 336.000,143.013 335.730,143.343 335.400 C 143.673 335.070,144.054 334.800,144.190 334.800 C 144.698 334.800,146.400 332.812,146.400 332.218 C 146.400 331.878,146.580 331.600,146.800 331.600 C 147.020 331.600,147.200 330.989,147.200 330.243 C 147.200 329.405,147.430 328.797,147.800 328.655 C 148.194 328.504,148.400 327.880,148.400 326.841 C 148.400 325.966,148.131 324.988,147.800 324.657 C 147.470 324.327,147.200 323.504,147.200 322.829 C 147.200 322.153,147.020 321.600,146.800 321.600 C 146.580 321.600,146.400 321.309,146.400 320.954 C 146.400 320.226,143.835 317.729,142.725 317.376 C 142.326 317.250,142.000 316.978,142.000 316.773 C 142.000 316.568,141.640 316.400,141.200 316.400 C 140.760 316.400,140.400 316.220,140.400 316.000 C 140.400 315.780,140.032 315.600,139.582 315.600 C 139.132 315.600,138.314 315.150,137.764 314.600 C 137.214 314.050,136.502 313.600,136.182 313.600 C 135.862 313.600,135.600 313.420,135.600 313.200 C 135.600 312.980,135.240 312.800,134.800 312.800 C 134.360 312.800,134.000 312.654,134.000 312.475 C 134.000 312.296,133.370 311.902,132.600 311.600 C 131.830 311.298,131.200 310.904,131.200 310.725 C 131.200 310.546,130.859 310.400,130.443 310.400 C 130.026 310.400,129.582 310.130,129.455 309.800 C 129.329 309.470,128.949 309.200,128.613 309.200 C 128.276 309.200,128.000 309.020,128.000 308.800 C 128.000 308.580,127.550 308.400,127.000 308.400 C 126.450 308.400,126.000 308.220,126.000 308.000 C 126.000 307.780,125.370 307.600,124.600 307.600 C 123.830 307.600,123.200 307.420,123.200 307.200 C 123.200 306.980,122.581 306.800,121.824 306.800 C 121.067 306.800,120.336 306.980,120.200 307.200 M276.800 307.200 C 276.800 307.420,276.170 307.600,275.400 307.600 C 274.630 307.600,274.000 307.780,274.000 308.000 C 274.000 308.220,273.758 308.400,273.461 308.400 C 272.659 308.400,270.400 309.602,270.400 310.029 C 270.400 310.233,270.040 310.400,269.600 310.400 C 269.160 310.400,268.800 310.546,268.800 310.725 C 268.800 310.904,268.170 311.298,267.400 311.600 C 266.630 311.902,266.000 312.296,266.000 312.475 C 266.000 312.654,265.640 312.800,265.200 312.800 C 264.760 312.800,264.400 312.980,264.400 313.200 C 264.400 313.420,264.173 313.600,263.896 313.600 C 263.619 313.600,262.907 314.050,262.313 314.600 C 261.720 315.150,261.056 315.600,260.837 315.600 C 259.343 315.600,253.600 319.841,253.600 320.945 C 253.600 321.305,253.420 321.600,253.200 321.600 C 252.980 321.600,252.800 322.230,252.800 323.000 C 252.800 323.770,252.620 324.400,252.400 324.400 C 252.180 324.400,252.000 325.390,252.000 326.600 C 252.000 327.810,252.180 328.800,252.400 328.800 C 252.620 328.800,252.800 329.430,252.800 330.200 C 252.800 330.970,252.980 331.600,253.200 331.600 C 253.420 331.600,253.600 331.917,253.600 332.305 C 253.600 332.693,254.061 333.357,254.625 333.780 C 255.189 334.204,256.027 334.876,256.487 335.275 C 256.946 335.674,257.655 336.000,258.061 336.000 C 258.468 336.000,258.800 336.180,258.800 336.400 C 258.800 336.635,260.192 336.800,262.176 336.800 C 264.033 336.800,265.664 336.620,265.800 336.400 C 265.936 336.180,266.397 336.000,266.824 336.000 C 267.251 336.000,267.600 335.730,267.600 335.400 C 267.600 335.027,267.978 334.800,268.600 334.800 C 269.150 334.800,269.600 334.620,269.600 334.400 C 269.600 334.180,269.836 334.000,270.125 334.000 C 270.413 334.000,271.036 333.640,271.508 333.200 C 271.980 332.760,272.560 332.400,272.797 332.400 C 273.221 332.400,275.209 331.249,275.600 330.777 C 275.710 330.644,276.385 330.281,277.100 329.970 C 277.815 329.659,278.400 329.269,278.400 329.102 C 278.400 328.936,278.760 328.800,279.200 328.800 C 279.640 328.800,280.000 328.620,280.000 328.400 C 280.000 328.180,280.366 328.000,280.813 328.000 C 281.259 328.000,281.729 327.730,281.855 327.400 C 281.982 327.070,282.336 326.800,282.643 326.800 C 282.949 326.800,283.200 326.620,283.200 326.400 C 283.200 326.180,283.430 326.000,283.712 326.000 C 283.993 326.000,284.483 325.640,284.800 325.200 C 285.117 324.760,285.573 324.400,285.814 324.400 C 286.469 324.400,288.000 321.292,288.000 319.962 C 288.000 319.323,288.180 318.800,288.400 318.800 C 288.620 318.800,288.800 318.001,288.800 317.024 C 288.800 316.047,288.620 315.136,288.400 315.000 C 288.180 314.864,288.000 314.223,288.000 313.576 C 288.000 311.614,283.702 307.600,281.600 307.600 C 280.720 307.600,280.000 307.420,280.000 307.200 C 280.000 306.980,279.280 306.800,278.400 306.800 C 277.520 306.800,276.800 306.980,276.800 307.200 M192.257 318.600 C 191.923 318.934,190.945 319.200,190.052 319.200 C 189.169 319.200,188.336 319.380,188.200 319.600 C 188.064 319.820,187.423 320.000,186.776 320.000 C 186.129 320.000,185.600 320.180,185.600 320.400 C 185.600 320.620,185.300 320.800,184.934 320.800 C 184.036 320.800,181.200 322.073,181.200 322.477 C 181.200 322.655,180.874 322.800,180.475 322.800 C 180.077 322.800,179.364 323.160,178.892 323.600 C 178.420 324.040,177.756 324.400,177.417 324.400 C 177.078 324.400,176.800 324.580,176.800 324.800 C 176.800 325.020,176.607 325.200,176.371 325.200 C 176.136 325.200,175.697 325.425,175.396 325.700 C 175.096 325.975,174.193 326.740,173.389 327.400 C 171.017 329.349,169.600 330.701,169.600 331.016 C 169.600 331.178,168.970 331.848,168.200 332.506 C 167.430 333.164,166.800 333.999,166.800 334.363 C 166.800 334.726,166.440 335.283,166.000 335.600 C 165.560 335.917,165.200 336.497,165.200 336.888 C 165.200 337.280,165.020 337.600,164.800 337.600 C 164.580 337.600,164.400 337.870,164.400 338.200 C 164.400 338.530,164.233 338.800,164.029 338.800 C 163.602 338.800,162.400 341.059,162.400 341.861 C 162.400 342.158,162.220 342.400,162.000 342.400 C 161.780 342.400,161.600 342.940,161.600 343.600 C 161.600 344.260,161.420 344.800,161.200 344.800 C 160.980 344.800,160.800 345.411,160.800 346.157 C 160.800 346.995,160.570 347.603,160.200 347.745 C 159.826 347.888,159.600 348.498,159.600 349.364 C 159.600 350.128,159.420 350.864,159.200 351.000 C 158.954 351.152,158.800 354.404,158.800 359.424 C 158.800 364.608,158.946 367.600,159.200 367.600 C 159.420 367.600,159.600 368.326,159.600 369.213 C 159.600 370.277,159.804 370.903,160.200 371.055 C 160.570 371.197,160.800 371.805,160.800 372.643 C 160.800 373.389,160.980 374.000,161.200 374.000 C 161.420 374.000,161.600 374.540,161.600 375.200 C 161.600 375.860,161.780 376.400,162.000 376.400 C 162.220 376.400,162.400 376.749,162.400 377.176 C 162.400 377.603,162.580 378.064,162.800 378.200 C 163.020 378.336,163.200 378.797,163.200 379.224 C 163.200 379.651,163.470 380.000,163.800 380.000 C 164.133 380.000,164.400 380.356,164.400 380.800 C 164.400 381.240,164.580 381.600,164.800 381.600 C 165.020 381.600,165.200 381.870,165.200 382.200 C 165.200 382.530,165.368 382.800,165.573 382.800 C 165.778 382.800,166.070 383.190,166.221 383.666 C 166.640 384.987,175.065 393.200,176.000 393.200 C 176.440 393.200,176.800 393.455,176.800 393.766 C 176.800 394.078,177.340 394.572,178.000 394.864 C 178.660 395.156,179.200 395.531,179.200 395.698 C 179.200 395.864,179.650 396.000,180.200 396.000 C 180.750 396.000,181.200 396.180,181.200 396.400 C 181.200 396.620,181.560 396.800,182.000 396.800 C 182.440 396.800,182.800 396.980,182.800 397.200 C 182.800 397.420,183.228 397.600,183.751 397.600 C 184.274 397.600,184.926 397.870,185.200 398.200 C 185.474 398.530,186.090 398.800,186.569 398.800 C 187.048 398.800,187.665 399.025,187.940 399.300 C 189.439 400.800,212.860 399.780,214.831 398.129 C 215.179 397.838,215.854 397.600,216.331 397.600 C 216.809 397.600,217.200 397.420,217.200 397.200 C 217.200 396.980,217.549 396.800,217.976 396.800 C 218.403 396.800,218.864 396.620,219.000 396.400 C 219.136 396.180,219.597 396.000,220.024 396.000 C 220.451 396.000,220.800 395.853,220.800 395.674 C 220.800 395.495,221.430 395.048,222.200 394.681 C 222.970 394.313,223.600 393.830,223.600 393.606 C 223.600 393.383,223.843 393.200,224.141 393.200 C 224.438 393.200,225.246 392.660,225.937 392.000 C 226.628 391.340,227.297 390.800,227.425 390.800 C 227.734 390.800,228.800 389.723,228.800 389.410 C 228.800 388.996,230.736 387.200,231.182 387.200 C 231.412 387.200,231.600 387.065,231.601 386.900 C 231.601 386.735,232.141 385.970,232.800 385.200 C 233.459 384.430,233.999 383.575,233.999 383.300 C 234.000 383.025,234.180 382.800,234.400 382.800 C 234.620 382.800,234.800 382.612,234.800 382.383 C 234.800 381.991,235.113 381.538,236.300 380.215 C 236.575 379.908,236.800 379.374,236.800 379.029 C 236.800 378.683,236.980 378.400,237.200 378.400 C 237.420 378.400,237.600 377.950,237.600 377.400 C 237.600 376.850,237.780 376.400,238.000 376.400 C 238.220 376.400,238.400 375.860,238.400 375.200 C 238.400 374.540,238.580 374.000,238.800 374.000 C 239.020 374.000,239.200 373.370,239.200 372.600 C 239.200 371.622,239.381 371.200,239.800 371.200 C 240.244 371.200,240.400 370.733,240.400 369.400 C 240.400 368.410,240.580 367.600,240.800 367.600 C 241.054 367.600,241.200 364.608,241.200 359.424 C 241.200 354.404,241.046 351.152,240.800 351.000 C 240.580 350.864,240.400 350.043,240.400 349.176 C 240.400 348.042,240.232 347.600,239.800 347.600 C 239.381 347.600,239.200 347.178,239.200 346.200 C 239.200 345.430,239.020 344.800,238.800 344.800 C 238.580 344.800,238.400 344.271,238.400 343.624 C 238.400 342.977,238.220 342.336,238.000 342.200 C 237.780 342.064,237.600 341.603,237.600 341.176 C 237.600 340.749,237.420 340.400,237.200 340.400 C 236.980 340.400,236.800 340.106,236.800 339.746 C 236.800 339.386,236.350 338.675,235.800 338.165 C 235.250 337.655,234.800 336.999,234.800 336.707 C 234.800 336.415,234.440 335.917,234.000 335.600 C 233.560 335.283,233.200 334.748,233.200 334.412 C 233.199 333.662,231.478 331.600,230.853 331.600 C 230.604 331.600,230.400 331.414,230.400 331.187 C 230.400 330.759,227.802 328.000,227.399 328.000 C 227.274 328.000,226.773 327.632,226.286 327.182 C 224.396 325.438,222.978 324.401,222.483 324.400 C 222.199 324.400,221.580 324.040,221.108 323.600 C 220.636 323.160,219.942 322.800,219.567 322.800 C 219.192 322.800,218.782 322.530,218.655 322.200 C 218.529 321.870,218.070 321.600,217.636 321.600 C 217.202 321.600,216.736 321.420,216.600 321.200 C 216.464 320.980,215.913 320.800,215.376 320.800 C 214.839 320.800,214.400 320.620,214.400 320.400 C 214.400 320.180,213.871 320.000,213.224 320.000 C 212.577 320.000,211.936 319.820,211.800 319.600 C 211.664 319.380,210.831 319.200,209.948 319.200 C 209.055 319.200,208.077 318.934,207.743 318.600 C 207.254 318.111,205.816 318.000,200.000 318.000 C 194.184 318.000,192.746 318.111,192.257 318.600 M207.888 339.044 C 217.532 342.880,223.161 352.510,221.627 362.546 C 221.353 364.336,220.990 365.980,220.820 366.200 C 220.650 366.420,220.401 367.058,220.268 367.618 C 219.727 369.894,215.932 374.871,213.200 376.887 C 201.645 385.415,184.452 380.474,179.613 367.235 C 173.125 349.484,190.525 332.137,207.888 339.044 " stroke="none" fill="#71c1ff" fill-rule="evenodd"></path><path id="path1" d="M188.200 112.400 C 188.064 112.620,186.793 112.800,185.376 112.800 C 183.925 112.800,182.800 112.975,182.800 113.200 C 182.800 113.420,182.003 113.600,181.029 113.600 C 179.987 113.600,179.010 113.847,178.657 114.200 C 178.327 114.530,177.515 114.800,176.852 114.800 C 176.189 114.800,175.536 114.980,175.400 115.200 C 175.264 115.420,174.533 115.600,173.776 115.600 C 173.019 115.600,172.400 115.780,172.400 116.000 C 172.400 116.220,171.948 116.400,171.395 116.400 C 170.842 116.400,170.077 116.559,169.695 116.753 C 168.572 117.324,167.066 117.931,166.100 118.202 C 165.605 118.340,165.200 118.622,165.200 118.827 C 165.200 119.032,164.750 119.200,164.200 119.200 C 163.650 119.200,163.200 119.380,163.200 119.600 C 163.200 119.820,162.840 120.000,162.400 120.000 C 161.960 120.000,161.600 120.180,161.600 120.400 C 161.600 120.620,161.251 120.800,160.824 120.800 C 160.397 120.800,159.936 120.980,159.800 121.200 C 159.664 121.420,159.203 121.600,158.776 121.600 C 158.349 121.600,158.000 121.870,158.000 122.200 C 158.000 122.533,157.644 122.800,157.200 122.800 C 156.760 122.800,156.400 122.980,156.400 123.200 C 156.400 123.420,156.040 123.600,155.600 123.600 C 155.160 123.600,154.800 123.780,154.800 124.000 C 154.800 124.220,154.530 124.400,154.200 124.400 C 153.870 124.400,153.600 124.580,153.600 124.800 C 153.600 125.020,153.306 125.200,152.946 125.200 C 152.586 125.200,151.875 125.650,151.365 126.200 C 150.855 126.750,150.199 127.200,149.907 127.200 C 149.615 127.200,149.117 127.560,148.800 128.000 C 148.483 128.440,147.903 128.800,147.512 128.800 C 147.120 128.800,146.800 128.950,146.800 129.132 C 146.800 129.315,146.350 129.706,145.800 130.000 C 145.250 130.294,144.800 130.698,144.800 130.896 C 144.800 131.476,143.712 132.400,143.029 132.400 C 142.683 132.400,142.400 132.550,142.400 132.732 C 142.400 132.915,141.950 133.306,141.400 133.600 C 140.850 133.894,140.400 134.298,140.400 134.496 C 140.400 134.901,139.388 136.000,139.015 136.000 C 138.700 136.000,136.000 138.700,136.000 139.015 C 136.000 139.388,134.901 140.400,134.496 140.400 C 134.298 140.400,133.894 140.850,133.600 141.400 C 133.306 141.950,132.915 142.400,132.732 142.400 C 132.550 142.400,132.400 142.683,132.400 143.029 C 132.400 143.712,131.476 144.800,130.896 144.800 C 130.698 144.800,130.294 145.250,130.000 145.800 C 129.706 146.350,129.315 146.800,129.132 146.800 C 128.950 146.800,128.800 147.120,128.800 147.512 C 128.800 147.903,128.440 148.483,128.000 148.800 C 127.560 149.117,127.200 149.615,127.200 149.907 C 127.200 150.199,126.750 150.855,126.200 151.365 C 125.650 151.875,125.200 152.504,125.200 152.763 C 125.200 153.022,124.840 153.620,124.400 154.092 C 123.960 154.564,123.600 155.277,123.600 155.675 C 123.600 156.074,123.420 156.400,123.200 156.400 C 122.980 156.400,122.800 156.760,122.800 157.200 C 122.800 157.644,122.533 158.000,122.200 158.000 C 121.870 158.000,121.600 158.349,121.600 158.776 C 121.600 159.203,121.420 159.664,121.200 159.800 C 120.980 159.936,120.800 160.397,120.800 160.824 C 120.800 161.251,120.620 161.600,120.400 161.600 C 120.180 161.600,120.000 161.960,120.000 162.400 C 120.000 162.840,119.820 163.200,119.600 163.200 C 119.380 163.200,119.200 163.650,119.200 164.200 C 119.200 164.750,119.032 165.200,118.827 165.200 C 118.622 165.200,118.340 165.605,118.202 166.100 C 117.931 167.066,117.324 168.572,116.753 169.695 C 116.559 170.077,116.400 170.842,116.400 171.395 C 116.400 171.948,116.220 172.400,116.000 172.400 C 115.780 172.400,115.600 173.019,115.600 173.776 C 115.600 174.533,115.420 175.264,115.200 175.400 C 114.980 175.536,114.800 176.189,114.800 176.852 C 114.800 177.515,114.530 178.327,114.200 178.657 C 113.847 179.010,113.600 179.987,113.600 181.029 C 113.600 182.003,113.420 182.800,113.200 182.800 C 112.975 182.800,112.800 183.925,112.800 185.376 C 112.800 186.793,112.620 188.064,112.400 188.200 C 112.148 188.356,112.000 192.730,112.000 200.000 C 112.000 207.270,112.148 211.644,112.400 211.800 C 112.620 211.936,112.800 213.207,112.800 214.624 C 112.800 216.075,112.975 217.200,113.200 217.200 C 113.420 217.200,113.600 217.997,113.600 218.971 C 113.600 220.013,113.847 220.990,114.200 221.343 C 114.530 221.673,114.800 222.485,114.800 223.148 C 114.800 223.811,114.980 224.464,115.200 224.600 C 115.420 224.736,115.600 225.456,115.600 226.200 C 115.600 226.944,115.780 227.664,116.000 227.800 C 116.220 227.936,116.400 228.399,116.400 228.829 C 116.400 229.259,116.559 229.923,116.753 230.305 C 117.324 231.428,117.931 232.934,118.202 233.900 C 118.340 234.395,118.622 234.800,118.827 234.800 C 119.032 234.800,119.200 235.250,119.200 235.800 C 119.200 236.350,119.380 236.800,119.600 236.800 C 119.820 236.800,120.000 237.160,120.000 237.600 C 120.000 238.040,120.180 238.400,120.400 238.400 C 120.620 238.400,120.800 238.850,120.800 239.400 C 120.800 239.950,120.980 240.400,121.200 240.400 C 121.420 240.400,121.600 240.760,121.600 241.200 C 121.600 241.644,121.867 242.000,122.200 242.000 C 122.530 242.000,122.800 242.253,122.800 242.562 C 122.800 243.319,124.465 246.400,124.874 246.400 C 125.053 246.400,125.200 246.760,125.200 247.200 C 125.200 247.640,125.380 248.000,125.600 248.000 C 125.820 248.000,126.000 248.270,126.000 248.600 C 126.000 248.930,126.270 249.200,126.600 249.200 C 126.930 249.200,127.200 249.520,127.200 249.912 C 127.200 250.303,127.560 250.883,128.000 251.200 C 128.440 251.517,128.800 252.052,128.800 252.388 C 128.801 253.025,130.483 255.200,130.975 255.200 C 131.489 255.200,132.400 256.333,132.400 256.971 C 132.400 257.317,132.550 257.600,132.732 257.600 C 132.915 257.600,133.306 258.050,133.600 258.600 C 133.894 259.150,134.375 259.600,134.668 259.600 C 134.960 259.600,135.200 259.785,135.200 260.011 C 135.200 260.545,138.655 264.000,139.189 264.000 C 139.415 264.000,139.600 264.227,139.600 264.505 C 139.600 264.783,140.080 265.368,140.666 265.805 C 141.252 266.242,141.959 266.825,142.237 267.100 C 142.515 267.375,142.949 267.600,143.200 267.600 C 143.689 267.600,144.800 268.573,144.800 269.000 C 144.800 269.415,145.905 270.400,146.371 270.400 C 146.607 270.400,146.800 270.580,146.800 270.800 C 146.800 271.020,147.117 271.200,147.505 271.200 C 147.893 271.200,148.548 271.650,148.961 272.200 C 149.374 272.750,149.957 273.200,150.256 273.200 C 150.555 273.200,150.800 273.380,150.800 273.600 C 150.800 273.820,151.070 274.000,151.400 274.000 C 151.730 274.000,152.000 274.180,152.000 274.400 C 152.000 274.620,152.360 274.800,152.800 274.800 C 153.240 274.800,153.600 274.980,153.600 275.200 C 153.600 275.420,153.870 275.600,154.200 275.600 C 154.530 275.600,154.800 275.780,154.800 276.000 C 154.800 276.220,155.141 276.400,155.557 276.400 C 155.974 276.400,156.418 276.670,156.545 277.000 C 156.671 277.330,157.051 277.600,157.387 277.600 C 157.724 277.600,158.000 277.780,158.000 278.000 C 158.000 278.220,158.349 278.400,158.776 278.400 C 159.203 278.400,159.664 278.580,159.800 278.800 C 159.936 279.020,160.397 279.200,160.824 279.200 C 161.251 279.200,161.600 279.380,161.600 279.600 C 161.600 279.820,161.960 280.000,162.400 280.000 C 162.840 280.000,163.200 280.180,163.200 280.400 C 163.200 280.620,163.631 280.800,164.157 280.800 C 164.684 280.800,165.218 281.070,165.345 281.400 C 165.471 281.730,165.943 282.000,166.393 282.000 C 166.843 282.000,167.568 282.180,168.005 282.400 C 168.442 282.620,169.158 282.980,169.595 283.200 C 170.032 283.420,170.842 283.600,171.395 283.600 C 171.948 283.600,172.400 283.780,172.400 284.000 C 172.400 284.220,173.019 284.400,173.776 284.400 C 174.533 284.400,175.264 284.580,175.400 284.800 C 175.536 285.020,176.189 285.200,176.852 285.200 C 177.515 285.200,178.327 285.470,178.657 285.800 C 179.010 286.153,179.987 286.400,181.029 286.400 C 182.003 286.400,182.800 286.580,182.800 286.800 C 182.800 287.025,183.925 287.200,185.376 287.200 C 186.793 287.200,188.064 287.380,188.200 287.600 C 188.356 287.852,192.730 288.000,200.000 288.000 C 207.270 288.000,211.644 287.852,211.800 287.600 C 211.936 287.380,213.207 287.200,214.624 287.200 C 216.075 287.200,217.200 287.025,217.200 286.800 C 217.200 286.580,217.997 286.400,218.971 286.400 C 220.013 286.400,220.990 286.153,221.343 285.800 C 221.673 285.470,222.485 285.200,223.148 285.200 C 223.811 285.200,224.464 285.020,224.600 284.800 C 224.736 284.580,225.456 284.400,226.200 284.400 C 226.944 284.400,227.664 284.220,227.800 284.000 C 227.936 283.780,228.577 283.600,229.224 283.600 C 229.871 283.600,230.400 283.420,230.400 283.200 C 230.400 282.980,230.850 282.800,231.400 282.800 C 231.950 282.800,232.400 282.620,232.400 282.400 C 232.400 282.180,232.856 282.000,233.413 282.000 C 233.969 282.000,234.529 281.730,234.655 281.400 C 234.782 281.070,235.316 280.800,235.843 280.800 C 236.369 280.800,236.800 280.620,236.800 280.400 C 236.800 280.180,237.160 280.000,237.600 280.000 C 238.040 280.000,238.400 279.820,238.400 279.600 C 238.400 279.380,238.850 279.200,239.400 279.200 C 239.950 279.200,240.400 279.020,240.400 278.800 C 240.400 278.580,240.760 278.400,241.200 278.400 C 241.640 278.400,242.000 278.263,242.000 278.095 C 242.000 277.927,242.343 277.612,242.761 277.395 C 243.180 277.178,244.170 276.664,244.961 276.254 C 245.753 275.844,246.400 275.349,246.400 275.154 C 246.400 274.959,246.760 274.800,247.200 274.800 C 247.640 274.800,248.000 274.620,248.000 274.400 C 248.000 274.180,248.270 274.000,248.600 274.000 C 248.930 274.000,249.200 273.820,249.200 273.600 C 249.200 273.380,249.445 273.200,249.744 273.200 C 250.043 273.200,250.626 272.750,251.039 272.200 C 251.452 271.650,252.107 271.200,252.495 271.200 C 252.883 271.200,253.200 271.020,253.200 270.800 C 253.200 270.580,253.393 270.400,253.629 270.400 C 254.095 270.400,255.200 269.415,255.200 269.000 C 255.200 268.507,256.348 267.600,256.971 267.600 C 257.317 267.600,257.600 267.420,257.600 267.200 C 257.600 266.980,257.786 266.800,258.014 266.800 C 258.554 266.800,266.800 258.554,266.800 258.014 C 266.800 257.786,266.980 257.600,267.200 257.600 C 267.420 257.600,267.600 257.317,267.600 256.971 C 267.600 256.348,268.507 255.200,269.000 255.200 C 269.415 255.200,270.400 254.095,270.400 253.629 C 270.400 253.393,270.580 253.200,270.800 253.200 C 271.020 253.200,271.200 252.883,271.200 252.495 C 271.200 252.107,271.650 251.452,272.200 251.039 C 272.750 250.626,273.200 250.043,273.200 249.744 C 273.200 249.445,273.380 249.200,273.600 249.200 C 273.820 249.200,274.000 248.930,274.000 248.600 C 274.000 248.270,274.180 248.000,274.400 248.000 C 274.620 248.000,274.800 247.640,274.800 247.200 C 274.800 246.760,274.959 246.400,275.154 246.400 C 275.349 246.400,275.844 245.753,276.254 244.961 C 276.664 244.170,277.178 243.180,277.395 242.761 C 277.612 242.343,277.927 242.000,278.095 242.000 C 278.263 242.000,278.400 241.640,278.400 241.200 C 278.400 240.760,278.580 240.400,278.800 240.400 C 279.020 240.400,279.200 239.950,279.200 239.400 C 279.200 238.850,279.380 238.400,279.600 238.400 C 279.820 238.400,280.000 238.040,280.000 237.600 C 280.000 237.160,280.180 236.800,280.400 236.800 C 280.620 236.800,280.800 236.369,280.800 235.843 C 280.800 235.316,281.070 234.782,281.400 234.655 C 281.730 234.529,282.000 233.969,282.000 233.413 C 282.000 232.856,282.180 232.400,282.400 232.400 C 282.620 232.400,282.800 231.961,282.800 231.424 C 282.800 230.887,282.980 230.336,283.200 230.200 C 283.420 230.064,283.600 229.524,283.600 229.000 C 283.600 228.476,283.780 227.936,284.000 227.800 C 284.220 227.664,284.400 226.944,284.400 226.200 C 284.400 225.456,284.580 224.736,284.800 224.600 C 285.020 224.464,285.200 223.811,285.200 223.148 C 285.200 222.485,285.470 221.673,285.800 221.343 C 286.153 220.990,286.400 220.013,286.400 218.971 C 286.400 217.997,286.580 217.200,286.800 217.200 C 287.025 217.200,287.200 216.075,287.200 214.624 C 287.200 213.207,287.380 211.936,287.600 211.800 C 287.852 211.644,288.000 207.270,288.000 200.000 C 288.000 192.730,287.852 188.356,287.600 188.200 C 287.380 188.064,287.200 186.793,287.200 185.376 C 287.200 183.925,287.025 182.800,286.800 182.800 C 286.580 182.800,286.400 182.003,286.400 181.029 C 286.400 179.987,286.153 179.010,285.800 178.657 C 285.470 178.327,285.200 177.515,285.200 176.852 C 285.200 176.189,285.020 175.536,284.800 175.400 C 284.580 175.264,284.400 174.533,284.400 173.776 C 284.400 173.019,284.220 172.400,284.000 172.400 C 283.780 172.400,283.600 171.948,283.600 171.395 C 283.600 170.842,283.420 170.032,283.200 169.595 C 282.980 169.158,282.620 168.442,282.400 168.005 C 282.180 167.568,282.000 166.843,282.000 166.393 C 282.000 165.943,281.730 165.471,281.400 165.345 C 281.070 165.218,280.800 164.684,280.800 164.157 C 280.800 163.631,280.620 163.200,280.400 163.200 C 280.180 163.200,280.000 162.840,280.000 162.400 C 280.000 161.960,279.820 161.600,279.600 161.600 C 279.380 161.600,279.200 161.251,279.200 160.824 C 279.200 160.397,279.020 159.936,278.800 159.800 C 278.580 159.664,278.400 159.203,278.400 158.776 C 278.400 158.349,278.220 158.000,278.000 158.000 C 277.780 158.000,277.600 157.724,277.600 157.387 C 277.600 157.051,277.330 156.671,277.000 156.545 C 276.670 156.418,276.400 156.008,276.400 155.633 C 276.400 155.258,276.040 154.564,275.600 154.092 C 275.160 153.620,274.800 152.956,274.800 152.617 C 274.800 152.278,274.620 152.000,274.400 152.000 C 274.180 152.000,274.000 151.730,274.000 151.400 C 274.000 151.070,273.820 150.800,273.600 150.800 C 273.380 150.800,273.200 150.555,273.200 150.256 C 273.200 149.957,272.750 149.374,272.200 148.961 C 271.650 148.548,271.200 147.893,271.200 147.505 C 271.200 147.117,271.020 146.800,270.800 146.800 C 270.580 146.800,270.400 146.607,270.400 146.371 C 270.400 145.905,269.415 144.800,269.000 144.800 C 268.507 144.800,267.600 143.652,267.600 143.029 C 267.600 142.683,267.420 142.400,267.200 142.400 C 266.980 142.400,266.800 142.212,266.800 141.982 C 266.800 141.439,264.961 139.600,264.418 139.600 C 264.188 139.600,264.000 139.415,264.000 139.189 C 264.000 138.655,260.545 135.200,260.011 135.200 C 259.785 135.200,259.600 134.960,259.600 134.668 C 259.600 134.375,259.150 133.894,258.600 133.600 C 258.050 133.306,257.600 132.915,257.600 132.732 C 257.600 132.550,257.317 132.400,256.971 132.400 C 256.333 132.400,255.200 131.489,255.200 130.975 C 255.200 130.483,253.025 128.801,252.388 128.800 C 252.052 128.800,251.517 128.440,251.200 128.000 C 250.883 127.560,250.303 127.200,249.912 127.200 C 249.520 127.200,249.200 126.930,249.200 126.600 C 249.200 126.270,248.930 126.000,248.600 126.000 C 248.270 126.000,248.000 125.820,248.000 125.600 C 248.000 125.380,247.640 125.200,247.200 125.200 C 246.760 125.200,246.400 125.053,246.400 124.874 C 246.400 124.465,243.319 122.800,242.562 122.800 C 242.253 122.800,242.000 122.530,242.000 122.200 C 242.000 121.867,241.644 121.600,241.200 121.600 C 240.760 121.600,240.400 121.420,240.400 121.200 C 240.400 120.980,239.950 120.800,239.400 120.800 C 238.850 120.800,238.400 120.620,238.400 120.400 C 238.400 120.180,238.040 120.000,237.600 120.000 C 237.160 120.000,236.800 119.820,236.800 119.600 C 236.800 119.380,236.427 119.200,235.971 119.200 C 235.516 119.200,234.873 118.930,234.543 118.600 C 234.213 118.270,233.606 118.000,233.195 118.000 C 232.784 118.000,232.336 117.820,232.200 117.600 C 232.064 117.380,231.603 117.200,231.176 117.200 C 230.749 117.200,230.400 117.020,230.400 116.800 C 230.400 116.580,229.871 116.400,229.224 116.400 C 228.577 116.400,227.936 116.220,227.800 116.000 C 227.664 115.780,226.944 115.600,226.200 115.600 C 225.456 115.600,224.736 115.420,224.600 115.200 C 224.464 114.980,223.811 114.800,223.148 114.800 C 222.485 114.800,221.673 114.530,221.343 114.200 C 220.990 113.847,220.013 113.600,218.971 113.600 C 217.997 113.600,217.200 113.420,217.200 113.200 C 217.200 112.975,216.075 112.800,214.624 112.800 C 213.207 112.800,211.936 112.620,211.800 112.400 C 211.644 112.148,207.270 112.000,200.000 112.000 C 192.730 112.000,188.356 112.148,188.200 112.400 M208.625 131.794 C 211.031 132.120,213.450 132.491,214.000 132.618 C 217.824 133.501,218.865 133.777,221.000 134.476 C 257.705 146.478,277.405 185.653,265.113 222.200 C 253.098 257.926,213.823 277.229,177.800 265.113 C 157.573 258.311,141.237 241.677,134.476 221.000 C 133.777 218.865,133.501 217.824,132.618 214.000 C 131.945 211.084,131.200 203.730,131.200 200.000 C 131.200 196.270,131.945 188.916,132.618 186.000 C 133.501 182.176,133.777 181.135,134.476 179.000 C 141.302 158.125,157.669 141.646,178.600 134.573 C 180.558 133.911,181.339 133.706,185.400 132.786 C 192.357 131.210,201.457 130.821,208.625 131.794 " stroke="none" fill="#444c54" fill-rule="evenodd"></path></g></svg>