<svg id="svg" version="1.1" xmlns="http://www.w3.org/2000/svg" xmlns:xlink="http://www.w3.org/1999/xlink" width="400" height="400" viewBox="0, 0, 400,400"><g id="svgg"><path id="path0" d="M37.600 2.800 C 37.600 3.020,36.610 3.200,35.400 3.200 C 34.190 3.200,33.200 3.380,33.200 3.600 C 33.200 3.820,32.491 4.000,31.624 4.000 C 30.757 4.000,29.936 4.180,29.800 4.400 C 29.664 4.620,29.203 4.800,28.776 4.800 C 28.349 4.800,28.000 4.980,28.000 5.200 C 28.000 5.420,27.572 5.600,27.049 5.600 C 26.526 5.600,25.874 5.870,25.600 6.200 C 25.326 6.530,24.764 6.800,24.351 6.800 C 23.938 6.800,23.600 6.980,23.600 7.200 C 23.600 7.420,23.330 7.600,23.000 7.600 C 22.670 7.600,22.400 7.780,22.400 8.000 C 22.400 8.220,22.040 8.400,21.600 8.400 C 21.160 8.400,20.800 8.541,20.800 8.714 C 20.800 8.886,20.235 9.361,19.545 9.769 C 17.917 10.730,10.730 17.917,9.769 19.545 C 9.361 20.235,8.886 20.800,8.714 20.800 C 8.541 20.800,8.400 21.160,8.400 21.600 C 8.400 22.040,8.220 22.400,8.000 22.400 C 7.780 22.400,7.600 22.670,7.600 23.000 C 7.600 23.330,7.420 23.600,7.200 23.600 C 6.980 23.600,6.800 23.938,6.800 24.351 C 6.800 24.764,6.530 25.326,6.200 25.600 C 5.870 25.874,5.600 26.526,5.600 27.049 C 5.600 27.572,5.420 28.000,5.200 28.000 C 4.980 28.000,4.800 28.349,4.800 28.776 C 4.800 29.203,4.620 29.664,4.400 29.800 C 4.180 29.936,4.000 30.757,4.000 31.624 C 4.000 32.491,3.820 33.200,3.600 33.200 C 3.380 33.200,3.200 34.190,3.200 35.400 C 3.200 36.610,3.020 37.600,2.800 37.600 C 2.537 37.600,2.400 46.733,2.400 64.200 C 2.400 81.667,2.537 90.800,2.800 90.800 C 3.020 90.800,3.200 91.340,3.200 92.000 C 3.200 92.660,3.380 93.200,3.600 93.200 C 3.820 93.200,4.000 93.388,4.000 93.618 C 4.000 94.161,5.839 96.000,6.382 96.000 C 6.612 96.000,6.800 96.180,6.800 96.400 C 6.800 96.620,7.340 96.800,8.000 96.800 C 8.660 96.800,9.200 96.980,9.200 97.200 C 9.200 97.831,11.847 97.666,12.400 97.000 C 12.841 96.468,32.090 96.400,181.238 96.400 L 349.579 96.400 351.289 95.446 C 357.582 91.937,357.431 83.515,351.000 79.373 C 349.820 78.613,347.113 78.598,186.238 78.497 C 61.486 78.419,22.540 78.282,22.108 77.923 C 21.628 77.525,21.565 74.477,21.698 58.226 L 21.856 39.000 22.905 36.306 C 25.428 29.821,30.038 25.273,36.530 22.865 L 39.400 21.800 200.000 21.800 L 360.600 21.800 363.200 22.742 C 369.688 25.094,377.200 32.613,377.200 36.754 C 377.200 37.132,377.425 37.665,377.700 37.940 C 378.477 38.717,378.430 360.411,377.653 362.400 C 376.375 365.672,375.842 366.726,374.316 369.000 C 371.758 372.812,368.094 375.475,362.400 377.662 C 360.398 378.431,38.709 378.469,37.940 377.700 C 37.665 377.425,37.132 377.200,36.754 377.200 C 32.758 377.200,25.415 370.048,22.873 363.680 L 21.804 361.000 21.602 243.000 C 21.404 127.294,21.385 124.977,20.628 123.800 C 19.216 121.604,16.672 119.600,15.299 119.600 C 14.897 119.600,13.863 119.240,13.000 118.800 C 11.097 117.830,8.400 117.712,8.400 118.600 C 8.400 118.933,8.044 119.200,7.600 119.200 C 7.160 119.200,6.800 119.380,6.800 119.600 C 6.800 119.820,6.599 120.000,6.354 120.000 C 5.672 120.000,3.200 122.864,3.200 123.655 C 3.200 124.039,3.020 124.464,2.800 124.600 C 2.245 124.943,2.245 362.400,2.800 362.400 C 3.020 362.400,3.200 363.390,3.200 364.600 C 3.200 365.810,3.380 366.800,3.600 366.800 C 3.820 366.800,4.000 367.509,4.000 368.376 C 4.000 369.243,4.180 370.064,4.400 370.200 C 4.620 370.336,4.800 370.797,4.800 371.224 C 4.800 371.651,4.980 372.000,5.200 372.000 C 5.420 372.000,5.600 372.428,5.600 372.951 C 5.600 373.474,5.870 374.126,6.200 374.400 C 6.530 374.674,6.800 375.236,6.800 375.649 C 6.800 376.062,6.980 376.400,7.200 376.400 C 7.420 376.400,7.600 376.670,7.600 377.000 C 7.600 377.330,7.780 377.600,8.000 377.600 C 8.220 377.600,8.400 377.960,8.400 378.400 C 8.400 378.840,8.541 379.200,8.714 379.200 C 8.886 379.200,9.366 379.773,9.780 380.474 C 10.731 382.084,18.666 390.000,19.329 390.000 C 19.601 390.000,20.083 390.360,20.400 390.800 C 20.717 391.240,21.397 391.600,21.912 391.600 C 22.434 391.600,22.738 391.777,22.600 392.000 C 22.464 392.220,22.633 392.400,22.976 392.400 C 23.319 392.400,23.600 392.580,23.600 392.800 C 23.600 393.020,23.938 393.200,24.351 393.200 C 24.764 393.200,25.326 393.470,25.600 393.800 C 25.874 394.130,26.526 394.400,27.049 394.400 C 27.572 394.400,28.000 394.580,28.000 394.800 C 28.000 395.020,28.349 395.200,28.776 395.200 C 29.203 395.200,29.664 395.380,29.800 395.600 C 29.936 395.820,30.757 396.000,31.624 396.000 C 32.491 396.000,33.200 396.180,33.200 396.400 C 33.200 396.620,34.190 396.800,35.400 396.800 C 36.610 396.800,37.600 396.980,37.600 397.200 C 37.600 397.466,92.000 397.600,200.000 397.600 C 308.000 397.600,362.400 397.466,362.400 397.200 C 362.400 396.980,363.390 396.800,364.600 396.800 C 365.810 396.800,366.800 396.620,366.800 396.400 C 366.800 396.180,367.509 396.000,368.376 396.000 C 369.243 396.000,370.064 395.820,370.200 395.600 C 370.336 395.380,370.797 395.200,371.224 395.200 C 371.651 395.200,372.000 395.020,372.000 394.800 C 372.000 394.580,372.428 394.400,372.951 394.400 C 373.474 394.400,374.126 394.130,374.400 393.800 C 374.674 393.470,375.236 393.200,375.649 393.200 C 376.062 393.200,376.400 393.020,376.400 392.800 C 376.400 392.580,376.670 392.400,377.000 392.400 C 377.330 392.400,377.600 392.220,377.600 392.000 C 377.600 391.780,377.920 391.600,378.312 391.600 C 378.703 391.600,379.283 391.240,379.600 390.800 C 379.917 390.360,380.403 390.000,380.679 390.000 C 381.336 390.000,390.000 381.336,390.000 380.679 C 390.000 380.403,390.360 379.917,390.800 379.600 C 391.240 379.283,391.600 378.703,391.600 378.312 C 391.600 377.920,391.780 377.600,392.000 377.600 C 392.220 377.600,392.400 377.330,392.400 377.000 C 392.400 376.670,392.580 376.400,392.800 376.400 C 393.020 376.400,393.200 376.062,393.200 375.649 C 393.200 375.236,393.470 374.674,393.800 374.400 C 394.130 374.126,394.400 373.474,394.400 372.951 C 394.400 372.428,394.580 372.000,394.800 372.000 C 395.020 372.000,395.200 371.651,395.200 371.224 C 395.200 370.797,395.380 370.336,395.600 370.200 C 395.820 370.064,396.000 369.243,396.000 368.376 C 396.000 367.509,396.180 366.800,396.400 366.800 C 396.620 366.800,396.800 365.810,396.800 364.600 C 396.800 363.390,396.980 362.400,397.200 362.400 C 397.466 362.400,397.600 308.000,397.600 200.000 C 397.600 92.000,397.466 37.600,397.200 37.600 C 396.980 37.600,396.800 36.610,396.800 35.400 C 396.800 34.190,396.620 33.200,396.400 33.200 C 396.180 33.200,396.000 32.491,396.000 31.624 C 396.000 30.757,395.820 29.936,395.600 29.800 C 395.380 29.664,395.200 29.203,395.200 28.776 C 395.200 28.349,395.020 28.000,394.800 28.000 C 394.580 28.000,394.400 27.572,394.400 27.049 C 394.400 26.526,394.130 25.874,393.800 25.600 C 393.470 25.326,393.200 24.764,393.200 24.351 C 393.200 23.938,393.020 23.600,392.800 23.600 C 392.580 23.600,392.400 23.319,392.400 22.976 C 392.400 22.633,392.220 22.464,392.000 22.600 C 391.773 22.740,391.600 22.404,391.600 21.824 C 391.600 21.261,391.459 20.800,391.286 20.800 C 391.114 20.800,390.639 20.235,390.231 19.545 C 389.270 17.917,382.083 10.730,380.455 9.769 C 379.765 9.361,379.200 8.886,379.200 8.714 C 379.200 8.541,378.840 8.400,378.400 8.400 C 377.960 8.400,377.600 8.220,377.600 8.000 C 377.600 7.780,377.330 7.600,377.000 7.600 C 376.670 7.600,376.400 7.420,376.400 7.200 C 376.400 6.980,376.062 6.800,375.649 6.800 C 375.236 6.800,374.674 6.530,374.400 6.200 C 374.126 5.870,373.474 5.600,372.951 5.600 C 372.428 5.600,372.000 5.420,372.000 5.200 C 372.000 4.980,371.651 4.800,371.224 4.800 C 370.797 4.800,370.336 4.620,370.200 4.400 C 370.064 4.180,369.243 4.000,368.376 4.000 C 367.509 4.000,366.800 3.820,366.800 3.600 C 366.800 3.380,365.810 3.200,364.600 3.200 C 363.390 3.200,362.400 3.020,362.400 2.800 C 362.400 2.534,308.000 2.400,200.000 2.400 C 92.000 2.400,37.600 2.534,37.600 2.800 M46.600 41.771 C 41.774 44.003,39.748 48.798,41.734 53.289 C 45.208 61.146,55.278 61.003,58.561 53.051 C 61.436 46.085,53.486 38.587,46.600 41.771 M77.766 41.771 C 73.784 43.583,71.569 47.773,72.466 51.800 C 74.223 59.688,84.200 61.742,88.642 55.131 C 93.713 47.585,85.950 38.049,77.766 41.771 M109.200 41.652 C 101.249 45.168,101.723 55.816,109.959 58.686 C 113.669 59.978,117.991 58.294,120.293 54.657 C 124.799 47.543,116.878 38.258,109.200 41.652 " stroke="none" fill="#464d55" fill-rule="evenodd"></path><path id="path1" d="M223.292 165.570 C 220.195 166.356,216.000 171.472,216.000 174.462 C 216.000 174.780,215.851 175.211,215.670 175.420 C 215.488 175.629,215.095 176.610,214.798 177.600 C 214.500 178.590,214.146 179.580,214.011 179.800 C 213.877 180.020,213.529 180.920,213.237 181.800 C 212.946 182.680,212.480 183.940,212.201 184.600 C 211.922 185.260,211.475 186.430,211.207 187.200 C 210.939 187.970,210.573 188.960,210.395 189.400 C 210.217 189.840,209.412 192.000,208.605 194.200 C 207.799 196.400,206.991 198.560,206.810 199.000 C 206.629 199.440,206.296 200.340,206.071 201.000 C 205.552 202.517,203.667 207.542,203.219 208.600 C 203.033 209.040,202.664 210.030,202.400 210.800 C 202.136 211.570,201.772 212.560,201.592 213.000 C 201.412 213.440,200.785 215.150,200.200 216.800 C 199.066 219.998,198.521 221.379,197.953 222.495 C 197.759 222.877,197.600 223.464,197.600 223.800 C 197.600 224.136,197.438 224.723,197.241 225.105 C 197.044 225.487,196.572 226.610,196.193 227.600 C 195.814 228.590,195.364 229.760,195.192 230.200 C 195.021 230.640,194.664 231.630,194.400 232.400 C 194.136 233.170,193.776 234.160,193.600 234.600 C 193.424 235.040,193.063 236.030,192.796 236.800 C 192.386 237.988,191.226 241.049,189.994 244.200 C 189.822 244.640,189.497 245.540,189.272 246.200 C 188.740 247.764,186.023 255.167,185.603 256.200 C 185.424 256.640,184.884 258.080,184.402 259.400 C 182.762 263.896,181.680 266.660,181.153 267.695 C 180.959 268.077,180.800 268.664,180.800 269.000 C 180.800 269.336,180.638 269.923,180.441 270.305 C 180.065 271.033,179.457 272.599,177.998 276.600 C 177.516 277.920,176.976 279.360,176.797 279.800 C 176.618 280.240,175.815 282.400,175.013 284.600 C 174.211 286.800,173.384 288.913,173.177 289.295 C 172.970 289.677,172.800 290.264,172.800 290.600 C 172.800 290.936,172.638 291.523,172.440 291.905 C 172.051 292.656,170.388 296.933,169.604 299.200 C 169.337 299.970,168.971 300.960,168.790 301.400 C 163.874 313.339,164.391 318.780,170.692 321.413 C 176.501 323.840,181.175 321.081,183.926 313.600 C 184.371 312.390,185.396 309.600,186.203 307.400 C 187.011 305.200,187.817 303.040,187.995 302.600 C 188.173 302.160,188.536 301.170,188.800 300.400 C 189.064 299.630,189.424 298.640,189.600 298.200 C 189.776 297.760,190.144 296.770,190.420 296.000 C 190.695 295.230,191.142 294.060,191.413 293.400 C 191.684 292.740,192.125 291.570,192.393 290.800 C 192.661 290.030,193.027 289.040,193.205 288.600 C 193.383 288.160,194.188 286.000,194.995 283.800 C 195.801 281.600,196.615 279.440,196.804 279.000 C 196.993 278.560,197.377 277.480,197.657 276.600 C 197.937 275.720,198.285 274.820,198.431 274.600 C 198.576 274.380,199.010 273.210,199.396 272.000 C 199.782 270.790,200.256 269.629,200.449 269.420 C 200.642 269.211,200.800 268.714,200.800 268.315 C 200.800 267.916,201.008 267.187,201.262 266.695 C 202.249 264.786,202.400 264.387,202.400 263.685 C 202.400 263.286,202.550 262.789,202.734 262.580 C 202.918 262.371,203.382 261.300,203.765 260.200 C 204.531 258.003,205.106 256.569,205.647 255.505 C 205.841 255.123,206.000 254.484,206.000 254.085 C 206.000 253.686,206.143 253.189,206.318 252.980 C 206.493 252.771,206.874 251.880,207.164 251.000 C 207.739 249.257,208.655 247.002,209.234 245.905 C 209.435 245.523,209.600 244.884,209.600 244.485 C 209.600 244.086,209.743 243.589,209.918 243.380 C 210.093 243.171,210.467 242.280,210.749 241.400 C 211.030 240.520,211.718 238.630,212.277 237.200 C 212.836 235.770,213.434 234.240,213.606 233.800 C 213.778 233.360,214.104 232.460,214.329 231.800 C 214.848 230.283,216.733 225.258,217.181 224.200 C 217.367 223.760,217.736 222.770,218.000 222.000 C 218.264 221.230,218.627 220.240,218.805 219.800 C 219.093 219.087,220.462 215.382,222.869 208.800 C 223.617 206.753,224.464 204.509,225.208 202.600 C 225.379 202.160,225.736 201.170,226.000 200.400 C 226.264 199.630,226.627 198.640,226.805 198.200 C 226.983 197.760,227.788 195.600,228.595 193.400 C 229.401 191.200,230.214 189.040,230.402 188.600 C 232.821 182.935,235.313 174.864,235.015 173.662 C 234.870 173.078,234.652 172.108,234.531 171.506 C 233.737 167.562,227.801 164.427,223.292 165.570 M139.326 201.270 C 138.406 201.781,135.796 203.910,133.527 206.000 C 127.014 212.000,124.260 214.553,123.607 215.200 C 123.273 215.530,122.100 216.597,121.000 217.571 C 119.900 218.545,117.110 221.091,114.800 223.229 C 112.490 225.367,109.807 227.810,108.838 228.658 C 93.091 242.435,92.876 245.141,106.600 256.754 C 107.480 257.498,109.467 259.298,111.016 260.754 C 112.564 262.209,115.531 264.930,117.609 266.800 C 119.687 268.670,121.942 270.740,122.620 271.400 C 123.299 272.060,124.504 273.150,125.299 273.821 C 126.094 274.493,127.893 276.113,129.297 277.421 C 134.988 282.725,138.142 285.438,139.433 286.138 C 145.299 289.318,152.211 284.903,152.137 278.022 C 152.094 274.024,151.893 273.746,143.200 265.701 C 141.770 264.378,140.043 262.779,139.362 262.148 C 138.681 261.516,137.241 260.212,136.162 259.248 C 135.083 258.285,132.315 255.765,130.012 253.648 C 127.709 251.532,124.635 248.720,123.182 247.400 C 118.744 243.370,118.242 244.701,127.403 236.200 C 130.010 233.780,132.520 231.440,132.981 231.000 C 133.442 230.560,135.699 228.490,137.997 226.400 C 140.296 224.310,142.744 222.060,143.439 221.400 C 151.774 213.477,152.178 212.892,152.141 208.807 C 152.082 202.358,144.932 198.154,139.326 201.270 M254.600 201.052 C 246.883 203.004,245.438 211.794,251.880 217.600 C 252.734 218.370,255.133 220.530,257.210 222.400 C 259.288 224.270,261.441 226.250,261.994 226.800 C 262.548 227.350,264.889 229.510,267.198 231.600 C 269.506 233.690,271.865 235.850,272.441 236.400 C 273.017 236.950,275.032 238.808,276.920 240.529 C 281.102 244.339,281.189 244.062,273.769 250.549 C 272.872 251.333,271.506 252.566,270.733 253.287 C 269.961 254.009,267.464 256.310,265.184 258.400 C 262.905 260.490,260.555 262.650,259.963 263.200 C 259.370 263.750,257.211 265.730,255.164 267.600 C 248.254 273.913,247.939 274.398,247.942 278.688 C 247.951 287.571,257.307 290.300,264.425 283.495 C 265.631 282.343,267.693 280.423,269.008 279.228 C 270.324 278.033,272.480 276.052,273.800 274.825 C 275.120 273.598,278.090 270.886,280.400 268.797 C 282.710 266.709,284.872 264.730,285.203 264.400 C 285.535 264.070,286.802 262.900,288.019 261.800 C 299.156 251.730,301.372 249.593,302.367 247.962 C 303.473 246.147,303.476 242.979,302.374 240.634 C 301.476 238.725,300.028 237.289,287.200 225.600 C 284.450 223.094,282.001 220.854,281.759 220.622 C 280.929 219.828,273.080 212.601,272.396 212.000 C 270.888 210.677,264.202 204.543,263.355 203.708 C 261.263 201.642,257.173 200.401,254.600 201.052 " stroke="none" fill="#74c4fc" fill-rule="evenodd"></path></g></svg>