<svg id="svg" version="1.1" xmlns="http://www.w3.org/2000/svg" xmlns:xlink="http://www.w3.org/1999/xlink" width="400" height="460" viewBox="0, 0, 400,400"><g id="svgg"><path id="path0" d="M90.145 18.600 C 89.997 18.984,89.381 19.200,88.434 19.200 C 87.619 19.200,86.604 19.464,86.176 19.787 C 85.749 20.110,84.905 20.380,84.300 20.387 C 83.595 20.395,83.200 20.615,83.200 21.000 C 83.200 21.400,82.800 21.600,82.000 21.600 C 81.200 21.600,80.800 21.800,80.800 22.200 C 80.800 22.600,80.400 22.800,79.600 22.800 C 78.800 22.800,78.400 23.000,78.400 23.400 C 78.400 23.773,78.022 24.000,77.400 24.000 C 76.778 24.000,76.400 24.227,76.400 24.600 C 76.400 24.930,76.130 25.200,75.800 25.200 C 75.470 25.200,75.200 25.380,75.200 25.600 C 75.200 25.820,74.958 26.000,74.662 26.000 C 74.366 26.000,73.798 26.360,73.400 26.800 C 73.002 27.240,72.514 27.600,72.316 27.600 C 71.787 27.600,68.000 31.414,68.000 31.947 C 68.000 32.196,67.823 32.400,67.608 32.400 C 67.392 32.400,67.102 32.850,66.964 33.400 C 66.826 33.950,66.463 34.400,66.157 34.400 C 65.850 34.400,65.600 34.651,65.600 34.957 C 65.600 35.264,65.330 35.618,65.000 35.745 C 64.670 35.871,64.400 36.411,64.400 36.945 C 64.400 37.478,64.130 38.018,63.800 38.145 C 63.470 38.271,63.200 38.741,63.200 39.187 C 63.200 39.634,63.020 40.000,62.800 40.000 C 62.580 40.000,62.400 40.540,62.400 41.200 C 62.400 42.000,62.200 42.400,61.800 42.400 C 61.405 42.400,61.200 42.795,61.200 43.557 C 61.200 44.217,60.942 44.813,60.600 44.945 C 60.167 45.111,60.000 45.790,60.000 47.387 C 60.000 49.087,59.861 49.600,59.400 49.600 C 58.868 49.600,58.800 66.578,58.800 200.000 C 58.800 333.422,58.868 350.400,59.400 350.400 C 59.867 350.400,60.000 350.933,60.000 352.800 C 60.000 354.667,60.133 355.200,60.600 355.200 C 61.020 355.200,61.200 355.624,61.200 356.613 C 61.200 357.499,61.423 358.111,61.800 358.255 C 62.142 358.387,62.400 358.983,62.400 359.643 C 62.400 360.279,62.535 360.802,62.700 360.804 C 62.865 360.806,63.355 361.616,63.790 362.604 C 64.224 363.592,64.809 364.400,65.090 364.400 C 65.370 364.400,65.600 364.747,65.600 365.171 C 65.600 365.596,65.870 366.213,66.200 366.543 C 66.530 366.873,66.800 367.336,66.800 367.571 C 66.800 367.807,67.070 368.000,67.400 368.000 C 67.730 368.000,68.000 368.270,68.000 368.600 C 68.000 368.930,68.270 369.200,68.600 369.200 C 68.930 369.200,69.200 369.371,69.200 369.581 C 69.200 370.077,73.123 374.000,73.619 374.000 C 73.829 374.000,74.000 374.180,74.000 374.400 C 74.000 374.620,74.270 374.800,74.600 374.800 C 74.930 374.800,75.200 375.070,75.200 375.400 C 75.200 375.730,75.470 376.000,75.800 376.000 C 76.130 376.000,76.400 376.270,76.400 376.600 C 76.400 376.973,76.778 377.200,77.400 377.200 C 78.022 377.200,78.400 377.427,78.400 377.800 C 78.400 378.200,78.800 378.400,79.600 378.400 C 80.400 378.400,80.800 378.600,80.800 379.000 C 80.800 379.400,81.200 379.600,82.000 379.600 C 82.800 379.600,83.200 379.800,83.200 380.200 C 83.200 380.644,83.667 380.800,85.000 380.800 C 86.333 380.800,86.800 380.956,86.800 381.400 C 86.800 382.314,304.042 382.314,304.800 381.400 C 305.130 381.002,306.026 380.800,307.462 380.800 C 309.016 380.800,309.690 380.631,309.855 380.200 C 310.005 379.809,310.628 379.600,311.643 379.600 C 312.760 379.600,313.200 379.431,313.200 379.000 C 313.200 378.566,313.646 378.400,314.813 378.400 C 315.877 378.400,316.503 378.196,316.655 377.800 C 316.782 377.470,317.322 377.200,317.855 377.200 C 318.389 377.200,318.929 376.930,319.055 376.600 C 319.182 376.270,319.697 376.000,320.200 376.000 C 320.703 376.000,321.218 375.730,321.345 375.400 C 321.471 375.070,321.851 374.800,322.187 374.800 C 322.524 374.800,322.800 374.640,322.800 374.443 C 322.800 374.247,323.250 373.974,323.800 373.836 C 324.350 373.698,324.800 373.408,324.800 373.192 C 324.800 372.977,325.070 372.800,325.400 372.800 C 325.730 372.800,326.000 372.530,326.000 372.200 C 326.000 371.870,326.270 371.600,326.600 371.600 C 326.930 371.600,327.200 371.330,327.200 371.000 C 327.200 370.670,327.470 370.400,327.800 370.400 C 328.130 370.400,328.400 370.130,328.400 369.800 C 328.400 369.470,328.670 369.200,329.000 369.200 C 329.330 369.200,329.600 368.930,329.600 368.600 C 329.600 368.270,329.870 368.000,330.200 368.000 C 330.530 368.000,330.800 367.730,330.800 367.400 C 330.800 367.070,331.070 366.800,331.400 366.800 C 331.730 366.800,332.000 366.530,332.000 366.200 C 332.000 365.870,332.270 365.600,332.600 365.600 C 332.930 365.600,333.200 365.330,333.200 365.000 C 333.200 364.670,333.470 364.400,333.800 364.400 C 334.166 364.400,334.400 364.027,334.400 363.443 C 334.400 362.916,334.670 362.382,335.000 362.255 C 335.330 362.129,335.600 361.749,335.600 361.413 C 335.600 361.076,335.777 360.800,335.992 360.800 C 336.208 360.800,336.498 360.350,336.636 359.800 C 336.774 359.250,337.047 358.800,337.243 358.800 C 337.440 358.800,337.600 358.279,337.600 357.643 C 337.600 356.983,337.858 356.387,338.200 356.255 C 338.596 356.103,338.800 355.477,338.800 354.413 C 338.800 353.246,338.966 352.800,339.400 352.800 C 339.875 352.800,340.000 352.227,340.000 350.043 C 340.000 347.961,340.147 347.229,340.600 347.055 C 341.472 346.721,341.519 126.400,340.647 126.400 C 340.342 126.400,339.978 126.085,339.837 125.700 C 339.211 123.993,338.299 122.800,337.621 122.800 C 337.217 122.800,336.782 122.530,336.655 122.200 C 336.523 121.856,335.926 121.600,335.255 121.600 C 334.585 121.600,333.987 121.344,333.855 121.000 C 333.560 120.230,332.000 120.214,332.000 120.981 C 332.000 121.518,329.846 122.374,328.400 122.411 C 327.472 122.435,324.813 124.432,323.439 126.137 L 322.200 127.673 321.952 157.137 C 321.815 173.341,321.658 214.860,321.603 249.400 C 321.547 283.940,321.389 319.850,321.251 329.200 L 321.000 346.200 319.505 349.258 C 316.036 356.356,309.939 360.329,299.656 362.194 C 293.640 363.284,93.563 363.093,91.079 361.994 C 85.478 359.516,80.435 353.042,78.636 346.017 C 77.700 342.364,77.657 57.780,78.592 54.120 C 80.658 46.032,86.852 39.996,95.189 37.949 C 100.010 36.765,258.552 36.789,259.186 37.974 C 259.445 38.458,259.600 43.267,259.600 50.834 C 259.600 62.869,259.860 65.982,261.282 71.000 C 262.165 74.118,265.508 81.200,266.096 81.200 C 266.263 81.200,266.400 81.399,266.400 81.642 C 266.400 82.305,268.643 85.094,271.375 87.827 C 278.533 94.989,286.197 98.532,297.200 99.764 C 303.825 100.506,336.466 100.178,337.323 99.361 C 337.805 98.901,338.605 98.310,339.100 98.048 C 339.595 97.786,340.000 97.218,340.000 96.786 C 340.000 96.354,340.270 96.000,340.600 96.000 C 340.994 96.000,341.200 95.605,341.200 94.849 C 341.200 94.216,341.470 93.474,341.800 93.200 C 342.666 92.481,342.666 85.788,341.800 85.455 C 341.317 85.270,341.200 84.371,341.200 80.855 C 341.200 77.340,341.083 76.441,340.600 76.255 C 340.160 76.087,340.000 75.393,340.000 73.662 C 340.000 72.049,339.809 71.140,339.400 70.800 C 339.034 70.496,338.800 69.620,338.800 68.551 C 338.800 67.261,338.642 66.800,338.200 66.800 C 337.767 66.800,337.600 66.356,337.600 65.200 C 337.600 64.320,337.420 63.600,337.200 63.600 C 336.980 63.600,336.800 63.144,336.800 62.587 C 336.800 62.031,336.530 61.471,336.200 61.345 C 335.858 61.213,335.600 60.617,335.600 59.957 C 335.600 59.195,335.395 58.800,335.000 58.800 C 334.600 58.800,334.400 58.400,334.400 57.600 C 334.400 56.800,334.200 56.400,333.800 56.400 C 333.400 56.400,333.200 56.000,333.200 55.200 C 333.200 54.400,333.000 54.000,332.600 54.000 C 332.227 54.000,332.000 53.622,332.000 53.000 C 332.000 52.450,331.830 52.000,331.622 52.000 C 331.249 52.000,330.262 50.461,329.763 49.100 C 329.622 48.715,329.258 48.400,328.953 48.400 C 328.649 48.400,328.400 48.130,328.400 47.800 C 328.400 47.470,328.130 47.200,327.800 47.200 C 327.425 47.200,327.200 46.821,327.200 46.187 C 327.200 45.631,326.930 45.071,326.600 44.945 C 326.270 44.818,326.000 44.464,326.000 44.157 C 326.000 43.851,325.730 43.600,325.400 43.600 C 325.070 43.600,324.800 43.400,324.800 43.157 C 324.800 42.612,318.944 36.800,318.395 36.800 C 318.178 36.800,318.000 36.530,318.000 36.200 C 318.000 35.870,317.730 35.600,317.400 35.600 C 317.070 35.600,316.800 35.330,316.800 35.000 C 316.800 34.670,316.530 34.400,316.200 34.400 C 315.870 34.400,315.600 34.130,315.600 33.800 C 315.600 33.437,315.229 33.200,314.660 33.200 C 314.086 33.200,313.361 32.732,312.800 32.000 C 312.294 31.340,311.657 30.800,311.383 30.800 C 311.109 30.800,310.782 30.530,310.655 30.200 C 310.529 29.870,310.059 29.600,309.613 29.600 C 309.157 29.600,308.800 29.336,308.800 29.000 C 308.800 28.625,308.421 28.400,307.787 28.400 C 307.231 28.400,306.671 28.130,306.545 27.800 C 306.418 27.470,306.064 27.200,305.757 27.200 C 305.451 27.200,305.200 27.034,305.200 26.832 C 305.200 26.629,304.660 26.345,304.000 26.200 C 303.340 26.055,302.800 25.771,302.800 25.568 C 302.800 25.366,302.260 25.200,301.600 25.200 C 300.800 25.200,300.400 25.000,300.400 24.600 C 300.400 24.200,300.000 24.000,299.200 24.000 C 298.400 24.000,298.000 23.800,298.000 23.400 C 298.000 22.967,297.556 22.800,296.400 22.800 C 295.244 22.800,294.800 22.633,294.800 22.200 C 294.800 21.756,294.333 21.600,293.000 21.600 C 291.667 21.600,291.200 21.444,291.200 21.000 C 291.200 20.541,290.694 20.400,289.043 20.400 C 287.494 20.400,286.821 20.231,286.655 19.800 C 286.481 19.345,285.744 19.200,283.613 19.200 C 281.379 19.200,280.800 19.076,280.800 18.600 C 280.800 18.068,269.954 18.000,185.587 18.000 C 101.323 18.000,90.348 18.069,90.145 18.600 M281.725 39.018 C 286.854 40.547,288.060 41.005,292.221 43.007 C 300.843 47.155,308.982 54.532,314.294 63.012 C 315.400 64.778,318.800 72.000,318.800 72.584 C 318.800 72.929,318.979 73.523,319.198 73.905 C 320.060 75.410,321.123 80.586,320.682 81.130 C 320.032 81.932,297.019 81.553,294.169 80.693 C 286.540 78.393,280.512 72.196,278.592 64.680 C 277.975 62.263,277.687 39.247,278.267 38.667 C 278.672 38.262,279.451 38.341,281.725 39.018 " stroke="none" fill="#454d55" fill-rule="evenodd"></path><path id="path1" d="M96.000 37.712 C 94.883 37.976,94.481 38.202,94.941 38.306 C 95.348 38.399,96.463 38.278,97.418 38.037 C 100.563 37.245,258.652 37.437,258.957 38.233 C 259.091 38.581,259.198 44.566,259.195 51.533 C 259.190 64.569,259.530 68.205,261.053 71.400 C 261.526 72.392,261.582 72.427,261.379 71.600 C 260.015 66.058,259.882 64.517,259.645 51.600 C 259.510 44.230,259.254 37.975,259.076 37.700 C 258.645 37.034,98.814 37.046,96.000 37.712 M90.001 39.720 C 86.542 41.423,82.228 45.722,80.487 49.200 C 77.790 54.585,78.000 41.853,78.000 199.987 C 78.000 354.526,77.896 346.191,79.868 349.600 L 80.446 350.600 80.186 349.600 C 80.044 349.050,79.628 347.700,79.263 346.600 C 78.271 343.609,78.034 59.617,79.020 54.835 C 79.364 53.166,79.815 51.629,80.023 51.420 C 80.230 51.211,80.400 50.792,80.400 50.488 C 80.400 49.809,82.758 46.231,84.280 44.600 C 86.527 42.192,89.933 40.030,93.600 38.683 C 94.023 38.528,93.964 38.460,93.400 38.451 C 92.960 38.445,91.430 39.015,90.001 39.720 M278.267 38.667 C 277.687 39.247,277.975 62.263,278.592 64.680 C 280.512 72.196,286.540 78.393,294.169 80.693 C 297.019 81.553,320.032 81.932,320.682 81.130 C 321.123 80.586,320.060 75.410,319.198 73.905 C 318.979 73.523,318.800 72.929,318.800 72.584 C 318.800 72.000,315.400 64.778,314.294 63.012 C 307.808 52.657,296.413 43.558,285.800 40.259 C 279.515 38.305,278.783 38.150,278.267 38.667 M281.969 39.626 C 283.317 39.891,284.516 40.264,284.633 40.454 C 284.751 40.644,285.174 40.800,285.573 40.800 C 286.689 40.800,293.226 43.734,296.089 45.520 C 297.966 46.691,301.752 49.373,302.412 50.000 C 302.760 50.330,303.883 51.363,304.908 52.295 C 312.081 58.820,317.248 67.721,319.974 78.246 C 320.802 81.446,321.666 81.200,309.625 81.200 C 296.235 81.200,293.521 80.715,288.164 77.365 C 284.992 75.381,280.400 70.027,280.400 68.312 C 280.400 68.008,280.231 67.589,280.024 67.380 C 278.482 65.821,277.454 38.351,278.959 38.929 C 279.267 39.047,280.622 39.361,281.969 39.626 M261.609 73.276 C 261.565 76.517,270.997 89.381,275.265 91.902 C 275.889 92.271,276.400 92.714,276.400 92.886 C 276.400 93.059,276.572 93.200,276.782 93.200 C 276.992 93.200,277.847 93.665,278.682 94.234 C 280.669 95.589,285.822 98.000,286.729 98.000 C 287.120 98.000,287.637 98.197,287.878 98.438 C 288.118 98.678,288.649 98.804,289.058 98.717 C 289.568 98.609,289.300 98.401,288.200 98.054 C 285.277 97.130,281.277 95.413,279.408 94.280 C 274.669 91.408,266.400 83.373,266.400 81.642 C 266.400 81.399,266.257 81.200,266.081 81.200 C 265.799 81.200,264.134 78.060,262.263 74.000 C 261.908 73.230,261.614 72.904,261.609 73.276 M291.800 99.478 C 293.474 100.000,296.862 100.115,312.600 100.186 L 331.400 100.271 313.000 100.002 C 300.725 99.823,294.135 99.579,293.203 99.267 C 292.434 99.010,291.354 98.812,290.803 98.827 C 290.114 98.846,290.427 99.050,291.800 99.478 M330.800 121.461 C 330.249 121.752,330.069 121.988,330.400 121.988 C 331.090 121.988,332.270 121.320,331.988 121.089 C 331.885 121.004,331.350 121.171,330.800 121.461 M325.958 122.993 C 323.779 124.421,322.202 126.714,321.686 129.200 C 321.354 130.801,321.173 160.439,321.020 238.000 C 320.789 355.356,320.984 346.006,318.688 350.125 C 316.622 353.831,310.452 359.200,308.260 359.200 C 307.985 359.200,307.589 359.357,307.380 359.549 C 307.171 359.740,305.961 360.216,304.691 360.606 C 303.421 360.996,302.472 361.405,302.582 361.515 C 303.109 362.043,309.385 359.478,312.600 357.422 C 314.985 355.896,318.007 352.323,319.505 349.258 L 321.000 346.200 321.251 329.200 C 321.389 319.850,321.547 283.940,321.603 249.400 C 321.658 214.860,321.815 173.341,321.952 157.137 L 322.200 127.673 323.439 126.137 C 324.916 124.305,327.412 122.510,328.800 122.283 C 329.675 122.140,329.650 122.115,328.600 122.083 C 327.940 122.063,326.751 122.473,325.958 122.993 M212.767 175.446 C 210.855 176.033,209.033 177.460,207.904 179.255 C 205.956 182.353,175.474 275.392,175.472 278.248 C 175.466 286.909,186.291 290.703,191.662 283.922 C 192.393 282.999,193.556 280.517,194.409 278.061 C 195.222 275.717,195.987 273.530,196.108 273.200 C 196.230 272.870,196.425 272.240,196.542 271.800 C 196.660 271.360,197.143 269.920,197.617 268.600 C 198.091 267.280,198.627 265.660,198.808 265.000 C 198.990 264.340,199.604 262.450,200.172 260.800 C 200.741 259.150,201.489 256.900,201.835 255.800 C 202.180 254.700,202.698 253.170,202.986 252.400 C 203.273 251.630,204.081 249.200,204.781 247.000 C 205.481 244.800,206.210 242.640,206.402 242.200 C 206.594 241.760,207.140 240.140,207.616 238.600 C 208.092 237.060,208.628 235.440,208.807 235.000 C 208.986 234.560,209.228 233.840,209.344 233.400 C 209.461 232.960,209.943 231.520,210.417 230.200 C 210.891 228.880,211.427 227.260,211.608 226.600 C 211.790 225.940,212.377 224.140,212.914 222.600 C 213.451 221.060,214.266 218.630,214.725 217.200 C 215.753 214.003,216.419 212.049,216.841 211.000 C 217.018 210.560,217.336 209.570,217.549 208.800 C 217.937 207.393,218.648 205.287,219.236 203.800 C 220.107 201.596,224.367 188.326,224.799 186.467 C 226.514 179.097,220.078 173.202,212.767 175.446 M149.200 197.475 C 147.852 198.061,145.437 200.048,138.600 206.196 C 135.397 209.076,125.622 217.806,119.876 222.919 C 113.034 229.007,113.403 234.025,121.193 240.800 C 122.837 242.230,124.547 243.766,124.991 244.213 C 125.436 244.660,128.050 247.000,130.800 249.413 C 133.550 251.826,136.700 254.631,137.800 255.647 C 148.576 265.597,151.008 266.977,155.240 265.538 C 162.373 263.112,164.251 253.631,158.548 248.834 C 155.911 246.615,151.772 243.015,151.400 242.617 C 151.180 242.381,149.560 240.948,147.800 239.432 C 141.149 233.704,139.200 231.839,139.200 231.204 C 139.200 230.843,142.753 227.410,147.096 223.574 C 161.022 211.275,161.399 210.855,161.831 207.172 C 162.667 200.047,155.657 194.665,149.200 197.475 M243.399 198.211 C 236.990 201.375,236.218 209.489,241.870 214.291 C 242.932 215.193,244.173 216.261,244.628 216.665 C 245.084 217.069,248.137 219.740,251.413 222.600 C 254.688 225.460,258.275 228.670,259.382 229.732 L 261.397 231.665 259.988 232.932 C 255.397 237.064,251.581 240.444,246.800 244.613 C 238.418 251.924,238.238 252.175,238.245 256.592 C 238.259 265.781,248.167 269.088,255.500 262.351 C 256.325 261.592,261.140 257.293,266.200 252.796 C 282.934 237.924,283.083 237.780,284.007 235.692 C 285.037 233.364,285.049 230.057,284.036 228.070 C 283.121 226.278,279.335 222.587,270.200 214.585 C 268.220 212.850,266.510 211.331,266.400 211.208 C 266.290 211.085,264.040 209.083,261.400 206.760 C 258.760 204.436,255.822 201.830,254.871 200.968 C 251.261 197.696,246.676 196.594,243.399 198.211 M80.400 350.888 C 80.400 353.215,87.185 360.271,91.079 361.994 C 93.484 363.058,294.349 363.253,299.200 362.196 L 301.800 361.630 299.000 361.915 C 297.460 362.072,250.390 362.200,194.400 362.200 L 92.600 362.200 90.340 361.090 C 87.532 359.711,85.126 357.432,82.643 353.800 C 80.587 350.791,80.400 350.549,80.400 350.888 " stroke="none" fill="#74c4fc" fill-rule="evenodd"></path></g></svg>