<svg id="svg" version="1.1" xmlns="http://www.w3.org/2000/svg" xmlns:xlink="http://www.w3.org/1999/xlink" width="400" height="450" viewBox="0, 0, 400,400"><g id="svgg"><path id="path0" d="M47.600 1.999 C 47.270 2.213,46.333 2.391,45.519 2.394 C 44.704 2.397,43.624 2.561,43.119 2.758 C 42.613 2.955,41.390 3.355,40.400 3.646 C 32.377 6.005,23.103 13.763,18.915 21.619 C 16.434 26.274,15.655 28.528,14.708 33.800 C 14.067 37.366,13.796 388.001,14.433 390.200 C 15.658 394.434,16.752 395.617,21.695 398.057 C 22.710 398.558,311.490 398.502,311.800 398.000 C 311.936 397.780,313.016 397.600,314.200 397.600 C 315.384 397.600,316.464 397.420,316.600 397.200 C 316.736 396.980,317.242 396.797,317.724 396.794 C 318.629 396.788,321.484 395.887,322.705 395.222 C 323.087 395.013,324.390 394.371,325.600 393.794 C 332.375 390.564,340.152 383.126,342.950 377.200 C 343.418 376.210,343.898 375.310,344.019 375.200 C 344.468 374.789,346.400 369.918,346.400 369.197 C 346.400 368.785,346.561 368.348,346.758 368.226 C 347.745 367.616,348.304 358.369,347.429 357.120 C 346.860 356.308,346.800 343.024,346.798 217.611 C 346.797 67.940,346.906 75.916,344.765 68.977 C 340.946 56.604,330.601 46.439,317.990 42.667 C 311.533 40.735,312.107 40.750,250.000 40.879 L 191.400 41.000 189.492 41.940 C 183.137 45.069,183.202 54.733,189.601 58.100 L 191.691 59.200 250.146 59.206 C 301.028 59.211,308.934 59.291,311.179 59.820 C 319.572 61.798,326.013 68.409,327.840 76.919 C 328.630 80.601,328.630 356.999,327.840 360.681 C 326.143 368.589,320.653 374.619,312.519 377.509 C 310.620 378.183,38.024 378.866,35.298 378.203 L 34.396 377.984 34.498 207.092 L 34.600 36.200 36.037 33.191 C 38.983 27.024,44.437 22.828,50.625 21.971 C 52.382 21.727,102.412 21.632,186.204 21.713 L 319.000 21.840 322.733 22.698 C 345.296 27.884,360.835 43.775,365.075 66.000 C 366.184 71.813,366.208 355.212,365.100 356.903 C 364.141 358.368,364.232 359.459,365.509 361.794 C 369.856 369.742,382.962 368.430,385.424 359.800 C 385.954 357.945,385.793 69.759,385.261 65.600 C 385.021 63.730,384.712 61.300,384.574 60.200 C 384.436 59.100,384.160 58.029,383.961 57.820 C 383.763 57.611,383.600 57.015,383.600 56.495 C 383.600 55.315,382.426 51.663,381.952 51.370 C 381.758 51.251,381.600 50.801,381.600 50.371 C 381.600 49.941,381.434 49.277,381.232 48.895 C 381.030 48.513,380.460 47.120,379.967 45.800 C 379.473 44.480,378.903 43.182,378.699 42.916 C 378.496 42.650,377.695 41.210,376.920 39.716 C 375.638 37.243,374.297 35.152,370.692 30.000 C 366.633 24.200,353.547 13.051,348.100 10.753 C 347.385 10.452,346.800 10.069,346.800 9.902 C 346.800 9.736,346.575 9.601,346.300 9.602 C 345.889 9.603,342.338 8.000,339.105 6.354 C 338.723 6.159,338.059 6.000,337.629 6.000 C 337.199 6.000,336.736 5.820,336.600 5.600 C 336.464 5.380,335.823 5.200,335.176 5.200 C 334.529 5.200,334.000 5.035,334.000 4.833 C 334.000 4.337,329.708 3.357,323.000 2.323 C 319.282 1.750,48.476 1.431,47.600 1.999 M85.600 237.972 C 77.535 239.615,75.757 250.735,82.905 254.829 L 84.600 255.800 173.021 255.904 L 261.442 256.007 263.619 254.904 C 270.173 251.580,270.069 242.225,263.438 238.676 L 261.800 237.800 174.400 237.743 C 126.330 237.712,86.370 237.815,85.600 237.972 M85.824 300.421 C 77.114 301.896,75.766 314.417,83.949 317.836 C 85.968 318.680,198.432 318.680,200.451 317.836 C 207.629 314.837,207.905 304.585,200.900 301.136 L 199.000 300.200 143.400 300.143 C 112.820 300.112,86.911 300.237,85.824 300.421 " stroke="none" fill="#454d55" fill-rule="evenodd"></path><path id="path1" d="M50.054 22.008 C 44.466 22.830,38.843 27.317,36.037 33.191 L 34.600 36.200 34.498 207.092 L 34.396 377.984 35.298 378.203 C 38.024 378.866,310.620 378.183,312.519 377.509 C 320.653 374.619,326.143 368.589,327.840 360.681 C 328.630 356.999,328.630 80.601,327.840 76.919 C 326.013 68.409,319.572 61.798,311.179 59.820 C 308.934 59.291,301.028 59.211,250.146 59.206 L 191.691 59.200 189.601 58.100 C 183.202 54.733,183.137 45.069,189.492 41.940 L 191.400 41.000 250.000 40.879 C 312.107 40.750,311.533 40.735,317.990 42.667 C 330.266 46.338,340.657 56.333,344.546 68.208 C 346.740 74.910,346.563 63.231,346.793 216.200 L 347.005 356.600 347.101 217.400 C 347.207 64.915,347.356 75.129,344.921 68.000 C 340.412 54.796,330.424 45.640,316.000 41.488 L 313.000 40.625 252.494 40.504 L 191.989 40.383 189.998 41.239 C 182.382 44.515,182.266 55.217,189.807 58.761 L 191.591 59.600 249.696 59.607 C 299.377 59.613,308.206 59.699,310.600 60.204 C 319.195 62.017,325.882 68.871,327.408 77.432 C 328.254 82.181,328.254 355.419,327.408 360.168 C 326.024 367.931,320.703 374.012,312.800 376.862 L 310.200 377.800 173.400 377.911 C 98.160 377.973,36.195 377.924,35.700 377.804 L 34.800 377.585 34.800 207.780 L 34.800 37.975 35.623 35.533 C 37.643 29.536,42.402 24.653,47.834 23.005 C 50.777 22.112,316.509 22.106,321.400 22.999 C 341.103 26.595,356.837 40.279,362.793 59.000 C 365.354 67.047,365.182 56.166,365.229 213.200 C 365.256 302.627,365.413 356.114,365.645 355.309 C 366.445 352.539,365.879 69.891,365.065 65.800 C 360.643 43.574,345.214 27.866,322.733 22.698 L 319.000 21.840 185.600 21.766 C 112.230 21.726,51.234 21.834,50.054 22.008 M67.546 41.917 C 62.894 44.340,62.330 46.534,62.820 60.325 C 64.278 101.377,74.464 141.617,92.669 178.253 C 97.986 188.952,99.426 190.400,104.746 190.400 C 110.588 190.400,110.667 190.292,122.985 165.361 C 128.756 153.680,133.666 144.006,133.896 143.864 C 134.126 143.722,142.209 145.870,151.857 148.637 C 175.039 155.286,173.404 154.882,176.483 154.718 C 179.980 154.532,182.120 153.141,183.700 150.026 C 185.836 145.814,185.628 145.003,178.871 131.160 C 167.312 107.476,163.076 92.320,160.212 64.400 C 160.088 63.190,159.822 58.938,159.620 54.951 C 159.151 45.679,158.292 43.565,154.207 41.645 C 152.413 40.802,152.312 40.800,111.050 40.800 L 69.691 40.800 67.546 41.917 M84.547 237.771 C 76.913 240.159,75.622 250.263,82.346 254.989 L 84.069 256.200 171.934 256.317 C 220.260 256.381,260.540 256.329,261.445 256.201 C 270.486 254.919,271.635 241.265,262.975 238.025 C 260.204 236.988,87.834 236.742,84.547 237.771 M263.438 238.676 C 270.069 242.225,270.173 251.580,263.619 254.904 L 261.442 256.007 173.021 255.904 L 84.600 255.800 82.905 254.829 C 75.757 250.735,77.535 239.615,85.600 237.972 C 86.370 237.815,126.330 237.712,174.400 237.743 L 261.800 237.800 263.438 238.676 M85.800 299.970 C 76.699 301.557,75.102 313.649,83.400 318.135 L 85.000 319.000 142.200 319.000 L 199.400 319.000 201.005 318.140 C 208.309 314.228,208.309 304.572,201.005 300.660 L 199.400 299.800 143.400 299.745 C 112.600 299.715,86.680 299.816,85.800 299.970 M200.900 301.136 C 207.905 304.585,207.629 314.837,200.451 317.836 C 198.432 318.680,85.968 318.680,83.949 317.836 C 75.766 314.417,77.114 301.896,85.824 300.421 C 86.911 300.237,112.820 300.112,143.400 300.143 L 199.000 300.200 200.900 301.136 " stroke="none" fill="#74c4fc" fill-rule="evenodd"></path><path id="path2" d="M47.309 23.169 C 42.105 24.942,37.576 29.734,35.623 35.533 L 34.800 37.975 34.800 207.780 L 34.800 377.585 35.700 377.804 C 36.195 377.924,98.160 377.973,173.400 377.911 L 310.200 377.800 312.800 376.862 C 320.703 374.012,326.024 367.931,327.408 360.168 C 328.254 355.419,328.254 82.181,327.408 77.432 C 325.882 68.871,319.195 62.017,310.600 60.204 C 308.206 59.699,299.377 59.613,249.696 59.607 L 191.591 59.600 189.807 58.761 C 182.266 55.217,182.382 44.515,189.998 41.239 L 191.989 40.383 252.494 40.504 L 313.000 40.625 316.000 41.488 C 330.424 45.640,340.412 54.796,344.921 68.000 C 347.351 75.116,347.196 65.007,347.211 217.400 C 347.223 332.509,347.317 356.721,347.757 357.300 C 348.564 358.364,363.836 358.364,364.643 357.300 C 365.458 356.227,365.441 71.348,364.626 66.400 C 361.000 44.384,343.767 27.081,321.400 22.999 C 315.964 22.007,50.235 22.171,47.309 23.169 M154.207 41.645 C 158.292 43.565,159.151 45.679,159.620 54.951 C 159.822 58.938,160.088 63.190,160.212 64.400 C 163.076 92.320,167.312 107.476,178.871 131.160 C 185.628 145.003,185.836 145.814,183.700 150.026 C 182.120 153.141,179.980 154.532,176.483 154.718 C 173.404 154.882,175.039 155.286,151.857 148.637 C 142.209 145.870,134.126 143.722,133.896 143.864 C 133.666 144.006,128.756 153.680,122.985 165.361 C 110.667 190.292,110.588 190.400,104.746 190.400 C 99.426 190.400,97.986 188.952,92.669 178.253 C 74.464 141.617,64.278 101.377,62.820 60.325 C 62.330 46.534,62.894 44.340,67.546 41.917 L 69.691 40.800 111.050 40.800 C 152.312 40.800,152.413 40.802,154.207 41.645 M262.975 238.025 C 271.635 241.265,270.486 254.919,261.445 256.201 C 260.540 256.329,220.260 256.381,171.934 256.317 L 84.069 256.200 82.346 254.989 C 75.622 250.263,76.913 240.159,84.547 237.771 C 87.834 236.742,260.204 236.988,262.975 238.025 M201.005 300.660 C 208.309 304.572,208.309 314.228,201.005 318.140 L 199.400 319.000 142.200 319.000 L 85.000 319.000 83.400 318.135 C 75.102 313.649,76.699 301.557,85.800 299.970 C 86.680 299.816,112.600 299.715,143.400 299.745 L 199.400 299.800 201.005 300.660 " stroke="none" fill="#fbfbfb" fill-rule="evenodd"></path></g></svg>