<svg id="svg" version="1.1" xmlns="http://www.w3.org/2000/svg" xmlns:xlink="http://www.w3.org/1999/xlink" width="400" height="400" viewBox="0, 0, 400,400"><g id="svgg"><path id="path0" d="M299.761 99.262 C 299.672 99.407,299.239 99.431,298.800 99.316 C 298.360 99.201,298.000 99.302,298.000 99.541 C 298.000 99.780,297.730 99.871,297.400 99.745 C 297.070 99.618,296.800 99.708,296.800 99.945 C 296.800 100.181,296.530 100.271,296.200 100.145 C 295.870 100.018,295.600 100.108,295.600 100.345 C 295.600 100.582,295.301 100.660,294.934 100.519 C 294.448 100.333,294.358 100.408,294.600 100.800 C 294.842 101.192,294.752 101.267,294.266 101.081 C 293.900 100.940,293.600 100.994,293.600 101.200 C 293.600 101.406,293.330 101.471,293.000 101.345 C 292.670 101.218,292.400 101.308,292.400 101.545 C 292.400 101.781,292.153 101.880,291.852 101.764 C 291.550 101.649,291.053 101.804,290.748 102.109 C 290.443 102.414,289.969 102.590,289.696 102.499 C 289.423 102.408,289.200 102.523,289.200 102.754 C 289.200 102.986,288.930 103.071,288.600 102.945 C 288.270 102.818,288.000 102.908,288.000 103.145 C 288.000 103.382,287.701 103.460,287.334 103.319 C 286.890 103.149,286.764 103.218,286.955 103.527 C 287.142 103.830,287.026 103.908,286.621 103.753 C 286.279 103.622,286.000 103.708,286.000 103.945 C 286.000 104.181,285.730 104.271,285.400 104.145 C 285.070 104.018,284.800 104.108,284.800 104.345 C 284.800 104.582,284.501 104.660,284.134 104.519 C 283.690 104.349,283.564 104.418,283.755 104.727 C 283.948 105.040,283.817 105.105,283.351 104.926 C 282.807 104.717,282.720 104.815,282.940 105.387 C 283.181 106.015,283.132 106.041,282.579 105.582 C 282.201 105.269,281.829 105.205,281.670 105.426 C 281.521 105.632,281.175 105.818,280.900 105.840 C 279.370 105.962,279.174 106.035,279.397 106.395 C 279.537 106.622,279.377 106.689,279.021 106.553 C 278.679 106.422,278.400 106.508,278.400 106.745 C 278.400 106.981,278.130 107.071,277.800 106.945 C 277.470 106.818,277.200 106.908,277.200 107.145 C 277.200 107.382,276.901 107.460,276.534 107.319 C 276.090 107.149,275.964 107.218,276.155 107.527 C 276.342 107.830,276.226 107.908,275.821 107.753 C 275.479 107.622,275.200 107.708,275.200 107.945 C 275.200 108.181,274.930 108.271,274.600 108.145 C 274.270 108.018,274.000 108.108,274.000 108.345 C 274.000 108.582,273.701 108.660,273.334 108.519 C 272.890 108.349,272.764 108.418,272.955 108.727 C 273.142 109.030,273.026 109.108,272.621 108.953 C 272.279 108.822,272.000 108.908,272.000 109.145 C 272.000 109.381,271.730 109.471,271.400 109.345 C 271.070 109.218,270.800 109.308,270.800 109.545 C 270.800 109.782,270.501 109.860,270.134 109.719 C 269.690 109.549,269.564 109.618,269.755 109.927 C 269.942 110.230,269.826 110.308,269.421 110.153 C 269.079 110.022,268.800 110.108,268.800 110.345 C 268.800 110.581,268.530 110.671,268.200 110.545 C 267.870 110.418,267.600 110.514,267.600 110.757 C 267.600 111.001,267.359 111.200,267.065 111.200 C 266.736 111.200,266.510 111.710,266.480 112.523 C 266.327 116.582,264.188 118.528,256.968 121.177 C 214.501 136.755,213.390 137.224,211.836 140.200 C 210.045 143.629,210.481 186.107,212.454 200.400 C 218.682 245.530,242.261 288.214,276.200 315.797 C 284.887 322.857,287.573 326.561,285.506 328.627 C 285.345 328.789,285.525 329.152,285.906 329.435 C 286.667 329.999,285.832 330.048,284.942 329.491 C 284.686 329.331,284.375 329.488,284.237 329.847 C 284.061 330.306,284.164 330.423,284.595 330.257 C 284.928 330.129,285.200 330.210,285.200 330.436 C 285.200 330.662,285.380 330.736,285.600 330.600 C 285.820 330.464,286.000 330.537,286.000 330.762 C 286.000 331.277,288.831 333.228,289.225 332.985 C 289.385 332.886,289.624 333.085,289.755 333.428 C 289.887 333.770,290.157 333.950,290.355 333.828 C 290.554 333.705,290.805 333.829,290.913 334.102 C 291.022 334.376,291.698 334.941,292.415 335.358 C 293.319 335.883,293.628 335.944,293.424 335.558 C 293.263 335.251,293.461 335.386,293.865 335.859 C 295.084 337.283,298.027 338.576,298.863 338.054 C 299.445 337.690,299.527 337.726,299.325 338.252 C 299.130 338.759,299.258 338.836,299.939 338.619 C 300.453 338.456,300.800 338.518,300.800 338.773 C 300.800 339.320,305.064 339.344,305.401 338.799 C 305.538 338.576,306.129 338.517,306.725 338.665 C 307.728 338.915,307.760 338.884,307.200 338.201 C 306.639 337.516,306.658 337.500,307.491 337.944 C 308.487 338.474,311.200 337.635,311.200 336.797 C 311.200 336.553,311.380 336.464,311.600 336.600 C 311.820 336.736,312.000 336.646,312.000 336.400 C 312.000 336.154,312.146 336.043,312.325 336.154 C 312.807 336.452,314.857 334.995,314.503 334.606 C 314.336 334.422,314.420 334.398,314.690 334.553 C 315.223 334.860,322.400 330.240,322.400 329.590 C 322.400 329.375,322.535 329.229,322.700 329.264 C 323.338 329.399,324.382 328.695,324.136 328.296 C 323.981 328.046,324.069 327.996,324.354 328.171 C 324.643 328.350,325.409 327.861,326.294 326.933 C 327.098 326.090,327.496 325.754,327.178 326.187 C 326.292 327.391,333.078 322.080,335.491 319.680 C 336.663 318.514,337.535 317.419,337.429 317.247 C 337.322 317.074,337.500 316.933,337.825 316.933 C 338.308 316.933,338.287 317.089,337.707 317.798 C 337.318 318.274,338.032 317.592,339.294 316.283 C 340.556 314.975,341.472 313.701,341.330 313.452 C 341.188 313.203,341.221 313.135,341.403 313.301 C 341.586 313.466,342.110 313.290,342.568 312.909 C 343.025 312.529,342.773 312.933,342.008 313.809 C 339.528 316.643,349.951 306.316,353.321 302.600 C 355.116 300.620,356.214 299.316,355.759 299.702 C 355.089 300.271,354.933 300.293,354.933 299.819 C 354.933 299.498,355.080 299.326,355.259 299.436 C 355.437 299.547,356.352 298.863,357.292 297.918 C 359.480 295.715,361.982 292.534,361.200 292.949 C 360.870 293.124,361.148 292.757,361.817 292.134 C 363.514 290.553,364.759 288.980,364.000 289.375 C 363.670 289.547,363.940 289.205,364.600 288.615 C 365.260 288.025,365.530 287.659,365.200 287.801 C 364.870 287.943,364.960 287.763,365.400 287.401 C 365.840 287.040,366.155 286.576,366.100 286.372 C 366.045 286.167,366.168 286.000,366.373 286.000 C 366.578 286.000,367.153 285.427,367.651 284.728 C 368.178 283.989,368.315 283.584,367.979 283.762 C 367.660 283.931,367.810 283.734,368.311 283.325 C 369.431 282.409,371.621 279.158,371.381 278.768 C 371.284 278.612,371.462 278.385,371.776 278.265 C 372.090 278.144,372.557 277.653,372.814 277.174 C 373.194 276.465,373.180 276.364,372.740 276.631 C 372.443 276.810,372.795 276.358,373.522 275.626 C 374.268 274.875,374.750 274.046,374.627 273.726 C 374.506 273.412,374.586 273.268,374.805 273.403 C 375.160 273.623,375.373 273.094,375.247 272.300 C 375.221 272.135,375.375 272.000,375.590 272.000 C 375.804 272.000,376.259 271.460,376.600 270.800 C 376.941 270.140,377.092 269.600,376.934 269.600 C 376.776 269.600,376.979 269.357,377.385 269.061 C 377.790 268.764,377.994 268.314,377.838 268.061 C 377.681 267.807,377.739 267.600,377.966 267.600 C 378.193 267.600,378.659 267.060,379.000 266.400 C 379.341 265.740,379.492 265.200,379.334 265.200 C 379.176 265.200,379.390 264.949,379.808 264.643 C 380.460 264.167,380.492 263.993,380.028 263.434 C 379.564 262.875,379.576 262.816,380.113 263.022 C 380.779 263.277,381.811 261.866,381.421 261.234 C 381.302 261.041,381.492 260.773,381.844 260.639 C 382.208 260.499,382.385 260.137,382.254 259.797 C 382.128 259.468,382.210 259.200,382.436 259.200 C 382.662 259.200,382.736 259.020,382.600 258.800 C 382.464 258.580,382.565 258.400,382.825 258.400 C 383.174 258.400,383.166 258.241,382.792 257.791 C 382.365 257.276,382.399 257.225,383.009 257.459 C 383.506 257.650,383.641 257.590,383.442 257.268 C 383.283 257.011,383.354 256.800,383.600 256.800 C 383.846 256.800,383.936 256.620,383.800 256.400 C 383.664 256.180,383.726 256.000,383.937 256.000 C 384.430 256.000,385.221 253.764,384.867 253.370 C 384.720 253.206,384.807 253.190,385.061 253.335 C 385.596 253.641,386.531 251.336,386.133 250.692 C 385.984 250.451,386.070 250.396,386.338 250.562 C 386.956 250.944,386.928 250.289,386.300 249.656 C 385.899 249.253,385.929 249.202,386.448 249.399 C 387.159 249.670,387.784 248.621,387.339 247.902 C 387.172 247.632,387.270 247.596,387.606 247.804 C 387.987 248.039,388.067 247.951,387.890 247.491 C 387.755 247.140,387.823 246.792,388.040 246.720 C 388.258 246.647,388.466 246.186,388.503 245.694 C 388.540 245.202,388.731 244.800,388.928 244.800 C 389.125 244.800,389.186 244.542,389.065 244.226 C 388.944 243.910,388.998 243.595,389.186 243.526 C 389.373 243.457,389.588 243.040,389.663 242.600 C 389.739 242.160,389.968 241.679,390.174 241.530 C 390.395 241.371,390.331 240.999,390.018 240.621 C 389.568 240.080,389.580 240.017,390.094 240.215 C 390.644 240.426,391.159 239.487,391.419 237.800 C 391.453 237.580,391.786 236.711,392.159 235.868 C 392.532 235.026,392.874 233.811,392.919 233.169 C 392.963 232.527,393.154 232.001,393.343 232.001 C 393.531 232.000,393.582 231.730,393.455 231.400 C 393.329 231.070,393.419 230.800,393.655 230.800 C 393.892 230.800,393.984 230.536,393.860 230.213 C 393.736 229.890,393.799 229.524,394.000 229.400 C 394.201 229.276,394.252 228.881,394.115 228.522 C 393.947 228.085,394.019 227.965,394.332 228.158 C 394.962 228.547,394.936 227.497,394.300 226.856 C 393.899 226.452,393.939 226.405,394.500 226.619 C 395.178 226.877,395.376 226.356,395.307 224.500 C 395.297 224.225,395.461 224.000,395.671 224.000 C 395.882 224.000,395.940 223.640,395.800 223.200 C 395.660 222.760,395.696 222.400,395.878 222.400 C 396.330 222.400,397.222 218.524,396.940 217.789 C 396.816 217.465,396.890 217.200,397.105 217.200 C 397.695 217.200,398.045 214.336,397.530 213.716 C 397.184 213.299,397.231 213.237,397.743 213.434 C 398.495 213.722,398.598 213.117,397.991 211.983 C 397.671 211.385,397.703 211.264,398.136 211.431 C 398.839 211.701,399.341 208.059,398.707 207.291 C 398.386 206.902,398.453 206.845,398.988 207.051 C 399.594 207.283,399.653 207.152,399.422 206.098 C 399.263 205.378,399.327 204.769,399.577 204.614 C 399.869 204.434,400.000 193.823,400.000 170.291 L 400.000 136.230 399.081 135.415 C 398.576 134.967,398.441 134.775,398.781 134.988 C 399.723 135.578,397.546 133.227,396.372 132.385 C 395.806 131.980,395.091 131.592,394.781 131.524 C 394.472 131.456,393.969 131.167,393.663 130.882 C 393.357 130.597,392.905 130.432,392.657 130.514 C 392.410 130.597,391.957 130.414,391.652 130.109 C 391.347 129.804,390.850 129.649,390.548 129.764 C 390.247 129.880,390.000 129.786,390.000 129.554 C 390.000 129.323,389.777 129.208,389.504 129.299 C 389.231 129.390,388.757 129.214,388.452 128.909 C 388.147 128.604,387.650 128.449,387.348 128.564 C 387.047 128.680,386.800 128.581,386.800 128.345 C 386.800 128.108,386.530 128.018,386.200 128.145 C 385.870 128.271,385.600 128.181,385.600 127.945 C 385.600 127.708,385.321 127.622,384.979 127.753 C 384.574 127.908,384.458 127.830,384.645 127.527 C 384.836 127.218,384.710 127.149,384.266 127.319 C 383.899 127.460,383.600 127.382,383.600 127.145 C 383.600 126.908,383.330 126.818,383.000 126.945 C 382.670 127.071,382.400 126.981,382.400 126.745 C 382.400 126.508,382.121 126.422,381.779 126.553 C 381.374 126.708,381.258 126.630,381.445 126.327 C 381.636 126.018,381.510 125.949,381.066 126.119 C 380.699 126.260,380.400 126.182,380.400 125.945 C 380.400 125.708,380.142 125.614,379.826 125.735 C 379.510 125.856,379.179 125.740,379.091 125.478 C 378.972 125.124,378.755 125.144,378.256 125.557 C 377.667 126.042,377.614 126.030,377.834 125.457 C 378.071 124.839,377.932 124.739,376.700 124.640 C 376.425 124.618,375.952 124.365,375.648 124.077 C 375.345 123.789,374.850 123.649,374.548 123.764 C 374.247 123.880,374.000 123.781,374.000 123.545 C 374.000 123.308,373.742 123.214,373.426 123.335 C 373.110 123.456,372.779 123.340,372.691 123.078 C 372.572 122.724,372.355 122.744,371.856 123.157 C 371.261 123.648,371.214 123.628,371.460 122.987 C 371.678 122.421,371.592 122.318,371.069 122.518 C 370.701 122.659,370.400 122.590,370.400 122.364 C 370.400 122.138,370.220 122.064,370.000 122.200 C 369.780 122.336,369.600 122.237,369.600 121.981 C 369.600 121.724,369.342 121.614,369.026 121.735 C 368.710 121.856,368.379 121.740,368.291 121.478 C 368.172 121.124,367.955 121.144,367.456 121.557 C 366.861 122.048,366.814 122.028,367.060 121.387 C 367.278 120.821,367.192 120.718,366.669 120.918 C 366.301 121.059,366.000 120.990,366.000 120.764 C 366.000 120.538,365.820 120.464,365.600 120.600 C 365.380 120.736,365.200 120.637,365.200 120.381 C 365.200 120.124,364.930 120.018,364.600 120.145 C 364.270 120.271,364.000 120.181,364.000 119.945 C 364.000 119.708,363.730 119.618,363.400 119.745 C 363.070 119.871,362.800 119.790,362.800 119.564 C 362.800 119.338,362.620 119.264,362.400 119.400 C 362.180 119.536,362.000 119.437,362.000 119.181 C 362.000 118.924,361.730 118.818,361.400 118.945 C 361.070 119.071,360.800 118.981,360.800 118.745 C 360.800 118.508,360.530 118.418,360.200 118.545 C 359.870 118.671,359.600 118.581,359.600 118.345 C 359.600 118.108,359.321 118.022,358.979 118.153 C 358.574 118.308,358.458 118.230,358.645 117.927 C 358.836 117.618,358.710 117.549,358.266 117.719 C 357.899 117.860,357.600 117.782,357.600 117.545 C 357.600 117.308,357.330 117.218,357.000 117.345 C 356.670 117.471,356.400 117.381,356.400 117.145 C 356.400 116.908,356.121 116.822,355.779 116.953 C 355.374 117.108,355.258 117.030,355.445 116.727 C 355.636 116.418,355.510 116.349,355.066 116.519 C 354.699 116.660,354.400 116.582,354.400 116.345 C 354.400 116.108,354.130 116.018,353.800 116.145 C 353.470 116.271,353.200 116.181,353.200 115.945 C 353.200 115.708,352.921 115.622,352.579 115.753 C 352.174 115.908,352.058 115.830,352.245 115.527 C 352.436 115.218,352.310 115.149,351.866 115.319 C 351.499 115.460,351.200 115.382,351.200 115.145 C 351.200 114.908,350.930 114.818,350.600 114.945 C 350.270 115.071,350.000 114.981,350.000 114.745 C 350.000 114.508,349.730 114.418,349.400 114.545 C 349.070 114.671,348.800 114.581,348.800 114.345 C 348.800 114.108,348.521 114.022,348.179 114.153 C 347.774 114.308,347.658 114.230,347.845 113.927 C 348.036 113.618,347.910 113.549,347.466 113.719 C 347.099 113.860,346.800 113.782,346.800 113.545 C 346.800 113.308,346.530 113.218,346.200 113.345 C 345.870 113.471,345.600 113.381,345.600 113.145 C 345.600 112.908,345.330 112.818,345.000 112.945 C 344.670 113.071,344.400 112.990,344.400 112.764 C 344.400 112.538,344.220 112.464,344.000 112.600 C 343.780 112.736,343.600 112.637,343.600 112.381 C 343.600 112.124,343.330 112.018,343.000 112.145 C 342.670 112.271,342.400 112.181,342.400 111.945 C 342.400 111.708,342.130 111.618,341.800 111.745 C 341.470 111.871,341.200 111.790,341.200 111.564 C 341.200 111.338,341.020 111.264,340.800 111.400 C 340.580 111.536,340.400 111.437,340.400 111.181 C 340.400 110.924,340.130 110.818,339.800 110.945 C 339.470 111.071,339.200 110.981,339.200 110.745 C 339.200 110.508,338.930 110.418,338.600 110.545 C 338.270 110.671,338.000 110.581,338.000 110.345 C 338.000 110.108,337.721 110.022,337.379 110.153 C 336.974 110.308,336.858 110.230,337.045 109.927 C 337.236 109.618,337.110 109.549,336.666 109.719 C 336.299 109.860,336.000 109.782,336.000 109.545 C 336.000 109.308,335.730 109.218,335.400 109.345 C 335.070 109.471,334.800 109.381,334.800 109.145 C 334.800 108.908,334.521 108.822,334.179 108.953 C 333.774 109.108,333.658 109.030,333.845 108.727 C 334.036 108.418,333.910 108.349,333.466 108.519 C 333.099 108.660,332.800 108.582,332.800 108.345 C 332.800 108.108,332.530 108.018,332.200 108.145 C 331.870 108.271,331.600 108.181,331.600 107.945 C 331.600 107.708,331.321 107.622,330.979 107.753 C 330.574 107.908,330.458 107.830,330.645 107.527 C 330.836 107.218,330.710 107.149,330.266 107.319 C 329.899 107.460,329.600 107.382,329.600 107.145 C 329.600 106.908,329.330 106.818,329.000 106.945 C 328.670 107.071,328.400 106.986,328.400 106.754 C 328.400 106.523,328.177 106.408,327.904 106.499 C 327.631 106.590,327.157 106.414,326.852 106.109 C 326.547 105.804,326.050 105.649,325.748 105.764 C 325.447 105.880,325.200 105.781,325.200 105.545 C 325.200 105.308,324.930 105.218,324.600 105.345 C 324.270 105.471,324.000 105.381,324.000 105.145 C 324.000 104.908,323.721 104.822,323.379 104.953 C 322.974 105.108,322.858 105.030,323.045 104.727 C 323.236 104.418,323.110 104.349,322.666 104.519 C 322.299 104.660,322.000 104.582,322.000 104.345 C 322.000 104.108,321.730 104.018,321.400 104.145 C 321.070 104.271,320.800 104.181,320.800 103.945 C 320.800 103.708,320.521 103.622,320.179 103.753 C 319.774 103.908,319.658 103.830,319.845 103.527 C 320.036 103.218,319.910 103.149,319.466 103.319 C 319.099 103.460,318.800 103.382,318.800 103.145 C 318.800 102.908,318.542 102.814,318.226 102.935 C 317.910 103.056,317.579 102.940,317.491 102.678 C 317.372 102.324,317.155 102.344,316.656 102.757 C 316.073 103.237,316.013 103.231,316.214 102.708 C 316.459 102.070,315.404 101.426,314.764 101.822 C 314.564 101.946,314.400 101.837,314.400 101.581 C 314.400 101.324,314.130 101.218,313.800 101.345 C 313.470 101.471,313.200 101.381,313.200 101.145 C 313.200 100.908,312.921 100.822,312.579 100.953 C 312.174 101.108,312.058 101.030,312.245 100.727 C 312.436 100.418,312.310 100.349,311.866 100.519 C 311.499 100.660,311.200 100.582,311.200 100.345 C 311.200 100.108,310.930 100.018,310.600 100.145 C 310.270 100.271,310.000 100.181,310.000 99.945 C 310.000 99.708,309.752 99.610,309.449 99.726 C 309.146 99.842,308.715 99.755,308.492 99.532 C 308.217 99.257,307.816 99.270,307.252 99.572 C 306.591 99.926,306.460 99.908,306.622 99.486 C 306.839 98.922,300.107 98.703,299.761 99.262 M333.000 132.189 C 347.960 137.743,363.800 143.610,368.200 145.225 C 380.604 149.779,379.853 148.088,379.470 170.600 C 378.719 214.752,368.632 245.927,345.058 276.950 C 332.613 293.328,309.072 314.375,303.176 314.395 C 295.599 314.421,267.135 286.923,254.295 267.172 C 235.076 237.608,227.435 210.569,226.917 170.292 C 226.623 147.440,225.351 150.038,239.400 144.804 C 301.908 121.521,301.873 121.533,304.200 121.864 C 305.080 121.989,318.040 126.635,333.000 132.189 M307.628 157.481 C 304.299 159.226,304.600 153.694,304.600 213.129 C 304.600 271.635,304.411 267.558,307.187 268.993 C 310.689 270.804,313.234 268.886,321.922 257.885 C 338.765 236.558,350.000 205.462,350.000 180.169 C 350.000 170.523,350.848 171.182,327.727 162.859 C 310.409 156.626,309.649 156.423,307.628 157.481 M352.800 302.922 C 352.800 302.988,352.125 303.663,351.300 304.422 L 349.800 305.800 351.178 304.300 C 352.462 302.904,352.800 302.616,352.800 302.922 " stroke="none" fill="#74c4fb" fill-rule="evenodd"></path><path id="path1" d="M191.200 76.813 C 151.404 79.073,113.573 107.167,99.378 145.000 C 96.594 152.419,95.796 155.275,94.237 163.400 C 92.635 171.750,92.316 174.267,92.103 180.244 L 91.903 185.888 85.851 186.108 C 53.303 187.288,24.283 211.201,16.249 243.464 C 14.066 252.228,13.262 268.481,14.729 274.200 C 14.954 275.080,15.450 277.420,15.831 279.400 C 21.115 306.885,44.493 330.683,72.600 337.189 C 81.687 339.293,79.091 339.235,160.000 339.113 L 235.000 339.000 237.525 337.834 C 240.165 336.615,242.089 334.750,243.435 332.104 C 243.856 331.277,244.380 330.468,244.600 330.306 C 244.848 330.124,244.810 330.010,244.500 330.006 C 244.225 330.003,243.944 330.045,243.876 330.100 C 243.399 330.483,240.037 325.563,238.475 322.200 C 237.405 319.895,236.299 318.599,234.600 317.662 C 233.500 317.055,227.213 316.981,159.000 316.770 C 78.055 316.519,82.813 316.656,75.071 314.359 C 27.609 300.274,22.309 234.427,66.932 213.240 C 75.572 209.138,79.498 208.403,94.800 208.019 C 107.673 207.696,108.585 207.577,110.899 205.930 C 113.587 204.016,113.991 202.121,114.000 191.400 C 114.019 169.331,117.234 155.512,125.684 141.188 C 145.071 108.324,181.648 92.521,219.116 100.822 C 227.496 102.679,228.607 102.493,233.000 98.497 C 235.397 96.317,239.485 93.702,240.154 93.920 C 241.541 94.373,238.734 86.745,236.703 84.541 C 231.492 78.888,212.237 75.618,191.200 76.813 M192.705 77.475 C 192.322 77.575,191.602 77.579,191.105 77.483 C 190.607 77.387,190.920 77.305,191.800 77.301 C 192.680 77.296,193.087 77.375,192.705 77.475 M208.900 77.482 C 208.405 77.578,207.595 77.578,207.100 77.482 C 206.605 77.387,207.010 77.309,208.000 77.309 C 208.990 77.309,209.395 77.387,208.900 77.482 M92.691 184.700 C 92.605 185.525,92.534 184.850,92.534 183.200 C 92.534 181.550,92.605 180.875,92.691 181.700 C 92.778 182.525,92.778 183.875,92.691 184.700 M88.505 186.682 C 88.014 186.777,87.114 186.779,86.505 186.687 C 85.897 186.595,86.300 186.517,87.400 186.514 C 88.500 186.511,88.997 186.587,88.505 186.682 M40.400 205.325 C 40.400 205.394,39.815 205.979,39.100 206.625 L 37.800 207.800 38.975 206.500 C 40.070 205.288,40.400 205.016,40.400 205.325 M14.697 264.884 C 14.618 266.268,14.553 265.240,14.553 262.600 C 14.552 259.960,14.616 258.828,14.695 260.084 C 14.774 261.341,14.775 263.501,14.697 264.884 M354.175 301.700 L 353.000 303.000 354.300 301.825 C 355.015 301.179,355.600 300.594,355.600 300.525 C 355.600 300.216,355.270 300.488,354.175 301.700 M346.792 309.500 L 343.000 313.400 346.900 309.608 C 350.522 306.086,350.982 305.600,350.692 305.600 C 350.633 305.600,348.878 307.355,346.792 309.500 M36.600 316.000 C 37.683 317.100,38.480 318.000,38.370 318.000 C 38.260 318.000,37.283 317.100,36.200 316.000 C 35.117 314.900,34.320 314.000,34.430 314.000 C 34.540 314.000,35.517 314.900,36.600 316.000 M87.905 338.675 C 87.522 338.775,86.802 338.779,86.305 338.683 C 85.807 338.587,86.120 338.505,87.000 338.501 C 87.880 338.496,88.287 338.575,87.905 338.675 " stroke="none" fill="#454c54" fill-rule="evenodd"></path></g></svg>