<svg id="svg" version="1.1" xmlns="http://www.w3.org/2000/svg" xmlns:xlink="http://www.w3.org/1999/xlink" width="440" height="400" viewBox="0, 0, 440,400"><g id="svgg"><path id="path0" d="M106.800 17.021 C 105.810 17.333,104.476 17.591,103.835 17.594 C 102.368 17.602,97.883 18.904,91.816 21.085 C 87.046 22.799,79.981 26.764,73.340 31.452 C 67.685 35.445,59.230 44.984,54.702 52.479 C 52.466 56.182,51.659 57.899,48.438 65.800 C 48.259 66.240,47.832 67.590,47.490 68.800 C 47.148 70.010,46.657 71.720,46.400 72.600 C 44.952 77.543,44.693 80.667,44.533 95.100 L 44.372 109.600 28.086 109.605 C 10.425 109.611,8.975 109.767,5.517 112.034 C -1.662 116.739,-0.909 128.323,6.854 132.607 L 9.000 133.791 26.700 133.937 L 44.400 134.082 44.400 200.229 L 44.400 266.377 26.290 266.488 L 8.181 266.600 6.073 267.953 C -0.841 272.391,-1.400 283.226,5.054 287.699 C 8.758 290.266,9.720 290.379,27.886 290.390 L 44.372 290.400 44.533 304.900 C 44.693 319.333,44.952 322.457,46.400 327.400 C 46.657 328.280,47.151 329.990,47.496 331.200 C 47.841 332.410,48.366 333.967,48.662 334.660 C 48.958 335.354,49.200 336.121,49.200 336.366 C 49.200 336.611,49.369 337.123,49.576 337.505 C 49.782 337.887,50.610 339.618,51.416 341.352 C 59.837 359.477,77.311 374.799,96.000 380.446 C 97.430 380.878,99.434 381.495,100.454 381.816 C 101.473 382.137,102.836 382.400,103.481 382.400 C 104.127 382.400,105.632 382.715,106.827 383.100 C 108.876 383.760,115.485 383.800,222.200 383.800 C 329.076 383.800,335.498 383.761,337.150 383.100 C 338.113 382.715,339.429 382.400,340.075 382.400 C 344.069 382.400,358.495 376.629,365.200 372.348 C 376.369 365.218,386.313 353.976,392.046 342.000 C 394.711 336.434,395.200 335.257,395.200 334.410 C 395.200 333.990,395.366 333.545,395.569 333.419 C 395.772 333.294,396.059 332.608,396.206 331.895 C 396.354 331.183,396.715 329.790,397.009 328.800 C 398.104 325.120,398.550 322.917,398.831 319.800 C 398.991 318.040,399.311 315.250,399.543 313.600 C 400.132 309.409,400.132 90.591,399.543 86.400 C 399.311 84.750,398.991 81.960,398.831 80.200 C 398.550 77.083,398.104 74.880,397.009 71.200 C 396.715 70.210,396.354 68.817,396.206 68.105 C 396.059 67.392,395.772 66.706,395.569 66.581 C 395.366 66.455,395.200 66.010,395.200 65.590 C 395.200 64.213,390.903 55.325,388.039 50.778 C 379.134 36.640,362.870 23.818,349.000 20.001 C 348.340 19.819,347.260 19.493,346.600 19.276 C 342.687 17.988,341.148 17.599,339.946 17.594 C 339.206 17.591,337.880 17.329,337.000 17.012 C 334.611 16.151,109.532 16.160,106.800 17.021 M335.511 38.280 C 356.565 43.170,371.568 57.548,376.807 77.854 C 378.439 84.179,378.442 84.405,378.305 202.800 L 378.173 317.000 377.315 320.452 C 371.639 343.265,355.051 358.764,332.600 362.230 C 327.060 363.085,116.987 363.069,111.287 362.213 C 85.922 358.403,67.638 338.588,65.589 312.685 C 64.988 305.091,65.208 288.631,65.919 287.919 C 66.324 287.515,70.445 287.356,84.519 287.200 L 102.600 287.000 104.474 285.898 C 110.502 282.355,110.461 273.790,104.400 270.405 L 102.600 269.400 84.519 269.200 C 70.431 269.044,66.324 268.885,65.919 268.480 C 64.933 267.492,64.973 133.169,65.961 131.949 L 66.728 131.000 84.883 130.800 C 104.684 130.582,103.609 130.710,106.339 128.247 C 109.978 124.964,109.750 118.690,105.863 115.131 C 103.450 112.922,102.297 112.800,83.804 112.800 C 69.866 112.800,66.819 112.702,66.176 112.231 C 65.196 111.513,65.014 89.224,65.939 83.200 C 69.596 59.392,87.710 41.307,111.400 37.811 C 114.333 37.379,135.082 37.293,223.400 37.349 L 331.800 37.418 335.511 38.280 " stroke="none" fill="#444c54" fill-rule="evenodd"></path><path id="path1" d="M111.400 37.811 C 87.710 41.307,69.596 59.392,65.939 83.200 C 65.014 89.224,65.196 111.513,66.176 112.231 C 66.819 112.702,69.866 112.800,83.804 112.800 C 102.297 112.800,103.450 112.922,105.863 115.131 C 109.750 118.690,109.978 124.964,106.339 128.247 C 103.609 130.710,104.684 130.582,84.883 130.800 L 66.728 131.000 65.961 131.949 C 64.973 133.169,64.933 267.492,65.919 268.480 C 66.324 268.885,70.431 269.044,84.519 269.200 L 102.600 269.400 104.400 270.405 C 110.461 273.790,110.502 282.355,104.474 285.898 L 102.600 287.000 84.519 287.200 C 70.445 287.356,66.324 287.515,65.919 287.919 C 65.208 288.631,64.988 305.091,65.589 312.685 C 67.638 338.588,85.922 358.403,111.287 362.213 C 116.987 363.069,327.060 363.085,332.600 362.230 C 355.051 358.764,371.639 343.265,377.315 320.452 L 378.173 317.000 378.305 202.800 C 378.442 84.405,378.439 84.179,376.807 77.854 C 371.568 57.548,356.565 43.170,335.511 38.280 L 331.800 37.418 223.400 37.349 C 135.082 37.293,114.333 37.379,111.400 37.811 M334.044 38.725 C 356.916 43.500,373.412 60.430,376.989 82.800 C 378.058 89.485,377.895 311.811,376.816 318.060 C 372.840 341.098,354.308 358.853,331.400 361.571 C 325.306 362.294,116.507 362.144,111.400 361.413 C 90.582 358.432,73.359 343.099,68.007 322.778 C 66.065 315.404,65.138 290.598,66.733 288.680 C 67.205 288.112,69.306 288.025,84.933 287.919 C 104.554 287.787,104.034 287.857,106.945 284.945 C 111.279 280.612,110.326 273.082,105.032 269.814 L 103.064 268.600 85.152 268.400 C 71.200 268.244,67.124 268.085,66.719 267.680 C 65.951 266.911,65.951 133.089,66.719 132.320 C 67.124 131.915,71.201 131.756,85.152 131.600 L 103.065 131.400 105.020 130.191 C 111.580 126.133,111.146 116.775,104.227 113.071 C 102.643 112.223,102.125 112.195,84.733 112.000 C 74.906 111.890,66.716 111.650,66.533 111.467 C 65.239 110.173,66.196 84.571,67.776 78.200 C 73.092 56.777,91.034 40.932,112.800 38.440 C 117.656 37.884,331.335 38.159,334.044 38.725 M217.794 113.642 C 215.582 114.811,214.690 115.711,213.568 117.906 L 212.600 119.800 212.476 139.788 C 212.402 151.663,212.197 159.962,211.971 160.235 C 211.761 160.488,209.994 161.265,208.044 161.962 C 203.779 163.488,200.084 165.636,195.842 169.055 C 194.105 170.455,192.395 171.600,192.042 171.600 C 191.689 171.599,183.937 167.284,174.815 162.009 C 163.163 155.271,157.617 152.282,156.167 151.958 C 147.408 149.997,141.404 160.708,147.546 167.338 C 148.683 168.566,149.694 169.178,167.800 179.602 C 184.582 189.264,182.674 186.987,181.608 196.081 C 181.213 199.446,181.208 201.156,181.584 204.081 C 182.568 211.745,182.564 211.467,181.690 212.215 C 181.248 212.594,173.892 216.939,165.343 221.871 C 148.113 231.810,147.417 232.282,146.035 234.967 C 142.917 241.025,147.605 248.400,154.573 248.400 C 156.562 248.400,159.592 246.843,175.444 237.675 C 184.265 232.574,191.757 228.400,192.092 228.400 C 192.428 228.400,193.991 229.480,195.567 230.800 C 199.304 233.930,203.732 236.495,208.086 238.052 C 210.013 238.742,211.761 239.512,211.971 239.765 C 212.197 240.038,212.402 248.337,212.476 260.212 C 212.583 277.497,212.686 280.389,213.239 281.600 C 216.113 287.892,223.937 289.277,228.683 284.334 C 231.178 281.735,231.200 281.520,231.200 260.239 C 231.200 238.418,231.002 239.717,234.500 238.584 C 237.985 237.454,242.837 234.918,245.762 232.697 C 247.280 231.544,249.216 230.072,250.064 229.427 C 251.977 227.970,250.091 227.104,269.593 238.406 C 286.181 248.021,287.453 248.624,290.412 248.273 C 298.258 247.344,301.605 238.067,296.086 232.547 C 295.406 231.868,291.644 229.463,287.725 227.203 C 257.967 210.044,260.910 212.302,261.785 207.301 C 262.566 202.837,262.566 197.163,261.785 192.699 C 260.977 188.079,260.542 188.562,270.873 182.608 C 298.029 166.959,296.283 168.093,297.759 165.133 C 301.799 157.025,293.258 148.707,285.127 152.832 C 284.177 153.314,276.448 157.734,267.951 162.654 C 250.554 172.728,251.779 172.290,248.583 169.578 C 244.261 165.911,239.580 163.197,235.200 161.819 C 233.990 161.438,232.595 160.683,232.100 160.141 L 231.200 159.155 231.200 139.924 C 231.200 118.861,231.180 118.655,228.858 115.943 C 226.198 112.835,221.264 111.809,217.794 113.642 M227.200 178.882 C 236.528 181.064,243.600 190.111,243.600 199.864 C 243.600 219.455,220.410 229.191,206.595 215.400 C 190.963 199.795,205.612 173.833,227.200 178.882 " stroke="none" fill="#74c4fc" fill-rule="evenodd"></path></g></svg>