<svg id="svg" version="1.1" xmlns="http://www.w3.org/2000/svg" xmlns:xlink="http://www.w3.org/1999/xlink" width="400" height="400" viewBox="0, 0, 400,400"><g id="svgg"><path id="path0" d="M192.600 30.043 C 190.790 30.396,189.126 30.653,183.600 31.429 C 182.610 31.568,181.629 31.844,181.420 32.041 C 181.211 32.238,180.705 32.400,180.295 32.400 C 179.271 32.400,175.637 33.616,175.370 34.048 C 175.251 34.242,174.801 34.400,174.371 34.400 C 173.941 34.400,173.277 34.565,172.895 34.766 C 172.513 34.968,171.570 35.401,170.800 35.728 C 167.479 37.141,166.432 37.651,163.506 39.285 C 161.804 40.235,160.047 41.324,159.601 41.706 C 159.156 42.088,158.705 42.400,158.600 42.400 C 158.351 42.400,153.800 45.843,152.000 47.393 C 145.633 52.877,138.326 62.021,135.374 68.200 C 134.743 69.520,133.996 70.838,133.713 71.129 C 133.431 71.419,133.200 71.833,133.200 72.048 C 133.200 72.263,132.840 73.184,132.400 74.094 C 131.960 75.005,131.600 75.989,131.600 76.281 C 131.600 76.572,131.423 77.123,131.206 77.505 C 129.690 80.177,127.813 87.975,127.139 94.400 C 126.021 105.055,127.976 123.309,130.507 125.840 C 130.668 126.001,130.800 126.543,130.800 127.043 C 130.800 127.543,130.980 128.064,131.200 128.200 C 131.420 128.336,131.600 128.754,131.600 129.130 C 131.600 131.062,138.647 143.571,142.600 148.656 C 146.354 153.485,157.603 163.659,160.358 164.716 C 160.691 164.844,161.271 165.211,161.646 165.532 C 162.658 166.399,168.003 169.200,168.644 169.200 C 168.950 169.200,169.200 169.380,169.200 169.600 C 169.200 169.820,169.470 170.000,169.800 170.000 C 170.320 170.000,170.400 171.555,170.400 181.597 C 170.400 193.195,170.767 196.400,172.094 196.400 C 172.262 196.400,172.400 196.651,172.400 196.959 C 172.400 198.377,177.296 201.471,178.902 201.067 C 184.880 199.563,187.847 197.766,189.359 194.733 L 190.400 192.643 190.398 176.821 C 190.396 167.790,190.228 160.399,190.006 159.600 C 189.239 156.843,184.995 153.214,182.513 153.194 C 181.448 153.186,174.040 149.526,171.138 147.575 C 140.146 126.733,138.536 82.820,167.951 60.678 C 197.429 38.489,240.737 52.633,251.001 87.800 C 258.977 115.127,245.652 142.046,218.719 153.018 C 212.958 155.365,211.670 156.337,210.397 159.294 L 209.537 161.295 209.583 220.164 L 209.629 279.034 208.714 279.873 C 206.902 281.537,200.250 285.628,199.699 285.417 C 199.390 285.298,196.249 283.292,192.719 280.959 C 186.227 276.668,183.603 275.225,182.263 275.209 C 181.858 275.204,181.078 274.847,180.530 274.417 C 178.188 272.574,173.260 275.578,171.242 280.078 C 169.578 283.789,170.575 289.427,173.350 292.001 C 175.002 293.533,187.422 302.000,188.018 302.000 C 188.191 302.000,188.393 302.147,188.467 302.326 C 188.647 302.769,193.819 306.054,195.784 306.975 C 198.028 308.026,202.037 307.972,204.480 306.857 C 206.528 305.922,224.901 293.766,226.200 292.486 C 229.920 288.822,229.600 294.811,229.600 228.847 L 229.600 170.522 232.700 169.000 C 237.335 166.724,244.744 161.848,247.864 159.020 C 251.860 155.398,257.099 149.812,258.810 147.351 C 259.134 146.883,260.182 145.384,261.137 144.018 C 262.092 142.653,263.559 140.195,264.397 138.557 C 265.235 136.919,266.089 135.358,266.295 135.089 C 266.501 134.820,267.073 133.520,267.567 132.200 C 268.060 130.880,268.630 129.487,268.832 129.105 C 269.034 128.723,269.200 128.153,269.200 127.838 C 269.200 127.523,269.456 126.755,269.770 126.132 C 270.083 125.510,270.545 124.190,270.797 123.200 C 271.048 122.210,271.422 120.847,271.627 120.172 C 271.832 119.496,272.000 118.317,272.000 117.552 C 272.000 116.786,272.163 115.989,272.363 115.780 C 273.664 114.419,273.461 96.502,272.057 88.800 C 271.682 86.741,271.455 85.758,270.458 81.851 C 270.240 80.999,269.868 80.108,269.631 79.871 C 269.394 79.634,269.200 79.114,269.200 78.715 C 269.200 78.316,269.033 77.677,268.830 77.295 C 268.626 76.913,267.979 75.340,267.393 73.800 C 266.807 72.260,266.179 70.820,265.998 70.600 C 265.818 70.380,265.010 68.956,264.204 67.437 C 260.000 59.509,252.014 50.173,245.000 44.988 C 244.120 44.337,243.310 43.692,243.200 43.555 C 242.277 42.406,232.982 37.215,228.800 35.513 C 228.250 35.290,227.487 34.948,227.105 34.753 C 226.723 34.559,226.048 34.400,225.605 34.400 C 225.162 34.400,224.800 34.242,224.800 34.049 C 224.800 33.855,224.035 33.485,223.100 33.225 C 222.165 32.965,220.770 32.568,220.000 32.343 C 217.787 31.696,214.803 31.156,212.200 30.931 C 210.880 30.817,209.574 30.538,209.298 30.311 C 208.625 29.758,195.162 29.542,192.600 30.043 M197.087 91.213 C 185.761 94.055,184.484 109.413,195.164 114.323 C 205.060 118.871,215.699 108.279,211.277 98.281 C 208.943 93.004,202.580 89.835,197.087 91.213 M177.854 217.802 C 177.224 218.131,176.492 218.400,176.226 218.400 C 175.230 218.400,172.471 221.248,171.455 223.324 L 170.400 225.480 170.404 237.640 L 170.408 249.800 171.556 251.800 C 172.904 254.146,174.303 255.627,175.872 256.366 C 176.492 256.658,177.494 257.155,178.098 257.470 C 179.115 258.001,179.296 257.968,180.536 257.022 C 181.273 256.460,182.179 256.000,182.551 256.000 C 184.845 256.000,188.386 253.302,189.640 250.600 C 190.807 248.086,190.762 227.036,189.584 224.441 C 188.376 221.778,186.404 220.154,183.231 219.209 C 181.725 218.761,180.270 218.125,179.997 217.797 C 179.386 217.060,179.277 217.061,177.854 217.802 M308.800 290.125 C 308.800 290.194,309.385 290.779,310.100 291.425 L 311.400 292.600 310.225 291.300 C 309.130 290.088,308.800 289.816,308.800 290.125 M284.000 296.525 C 284.000 296.594,284.585 297.179,285.300 297.825 L 286.600 299.000 285.425 297.700 C 284.330 296.488,284.000 296.216,284.000 296.525 M317.600 299.000 C 318.346 299.770,319.047 300.400,319.157 300.400 C 319.267 300.400,318.746 299.770,318.000 299.000 C 317.254 298.230,316.553 297.600,316.443 297.600 C 316.333 297.600,316.854 298.230,317.600 299.000 M296.400 308.925 C 296.400 308.994,296.985 309.579,297.700 310.225 L 299.000 311.400 297.825 310.100 C 296.730 308.888,296.400 308.616,296.400 308.925 " stroke="none" fill="#444c54" fill-rule="evenodd"></path><path id="path1" d="M194.000 50.184 C 193.670 50.263,192.050 50.545,190.400 50.811 C 147.017 57.804,131.658 114.930,165.534 143.300 C 170.810 147.718,180.174 153.175,182.513 153.194 C 184.995 153.214,189.239 156.843,190.006 159.600 C 190.228 160.399,190.396 167.790,190.398 176.821 L 190.400 192.643 189.359 194.733 C 188.107 197.244,186.414 198.616,183.314 199.632 C 181.391 200.262,181.267 200.352,182.581 200.162 C 184.667 199.860,186.705 198.778,188.280 197.135 C 190.799 194.507,190.800 194.496,190.800 176.491 L 190.800 160.157 189.746 158.042 C 188.460 155.461,186.484 153.952,182.878 152.798 C 160.216 145.541,144.183 119.840,147.620 96.277 C 154.061 52.109,207.584 34.771,238.252 66.918 C 264.508 94.439,254.069 138.815,218.046 152.813 C 212.409 155.003,210.503 156.658,209.547 160.189 C 209.240 161.322,209.130 179.128,209.175 220.200 C 209.227 267.578,209.141 278.721,208.720 279.242 C 207.897 280.260,200.877 284.800,200.126 284.800 C 199.754 284.800,196.456 282.825,192.798 280.410 C 185.954 275.893,183.907 274.800,182.293 274.800 C 181.780 274.800,181.108 274.575,180.799 274.300 C 180.322 273.875,180.318 273.904,180.768 274.500 C 181.060 274.885,181.681 275.204,182.149 275.209 C 183.606 275.224,186.075 276.567,192.719 280.959 C 196.249 283.292,199.390 285.298,199.699 285.417 C 200.250 285.628,206.902 281.537,208.714 279.873 L 209.629 279.034 209.583 220.164 L 209.537 161.295 210.397 159.294 C 211.670 156.337,212.958 155.365,218.719 153.018 C 268.112 132.897,263.268 63.529,211.604 51.131 C 208.464 50.378,195.990 49.707,194.000 50.184 M196.800 90.750 C 182.636 95.411,185.236 115.761,200.000 115.789 C 213.468 115.814,217.583 97.498,205.431 91.615 C 203.342 90.604,198.668 90.135,196.800 90.750 M205.464 92.215 C 214.577 96.668,214.524 109.538,205.375 114.042 C 194.255 119.517,183.140 106.951,189.788 96.419 C 193.017 91.304,199.849 89.472,205.464 92.215 M58.757 108.007 C 58.451 108.174,57.210 108.441,56.000 108.600 C 54.790 108.759,53.620 109.017,53.400 109.173 C 53.180 109.328,52.190 109.706,51.200 110.011 C 38.008 114.077,28.164 129.662,29.974 143.617 C 30.611 148.528,31.551 152.377,32.349 153.339 C 32.560 153.592,32.729 153.943,32.725 154.117 C 32.709 154.771,33.711 156.800,34.049 156.800 C 34.242 156.800,34.400 156.993,34.400 157.228 C 34.400 158.355,41.213 166.400,42.168 166.400 C 42.315 166.400,42.921 166.850,43.514 167.401 C 44.108 167.952,45.180 168.595,45.897 168.832 C 46.614 169.069,47.200 169.428,47.200 169.631 C 47.200 169.834,47.545 170.000,47.967 170.000 C 48.388 170.000,48.797 170.190,48.874 170.422 C 48.951 170.654,49.281 170.893,49.607 170.953 C 49.933 171.013,51.190 171.388,52.400 171.787 C 57.456 173.451,69.026 173.814,70.580 172.357 C 70.789 172.160,71.376 172.000,71.884 172.000 C 72.393 172.000,73.618 171.620,74.606 171.155 L 76.404 170.310 78.102 171.831 C 79.036 172.668,83.377 176.963,87.750 181.376 C 92.122 185.789,95.857 189.355,96.050 189.300 C 96.242 189.245,96.400 189.414,96.400 189.675 C 96.400 190.233,101.045 194.800,101.613 194.800 C 101.826 194.800,101.955 194.944,101.900 195.121 C 101.773 195.526,105.468 199.200,106.002 199.200 C 106.221 199.200,106.400 199.360,106.400 199.557 C 106.400 199.753,106.850 200.026,107.400 200.164 C 107.950 200.302,108.400 200.585,108.400 200.793 C 108.400 201.025,115.929 201.179,127.853 201.192 L 147.306 201.214 149.153 200.132 C 157.560 195.209,155.756 182.132,146.400 180.174 C 145.630 180.013,138.660 179.773,130.910 179.641 L 116.820 179.400 104.566 167.152 L 92.311 154.903 92.811 153.352 C 93.086 152.498,93.452 151.440,93.625 151.000 C 93.956 150.159,94.174 149.203,94.858 145.600 C 95.330 143.112,95.082 134.720,94.491 133.200 C 94.277 132.650,93.887 131.480,93.625 130.600 C 92.718 127.561,90.683 123.255,89.611 122.104 C 89.246 121.712,88.778 121.093,88.573 120.730 C 88.040 119.785,85.150 116.760,83.771 115.703 C 83.127 115.209,81.880 114.244,81.000 113.557 C 78.989 111.989,75.113 110.171,71.800 109.243 C 67.201 107.954,60.092 107.281,58.757 108.007 M331.731 108.391 C 330.153 108.726,328.728 109.135,328.565 109.300 C 328.401 109.465,327.844 109.600,327.328 109.600 C 326.812 109.600,326.077 109.765,325.695 109.966 C 325.313 110.168,324.280 110.645,323.400 111.028 C 317.976 113.383,308.800 122.259,308.800 125.149 C 308.800 125.361,308.610 125.597,308.378 125.674 C 308.146 125.751,307.916 126.081,307.867 126.407 C 307.819 126.733,307.399 127.990,306.936 129.200 C 305.249 133.607,305.144 134.386,305.328 141.200 C 305.510 147.953,305.815 150.639,306.444 151.027 C 306.640 151.148,306.800 151.676,306.800 152.200 C 306.800 152.724,306.980 153.264,307.200 153.400 C 308.277 154.065,306.714 155.894,295.403 167.204 L 283.206 179.400 269.103 179.629 C 261.346 179.754,254.460 179.997,253.800 180.169 C 251.962 180.646,250.400 181.359,250.400 181.721 C 250.400 181.901,250.248 181.953,250.061 181.838 C 249.586 181.544,247.859 183.465,246.680 185.601 C 245.307 188.086,245.232 193.150,246.534 195.508 C 247.673 197.572,249.006 199.200,249.558 199.200 C 249.801 199.200,250.000 199.347,250.000 199.526 C 250.000 201.074,290.854 202.330,291.793 200.811 C 291.926 200.597,292.655 200.127,293.413 199.767 C 294.172 199.407,294.694 198.952,294.573 198.756 C 294.452 198.560,294.588 198.398,294.876 198.395 C 295.164 198.392,301.007 192.767,307.860 185.895 C 314.713 179.023,321.047 172.700,321.934 171.844 L 323.549 170.288 325.370 171.144 C 326.372 171.615,327.607 172.000,328.116 172.000 C 328.624 172.000,329.211 172.160,329.420 172.357 C 330.852 173.700,341.970 173.506,346.700 172.055 C 347.415 171.835,348.000 171.737,348.000 171.837 C 348.000 171.937,348.450 171.724,349.000 171.363 C 349.550 171.003,350.000 170.828,350.000 170.974 C 350.000 171.272,354.770 168.697,356.571 167.426 C 362.226 163.436,369.191 153.024,369.199 148.549 C 369.199 148.081,369.454 147.090,369.764 146.347 C 370.455 144.693,370.382 135.862,369.667 134.525 C 369.410 134.045,369.200 133.233,369.200 132.721 C 369.200 131.819,368.381 129.382,367.048 126.316 C 364.204 119.775,356.609 112.700,349.968 110.405 C 348.556 109.917,347.040 109.367,346.600 109.184 C 343.527 107.904,335.936 107.499,331.731 108.391 M67.335 129.172 C 75.546 132.692,77.526 143.280,71.133 149.481 C 61.249 159.067,45.442 147.739,51.303 135.270 C 53.990 129.555,61.533 126.685,67.335 129.172 M343.162 129.644 C 354.700 135.410,350.503 153.027,337.600 152.992 C 324.347 152.955,320.328 135.220,332.250 129.380 C 335.314 127.879,339.850 127.989,343.162 129.644 M26.961 205.546 C 26.763 205.715,25.610 206.090,24.400 206.379 C 17.274 208.080,8.778 215.198,5.408 222.290 C 4.804 223.560,4.134 224.938,3.919 225.352 C 3.704 225.766,3.444 226.570,3.340 227.140 C 3.237 227.709,3.019 228.361,2.855 228.588 C 2.692 228.814,2.514 229.630,2.461 230.400 C 2.407 231.170,2.183 232.263,1.962 232.829 C 0.492 236.605,2.396 246.941,5.738 253.324 C 7.227 256.169,7.928 257.115,11.200 260.705 C 12.515 262.147,15.831 264.800,16.318 264.800 C 16.529 264.800,16.935 265.080,17.219 265.423 C 17.718 266.024,20.016 267.197,21.152 267.431 C 21.456 267.493,21.897 267.737,22.132 267.972 C 22.368 268.208,22.963 268.400,23.456 268.400 C 23.949 268.400,24.464 268.580,24.600 268.800 C 24.736 269.020,25.521 269.200,26.344 269.200 C 27.167 269.200,28.064 269.424,28.337 269.697 C 28.686 270.046,30.498 270.194,34.400 270.194 C 38.302 270.194,40.114 270.046,40.463 269.697 C 40.736 269.424,41.633 269.200,42.456 269.200 C 43.279 269.200,44.064 269.020,44.200 268.800 C 44.336 268.580,44.876 268.400,45.400 268.400 C 45.924 268.400,46.456 268.233,46.582 268.029 C 46.708 267.825,47.428 267.455,48.181 267.206 C 54.110 265.250,64.800 253.879,64.800 249.531 C 64.800 247.988,64.472 248.000,106.461 248.000 C 147.811 248.000,148.056 247.992,149.949 246.603 C 157.048 241.390,155.378 228.881,147.388 227.432 C 146.883 227.341,146.049 227.041,145.535 226.765 C 145.021 226.490,144.555 226.295,144.500 226.332 C 143.639 226.914,65.140 226.290,64.955 225.700 C 63.413 220.803,56.962 212.654,52.800 210.346 C 52.030 209.919,50.320 208.974,49.000 208.245 C 47.680 207.517,45.610 206.680,44.400 206.385 C 43.190 206.091,42.013 205.713,41.785 205.546 C 41.238 205.147,27.429 205.147,26.961 205.546 M357.400 205.879 C 356.300 206.198,354.845 206.600,354.166 206.772 C 352.800 207.119,349.124 209.058,347.132 210.482 C 341.673 214.382,338.074 218.812,335.417 224.900 L 334.762 226.400 295.181 226.450 C 273.412 226.478,255.465 226.532,255.300 226.570 C 248.300 228.213,245.352 231.773,245.679 238.188 C 245.776 240.099,246.023 241.784,246.228 241.932 C 246.432 242.079,246.960 242.907,247.400 243.771 C 248.178 245.300,251.371 247.789,252.031 247.381 C 252.203 247.274,252.458 247.370,252.596 247.593 C 252.764 247.865,266.497 248.000,293.816 248.000 L 334.785 248.000 335.050 249.100 C 336.762 256.211,349.308 268.400,354.915 268.400 C 355.266 268.400,355.664 268.580,355.800 268.800 C 355.936 269.020,356.721 269.200,357.544 269.200 C 358.367 269.200,359.264 269.424,359.537 269.697 C 359.886 270.046,361.698 270.194,365.600 270.194 C 369.502 270.194,371.314 270.046,371.663 269.697 C 371.936 269.424,372.833 269.200,373.656 269.200 C 374.479 269.200,375.264 269.020,375.400 268.800 C 375.536 268.580,376.047 268.400,376.535 268.400 C 377.023 268.400,377.777 268.151,378.211 267.847 C 378.645 267.543,379.090 267.295,379.200 267.295 C 380.768 267.293,388.002 262.132,389.826 259.714 C 390.454 258.881,391.178 258.020,391.435 257.800 C 392.567 256.831,396.237 250.230,396.581 248.544 C 396.904 246.955,397.687 243.742,398.035 242.572 C 398.539 240.877,398.495 233.725,397.975 232.753 C 397.741 232.315,397.539 231.245,397.527 230.373 C 397.515 229.502,397.347 228.691,397.153 228.571 C 396.959 228.451,396.800 227.950,396.800 227.459 C 396.800 226.428,393.844 220.368,392.386 218.410 C 390.892 216.404,385.562 211.104,385.301 211.365 C 385.175 211.492,384.848 211.281,384.576 210.897 C 384.303 210.514,383.387 209.849,382.540 209.420 C 381.693 208.991,380.666 208.361,380.258 208.020 C 379.850 207.679,379.490 207.458,379.458 207.528 C 379.405 207.645,377.877 207.144,376.400 206.525 C 376.070 206.386,375.260 206.199,374.600 206.108 C 373.940 206.016,373.229 205.775,373.020 205.571 C 372.396 204.962,359.699 205.213,357.400 205.879 M180.229 218.047 C 180.341 218.228,181.678 218.747,183.201 219.200 C 186.406 220.155,188.372 221.769,189.584 224.441 C 190.762 227.036,190.807 248.086,189.640 250.600 C 188.379 253.318,184.872 255.979,182.513 256.009 C 182.121 256.014,181.350 256.385,180.800 256.833 L 179.800 257.648 181.014 257.058 C 181.681 256.734,182.897 256.343,183.716 256.189 C 185.682 255.820,188.125 254.008,189.494 251.902 L 190.600 250.200 190.728 238.400 C 190.904 222.178,190.325 220.858,181.913 218.293 C 180.875 217.977,180.117 217.866,180.229 218.047 M40.374 226.623 C 51.609 232.732,47.212 249.768,34.400 249.768 C 20.423 249.768,17.203 230.643,30.353 225.729 C 32.873 224.787,37.807 225.228,40.374 226.623 M371.532 226.602 C 382.896 232.787,378.552 249.748,365.600 249.763 C 351.740 249.780,348.449 230.604,361.479 225.754 C 364.058 224.794,368.973 225.209,371.532 226.602 M110.779 273.591 C 110.437 273.789,109.717 274.022,109.179 274.108 C 107.130 274.436,105.788 275.637,91.588 289.840 C 75.746 305.688,76.049 305.456,73.700 303.515 C 73.425 303.288,73.200 303.220,73.200 303.365 C 73.200 303.510,72.795 303.406,72.300 303.134 C 70.128 301.942,60.293 301.443,55.800 302.298 C 53.312 302.772,48.646 304.401,48.467 304.859 C 48.393 305.047,48.050 305.200,47.704 305.200 C 47.359 305.200,46.486 305.650,45.764 306.200 C 45.043 306.750,44.339 307.200,44.198 307.200 C 44.058 307.200,43.699 307.425,43.402 307.700 C 43.104 307.975,41.992 308.910,40.930 309.777 C 37.453 312.618,33.441 318.297,32.154 322.200 C 31.791 323.300,31.374 324.380,31.226 324.600 C 31.079 324.820,30.905 325.630,30.839 326.400 C 30.773 327.170,30.580 328.070,30.409 328.400 C 29.037 331.046,29.834 340.133,31.970 346.210 C 33.816 351.464,39.366 358.543,43.765 361.255 C 44.884 361.945,46.288 362.845,46.884 363.255 C 47.480 363.665,48.290 364.063,48.684 364.139 C 49.078 364.215,49.940 364.513,50.600 364.801 C 55.248 366.828,59.852 367.389,67.200 366.825 C 70.618 366.563,79.119 363.344,80.368 361.839 C 80.659 361.488,81.127 361.200,81.407 361.200 C 82.099 361.200,88.708 354.599,89.251 353.365 C 89.339 353.164,90.039 352.026,90.806 350.835 C 91.573 349.645,92.213 348.565,92.229 348.435 C 92.244 348.306,92.468 347.750,92.726 347.200 C 93.259 346.065,94.282 342.368,94.884 339.400 C 95.383 336.942,95.050 327.690,94.441 327.081 C 94.198 326.838,94.000 326.136,94.000 325.520 C 94.000 324.904,93.790 324.400,93.533 324.400 C 93.277 324.400,93.171 324.296,93.298 324.168 C 93.426 324.041,93.253 323.125,92.916 322.134 L 92.301 320.331 94.051 318.543 C 95.013 317.559,100.616 311.915,106.502 305.999 L 117.203 295.244 132.302 295.122 C 147.307 295.001,147.410 294.994,149.000 294.063 C 157.743 288.944,155.945 276.718,146.000 273.659 C 144.268 273.126,111.688 273.063,110.779 273.591 M253.800 273.688 C 246.510 276.104,243.446 283.185,246.882 289.678 C 249.691 294.985,249.658 294.976,267.734 295.122 L 282.867 295.244 293.094 305.522 C 298.719 311.175,303.488 315.751,303.690 315.690 C 303.893 315.630,303.962 315.738,303.842 315.932 C 303.582 316.352,305.341 318.096,305.730 317.804 C 305.878 317.692,305.930 317.700,305.844 317.823 C 305.758 317.946,306.195 318.602,306.815 319.281 C 307.843 320.407,307.892 320.592,307.373 321.385 C 307.059 321.864,306.763 322.738,306.714 323.327 C 306.665 323.917,306.508 324.400,306.365 324.400 C 305.134 324.400,305.031 340.117,306.236 344.213 C 309.460 355.175,318.605 363.416,331.200 366.709 C 332.598 367.074,344.414 366.886,344.893 366.491 C 345.172 366.260,346.077 365.945,346.904 365.790 C 347.732 365.636,348.507 365.350,348.628 365.155 C 348.749 364.960,349.242 364.787,349.724 364.771 C 350.206 364.755,351.140 364.403,351.800 363.989 C 352.460 363.574,353.576 362.941,354.281 362.581 C 354.986 362.221,356.025 361.498,356.591 360.974 C 357.156 360.449,357.728 360.039,357.860 360.062 C 358.320 360.140,363.572 354.678,363.363 354.340 C 363.247 354.153,363.318 354.000,363.520 354.000 C 364.708 354.000,369.200 344.473,369.200 341.952 C 369.200 341.406,369.424 340.736,369.697 340.463 C 370.046 340.114,370.194 338.302,370.194 334.400 C 370.194 330.498,370.046 328.686,369.697 328.337 C 369.424 328.064,369.200 327.244,369.200 326.515 C 369.200 325.786,369.031 324.877,368.824 324.495 C 368.617 324.113,368.142 322.945,367.769 321.900 C 367.396 320.855,366.958 320.000,366.796 320.000 C 366.633 320.000,366.394 319.505,366.264 318.900 C 366.029 317.805,362.597 312.923,360.991 311.400 C 358.636 309.167,356.451 307.439,355.127 306.763 C 354.317 306.350,353.541 305.829,353.404 305.606 C 353.266 305.383,352.803 305.200,352.376 305.200 C 351.949 305.200,351.600 305.059,351.600 304.888 C 351.600 303.163,336.589 300.815,332.826 301.951 C 332.041 302.188,330.744 302.453,329.942 302.541 C 329.140 302.629,328.286 302.823,328.044 302.973 C 327.801 303.123,327.233 303.317,326.781 303.404 C 326.329 303.491,325.397 303.842,324.712 304.184 L 323.465 304.806 309.099 290.503 C 291.570 273.052,293.100 274.426,290.831 274.095 C 290.298 274.018,289.559 273.792,289.190 273.595 C 288.262 273.098,255.319 273.185,253.800 273.688 M66.917 322.803 C 73.766 325.366,76.865 333.229,73.621 339.818 C 67.821 351.599,50.239 347.526,50.239 334.400 C 50.239 325.613,58.701 319.729,66.917 322.803 M341.766 322.698 C 354.187 327.133,351.494 345.992,338.333 346.736 C 326.706 347.393,320.671 333.516,329.044 325.378 C 332.264 322.249,337.449 321.157,341.766 322.698 " stroke="none" fill="#276ca6" fill-rule="evenodd"></path></g></svg>