<?xml version="1.0" encoding="iso-8859-1"?>
<!-- Generator: Adobe Illustrator 18.0.0, SVG Export Plug-In . SVG Version: 6.00 Build 0)  -->
<!DOCTYPE svg PUBLIC "-//W3C//DTD SVG 1.1//EN" "http://www.w3.org/Graphics/SVG/1.1/DTD/svg11.dtd">
<svg version="1.1" id="Capa_1" xmlns="http://www.w3.org/2000/svg" xmlns:xlink="http://www.w3.org/1999/xlink" x="0px" y="0px"
	 viewBox="0 0 60 60" style="enable-background:new 0 0 60 60;" xml:space="preserve">
<g>
	<path d="M43.188,40.863l-1.444-0.277c-0.677-0.13-1.21-0.573-1.462-1.216c-0.253-0.642-0.163-1.329,0.245-1.885l0.907-1.236
		c0.292-0.398,0.25-0.95-0.1-1.299l-1.959-1.958c-0.339-0.339-0.872-0.389-1.268-0.121l-1.217,0.824
		c-0.57,0.389-1.262,0.452-1.895,0.175c-0.632-0.275-1.055-0.825-1.16-1.508l-0.233-1.515C33.528,30.36,33.108,30,32.615,30h-2.77
		c-0.479,0-0.892,0.341-0.982,0.812l-0.358,1.865c-0.127,0.662-0.558,1.19-1.181,1.448c-0.624,0.26-1.302,0.189-1.86-0.189
		l-1.572-1.064c-0.397-0.268-0.928-0.218-1.268,0.121l-1.959,1.958c-0.35,0.349-0.392,0.9-0.1,1.299l0.907,1.236
		c0.408,0.556,0.498,1.243,0.245,1.885c-0.252,0.643-0.785,1.086-1.462,1.216l-1.444,0.277C18.341,40.954,18,41.366,18,41.846v2.77
		c0,0.493,0.36,0.913,0.848,0.988l1.515,0.233c0.683,0.105,1.232,0.528,1.508,1.16c0.276,0.633,0.212,1.323-0.175,1.895
		l-0.824,1.217c-0.269,0.396-0.218,0.929,0.121,1.268l1.958,1.959c0.348,0.348,0.899,0.391,1.299,0.1l1.236-0.907
		c0.555-0.408,1.245-0.498,1.885-0.245c0.643,0.252,1.086,0.785,1.216,1.462l0.277,1.444C28.954,55.659,29.366,56,29.846,56h2.77
		c0.493,0,0.913-0.36,0.988-0.848l0.164-1.065c0.105-0.688,0.552-1.256,1.193-1.522c0.643-0.266,1.361-0.179,1.921,0.232
		l0.869,0.638c0.399,0.292,0.951,0.249,1.299-0.1l1.958-1.959c0.339-0.339,0.39-0.871,0.121-1.268l-0.824-1.217
		c-0.387-0.571-0.451-1.262-0.175-1.895c0.275-0.632,0.825-1.055,1.508-1.16l1.515-0.233C43.64,45.528,44,45.108,44,44.615v-2.77
		C44,41.366,43.659,40.954,43.188,40.863z M42,43.758l-0.667,0.103c-1.354,0.208-2.489,1.082-3.036,2.337
		c-0.548,1.256-0.416,2.682,0.352,3.815l0.361,0.533l-0.768,0.768l-0.177-0.13c-1.13-0.828-2.574-1.002-3.869-0.467
		c-1.294,0.536-2.192,1.682-2.405,3.065L31.758,54h-1.086l-0.121-0.633c-0.259-1.346-1.175-2.447-2.449-2.947
		c-1.276-0.5-2.696-0.314-3.8,0.494l-0.544,0.399l-0.768-0.768l0.361-0.533c0.768-1.134,0.899-2.56,0.352-3.815
		c-0.547-1.255-1.683-2.129-3.036-2.337L20,43.758v-1.086l0.633-0.121c1.346-0.259,2.447-1.175,2.947-2.449
		c0.5-1.275,0.315-2.695-0.494-3.8l-0.399-0.544l0.768-0.768l0.889,0.602c1.108,0.752,2.511,0.893,3.747,0.381
		c1.237-0.513,2.127-1.604,2.38-2.919L30.672,32h1.086l0.103,0.667c0.208,1.354,1.082,2.489,2.337,3.036
		c1.256,0.548,2.682,0.416,3.815-0.352l0.533-0.361l0.768,0.768l-0.399,0.544c-0.81,1.104-0.994,2.524-0.494,3.8
		c0.5,1.274,1.602,2.19,2.947,2.449L42,42.672V43.758z"/>
	<path d="M31,38c-2.757,0-5,2.243-5,5s2.243,5,5,5s5-2.243,5-5S33.757,38,31,38z M31,46c-1.654,0-3-1.346-3-3s1.346-3,3-3
		s3,1.346,3,3S32.654,46,31,46z"/>
	<path d="M50.976,20.194C50.447,11.194,43.028,4,34.084,4c-5.43,0-10.688,2.663-13.945,7.008c-0.075-0.039-0.154-0.066-0.23-0.102
		c-0.198-0.096-0.399-0.187-0.604-0.269c-0.114-0.045-0.228-0.086-0.343-0.126c-0.203-0.071-0.409-0.134-0.619-0.191
		c-0.115-0.031-0.229-0.063-0.345-0.089c-0.225-0.051-0.455-0.09-0.687-0.125c-0.101-0.015-0.2-0.035-0.302-0.046
		C16.677,10.023,16.341,10,16,10c-4.963,0-9,4.037-9,9c0,0.129,0.008,0.255,0.017,0.381C2.857,21.648,0,26.399,0,31.154
		C0,38.237,5.762,44,12.845,44c0.553,0,1-0.447,1-1s-0.447-1-1-1C6.865,42,2,37.135,2,31.154C2,27,4.705,22.688,8.433,20.901
		L9,20.63V20c0-0.12,0.008-0.242,0.015-0.365l0.011-0.185l-0.013-0.194C9.007,19.171,9,19.086,9,19c0-3.859,3.141-7,7-7
		c0.309,0,0.614,0.027,0.917,0.067c0.078,0.01,0.156,0.023,0.233,0.036c0.267,0.044,0.53,0.102,0.789,0.177
		c0.035,0.01,0.071,0.017,0.106,0.027c0.285,0.087,0.563,0.197,0.835,0.321c0.071,0.032,0.14,0.067,0.21,0.101
		c0.24,0.119,0.475,0.249,0.702,0.396C21.719,14.373,23,16.538,23,19c0,0.553,0.447,1,1,1s1-0.447,1-1
		c0-2.754-1.246-5.219-3.2-6.871C24.667,8.379,29.388,6,34.084,6c7.745,0,14.178,6.135,14.849,13.888
		c-1.021-0.072-2.552-0.109-4.083,0.124c-0.546,0.083-0.921,0.593-0.838,1.139c0.075,0.495,0.501,0.85,0.987,0.85
		c0.05,0,0.101-0.004,0.151-0.012c2.228-0.336,4.548-0.021,4.684-0.002C54.49,22.872,58,27.161,58,31.972
		C58,37.501,53.501,42,47.972,42c-0.553,0-1,0.447-1,1s0.447,1,1,1C54.604,44,60,38.604,60,31.972
		C60,26.483,56.173,21.56,50.976,20.194z"/>
</g>
<g>
</g>
<g>
</g>
<g>
</g>
<g>
</g>
<g>
</g>
<g>
</g>
<g>
</g>
<g>
</g>
<g>
</g>
<g>
</g>
<g>
</g>
<g>
</g>
<g>
</g>
<g>
</g>
<g>
</g>
</svg>
