<svg xmlns="http://www.w3.org/2000/svg" viewBox="0 0 600 150"><defs><style>.cls-1{fill:#276ca6;}.cls-2{fill:#1576ea;}.cls-3{fill:#fff;}.cls-4{fill:#fff;}.cls-5{fill:#f40c0c;}</style></defs><path class="cls-1" d="M66,71.36,1.25,45.55C.54,45.27.1,44,.1,43.23V33.29c0-1.3,1.67-2.1,2.89-1.63L67.33,57.28A1.85,1.85,0,0,1,68.53,59V69.63A1.86,1.86,0,0,1,66,71.36Z" transform="translate(0.04)"/><path d="M28.79,62.79" transform="translate(0.04)"/><path class="cls-1" d="M206.58,118.46a48.35,48.35,0,0,1-10.47-2.41,24.29,24.29,0,0,1-9.08-5.84,25.51,25.51,0,0,1-4.5-7,37.51,37.51,0,0,1-2.35-7.93V51.93a46.72,46.72,0,0,1,3.17-10.79,31.7,31.7,0,0,1,6.48-9.39,24.31,24.31,0,0,1,7.8-4.95,29.22,29.22,0,0,1,9.08-1.91H277.3a38.58,38.58,0,0,1,9.64,2.48,21.68,21.68,0,0,1,12.38,14.47,29.47,29.47,0,0,1,.7,9.33,13.23,13.23,0,0,1-2.16,3.49,10.18,10.18,0,0,1-3.42,2.48l-5,.38L285.29,55q-2.79-3.3-2.6-6.47t-1.46-4.45l-3.81-1.77H206.84a12.72,12.72,0,0,0-3.11,1,9.73,9.73,0,0,0-3,2.09,21.26,21.26,0,0,0-2.28,4.32,17.8,17.8,0,0,0-1.14,4.57v37.7a21,21,0,0,0,.82,3.43,11.37,11.37,0,0,0,1.46,3.05,26.51,26.51,0,0,0,3.05,1.65,12.09,12.09,0,0,0,3.17,1H277.3l3.42-2a10.72,10.72,0,0,0,.77-4.63,9.8,9.8,0,0,1,2.66-6.28A16.18,16.18,0,0,1,288,86.21a9.68,9.68,0,0,1,4.7-.13,19.85,19.85,0,0,1,3.17,1.85A8.15,8.15,0,0,1,298.37,91l.64,5.58a25.91,25.91,0,0,1-2.29,9.4,22,22,0,0,1-6.22,7.87,27,27,0,0,1-6.22,3.11,31.68,31.68,0,0,1-7,1.46Z" transform="translate(0.04)"/><path class="cls-1" d="M326.88,118.46a10.21,10.21,0,0,1-6.22-3.43L319,112V31.49q2.91-6.6,9.14-6.6a9.76,9.76,0,0,1,6.73,3.81l1.26,2.67v69.69h94.2q6.74,1.78,7.49,9.27-1.65,7-8.25,8.13Z" transform="translate(0.04)"/><path class="cls-1" d="M460.37,118.46c-1.1-.34-2.15-.72-3.17-1.14a8,8,0,0,1-2.92-2.29l-1.65-3V31.49q2.42-5.7,7.87-6.6h83.28a40.9,40.9,0,0,1,11.68,3,25.33,25.33,0,0,1,9.78,7.42A29.13,29.13,0,0,1,569.68,43a28.58,28.58,0,0,1,1.78,8.7V90.4a31.44,31.44,0,0,1-2.79,11.81A28.48,28.48,0,0,1,561.3,112a25.05,25.05,0,0,1-7.68,4.57,33.32,33.32,0,0,1-9,1.91ZM550,99a12.28,12.28,0,0,0,2.67-3.55,12.52,12.52,0,0,0,1.27-4.19V51.55a16.17,16.17,0,0,0-.89-3.3,6.82,6.82,0,0,0-2.28-2.92,13.65,13.65,0,0,0-3.31-2,14.28,14.28,0,0,0-3.3-1H469.77v58.77h74.77Z" transform="translate(0.04)"/><path class="cls-2" d="M15,103.31" transform="translate(0.04)"/><path class="cls-1" d="M66,124.84,1.25,99C.54,98.75.1,97.47.1,96.71V86.77c0-1.31,1.67-2.1,2.89-1.64l64.35,25.62a1.87,1.87,0,0,1,1.2,1.74v10.62A1.86,1.86,0,0,1,66,124.84Z" transform="translate(0.04)"/><path class="cls-1" d="M63.64,52.69,1.73,28.11c-2.64-1,.52-2.43,1.07-2.68L60.59,1.07a13.75,13.75,0,0,1,10.61,0l60.37,25.18a1.83,1.83,0,0,1,0,3.39l-59.07,23A12.41,12.41,0,0,1,63.64,52.69Z" transform="translate(0.04)"/><path class="cls-1" d="M135.22,114v-8.44c-.18-1.39-.91-2-2.11-1.58L68.24,129l.16,11a2.32,2.32,0,0,0,3.22,2.17l61-24.61" transform="translate(0.04)"/><path class="cls-1" d="M135.22,112.91l.23-82.42c-.06-1-.43-.83-.89-.74l-11.08,2.13a.76.76,0,0,0-.61.74l-.1,76.45a.76.76,0,0,0,.51.72l10.94,3.83A.75.75,0,0,0,135.22,112.91Z" transform="translate(0.04)"/><path class="cls-1" d="M131.83,26.37a5.48,5.48,0,0,1,3.56,3.69c.69,2.8-10.95,2.27-10.95,2.27" transform="translate(0.04)"/><path class="cls-3" d="M43.2,59.13,3.88,43.75a1.13,1.13,0,0,1-.72-1V37A1.13,1.13,0,0,1,4.68,36l39.2,15.37a2.07,2.07,0,0,1,1,1.44l-.16,5.31A1.12,1.12,0,0,1,43.2,59.13Z" transform="translate(0.04)"/><path class="cls-4" d="M53.79,58.9a1.77,1.77,0,0,1-2,1.93,2.48,2.48,0,0,1-2.37-2.47c0-1.29.76-1.66,2.06-1.66A2.22,2.22,0,0,1,53.79,58.9Z" transform="translate(0.04)"/><path class="cls-3" d="M62.69,62.45a1.78,1.78,0,0,1-2,1.94,2.48,2.48,0,0,1-2.38-2.47c0-1.3.77-1.66,2.06-1.66A2.22,2.22,0,0,1,62.69,62.45Z" transform="translate(0.04)"/><path class="cls-1" d="M119,34.49s3.33-.94,3.82,1.68.51-3.63.51-3.63L119,33.94Z" transform="translate(0.04)"/><path class="cls-1" d="M65.1,142.18a10.52,10.52,0,0,0,5.9.26c3.18-.76-2.6-2.38-2.6-2.38l-2.81,1.64Z" transform="translate(0.04)"/><path class="cls-1" d="M66,106.9,1.25,81.09C.54,80.81.1,79.53.1,78.77V68.83c0-1.3,1.67-2.1,2.89-1.64L67.33,92.82a1.85,1.85,0,0,1,1.2,1.73v10.62A1.86,1.86,0,0,1,66,106.9Z" transform="translate(0.04)"/><path class="cls-1" d="M65.2,142.21,1.12,116.79C.41,116.51,0,115.23,0,114.47v-9.94c0-1.3,1.67-2.1,2.89-1.63L67.2,128.52c4.14,1.49,1.59,1.07,1.59,1.84L69.06,141C69.06,142.31,67.11,142.32,65.2,142.21Z" transform="translate(0.04)"/><path class="cls-1" d="M66,89.08,1.26,63.27C.55,63,.11,61.71.11,61V51c0-1.3,1.67-2.09,2.89-1.63L67.34,75a1.87,1.87,0,0,1,1.2,1.74V87.35A1.87,1.87,0,0,1,66,89.08Z" transform="translate(0.04)"/><path class="cls-5" d="M-31.48,14.69" transform="translate(0.04)"/><path class="cls-5" d="M78.05,58.33" transform="translate(0.04)"/><path class="cls-1" d="M132.54,117.66a4.34,4.34,0,0,0,2.68-3.83c0-2.78-4,.63-4,.63Z" transform="translate(0.04)"/><path class="cls-1" d="M65.76,128A7.78,7.78,0,0,0,71,128c2.74-1.06.7,2.68.7,2.68l-7,.85Z" transform="translate(0.04)"/></svg>