<svg id="svg" version="1.1" xmlns="http://www.w3.org/2000/svg" xmlns:xlink="http://www.w3.org/1999/xlink" width="400" height="125.3012048192771" viewBox="0, 0, 400,125.3012048192771"><g id="svgg"><path id="path0" d="M82.000 62.167 L 82.000 106.000 87.667 106.000 L 93.333 106.000 93.333 62.167 L 93.333 18.333 87.667 18.333 L 82.000 18.333 82.000 62.167 M60.833 41.167 L 60.833 61.000 66.917 61.000 L 73.000 61.000 73.000 41.167 L 73.000 21.333 66.917 21.333 L 60.833 21.333 60.833 41.167 M102.500 61.988 L 102.500 102.678 103.292 102.591 C 106.452 102.243,107.273 102.166,108.750 102.081 C 109.667 102.029,111.054 101.912,111.833 101.823 C 112.612 101.733,114.675 101.550,116.417 101.416 C 122.712 100.931,125.779 100.678,127.333 100.515 C 128.204 100.424,129.629 100.305,130.500 100.251 C 131.371 100.196,132.758 100.079,133.583 99.991 C 135.056 99.833,138.379 99.558,144.500 99.088 C 146.196 98.958,147.852 98.811,148.181 98.762 C 148.510 98.712,150.310 98.560,152.181 98.423 C 154.052 98.287,155.827 98.127,156.125 98.067 L 156.667 97.958 156.667 62.006 L 156.667 26.054 155.292 25.864 C 154.535 25.759,152.679 25.595,151.167 25.500 C 149.654 25.404,147.892 25.256,147.250 25.171 C 146.608 25.086,145.296 24.971,144.333 24.915 C 143.371 24.860,141.833 24.739,140.917 24.648 C 139.233 24.479,136.113 24.222,130.167 23.762 C 128.379 23.623,126.242 23.434,125.417 23.342 C 124.592 23.250,122.717 23.095,121.250 22.999 C 119.783 22.902,118.396 22.786,118.167 22.741 C 117.938 22.696,116.287 22.548,114.500 22.412 C 112.712 22.276,110.425 22.092,109.417 22.004 C 108.408 21.916,106.544 21.761,105.275 21.660 C 104.005 21.559,102.861 21.436,102.733 21.387 C 102.534 21.311,102.500 27.202,102.500 61.988 M72.833 41.167 L 72.833 60.833 66.917 60.833 L 61.000 60.833 61.000 41.167 L 61.000 21.500 66.917 21.500 L 72.833 21.500 72.833 41.167 M42.553 23.458 C 44.277 23.485,47.052 23.485,48.719 23.458 C 50.386 23.431,48.975 23.409,45.583 23.409 C 42.192 23.409,40.828 23.431,42.553 23.458 M18.576 26.043 C 18.530 26.161,18.515 27.906,18.542 29.921 L 18.590 33.583 18.628 29.792 L 18.667 26.000 24.330 26.000 L 29.994 26.000 30.043 29.750 L 30.093 33.500 30.088 29.708 L 30.083 25.917 24.371 25.873 C 19.835 25.838,18.641 25.873,18.576 26.043 M180.200 28.518 C 179.530 28.596,178.646 28.774,178.235 28.913 C 177.824 29.053,177.412 29.167,177.318 29.167 C 177.121 29.167,176.023 29.645,174.541 30.376 C 171.930 31.665,168.991 34.808,167.722 37.667 C 167.539 38.079,167.261 38.706,167.105 39.061 C 166.949 39.415,166.705 40.165,166.564 40.727 C 166.423 41.290,166.226 42.050,166.127 42.417 C 165.618 44.288,165.806 83.413,166.327 84.083 C 166.398 84.175,166.510 84.550,166.575 84.917 C 166.700 85.615,166.810 85.899,167.639 87.667 C 168.504 89.511,168.888 90.040,170.598 91.742 C 171.853 92.991,171.867 93.002,172.958 93.708 C 173.348 93.960,173.948 94.351,174.292 94.577 C 174.635 94.802,175.254 95.104,175.667 95.247 C 176.079 95.391,176.642 95.611,176.917 95.737 C 177.192 95.862,177.679 96.019,178.000 96.085 C 178.321 96.151,178.661 96.267,178.755 96.343 C 179.372 96.836,179.852 96.843,213.042 96.836 L 228.333 96.833 228.333 90.752 L 228.333 84.671 205.026 84.627 C 188.232 84.596,181.652 84.532,181.484 84.398 C 181.355 84.296,181.060 84.168,180.829 84.112 C 180.302 83.987,179.000 82.889,179.000 82.570 C 179.000 82.440,178.932 82.333,178.850 82.333 C 178.296 82.333,178.250 80.805,178.250 62.583 C 178.250 44.362,178.296 42.833,178.850 42.833 C 178.932 42.833,179.000 42.744,179.000 42.634 C 179.000 42.360,179.845 41.500,180.115 41.500 C 180.235 41.500,180.333 41.440,180.333 41.368 C 180.333 40.566,183.575 40.502,224.792 40.500 L 228.333 40.500 228.333 34.417 L 228.333 28.333 204.875 28.355 C 191.973 28.367,180.869 28.440,180.200 28.518 M240.373 60.542 L 240.417 92.750 240.888 93.583 C 241.790 95.176,243.119 96.239,244.714 96.640 C 245.281 96.783,253.039 96.833,274.407 96.833 L 303.333 96.833 303.333 90.750 L 303.333 84.667 278.000 84.667 L 252.667 84.667 252.667 56.500 L 252.667 28.333 246.498 28.333 L 240.329 28.333 240.373 60.542 M317.157 28.507 C 316.191 28.737,314.891 29.466,314.418 30.044 C 313.651 30.982,313.592 31.070,313.167 31.919 L 312.750 32.750 312.750 62.667 L 312.750 92.583 313.147 93.333 C 314.117 95.165,315.559 96.333,317.255 96.661 C 318.581 96.918,356.675 96.799,357.917 96.534 C 360.664 95.948,361.283 95.801,361.583 95.663 C 361.931 95.502,363.083 95.087,363.882 94.833 C 368.458 93.382,374.523 88.270,377.190 83.617 C 378.387 81.528,379.606 78.719,380.024 77.083 C 380.118 76.717,380.263 76.267,380.346 76.083 C 381.226 74.146,381.767 55.186,381.022 52.417 C 380.923 52.050,380.734 51.188,380.601 50.500 C 380.096 47.873,379.465 46.042,378.194 43.507 C 377.423 41.969,376.885 41.105,375.285 38.833 C 374.687 37.985,372.256 35.498,371.250 34.705 C 369.729 33.507,368.893 32.899,368.500 32.705 C 368.271 32.592,367.633 32.236,367.083 31.914 C 366.533 31.592,365.896 31.251,365.667 31.156 C 365.438 31.061,364.966 30.837,364.620 30.658 C 364.273 30.480,363.910 30.333,363.812 30.333 C 363.714 30.333,363.397 30.227,363.109 30.098 C 362.486 29.819,360.492 29.232,359.667 29.085 C 359.346 29.027,358.933 28.915,358.750 28.835 C 357.667 28.361,319.057 28.057,317.157 28.507 M18.575 35.878 C 18.530 35.996,18.515 37.591,18.542 39.421 L 18.591 42.750 18.629 39.292 L 18.667 35.833 24.330 35.833 L 29.993 35.833 30.043 39.208 L 30.093 42.583 30.088 39.167 L 30.083 35.750 24.371 35.706 C 19.825 35.671,18.641 35.706,18.575 35.878 M356.083 40.897 C 356.908 41.052,357.733 41.246,357.917 41.328 C 358.100 41.410,358.550 41.569,358.917 41.681 C 360.693 42.225,363.091 43.792,364.590 45.388 C 366.305 47.216,366.253 47.142,367.201 49.083 C 367.469 49.633,367.750 50.200,367.825 50.342 C 367.900 50.484,368.057 51.046,368.175 51.592 C 368.292 52.137,368.452 52.667,368.529 52.769 C 369.001 53.391,369.137 69.883,368.686 71.750 C 368.598 72.117,368.405 72.904,368.258 73.500 C 367.472 76.680,364.877 80.210,361.959 82.067 C 361.002 82.675,358.734 83.667,358.297 83.667 C 358.170 83.667,357.995 83.735,357.908 83.818 C 357.738 83.980,356.129 84.283,354.250 84.507 C 351.931 84.783,325.048 84.700,324.939 84.416 C 324.653 83.670,324.836 40.849,325.126 40.673 C 325.667 40.346,354.258 40.552,356.083 40.897 M18.575 45.045 C 18.530 45.163,18.513 46.683,18.538 48.422 L 18.583 51.583 24.333 51.583 L 30.083 51.583 30.083 48.250 L 30.083 44.917 24.371 44.873 C 19.819 44.838,18.641 44.873,18.575 45.045 M42.458 44.958 C 44.131 44.985,46.869 44.985,48.542 44.958 C 50.215 44.931,48.846 44.909,45.500 44.909 C 42.154 44.909,40.785 44.931,42.458 44.958 M30.000 48.250 L 30.000 51.500 24.333 51.500 L 18.667 51.500 18.667 48.250 L 18.667 45.000 24.333 45.000 L 30.000 45.000 30.000 48.250 M18.571 57.417 C 18.571 59.433,18.595 60.235,18.625 59.199 C 18.654 58.163,18.654 56.513,18.624 55.532 C 18.595 54.552,18.571 55.400,18.571 57.417 M30.071 57.417 C 30.071 59.433,30.095 60.235,30.125 59.199 C 30.154 58.163,30.154 56.513,30.124 55.532 C 30.095 54.552,30.071 55.400,30.071 57.417 M18.575 63.378 C 18.530 63.496,18.515 65.091,18.542 66.921 L 18.591 70.250 18.629 66.792 L 18.667 63.333 24.330 63.333 L 29.993 63.333 30.043 66.708 L 30.093 70.083 30.088 66.667 L 30.083 63.250 24.371 63.206 C 19.825 63.171,18.641 63.206,18.575 63.378 M42.458 63.291 C 44.131 63.319,46.869 63.319,48.542 63.291 C 50.215 63.264,48.846 63.242,45.500 63.242 C 42.154 63.242,40.785 63.264,42.458 63.291 M60.914 83.000 C 60.914 93.862,60.934 98.306,60.958 92.875 C 60.983 87.444,60.983 78.556,60.958 73.125 C 60.934 67.694,60.914 72.137,60.914 83.000 M72.914 83.000 C 72.914 93.862,72.934 98.306,72.958 92.875 C 72.983 87.444,72.983 78.556,72.958 73.125 C 72.934 67.694,72.914 72.137,72.914 83.000 M18.575 72.544 C 18.530 72.663,18.515 74.257,18.542 76.088 L 18.591 79.417 18.629 75.958 L 18.667 72.500 24.330 72.500 L 29.993 72.500 30.043 75.875 L 30.093 79.250 30.088 75.833 L 30.083 72.417 24.371 72.373 C 19.825 72.338,18.641 72.373,18.575 72.544 M18.575 81.711 C 18.530 81.829,18.515 83.424,18.542 85.255 L 18.591 88.583 18.629 85.125 L 18.667 81.667 24.330 81.667 L 29.993 81.667 30.043 85.042 L 30.093 88.417 30.088 85.000 L 30.083 81.583 24.371 81.539 C 19.825 81.505,18.641 81.540,18.575 81.711 M42.458 81.625 C 44.131 81.652,46.869 81.652,48.542 81.625 C 50.215 81.598,48.846 81.575,45.500 81.575 C 42.154 81.575,40.785 81.598,42.458 81.625 M18.575 90.878 C 18.530 90.997,18.515 92.516,18.542 94.255 L 18.591 97.417 18.629 94.125 L 18.667 90.833 24.330 90.833 L 29.993 90.833 30.043 94.042 L 30.094 97.250 30.089 94.000 L 30.083 90.750 24.371 90.706 C 19.819 90.671,18.641 90.706,18.575 90.878 M42.553 100.458 C 44.277 100.485,47.052 100.485,48.719 100.458 C 50.386 100.431,48.975 100.409,45.583 100.409 C 42.192 100.409,40.828 100.431,42.553 100.458 " stroke="none" fill="#8cccfc" fill-rule="evenodd"></path><path id="path1" d="M61.000 41.167 L 61.000 60.833 66.917 60.833 L 72.833 60.833 72.833 41.167 L 72.833 21.500 66.917 21.500 L 61.000 21.500 61.000 41.167 M39.500 33.085 L 39.500 42.671 45.542 42.627 L 51.583 42.583 51.626 33.042 L 51.669 23.500 45.585 23.500 L 39.500 23.500 39.500 33.085 M18.667 29.750 L 18.667 33.500 24.333 33.500 L 30.000 33.500 30.000 29.750 L 30.000 26.000 24.333 26.000 L 18.667 26.000 18.667 29.750 M18.667 39.250 L 18.667 42.667 24.333 42.667 L 30.000 42.667 30.000 39.250 L 30.000 35.833 24.333 35.833 L 18.667 35.833 18.667 39.250 M18.667 48.250 L 18.667 51.500 24.333 51.500 L 30.000 51.500 30.000 48.250 L 30.000 45.000 24.333 45.000 L 18.667 45.000 18.667 48.250 M39.500 53.002 L 39.500 61.004 45.542 60.960 L 51.583 60.917 51.627 52.958 L 51.670 45.000 45.585 45.000 L 39.500 45.000 39.500 53.002 M18.667 57.417 L 18.667 61.000 24.333 61.000 L 30.000 61.000 30.000 57.417 L 30.000 53.833 24.333 53.833 L 18.667 53.833 18.667 57.417 M18.667 66.750 L 18.667 70.167 24.333 70.167 L 30.000 70.167 30.000 66.750 L 30.000 63.333 24.333 63.333 L 18.667 63.333 18.667 66.750 M39.500 71.335 L 39.500 79.337 45.542 79.294 L 51.583 79.250 51.627 71.292 L 51.670 63.333 45.585 63.333 L 39.500 63.333 39.500 71.335 M61.000 83.000 L 61.000 102.667 66.917 102.667 L 72.833 102.667 72.833 83.000 L 72.833 63.333 66.917 63.333 L 61.000 63.333 61.000 83.000 M18.667 75.917 L 18.667 79.333 24.333 79.333 L 30.000 79.333 30.000 75.917 L 30.000 72.500 24.333 72.500 L 18.667 72.500 18.667 75.917 M18.667 85.083 L 18.667 88.500 24.333 88.500 L 30.000 88.500 30.000 85.083 L 30.000 81.667 24.333 81.667 L 18.667 81.667 18.667 85.083 M39.500 91.000 L 39.500 100.333 45.583 100.333 L 51.667 100.333 51.667 91.000 L 51.667 81.667 45.583 81.667 L 39.500 81.667 39.500 91.000 M18.667 94.167 L 18.667 97.500 24.333 97.500 L 30.000 97.500 30.000 94.167 L 30.000 90.833 24.333 90.833 L 18.667 90.833 18.667 94.167 " stroke="none" fill="#276ca6" fill-rule="evenodd"></path></g></svg>