<svg id="svg" version="1.1" xmlns="http://www.w3.org/2000/svg" xmlns:xlink="http://www.w3.org/1999/xlink" width="400" height="107.03331570597568" viewBox="0, 0, 400,107.03331570597568"><g id="svgg"><path id="path0" d="M79.833 53.500 L 79.833 85.167 83.917 85.167 L 88.000 85.167 88.000 53.500 L 88.000 21.833 83.917 21.833 L 79.833 21.833 79.833 53.500 M181.083 22.006 C 177.392 22.560,174.617 23.883,172.316 26.184 C 171.066 27.434,169.333 29.815,169.333 30.282 C 169.333 30.402,169.272 30.500,169.197 30.500 C 169.122 30.500,168.926 30.931,168.762 31.458 C 168.597 31.985,168.402 32.492,168.329 32.583 C 168.255 32.675,168.020 33.612,167.806 34.667 L 167.417 36.583 167.417 53.667 C 167.417 71.765,167.488 73.430,168.328 74.965 C 168.414 75.122,168.760 75.850,169.097 76.582 C 170.044 78.642,172.031 80.945,173.924 82.179 C 175.629 83.290,175.945 83.475,176.333 83.585 C 176.563 83.650,176.975 83.802,177.250 83.923 C 177.525 84.043,178.425 84.354,179.250 84.613 L 180.750 85.083 202.875 85.129 L 225.000 85.175 225.000 79.507 L 225.000 73.839 203.458 73.795 C 182.603 73.751,181.896 73.740,181.272 73.430 C 180.457 73.025,179.592 72.140,179.336 71.450 C 179.228 71.157,179.070 70.786,178.986 70.627 C 178.641 69.974,178.799 37.007,179.151 36.043 C 179.581 34.868,180.078 34.296,181.167 33.728 L 182.083 33.250 203.542 33.204 L 225.000 33.157 225.000 27.495 L 225.000 21.833 203.458 21.857 C 191.610 21.870,181.542 21.937,181.083 22.006 M236.162 33.375 C 236.149 69.461,236.183 80.644,236.308 81.170 C 236.629 82.518,237.843 83.910,239.333 84.636 L 240.250 85.083 267.208 85.127 L 294.167 85.171 294.167 79.502 L 294.167 73.833 270.833 73.833 L 247.500 73.833 247.500 47.833 L 247.500 21.833 241.833 21.833 L 236.167 21.833 236.162 33.375 M307.250 21.943 C 305.413 22.374,303.592 24.032,303.080 25.739 C 302.751 26.834,302.704 79.838,303.030 81.135 C 303.417 82.669,304.520 83.933,306.166 84.723 L 306.917 85.083 325.167 85.082 L 343.417 85.080 345.370 84.624 C 347.508 84.125,349.538 83.489,350.594 82.988 C 350.967 82.811,351.325 82.667,351.389 82.667 C 352.871 82.667,358.899 77.724,360.960 74.819 C 361.442 74.139,361.909 73.495,361.997 73.386 C 362.967 72.201,364.816 67.616,365.413 64.917 C 366.528 59.876,366.417 45.521,365.231 41.333 C 364.785 39.760,363.960 37.450,363.555 36.642 C 363.341 36.217,363.167 35.814,363.167 35.748 C 363.167 35.683,362.815 35.056,362.385 34.356 C 358.552 28.117,353.207 24.261,346.167 22.655 C 345.387 22.477,344.450 22.244,344.083 22.137 C 343.424 21.944,308.039 21.757,307.250 21.943 M64.500 38.250 L 64.500 52.667 68.875 52.628 L 73.250 52.589 68.958 52.542 L 64.667 52.494 64.667 38.250 L 64.667 24.006 68.958 23.958 L 73.250 23.911 68.875 23.872 L 64.500 23.833 64.500 38.250 M94.333 53.299 L 94.333 82.635 95.708 82.564 C 97.659 82.463,98.612 82.381,101.167 82.093 C 102.404 81.954,104.054 81.837,104.833 81.833 C 105.612 81.830,106.737 81.753,107.333 81.662 C 109.277 81.367,113.386 81.001,114.761 81.000 C 115.500 81.000,116.513 80.927,117.011 80.838 C 118.280 80.611,121.142 80.337,124.083 80.162 C 125.458 80.080,127.596 79.898,128.833 79.758 C 130.071 79.618,131.665 79.503,132.375 79.502 L 133.667 79.500 133.667 53.417 C 133.667 28.688,133.652 27.333,133.375 27.330 C 133.215 27.328,131.958 27.180,130.583 27.000 C 129.208 26.820,127.462 26.672,126.704 26.670 C 125.349 26.667,120.563 26.225,120.331 26.082 C 120.266 26.041,118.688 25.929,116.824 25.833 C 114.961 25.736,112.644 25.545,111.676 25.407 C 110.709 25.270,108.536 25.084,106.849 24.995 C 105.162 24.905,103.324 24.755,102.766 24.661 C 102.207 24.566,100.405 24.419,98.760 24.333 C 97.116 24.248,95.447 24.129,95.052 24.070 L 94.333 23.962 94.333 53.299 M49.076 32.333 C 49.076 36.229,49.098 37.823,49.125 35.875 C 49.151 33.927,49.151 30.740,49.125 28.792 C 49.098 26.844,49.076 28.438,49.076 32.333 M57.743 32.333 C 57.743 36.229,57.765 37.823,57.791 35.875 C 57.818 33.927,57.818 30.740,57.791 28.792 C 57.765 26.844,57.743 28.438,57.743 32.333 M36.051 27.291 C 37.225 27.320,39.100 27.320,40.218 27.291 C 41.336 27.262,40.375 27.239,38.083 27.239 C 35.792 27.239,34.877 27.263,36.051 27.291 M342.750 33.467 C 343.117 33.563,343.867 33.754,344.417 33.892 C 349.438 35.153,353.354 39.534,354.345 45.000 C 355.146 49.417,354.753 61.520,353.713 64.500 C 352.043 69.283,348.816 71.985,342.917 73.541 C 341.838 73.825,314.320 73.915,314.146 73.635 C 313.916 73.263,313.967 33.657,314.199 33.378 C 314.445 33.082,341.601 33.166,342.750 33.467 M35.865 34.291 C 37.029 34.320,38.979 34.320,40.198 34.291 C 41.418 34.263,40.467 34.239,38.083 34.239 C 35.700 34.239,34.702 34.263,35.865 34.291 M49.075 46.833 C 49.075 50.087,49.097 51.419,49.125 49.792 C 49.152 48.165,49.152 45.502,49.125 43.875 C 49.097 42.248,49.075 43.579,49.075 46.833 M57.742 46.833 C 57.742 50.087,57.764 51.419,57.791 49.792 C 57.819 48.165,57.819 45.502,57.791 43.875 C 57.764 42.248,57.742 43.579,57.742 46.833 M49.080 59.917 L 49.083 65.750 53.417 65.750 L 57.750 65.750 57.753 59.958 L 57.757 54.167 57.709 59.917 L 57.662 65.667 53.417 65.667 L 49.171 65.667 49.124 59.875 L 49.077 54.083 49.080 59.917 M64.580 68.417 C 64.580 76.300,64.600 79.501,64.625 75.529 C 64.650 71.558,64.650 65.108,64.625 61.196 C 64.600 57.284,64.580 60.533,64.580 68.417 M36.051 59.291 C 37.225 59.320,39.100 59.320,40.218 59.291 C 41.336 59.262,40.375 59.239,38.083 59.239 C 35.792 59.239,34.877 59.263,36.051 59.291 M49.076 74.250 C 49.076 78.008,49.098 79.570,49.125 77.719 C 49.152 75.869,49.152 72.794,49.125 70.886 C 49.098 68.978,49.076 70.492,49.076 74.250 M57.743 74.250 C 57.743 78.008,57.765 79.570,57.791 77.719 C 57.818 75.869,57.818 72.794,57.792 70.886 C 57.765 68.978,57.743 70.492,57.743 74.250 M36.051 72.625 C 37.225 72.653,39.100 72.653,40.218 72.624 C 41.336 72.596,40.375 72.572,38.083 72.572 C 35.792 72.572,34.877 72.596,36.051 72.625 M36.051 78.958 C 37.225 78.987,39.100 78.987,40.218 78.958 C 41.336 78.929,40.375 78.905,38.083 78.906 C 35.792 78.906,34.877 78.929,36.051 78.958 " stroke="none" fill="#8cccfc" fill-rule="evenodd"></path><path id="path1" d="M64.667 38.250 L 64.667 52.500 68.917 52.500 L 73.167 52.500 73.167 38.250 L 73.167 24.000 68.917 24.000 L 64.667 24.000 64.667 38.250 M49.167 32.333 L 49.167 39.333 53.417 39.333 L 57.667 39.333 57.667 32.333 L 57.667 25.333 53.417 25.333 L 49.167 25.333 49.167 32.333 M33.833 30.083 L 33.833 32.833 38.083 32.833 L 42.333 32.833 42.333 30.083 L 42.333 27.333 38.083 27.333 L 33.833 27.333 33.833 30.083 M33.833 36.833 L 33.833 39.333 38.083 39.333 L 42.333 39.333 42.333 36.833 L 42.333 34.333 38.083 34.333 L 33.833 34.333 33.833 36.833 M33.833 43.333 L 33.833 45.667 38.083 45.667 L 42.333 45.667 42.333 43.333 L 42.333 41.000 38.083 41.000 L 33.833 41.000 33.833 43.333 M49.167 46.833 L 49.167 52.667 53.417 52.667 L 57.667 52.667 57.667 46.833 L 57.667 41.000 53.417 41.000 L 49.167 41.000 49.167 46.833 M33.833 50.000 L 33.833 52.667 38.083 52.667 L 42.333 52.667 42.333 50.000 L 42.333 47.333 38.083 47.333 L 33.833 47.333 33.833 50.000 M33.833 56.667 L 33.833 59.167 38.083 59.167 L 42.333 59.167 42.333 56.667 L 42.333 54.167 38.083 54.167 L 33.833 54.167 33.833 56.667 M49.167 59.917 L 49.167 65.667 53.417 65.667 L 57.667 65.667 57.667 59.917 L 57.667 54.167 53.417 54.167 L 49.167 54.167 49.167 59.917 M64.667 68.417 L 64.667 82.667 68.917 82.667 L 73.167 82.667 73.167 68.417 L 73.167 54.167 68.917 54.167 L 64.667 54.167 64.667 68.417 M33.907 61.047 C 33.861 61.168,33.844 62.276,33.870 63.508 L 33.917 65.750 38.083 65.750 L 42.250 65.750 42.250 63.333 L 42.250 60.917 38.121 60.872 C 34.826 60.837,33.975 60.872,33.907 61.047 M33.833 70.000 L 33.833 72.500 38.083 72.500 L 42.333 72.500 42.333 70.000 L 42.333 67.500 38.083 67.500 L 33.833 67.500 33.833 70.000 M49.167 74.250 L 49.167 81.000 53.417 81.000 L 57.667 81.000 57.667 74.250 L 57.667 67.500 53.417 67.500 L 49.167 67.500 49.167 74.250 M33.833 76.417 L 33.833 78.833 38.083 78.833 L 42.333 78.833 42.333 76.417 L 42.333 74.000 38.083 74.000 L 33.833 74.000 33.833 76.417 " stroke="none" fill="#276ba5" fill-rule="evenodd"></path></g></svg>