<svg xmlns="http://www.w3.org/2000/svg" viewBox="0 0 391.28 250.73"><defs><style>.cls-1{fill:#276ca6;}.cls-2{fill:#1576ea;}.cls-3{fill:#fff;}.cls-4{fill:#fff;}.cls-5{fill:#f40c0c;}</style></defs><path class="cls-1" d="M193.39,71.36,128.65,45.55c-.71-.28-1.14-1.56-1.14-2.32l0-9.94c0-1.3,1.67-2.1,2.89-1.63l64.35,25.62a1.84,1.84,0,0,1,1.2,1.74V69.63A1.85,1.85,0,0,1,193.39,71.36Z" transform="translate(-0.09)"/><path d="M28.79,62.79" transform="translate(-0.09)"/><path class="cls-1" d="M26.49,250.73A47.79,47.79,0,0,1,16,248.31a24.09,24.09,0,0,1-9.08-5.84,25.88,25.88,0,0,1-4.51-7,37.41,37.41,0,0,1-2.34-7.94V184.2a46.72,46.72,0,0,1,3.17-10.79A31.85,31.85,0,0,1,9.73,164a24.67,24.67,0,0,1,7.81-5,29.5,29.5,0,0,1,9.08-1.9H97.21a38.16,38.16,0,0,1,9.64,2.48,20.89,20.89,0,0,1,8.26,6.28,21.13,21.13,0,0,1,4.12,8.19,29.47,29.47,0,0,1,.7,9.33,13.4,13.4,0,0,1-2.16,3.49,10.22,10.22,0,0,1-3.43,2.48l-5,.38-4.19-2.54q-2.79-3.3-2.6-6.48t-1.46-4.44l-3.81-1.78H26.75a12.75,12.75,0,0,0-3.11,1,9.73,9.73,0,0,0-3,2.09,21,21,0,0,0-2.28,4.32,17.72,17.72,0,0,0-1.15,4.57v37.7a22.42,22.42,0,0,0,.83,3.43,11.37,11.37,0,0,0,1.46,3,26.51,26.51,0,0,0,3,1.65,12.75,12.75,0,0,0,3.17,1H97.21l3.42-2a10.75,10.75,0,0,0,.76-4.63,9.84,9.84,0,0,1,2.67-6.29,16.13,16.13,0,0,1,3.81-1.9,9.56,9.56,0,0,1,4.7-.13,20.23,20.23,0,0,1,3.17,1.84,8.22,8.22,0,0,1,2.54,3.11l.63,5.59a25.6,25.6,0,0,1-2.28,9.39,22,22,0,0,1-6.22,7.88,27.4,27.4,0,0,1-6.22,3.11,32.39,32.39,0,0,1-7,1.46Z" transform="translate(-0.09)"/><path class="cls-1" d="M146.79,250.73a10.31,10.31,0,0,1-6.23-3.43l-1.65-3.05V163.76q2.93-6.6,9.15-6.6a9.65,9.65,0,0,1,6.72,3.81l1.27,2.67v69.69h94.2q6.74,1.78,7.49,9.27c-1.1,4.66-3.85,7.36-8.25,8.13Z" transform="translate(-0.09)"/><path class="cls-1" d="M280.28,250.73c-1.1-.34-2.16-.73-3.17-1.15a7.81,7.81,0,0,1-2.92-2.28l-1.65-3.05V163.76q2.41-5.72,7.87-6.6h83.28a41,41,0,0,1,11.68,3,25.53,25.53,0,0,1,9.78,7.43,29.41,29.41,0,0,1,4.44,7.68,28.58,28.58,0,0,1,1.78,8.7v38.72a31.27,31.27,0,0,1-2.8,11.81,28.32,28.32,0,0,1-7.36,9.77,25.05,25.05,0,0,1-7.68,4.57,33.4,33.4,0,0,1-8.95,1.91Zm89.63-19.43a12.28,12.28,0,0,0,2.67-3.55,12.83,12.83,0,0,0,1.27-4.19V183.82a16.17,16.17,0,0,0-.89-3.3,6.85,6.85,0,0,0-2.29-2.92,13.11,13.11,0,0,0-3.3-2,14.34,14.34,0,0,0-3.3-1H289.68v58.78h74.77Z" transform="translate(-0.09)"/><path class="cls-2" d="M15,103.31" transform="translate(-0.09)"/><path class="cls-1" d="M193.39,124.84,128.65,99c-.7-.28-1.14-1.56-1.14-2.32l0-9.94c0-1.31,1.68-2.1,2.89-1.64l64.36,25.62a1.86,1.86,0,0,1,1.19,1.74v10.62A1.86,1.86,0,0,1,193.39,124.84Z" transform="translate(-0.09)"/><path class="cls-1" d="M191.05,52.69,129.14,28.11c-2.65-1,.51-2.43,1.07-2.68L188,1.07a13.75,13.75,0,0,1,10.61,0L259,26.24a1.83,1.83,0,0,1,0,3.39l-59.06,23A12.41,12.41,0,0,1,191.05,52.69Z" transform="translate(-0.09)"/><path class="cls-1" d="M262.62,114v-8.44c-.18-1.39-.91-2-2.1-1.58L195.65,129l.15,11a2.32,2.32,0,0,0,3.22,2.17l61-24.61" transform="translate(-0.09)"/><path class="cls-1" d="M262.62,112.91l.24-82.42c-.06-1-.43-.83-.9-.74l-11.07,2.13a.75.75,0,0,0-.61.74l-.1,76.45a.77.77,0,0,0,.5.72l10.94,3.83A.75.75,0,0,0,262.62,112.91Z" transform="translate(-0.09)"/><path class="cls-1" d="M259.24,26.37a5.45,5.45,0,0,1,3.55,3.69c.7,2.8-11,2.27-11,2.27" transform="translate(-0.09)"/><path class="cls-3" d="M170.6,59.13,131.28,43.75a1.12,1.12,0,0,1-.71-1V37A1.13,1.13,0,0,1,132.09,36l39.19,15.37a2.07,2.07,0,0,1,1,1.44l-.15,5.31A1.13,1.13,0,0,1,170.6,59.13Z" transform="translate(-0.09)"/><path class="cls-4" d="M181.2,58.9a1.78,1.78,0,0,1-2,1.93,2.48,2.48,0,0,1-2.38-2.47c0-1.29.77-1.66,2.06-1.66A2.22,2.22,0,0,1,181.2,58.9Z" transform="translate(-0.09)"/><path class="cls-3" d="M190.09,62.45a1.77,1.77,0,0,1-2,1.94,2.48,2.48,0,0,1-2.37-2.47c0-1.3.76-1.66,2.06-1.66A2.21,2.21,0,0,1,190.09,62.45Z" transform="translate(-0.09)"/><path class="cls-1" d="M246.44,34.49s3.33-.94,3.81,1.68.52-3.63.52-3.63l-4.33,1.4Z" transform="translate(-0.09)"/><path class="cls-1" d="M192.51,142.18a10.49,10.49,0,0,0,5.89.26c3.19-.76-2.6-2.38-2.6-2.38L193,141.7Z" transform="translate(-0.09)"/><path class="cls-1" d="M193.39,106.9,128.65,81.09c-.7-.28-1.14-1.56-1.14-2.32l0-9.94c0-1.3,1.68-2.1,2.89-1.64l64.36,25.63a1.84,1.84,0,0,1,1.19,1.73v10.62A1.86,1.86,0,0,1,193.39,106.9Z" transform="translate(-0.09)"/><path class="cls-1" d="M192.6,142.21l-64.08-25.42c-.7-.28-1.14-1.56-1.14-2.32l0-9.94c0-1.3,1.68-2.1,2.89-1.63l64.36,25.62c4.13,1.49,1.58,1.07,1.58,1.84l.28,10.64C196.47,142.31,194.52,142.32,192.6,142.21Z" transform="translate(-0.09)"/><path class="cls-1" d="M193.4,89.08,128.66,63.27c-.71-.28-1.14-1.56-1.14-2.32l0-10c0-1.3,1.67-2.09,2.89-1.63L194.74,75a1.86,1.86,0,0,1,1.2,1.74V87.35A1.86,1.86,0,0,1,193.4,89.08Z" transform="translate(-0.09)"/><path class="cls-5" d="M95.92,14.69" transform="translate(-0.09)"/><path class="cls-5" d="M205.45,58.33" transform="translate(-0.09)"/><path class="cls-1" d="M260,117.66a4.34,4.34,0,0,0,2.67-3.83c0-2.78-4,.63-4,.63Z" transform="translate(-0.09)"/><path class="cls-1" d="M193.17,128a7.78,7.78,0,0,0,5.28,0c2.73-1.06.69,2.68.69,2.68l-7,.85Z" transform="translate(-0.09)"/></svg>