<?xml version="1.0" encoding="iso-8859-1"?>
<!-- Generator: Adobe Illustrator 16.0.0, SVG Export Plug-In . SVG Version: 6.00 Build 0)  -->
<!DOCTYPE svg PUBLIC "-//W3C//DTD SVG 1.1//EN" "http://www.w3.org/Graphics/SVG/1.1/DTD/svg11.dtd">
<svg version="1.1" id="Capa_1" xmlns="http://www.w3.org/2000/svg" xmlns:xlink="http://www.w3.org/1999/xlink" x="0px" y="0px"
	 width="406.639px" height="406.638px" viewBox="0 0 406.639 406.638" style="enable-background:new 0 0 406.639 406.638;"
	 xml:space="preserve">
<g>
	<g>
		<path d="M282.443,357.792h-43.217c-1.561,0-2.836-1.275-2.836-2.834v-9.52c0-1.559-1.275-2.834-2.835-2.834h-60.472
			c-1.559,0-2.834,1.275-2.834,2.834v9.52c0,1.559-1.275,2.834-2.834,2.834h-43.22c-1.559,0-2.834,1.274-2.834,2.834v12.169
			c0,1.559,1.275,2.834,2.834,2.834h158.248c1.561,0,2.836-1.275,2.836-2.834v-12.169
			C285.277,359.068,284.002,357.792,282.443,357.792z"/>
		<path d="M254.658,121.779c-7.557,0-14.381,2.301-21.256,5.21c-0.256,0.108-0.891,0.156-1.348-0.47
			c-10.396-15.035-27.75-24.367-46.333-24.367c-27.551,0-50.002,20.622-54.803,46.806c-0.141,0.767,0,1.969-1.748,2.083
			c-19.511,3.78-33.449,20.513-33.449,41.113c0,19.392,13.043,36.197,31.77,41.018c2.627,0.892,5.34,1.344,8.072,1.344h118.583
			c1.258,0,2.534-0.104,3.885-0.319c29.699-1.759,52.887-26.324,52.887-56.159C310.916,147.017,285.678,121.779,254.658,121.779z
			 M256.643,217.001l-0.549,0.027l-0.543,0.098c-0.547,0.098-1.006,0.146-1.406,0.146H135.564c-0.891,0-1.789-0.161-2.676-0.479
			l-0.852-0.259c-11.229-2.771-19.07-12.799-19.07-24.38c0-13.853,11.345-26.584,25.119-25.122c2.144,0.228,6.084,0.127,7.608-1.396
			s1.239-5.082,1.013-7.226c-2.27-21.392,17.502-39.014,39.016-39.014c15,0,30.388,8.142,35.275,22.34
			c0.802,2.328,2.327,6.227,4.696,6.899c2.367,0.672,5.877-1.795,7.783-3.354c5.826-4.767,13.643-6.258,21.182-6.258
			c21.512,0,39.018,17.502,39.018,39.014C293.674,198.849,277.408,215.964,256.643,217.001z"/>
		<path d="M383.855,31.009H22.783C10.22,31.009,0,41.23,0,53.793v250.921c0,12.562,10.221,22.783,22.783,22.783h361.073
			c12.562,0,22.783-10.221,22.783-22.783V53.793C406.639,41.23,396.418,31.009,383.855,31.009z M203.319,307.826
			c-5.668,0-10.264-4.597-10.264-10.267s4.596-10.266,10.264-10.266c5.669,0,10.267,4.596,10.267,10.266
			S208.988,307.826,203.319,307.826z M389.396,276.244H17.242V53.793c0-3.003,2.537-5.54,5.541-5.54h361.073
			c3.002,0,5.541,2.537,5.541,5.54V276.244L389.396,276.244z"/>
	</g>
</g>
<g>
</g>
<g>
</g>
<g>
</g>
<g>
</g>
<g>
</g>
<g>
</g>
<g>
</g>
<g>
</g>
<g>
</g>
<g>
</g>
<g>
</g>
<g>
</g>
<g>
</g>
<g>
</g>
<g>
</g>
</svg>
