<svg id="svg" xmlns="http://www.w3.org/2000/svg" xmlns:xlink="http://www.w3.org/1999/xlink" width="400" height="388.5714285714286" viewBox="0, 0, 400,388.5714285714286" version="1.1"><g id="svgg"><path id="path0" d="M194.799 19.933 C 138.676 33.140,137.145 34.197,137.138 59.729 L 137.133 78.571 82.316 90.978 C 36.596 101.326,26.166 104.643,19.464 110.969 L 11.429 118.553 11.429 234.641 C 11.429 368.890,7.547 355.055,47.498 363.216 C 62.835 366.350,76.433 369.561,77.715 370.354 C 78.997 371.146,91.928 372.858,106.451 374.159 L 132.857 376.524 254.286 349.192 C 321.071 334.160,377.964 319.957,380.714 317.630 C 385.325 313.730,385.714 304.354,385.714 197.271 C 385.714 74.715,385.668 74.286,372.591 74.286 C 369.145 74.286,365.627 72.465,364.773 70.240 C 362.813 65.133,333.991 58.983,323.162 61.362 C 317.425 62.622,314.540 61.927,313.423 59.015 C 312.453 56.488,303.969 53.472,291.632 51.267 L 271.429 47.656 271.429 35.642 C 271.429 5.983,262.159 4.083,194.799 19.933 M262.266 45.807 C 262.868 62.837,262.063 70.171,259.409 71.854 C 250.357 77.597,248.571 74.466,248.571 52.857 C 248.571 37.589,247.545 31.445,245.000 31.485 C 243.036 31.516,222.786 35.785,200.000 40.972 L 158.571 50.403 157.742 73.773 C 156.936 96.469,156.709 97.143,149.884 97.143 C 142.983 97.143,142.857 96.717,142.857 73.403 C 142.857 39.849,141.767 40.730,200.447 26.853 C 262.060 12.282,261.071 11.979,262.266 45.807 M242.851 47.857 C 242.846 55.579,242.292 55.826,210.708 62.177 C 193.033 65.732,175.679 69.418,172.143 70.368 C 166.683 71.835,165.714 70.977,165.714 64.673 C 165.714 59.359,167.540 56.794,172.143 55.639 C 195.108 49.880,236.298 40.429,239.286 40.233 C 241.335 40.100,242.855 43.349,242.851 47.857 M295.714 60.000 C 303.413 61.959,303.559 62.186,297.143 62.234 C 293.214 62.264,286.786 61.258,282.857 60.000 C 273.254 56.925,283.628 56.925,295.714 60.000 M237.143 71.236 C 237.143 77.377,237.260 77.329,201.917 85.556 C 169.885 93.013,167.949 92.986,169.087 85.102 C 169.886 79.564,173.560 77.994,198.571 72.505 C 235.020 64.506,237.143 64.436,237.143 71.236 M348.571 71.429 C 352.500 72.687,354.701 73.844,353.462 74.001 C 346.601 74.868,134.191 123.569,126.369 126.068 C 121.230 127.710,111.785 128.168,105.381 127.087 C 87.150 124.006,96.432 119.318,120.050 119.677 C 136.075 119.921,140.286 119.152,139.149 116.189 C 137.426 111.699,293.281 74.240,313.571 74.269 C 320.250 74.278,325.714 73.000,325.714 71.429 C 325.714 68.113,338.218 68.113,348.571 71.429 M376.461 197.857 L 375.714 312.857 344.286 320.434 C 243.001 344.852,130.718 368.991,128.611 366.801 C 126.008 364.094,123.272 141.559,125.810 138.978 C 127.843 136.910,362.478 83.362,370.747 83.079 L 377.208 82.857 376.461 197.857 M131.429 94.356 C 131.429 102.572,119.006 106.542,98.571 104.857 C 78.041 103.165,67.102 105.866,75.486 110.558 C 84.631 115.676,67.199 117.878,48.963 113.908 C 40.105 111.979,34.786 109.938,37.143 109.371 C 128.019 87.510,131.429 86.967,131.429 94.356 M45.000 125.750 L 60.000 129.141 60.000 243.142 C 60.000 371.901,62.724 359.548,35.714 353.278 L 21.429 349.961 20.682 234.778 C 19.976 125.974,20.214 119.671,24.967 120.976 C 27.735 121.736,36.750 123.884,45.000 125.750 M97.143 137.239 L 112.857 140.600 113.949 248.290 C 115.303 381.916,118.149 371.695,82.143 362.512 L 71.429 359.780 71.429 245.412 C 71.429 137.854,71.726 131.128,76.429 132.461 C 79.179 133.241,88.500 135.391,97.143 137.239 M248.706 140.871 C 243.280 142.601,234.128 148.730,228.367 154.490 C 221.077 161.780,213.421 166.037,203.182 168.494 C 172.960 175.744,167.875 193.949,197.032 190.511 C 214.207 188.486,203.195 192.315,173.520 198.688 C 149.192 203.912,137.971 210.591,140.862 218.126 C 143.147 224.079,151.892 224.120,177.495 218.297 C 188.523 215.788,198.312 214.503,199.249 215.439 C 200.186 216.376,198.366 217.143,195.205 217.143 C 187.822 217.143,178.804 227.047,180.992 232.751 C 182.956 237.869,193.923 238.402,209.314 234.128 C 217.936 231.733,221.305 232.018,226.378 235.572 C 241.006 245.818,273.218 238.884,286.982 222.527 C 291.779 216.826,298.323 213.359,308.344 211.210 C 334.120 205.682,344.271 188.937,322.233 188.301 C 315.726 188.113,320.553 186.069,338.006 181.621 C 364.212 174.944,373.411 169.286,370.480 161.650 C 368.175 155.643,357.967 155.958,328.866 162.934 C 315.672 166.097,304.372 168.182,303.757 167.567 C 303.142 166.951,308.294 165.024,315.206 163.283 C 329.084 159.789,335.805 153.796,333.266 147.179 C 331.339 142.156,317.834 141.506,302.706 145.709 C 294.409 148.014,290.513 147.489,281.387 142.836 C 269.051 136.547,263.346 136.204,248.706 140.871 M275.616 149.775 C 311.867 164.922,292.274 227.327,250.171 230.819 C 199.592 235.013,212.693 152.659,263.663 146.006 C 264.892 145.846,270.271 147.542,275.616 149.775 M324.334 151.351 C 321.794 155.460,300.426 160.602,296.363 158.082 C 294.138 156.702,297.032 154.649,304.286 152.460 C 318.530 148.161,326.580 147.716,324.334 151.351 M245.261 161.497 C 225.616 172.168,219.707 200.146,234.066 214.505 C 253.796 234.235,285.714 214.684,285.714 182.869 C 285.714 161.224,265.463 150.525,245.261 161.497 M363.743 165.971 C 361.326 168.388,307.512 182.857,300.939 182.857 C 290.523 182.857,307.997 174.591,328.753 169.701 C 360.219 162.287,368.288 161.427,363.743 165.971 M271.918 170.443 C 282.223 179.769,275.487 204.503,260.822 211.185 C 251.068 215.629,246.482 215.054,240.000 208.571 C 222.202 190.774,253.315 153.607,271.918 170.443 M215.418 175.456 C 214.568 177.672,210.430 180.304,206.222 181.306 C 202.014 182.309,196.169 183.845,193.233 184.721 C 189.619 185.800,188.303 185.092,189.157 182.528 C 189.851 180.446,196.111 177.223,203.067 175.366 C 210.023 173.509,215.995 171.863,216.339 171.709 C 216.682 171.555,216.268 173.241,215.418 175.456 M246.212 178.041 C 230.155 195.133,248.164 218.595,265.176 202.746 C 272.103 196.292,273.697 180.554,268.000 174.857 C 262.582 169.439,252.975 170.843,246.212 178.041 M262.698 184.095 C 266.564 188.752,256.393 201.639,251.324 198.507 C 247.497 196.141,247.882 187.547,252.000 183.429 C 256.454 178.974,258.558 179.105,262.698 184.095 M325.714 197.009 C 325.714 199.602,308.271 205.665,300.714 205.698 C 293.893 205.729,297.188 200.099,305.000 198.376 C 309.321 197.423,314.143 196.214,315.714 195.690 C 321.432 193.783,325.714 194.347,325.714 197.009 M210.746 200.618 C 209.488 204.393,152.077 218.744,149.309 215.976 C 146.148 212.815,151.120 210.765,177.716 204.263 C 209.719 196.440,212.232 196.163,210.746 200.618 M217.143 222.518 C 217.143 224.554,196.328 231.429,190.163 231.429 C 184.558 231.429,190.180 225.413,197.857 223.197 C 210.095 219.663,217.143 219.415,217.143 222.518 M361.608 254.155 C 358.563 255.260,354.483 260.563,352.539 265.939 L 349.006 275.714 348.789 266.219 C 348.618 258.776,347.491 256.931,343.571 257.681 C 335.276 259.268,334.481 314.286,342.754 314.286 C 347.650 314.286,348.615 312.362,348.849 302.143 L 349.127 290.000 353.575 300.851 C 356.559 308.133,359.364 311.187,362.102 310.137 C 364.346 309.276,367.317 308.571,368.704 308.571 C 370.091 308.571,368.584 302.464,365.355 295.000 C 359.683 281.886,359.650 280.966,364.365 267.718 C 369.798 252.455,369.557 251.270,361.608 254.155 M314.614 268.683 C 294.495 288.801,305.206 325.987,328.949 318.452 C 337.218 315.827,335.827 305.714,327.197 305.714 C 313.832 305.714,313.852 279.822,327.222 273.730 C 335.698 269.868,336.826 260.000,328.791 260.000 C 325.769 260.000,319.390 263.907,314.614 268.683 M283.571 270.588 C 277.413 271.774,277.143 273.034,277.143 300.532 C 277.143 328.907,277.217 329.218,283.571 327.515 C 287.107 326.568,292.250 325.775,295.000 325.753 C 298.453 325.726,300.000 323.445,300.000 318.379 C 300.000 312.344,298.987 311.365,294.286 312.857 C 290.269 314.132,288.571 313.371,288.571 310.293 C 288.571 307.885,291.143 304.539,294.286 302.857 C 297.429 301.175,300.000 297.916,300.000 295.614 C 300.000 293.312,297.429 291.429,294.286 291.429 C 290.962 291.429,288.571 289.524,288.571 286.875 C 288.571 284.371,291.143 281.650,294.286 280.828 C 301.444 278.956,302.079 268.410,295.000 268.961 C 292.250 269.175,287.107 269.907,283.571 270.588 M243.065 284.671 C 235.072 294.832,234.642 322.565,242.368 329.557 C 256.298 342.164,274.286 327.651,274.286 303.805 C 274.286 297.320,266.217 296.501,256.429 301.992 C 252.931 303.954,253.992 313.702,257.857 315.119 C 260.687 316.157,260.662 317.239,257.738 320.333 C 249.400 329.155,244.770 303.218,252.803 292.689 C 255.998 288.502,257.614 288.018,259.400 290.714 C 262.921 296.029,272.940 288.059,270.554 281.842 C 267.516 273.924,250.109 275.716,243.065 284.671 " stroke="none" fill="#000000" fill-rule="evenodd"></path></g></svg>