<svg id="svg" xmlns="http://www.w3.org/2000/svg" xmlns:xlink="http://www.w3.org/1999/xlink" width="400" height="400" viewBox="0, 0, 400,400" version="1.1"><g id="svgg"><path id="path0" d="M220.395 95.330 C 220.288 95.433,219.488 95.610,218.619 95.725 C 217.749 95.840,216.849 96.174,216.619 96.467 C 216.364 96.791,215.179 97.041,213.600 97.103 C 212.170 97.160,210.940 97.386,210.866 97.606 C 210.792 97.825,210.567 97.903,210.366 97.779 C 210.165 97.655,210.000 97.721,210.000 97.927 C 210.000 98.133,208.965 98.417,207.700 98.558 C 204.276 98.941,203.961 99.015,203.656 99.510 C 203.501 99.760,202.121 100.042,200.588 100.138 C 197.227 100.349,196.421 100.519,196.064 101.097 C 195.914 101.339,194.551 101.615,193.034 101.709 C 191.123 101.828,190.134 102.076,189.810 102.519 C 189.474 102.978,188.481 103.203,186.268 103.320 C 184.175 103.431,182.962 103.691,182.474 104.133 C 182.000 104.562,180.831 104.828,179.028 104.916 C 177.040 105.013,176.166 105.232,175.806 105.724 C 175.435 106.232,174.699 106.400,172.856 106.400 C 170.933 106.400,170.226 106.574,169.600 107.200 C 169.160 107.640,168.440 108.000,168.000 108.000 C 167.560 108.000,167.200 108.191,167.200 108.424 C 167.200 108.657,167.040 108.749,166.845 108.628 C 166.650 108.508,166.388 108.804,166.261 109.287 C 166.135 109.770,165.906 110.039,165.753 109.886 C 165.380 109.513,164.349 110.393,164.628 110.845 C 164.749 111.040,164.582 111.200,164.258 111.200 C 163.934 111.200,163.114 111.955,162.435 112.879 L 161.200 114.558 161.200 124.429 L 161.200 134.300 157.745 134.481 C 155.255 134.612,154.164 134.834,153.839 135.279 C 153.537 135.692,152.502 135.951,150.698 136.066 C 148.802 136.187,147.858 136.435,147.504 136.905 C 147.128 137.403,146.219 137.606,143.923 137.704 C 141.825 137.793,140.616 138.038,140.123 138.473 C 139.663 138.879,138.399 139.172,136.652 139.278 C 134.670 139.398,133.765 139.633,133.408 140.122 C 133.035 140.631,132.304 140.800,130.471 140.800 C 128.582 140.800,127.870 140.973,127.316 141.566 C 126.755 142.167,125.884 142.371,123.285 142.510 C 120.851 142.640,119.842 142.859,119.485 143.334 C 119.142 143.792,118.279 144.001,116.528 144.050 C 114.106 144.117,113.097 144.397,113.167 144.983 C 113.186 145.144,112.257 145.339,111.101 145.416 C 108.068 145.619,107.170 145.802,106.868 146.280 C 106.721 146.512,105.880 146.798,105.000 146.914 C 101.186 147.417,100.199 147.750,100.599 148.399 C 100.716 148.588,100.494 148.853,100.106 148.988 C 99.718 149.123,98.860 149.917,98.200 150.753 C 97.374 151.799,96.771 152.212,96.263 152.080 C 95.503 151.881,93.429 153.696,93.890 154.157 C 94.024 154.291,93.854 154.400,93.513 154.400 C 92.421 154.400,92.409 155.175,92.409 221.679 C 92.409 284.390,92.461 288.657,93.213 288.192 C 93.394 288.080,93.657 288.351,93.798 288.794 C 93.939 289.237,94.252 289.600,94.494 289.600 C 94.735 289.600,94.832 289.701,94.709 289.825 C 94.253 290.280,96.332 292.006,97.645 292.263 C 98.390 292.409,99.360 292.754,99.800 293.029 C 100.240 293.305,101.904 293.545,103.499 293.564 C 105.837 293.591,106.552 293.752,107.199 294.399 C 107.858 295.058,108.532 295.200,111.000 295.200 C 113.345 295.200,114.156 295.356,114.713 295.913 C 115.263 296.463,116.200 296.651,118.807 296.736 C 121.221 296.815,122.391 297.030,122.894 297.485 C 123.282 297.837,123.600 297.984,123.600 297.813 C 123.600 297.642,123.825 297.679,124.100 297.895 C 124.375 298.112,125.482 298.316,126.560 298.350 C 127.865 298.391,128.681 298.632,129.002 299.071 C 129.367 299.570,130.301 299.765,132.842 299.872 C 136.577 300.029,137.368 300.205,137.002 300.797 C 136.693 301.296,136.660 301.294,147.487 301.359 C 155.858 301.409,156.408 301.458,156.955 302.206 C 157.767 303.314,166.661 303.413,167.861 302.327 C 168.333 301.899,169.517 301.592,171.105 301.486 C 172.717 301.379,173.875 301.075,174.365 300.631 C 174.897 300.151,175.810 299.943,177.392 299.943 C 179.094 299.943,179.848 299.752,180.427 299.173 C 181.040 298.560,181.809 298.393,184.199 298.358 C 185.849 298.333,187.200 298.142,187.200 297.933 C 187.200 297.724,187.360 297.651,187.555 297.772 C 187.750 297.893,188.132 297.723,188.404 297.396 C 188.742 296.988,189.663 296.800,191.323 296.800 C 193.206 296.800,193.941 296.619,194.609 295.992 C 195.271 295.370,196.044 295.175,197.958 295.148 C 199.943 295.120,200.543 294.960,200.920 294.357 C 201.316 293.722,201.884 293.600,204.447 293.600 C 206.554 293.600,207.644 293.429,207.959 293.049 C 208.211 292.746,209.448 292.385,210.708 292.248 C 214.261 291.862,214.412 291.828,214.715 291.359 C 214.872 291.116,216.401 290.793,218.114 290.641 C 221.598 290.331,222.501 290.088,222.168 289.548 C 222.043 289.346,222.089 289.220,222.270 289.268 C 223.137 289.498,228.271 288.664,228.800 288.207 C 229.130 287.922,230.637 287.614,232.148 287.522 C 234.065 287.406,235.039 287.161,235.367 286.713 C 235.710 286.243,236.723 286.021,239.136 285.888 C 241.602 285.752,242.558 285.537,242.922 285.039 C 243.274 284.557,244.048 284.364,245.707 284.345 C 246.970 284.330,248.105 284.153,248.230 283.952 C 248.354 283.751,248.612 283.684,248.803 283.802 C 248.994 283.920,249.297 283.763,249.475 283.453 C 249.697 283.069,250.777 282.842,252.865 282.739 C 255.109 282.628,256.144 282.394,256.732 281.862 C 257.326 281.324,258.166 281.138,259.967 281.147 C 261.341 281.153,262.400 280.983,262.400 280.756 C 262.400 280.534,262.581 280.465,262.803 280.602 C 263.024 280.739,263.314 280.569,263.446 280.225 C 263.631 279.743,264.309 279.600,266.417 279.600 C 269.332 279.600,271.406 279.057,271.000 278.401 C 270.844 278.147,271.817 278.000,273.651 278.000 C 276.008 278.000,276.709 277.849,277.409 277.192 C 278.076 276.565,278.844 276.375,280.825 276.347 C 283.453 276.310,285.391 275.832,285.062 275.301 C 284.960 275.135,285.714 274.995,286.738 274.990 C 289.084 274.977,291.250 274.564,291.561 274.071 C 291.692 273.863,292.700 273.588,293.800 273.461 C 297.411 273.043,297.228 273.144,300.628 269.676 C 301.840 268.438,302.811 267.044,302.952 266.338 C 303.408 264.059,303.230 136.066,302.770 135.782 C 302.537 135.637,302.442 135.267,302.561 134.958 C 303.180 133.343,299.409 131.299,295.700 131.240 C 294.232 131.216,293.200 131.025,293.200 130.776 C 293.200 130.543,293.046 130.448,292.858 130.564 C 292.671 130.680,292.310 130.320,292.057 129.765 C 291.804 129.209,291.462 128.826,291.298 128.914 C 291.134 129.002,290.685 128.742,290.300 128.337 C 289.915 127.931,289.735 127.597,289.900 127.594 C 291.073 127.570,288.661 126.811,287.396 126.806 C 286.220 126.802,285.657 126.583,285.284 125.985 C 285.004 125.537,284.556 125.199,284.287 125.233 C 282.238 125.494,279.176 125.119,278.593 124.536 C 278.027 123.970,276.872 123.867,270.729 123.836 C 262.913 123.797,263.262 123.892,261.785 121.393 C 261.477 120.872,260.706 120.649,258.785 120.528 C 256.989 120.414,256.046 120.161,255.695 119.699 C 255.311 119.193,254.362 118.998,251.716 118.885 C 249.127 118.773,248.122 118.573,247.775 118.099 C 247.433 117.631,246.397 117.414,243.855 117.281 L 240.400 117.100 240.400 110.583 C 240.400 103.758,240.272 102.800,239.357 102.800 C 239.051 102.800,238.800 102.530,238.800 102.200 C 238.800 101.259,238.748 101.188,236.007 98.419 C 234.582 96.979,233.052 95.736,232.607 95.657 C 231.251 95.416,220.602 95.132,220.395 95.330 M228.920 102.245 C 233.336 104.469,233.607 105.499,233.714 120.429 L 233.800 132.469 232.719 133.398 C 231.622 134.343,225.941 135.273,225.282 134.616 C 225.127 134.461,224.910 129.174,224.800 122.867 L 224.600 111.400 223.698 111.272 C 223.201 111.201,222.211 111.440,221.498 111.802 C 220.784 112.164,219.210 112.562,218.000 112.686 C 216.790 112.809,215.324 113.150,214.743 113.443 C 214.161 113.737,212.451 114.145,210.943 114.350 C 209.434 114.556,207.480 115.003,206.600 115.344 C 205.720 115.686,204.316 115.973,203.480 115.982 C 202.644 115.992,201.474 116.247,200.880 116.549 C 200.286 116.851,198.720 117.229,197.400 117.388 C 196.080 117.548,194.442 117.910,193.761 118.193 C 193.080 118.476,191.567 118.839,190.400 119.000 C 189.233 119.161,187.720 119.519,187.039 119.798 C 186.358 120.076,184.810 120.424,183.600 120.571 C 182.390 120.718,180.230 121.243,178.800 121.737 L 176.200 122.635 176.000 134.298 C 175.782 147.013,175.849 146.689,173.332 147.217 C 172.489 147.393,171.100 147.798,170.244 148.117 C 166.719 149.428,166.700 149.340,166.872 132.200 L 167.000 119.400 168.120 117.800 C 170.103 114.968,174.623 112.400,177.622 112.400 C 178.474 112.400,180.084 112.040,181.200 111.600 C 182.316 111.160,183.814 110.800,184.529 110.800 C 185.243 110.800,186.852 110.440,188.104 110.000 C 189.356 109.560,190.976 109.200,191.704 109.200 C 192.432 109.200,194.052 108.840,195.304 108.400 C 196.556 107.960,198.080 107.598,198.690 107.595 C 199.301 107.592,200.941 107.232,202.336 106.795 C 203.730 106.358,205.404 106.000,206.056 106.000 C 206.707 106.000,207.780 105.720,208.441 105.379 C 209.102 105.037,210.578 104.661,211.722 104.544 C 212.865 104.427,214.433 104.095,215.207 103.806 C 215.981 103.517,217.691 103.150,219.007 102.990 C 220.323 102.830,221.850 102.459,222.400 102.166 C 223.789 101.424,227.377 101.468,228.920 102.245 M219.200 121.024 C 219.200 122.030,217.503 122.281,212.528 122.012 C 211.698 121.967,210.962 122.238,210.409 122.791 C 209.719 123.481,209.043 123.647,206.781 123.683 C 205.251 123.707,204.000 123.886,204.000 124.081 C 204.000 124.276,203.685 124.382,203.300 124.318 C 202.915 124.253,202.635 124.395,202.678 124.633 C 202.765 125.117,202.791 125.113,199.256 125.214 C 197.375 125.268,196.518 125.482,195.965 126.035 C 195.378 126.622,194.559 126.795,192.158 126.842 C 189.788 126.888,188.935 127.065,188.371 127.629 C 187.637 128.363,183.515 128.848,182.935 128.268 C 182.787 128.121,183.057 128.000,183.533 128.000 C 184.010 128.000,184.753 127.647,185.185 127.215 C 185.800 126.600,186.585 126.414,188.813 126.358 C 190.409 126.318,191.869 126.074,192.140 125.802 C 192.577 125.365,195.787 124.777,197.789 124.767 C 198.222 124.765,198.852 124.526,199.189 124.235 C 199.525 123.945,200.956 123.592,202.370 123.452 C 203.783 123.312,205.223 122.951,205.570 122.649 C 205.916 122.347,207.523 121.974,209.141 121.821 C 212.457 121.508,213.294 121.276,212.974 120.758 C 212.852 120.561,213.923 120.400,215.353 120.400 C 216.783 120.400,218.066 120.217,218.204 119.993 C 218.605 119.344,219.200 119.959,219.200 121.024 M246.231 124.737 C 248.009 124.954,250.146 125.417,250.980 125.766 C 251.815 126.115,253.071 126.400,253.772 126.400 C 255.427 126.400,256.705 127.261,255.936 127.859 C 254.825 128.723,251.839 129.271,250.668 128.826 C 250.052 128.592,248.615 128.391,247.474 128.380 C 244.968 128.355,240.045 126.850,239.465 125.930 C 238.768 124.826,239.870 123.890,241.578 124.136 C 242.360 124.249,244.454 124.519,246.231 124.737 M218.400 128.392 C 218.865 128.686,219.000 129.633,219.000 132.618 C 219.000 137.159,218.852 137.355,215.113 137.778 C 213.752 137.932,212.297 138.241,211.879 138.465 C 211.460 138.689,209.956 139.036,208.536 139.238 C 207.116 139.439,205.433 139.873,204.797 140.202 C 204.160 140.531,203.017 140.800,202.256 140.800 C 201.494 140.800,199.730 141.158,198.336 141.595 C 196.941 142.032,195.124 142.392,194.299 142.395 C 193.473 142.398,192.125 142.760,191.304 143.200 C 190.464 143.650,189.023 144.006,188.006 144.014 C 187.013 144.022,185.750 144.286,185.200 144.600 C 182.131 146.354,181.200 145.380,181.200 140.416 C 181.200 136.484,181.353 136.213,183.800 135.804 C 184.680 135.657,186.033 135.299,186.807 135.009 C 187.581 134.718,189.286 134.347,190.595 134.183 C 191.904 134.020,193.560 133.642,194.275 133.343 C 194.990 133.044,196.293 132.800,197.172 132.800 C 198.051 132.800,199.684 132.440,200.800 132.000 C 201.916 131.560,203.457 131.200,204.225 131.200 C 204.992 131.200,206.644 130.840,207.896 130.400 C 209.148 129.960,210.815 129.600,211.601 129.600 C 212.388 129.600,214.014 129.246,215.215 128.814 C 217.785 127.890,217.638 127.910,218.400 128.392 M273.304 130.400 C 274.556 130.840,276.198 131.200,276.954 131.200 C 277.710 131.200,279.290 131.548,280.464 131.973 C 281.639 132.398,283.108 132.854,283.728 132.988 C 286.196 133.517,281.983 135.613,277.282 136.195 C 276.027 136.350,274.782 136.656,274.514 136.876 C 274.247 137.095,272.634 137.447,270.929 137.659 C 269.224 137.870,267.608 138.227,267.338 138.451 C 267.068 138.676,265.539 139.040,263.941 139.262 C 262.343 139.483,260.542 139.920,259.938 140.232 C 259.334 140.544,258.196 140.800,257.410 140.800 C 256.623 140.800,254.956 141.160,253.704 141.600 C 252.452 142.040,250.865 142.400,250.176 142.400 C 249.488 142.400,247.879 142.760,246.600 143.200 C 245.321 143.640,243.680 144.000,242.952 144.000 C 242.225 144.000,240.716 144.360,239.600 144.800 C 238.484 145.240,236.941 145.600,236.172 145.600 C 235.403 145.600,234.140 145.865,233.364 146.189 C 232.588 146.513,231.019 146.889,229.877 147.025 C 228.735 147.160,226.764 147.615,225.498 148.036 C 224.233 148.456,222.652 148.800,221.986 148.800 C 221.319 148.800,220.149 149.061,219.385 149.380 C 218.621 149.700,216.872 150.084,215.498 150.234 C 214.124 150.384,212.550 150.734,212.000 151.012 C 211.449 151.290,209.919 151.649,208.600 151.810 C 207.280 151.970,205.750 152.328,205.200 152.604 C 204.650 152.880,203.210 153.231,202.000 153.383 C 200.790 153.535,199.080 153.904,198.200 154.203 C 197.320 154.502,195.627 154.859,194.437 154.995 C 193.248 155.132,191.808 155.479,191.237 155.767 C 190.667 156.054,189.185 156.389,187.945 156.511 C 186.705 156.633,185.139 157.018,184.465 157.366 C 183.791 157.715,182.506 158.000,181.610 158.000 C 180.713 158.000,178.956 158.360,177.704 158.800 C 176.452 159.240,174.791 159.601,174.014 159.602 C 173.236 159.604,172.065 159.884,171.412 160.225 C 170.758 160.565,169.029 160.994,167.569 161.177 C 166.109 161.361,164.547 161.707,164.099 161.947 C 163.651 162.187,162.242 162.506,160.968 162.655 C 159.463 162.832,157.822 163.396,156.287 164.264 C 153.621 165.771,153.087 165.846,151.062 165.000 C 150.272 164.670,149.035 164.392,148.313 164.382 C 147.591 164.373,146.280 164.094,145.400 163.762 C 144.520 163.431,142.573 162.992,141.074 162.788 C 137.667 162.322,137.356 162.136,138.274 161.105 C 139.285 159.969,141.277 159.200,143.207 159.200 C 144.105 159.200,145.368 158.927,146.013 158.593 C 148.124 157.502,150.448 157.449,154.853 158.392 C 161.074 159.725,168.201 158.150,164.200 156.327 C 162.230 155.430,165.350 153.573,169.753 153.023 C 171.020 152.865,172.629 152.500,173.329 152.212 C 174.028 151.924,175.590 151.558,176.800 151.398 C 178.010 151.239,179.341 150.929,179.757 150.709 C 180.173 150.490,181.748 150.156,183.255 149.967 C 184.763 149.777,186.528 149.347,187.178 149.011 C 187.828 148.675,188.971 148.400,189.718 148.400 C 190.464 148.400,192.121 148.040,193.400 147.600 C 194.679 147.160,196.242 146.800,196.873 146.800 C 197.504 146.800,199.044 146.440,200.296 146.000 C 201.548 145.560,203.234 145.200,204.042 145.200 C 204.851 145.200,206.297 144.844,207.256 144.409 C 208.215 143.974,209.630 143.614,210.400 143.609 C 211.170 143.604,212.880 143.250,214.200 142.823 C 216.626 142.037,219.026 141.493,223.400 140.738 C 224.720 140.510,226.428 140.053,227.195 139.723 C 227.962 139.393,229.582 139.025,230.795 138.906 C 232.008 138.787,233.450 138.463,234.000 138.186 C 234.551 137.909,236.075 137.548,237.388 137.384 C 238.701 137.220,240.321 136.862,240.988 136.587 C 241.654 136.313,243.190 135.958,244.400 135.797 C 245.610 135.637,247.140 135.218,247.800 134.866 C 248.754 134.357,250.804 134.182,257.800 134.013 L 266.600 133.800 266.600 132.620 C 266.600 130.057,269.549 129.080,273.304 130.400 M296.055 139.194 C 297.289 141.502,297.208 259.799,295.970 263.194 C 294.994 265.872,293.337 266.931,289.365 267.414 C 288.064 267.572,286.550 267.926,286.000 268.200 C 285.450 268.474,283.920 268.829,282.600 268.988 C 281.280 269.148,279.654 269.505,278.988 269.782 C 278.321 270.059,276.733 270.416,275.459 270.575 C 274.185 270.734,272.531 271.120,271.784 271.432 C 271.037 271.745,269.829 272.000,269.099 272.000 C 268.369 272.000,266.748 272.360,265.496 272.800 C 264.244 273.240,262.592 273.600,261.825 273.600 C 261.057 273.600,259.516 273.960,258.400 274.400 C 257.284 274.840,255.664 275.200,254.800 275.200 C 253.936 275.200,252.316 275.560,251.200 276.000 C 250.084 276.440,248.448 276.800,247.565 276.800 C 246.683 276.800,245.428 277.075,244.778 277.411 C 244.128 277.747,242.363 278.177,240.855 278.367 C 239.348 278.556,237.763 278.899,237.334 279.128 C 236.905 279.358,235.394 279.722,233.977 279.936 C 232.560 280.151,230.680 280.605,229.800 280.946 C 228.920 281.286,227.519 281.573,226.687 281.582 C 225.855 281.592,224.525 281.871,223.731 282.203 C 222.937 282.535,221.278 282.919,220.044 283.056 C 218.810 283.193,217.242 283.531,216.561 283.807 C 215.880 284.083,214.350 284.439,213.161 284.598 C 211.972 284.758,210.393 285.139,209.651 285.444 C 208.909 285.750,207.914 286.000,207.438 286.000 C 206.963 286.000,205.590 286.274,204.387 286.610 C 203.184 286.945,201.025 287.385,199.588 287.588 C 198.152 287.790,196.442 288.235,195.788 288.575 C 195.135 288.916,193.880 289.200,193.000 289.206 C 192.120 289.213,190.615 289.574,189.656 290.009 C 188.697 290.444,187.318 290.800,186.592 290.800 C 185.866 290.800,184.130 291.158,182.736 291.595 C 181.341 292.032,179.518 292.392,178.684 292.395 C 177.850 292.398,176.462 292.760,175.600 293.200 C 174.738 293.640,173.328 294.000,172.467 294.000 C 171.606 294.000,170.077 294.365,169.068 294.811 C 165.354 296.454,158.882 296.054,157.350 294.087 L 156.501 292.995 156.350 232.397 L 156.200 171.800 157.140 170.288 C 158.269 168.472,160.262 167.397,163.090 167.077 C 164.239 166.947,166.039 166.572,167.090 166.244 C 168.140 165.916,169.900 165.471,171.000 165.255 C 172.100 165.039,173.720 164.683,174.600 164.463 C 179.944 163.128,182.040 162.662,184.000 162.372 C 185.210 162.193,186.920 161.774,187.800 161.441 C 188.680 161.108,190.068 160.827,190.885 160.818 C 191.702 160.808,193.284 160.440,194.400 160.000 C 195.516 159.560,197.008 159.194,197.715 159.187 C 198.422 159.180,199.990 158.826,201.200 158.400 C 202.410 157.974,204.084 157.620,204.920 157.613 C 205.756 157.606,206.952 157.335,207.577 157.012 C 208.203 156.688,209.949 156.255,211.457 156.050 C 212.966 155.844,214.920 155.397,215.800 155.056 C 216.680 154.714,217.962 154.427,218.650 154.418 C 219.337 154.408,220.620 154.146,221.501 153.835 C 222.382 153.524,224.160 153.141,225.452 152.984 C 226.743 152.827,228.250 152.472,228.800 152.196 C 229.350 151.920,230.772 151.562,231.961 151.401 C 233.150 151.240,234.719 150.859,235.448 150.554 C 236.178 150.249,237.394 150.000,238.152 150.000 C 238.909 150.000,240.670 149.642,242.064 149.205 C 243.459 148.768,245.230 148.404,246.000 148.396 C 246.770 148.389,248.185 148.026,249.144 147.591 C 250.103 147.156,251.453 146.798,252.144 146.795 C 252.835 146.792,254.541 146.432,255.936 145.995 C 257.330 145.558,259.130 145.199,259.936 145.198 C 260.741 145.196,261.935 144.916,262.588 144.575 C 263.242 144.235,264.952 143.802,266.388 143.615 C 267.825 143.427,269.669 142.987,270.487 142.637 C 271.305 142.287,272.565 141.998,273.287 141.995 C 274.009 141.992,275.741 141.632,277.136 141.195 C 278.530 140.758,280.294 140.400,281.056 140.400 C 281.817 140.400,282.960 140.131,283.597 139.802 C 284.233 139.473,285.923 139.038,287.352 138.835 C 288.781 138.633,290.277 138.273,290.675 138.036 C 292.328 137.052,295.245 137.680,296.055 139.194 M161.022 142.545 C 161.140 143.017,161.184 144.834,161.119 146.582 L 161.000 149.762 158.556 150.636 C 157.212 151.116,155.160 151.641,153.995 151.801 C 152.831 151.961,151.281 152.341,150.552 152.646 C 148.778 153.387,146.243 153.346,144.706 152.551 C 143.128 151.735,131.152 151.496,130.378 152.265 C 129.790 152.850,130.971 153.952,132.853 154.574 C 134.977 155.277,134.590 155.805,131.110 156.954 C 129.290 157.555,127.231 158.339,126.535 158.695 C 125.365 159.296,125.114 159.294,123.189 158.672 C 122.045 158.302,120.428 158.000,119.598 158.000 C 118.767 158.000,117.303 157.644,116.344 157.209 C 115.385 156.774,113.790 156.406,112.800 156.393 C 110.728 156.364,106.600 154.728,106.600 153.935 C 106.600 153.604,107.364 153.272,108.600 153.066 C 109.700 152.882,111.175 152.484,111.879 152.182 C 112.582 151.880,114.112 151.511,115.279 151.362 C 116.445 151.213,117.850 150.871,118.400 150.602 C 118.950 150.332,120.487 150.003,121.815 149.871 C 123.144 149.738,124.893 149.353,125.702 149.015 C 126.512 148.677,127.855 148.396,128.687 148.391 C 129.519 148.386,130.985 148.026,131.944 147.591 C 132.903 147.156,134.274 146.800,134.992 146.800 C 135.709 146.800,137.423 146.440,138.800 146.000 C 140.177 145.560,141.956 145.199,142.752 145.198 C 143.548 145.196,144.739 144.914,145.398 144.570 C 146.058 144.227,147.678 143.795,148.998 143.610 C 150.319 143.426,152.210 142.994,153.200 142.651 C 157.349 141.211,160.676 141.166,161.022 142.545 M106.786 160.051 C 107.989 160.463,109.535 160.800,110.224 160.800 C 110.912 160.800,112.521 161.160,113.800 161.600 C 115.079 162.040,116.823 162.400,117.675 162.400 C 121.232 162.400,122.997 163.984,122.384 166.626 C 122.173 167.536,122.012 193.754,122.003 228.800 C 121.994 265.363,121.840 289.633,121.616 289.987 C 121.293 290.499,120.999 290.486,119.323 289.885 C 118.265 289.506,116.731 289.197,115.914 289.198 C 115.097 289.199,113.567 288.905,112.514 288.544 C 111.461 288.183,109.520 287.744,108.200 287.568 C 103.217 286.904,100.289 285.869,99.738 284.577 C 98.832 282.452,98.986 159.759,99.896 159.250 C 100.812 158.738,104.055 159.114,106.786 160.051 M134.670 166.256 C 135.369 166.547,136.989 166.904,138.270 167.049 C 139.552 167.193,141.050 167.532,141.600 167.801 C 142.150 168.071,143.590 168.410,144.800 168.555 C 146.010 168.699,148.006 169.185,149.235 169.633 L 151.469 170.449 151.734 194.724 C 152.105 228.674,152.034 290.643,151.622 292.776 C 151.042 295.782,147.215 296.596,142.104 294.800 C 140.852 294.360,139.260 294.000,138.566 294.000 C 137.872 294.000,136.177 293.640,134.800 293.200 C 133.423 292.760,131.619 292.400,130.792 292.400 C 129.908 292.400,128.900 292.085,128.344 291.635 L 127.400 290.871 127.296 229.432 C 127.206 175.922,127.269 167.809,127.785 166.575 L 128.377 165.158 130.888 165.441 C 132.270 165.598,133.972 165.964,134.670 166.256 M227.800 189.476 C 227.360 189.597,226.645 189.945,226.211 190.248 C 225.777 190.552,225.159 190.800,224.837 190.800 C 222.274 190.800,215.791 195.709,211.262 201.080 C 209.347 203.351,206.795 204.534,202.810 204.997 C 201.605 205.137,200.403 205.432,200.137 205.652 C 199.871 205.873,198.564 206.207,197.231 206.396 C 192.553 207.057,187.600 210.343,187.600 212.787 C 187.600 216.466,191.370 217.118,201.066 215.115 C 203.523 214.607,204.505 214.880,204.328 216.022 C 204.173 217.021,200.589 218.589,197.482 219.016 C 196.346 219.173,194.759 219.532,193.957 219.815 C 193.154 220.099,191.440 220.459,190.148 220.616 C 188.857 220.773,187.314 221.149,186.720 221.451 C 186.126 221.753,184.866 222.006,183.920 222.014 C 182.974 222.021,181.480 222.375,180.600 222.800 C 179.720 223.225,178.370 223.580,177.600 223.588 C 175.785 223.608,171.220 225.212,169.801 226.328 C 169.191 226.808,168.561 227.200,168.400 227.200 C 167.525 227.200,165.892 230.445,166.308 231.357 C 167.301 233.537,173.204 234.825,175.920 233.455 C 176.514 233.156,178.015 232.811,179.255 232.689 C 180.495 232.567,182.061 232.182,182.735 231.834 C 183.409 231.485,184.604 231.200,185.390 231.200 C 186.177 231.200,187.844 230.840,189.096 230.400 C 190.348 229.960,192.063 229.600,192.908 229.600 C 193.753 229.600,195.199 229.263,196.122 228.851 C 198.496 227.792,203.714 227.374,204.391 228.189 C 205.057 228.992,204.280 230.000,202.995 230.000 C 202.496 230.000,201.303 230.356,200.344 230.791 C 199.385 231.226,197.924 231.586,197.099 231.591 C 196.273 231.596,194.925 231.960,194.104 232.400 C 193.284 232.840,192.413 233.200,192.171 233.200 C 191.593 233.200,188.316 236.533,187.972 237.471 C 187.136 239.747,191.577 242.436,194.800 241.606 C 195.790 241.351,197.500 240.961,198.600 240.739 C 199.700 240.518,201.770 239.992,203.200 239.570 C 207.516 238.299,210.488 238.420,212.515 239.952 C 213.442 240.652,214.650 241.417,215.200 241.653 C 215.750 241.888,216.970 242.422,217.911 242.840 C 220.420 243.955,228.647 243.924,231.144 242.791 C 232.103 242.356,233.128 242.000,233.423 242.000 C 235.911 242.000,244.136 235.579,247.829 230.754 C 248.951 229.289,250.815 228.423,253.713 228.021 C 255.081 227.831,256.920 227.396,257.800 227.055 C 258.680 226.714,259.969 226.427,260.664 226.418 C 265.187 226.355,272.215 221.367,271.399 218.798 C 270.703 216.604,265.425 215.388,261.950 216.621 C 258.233 217.940,253.361 217.758,254.242 216.332 C 254.681 215.622,258.747 214.000,260.088 214.000 C 260.825 214.000,262.452 213.640,263.704 213.200 C 264.956 212.760,266.576 212.400,267.304 212.400 C 268.032 212.400,269.652 212.040,270.904 211.600 C 272.156 211.160,273.823 210.800,274.610 210.800 C 275.396 210.800,276.560 210.531,277.197 210.202 C 277.833 209.873,279.489 209.427,280.877 209.212 C 285.610 208.477,289.285 206.724,291.018 204.376 C 294.261 199.980,288.779 197.611,280.400 199.787 C 276.262 200.861,274.785 201.201,271.753 201.775 C 270.188 202.072,268.568 202.496,268.153 202.717 C 267.739 202.938,266.326 203.253,265.012 203.417 C 263.699 203.580,262.079 203.935,261.412 204.205 C 259.941 204.801,255.148 205.308,254.249 204.963 C 251.975 204.091,255.785 201.866,260.489 201.320 C 261.650 201.185,262.960 200.854,263.400 200.585 C 263.840 200.315,264.729 199.972,265.376 199.821 C 266.924 199.460,269.466 197.420,270.245 195.914 C 272.121 192.286,267.112 189.807,261.444 191.557 C 259.943 192.021,258.060 192.401,257.258 192.402 C 256.456 192.404,255.260 192.696,254.600 193.052 C 252.434 194.220,247.845 194.276,246.500 193.151 C 245.875 192.628,244.651 191.858,243.781 191.439 C 242.912 191.021,241.660 190.391,241.000 190.039 C 239.786 189.393,229.675 188.962,227.800 189.476 M238.526 192.831 C 245.610 195.667,249.089 199.584,250.633 206.460 C 251.658 211.027,251.724 211.884,251.211 213.910 C 250.947 214.950,250.570 216.790,250.373 218.000 C 250.175 219.210,249.758 220.740,249.445 221.400 C 249.133 222.060,248.678 223.050,248.435 223.600 C 248.191 224.150,247.639 225.140,247.208 225.800 C 246.777 226.460,246.128 227.540,245.766 228.200 C 243.736 231.899,234.355 239.200,231.633 239.200 C 231.223 239.200,230.103 239.556,229.144 239.991 C 227.067 240.934,222.355 241.085,220.773 240.259 C 220.209 239.965,219.231 239.594,218.600 239.436 C 209.687 237.199,204.185 222.211,208.603 212.200 C 211.518 205.592,213.724 202.225,217.123 199.191 C 219.512 197.059,224.695 193.874,226.400 193.490 C 226.950 193.366,228.120 192.988,229.000 192.650 C 231.385 191.733,236.004 191.821,238.526 192.831 M267.758 194.032 C 269.006 195.160,265.456 198.238,262.200 198.850 C 261.320 199.016,259.661 199.421,258.513 199.750 C 254.226 200.979,251.189 200.799,250.136 199.255 C 248.693 197.139,250.824 195.200,254.593 195.200 C 255.351 195.200,256.884 194.840,258.000 194.400 C 259.116 193.960,260.788 193.587,261.715 193.572 C 262.642 193.556,263.760 193.402,264.200 193.230 C 264.982 192.923,267.045 193.388,267.758 194.032 M227.699 199.770 C 226.103 200.250,224.582 200.858,224.319 201.121 C 224.055 201.385,223.642 201.600,223.400 201.600 C 220.813 201.600,215.263 209.716,213.756 215.703 L 212.773 219.606 213.755 223.191 C 214.750 226.823,215.006 227.346,216.806 229.434 C 220.303 233.490,230.197 234.880,233.606 231.794 C 233.968 231.467,234.465 231.200,234.712 231.200 C 235.673 231.200,241.414 224.972,242.455 222.800 C 245.440 216.574,246.095 211.723,244.400 208.400 C 243.960 207.538,243.600 206.634,243.600 206.392 C 243.600 205.638,240.929 202.412,239.503 201.444 C 235.815 198.941,232.174 198.425,227.699 199.770 M288.828 201.834 C 289.889 203.112,286.458 206.121,283.420 206.576 C 282.402 206.729,280.952 207.112,280.198 207.427 C 279.443 207.742,278.197 208.000,277.428 208.000 C 276.659 208.000,275.116 208.360,274.000 208.800 C 272.884 209.240,271.386 209.600,270.671 209.600 C 269.957 209.600,268.348 209.960,267.096 210.400 C 265.844 210.840,264.304 211.200,263.673 211.200 C 263.042 211.200,261.479 211.560,260.200 212.000 C 257.141 213.053,253.778 213.080,253.230 212.056 C 252.081 209.909,253.643 207.600,256.246 207.600 C 256.793 207.600,257.765 207.328,258.408 206.996 C 259.050 206.664,260.616 206.236,261.888 206.044 C 263.949 205.734,266.088 205.261,271.400 203.938 C 272.280 203.719,274.271 203.315,275.824 203.040 C 277.377 202.766,278.901 202.385,279.211 202.193 C 280.943 201.123,288.018 200.858,288.828 201.834 M234.226 202.874 C 248.009 205.642,241.250 230.000,226.700 230.000 C 211.851 230.000,214.125 205.804,229.253 202.831 C 231.703 202.349,231.611 202.349,234.226 202.874 M207.743 206.601 C 209.677 208.534,205.587 212.800,201.800 212.800 C 201.016 212.800,199.705 213.085,198.887 213.434 C 196.611 214.404,191.523 214.671,190.847 213.856 C 189.053 211.695,192.475 209.328,199.400 207.941 C 200.500 207.720,202.480 207.203,203.800 206.792 C 206.768 205.867,206.998 205.856,207.743 206.601 M229.800 207.509 C 224.437 208.525,220.800 212.679,220.800 217.788 C 220.800 226.106,230.746 227.996,235.620 220.603 C 239.670 214.460,236.054 206.324,229.800 207.509 M232.214 211.106 C 236.421 214.094,233.319 222.000,227.940 222.000 C 225.196 222.000,223.090 218.923,224.140 216.448 C 224.477 215.652,224.863 214.604,224.998 214.119 C 225.596 211.959,230.520 209.903,232.214 211.106 M267.150 218.650 C 270.170 219.254,266.874 223.163,262.800 223.808 C 261.810 223.965,260.646 224.279,260.213 224.507 C 259.780 224.735,258.340 225.056,257.013 225.220 C 255.686 225.384,253.881 225.789,253.003 226.121 C 250.182 227.186,249.340 226.062,250.805 223.190 C 251.837 221.168,252.875 220.514,255.600 220.170 C 256.810 220.018,258.160 219.704,258.600 219.472 C 260.311 218.573,264.669 218.154,267.150 218.650 M204.723 222.131 C 204.875 224.508,204.350 225.200,202.395 225.200 C 201.566 225.200,200.103 225.556,199.144 225.991 C 198.185 226.426,196.732 226.786,195.915 226.791 C 195.098 226.796,193.516 227.160,192.400 227.600 C 191.284 228.040,189.843 228.400,189.199 228.400 C 188.555 228.400,187.167 228.694,186.114 229.053 C 185.061 229.412,183.210 229.844,182.000 230.014 C 180.790 230.184,179.027 230.612,178.082 230.965 C 174.788 232.199,168.429 231.719,168.908 230.273 C 169.295 229.104,173.249 226.400,174.571 226.400 C 175.309 226.400,176.697 226.044,177.656 225.609 C 178.615 225.174,180.036 224.814,180.814 224.809 C 181.591 224.804,183.252 224.440,184.504 224.000 C 185.756 223.560,187.286 223.200,187.904 223.200 C 188.522 223.200,190.052 222.840,191.304 222.400 C 192.556 221.960,194.226 221.600,195.016 221.600 C 195.806 221.600,196.846 221.387,197.326 221.126 C 198.571 220.451,200.711 220.064,202.800 220.137 L 204.600 220.200 204.723 222.131 M207.971 233.091 C 209.987 235.537,208.572 236.900,203.240 237.648 C 201.788 237.851,199.877 238.292,198.994 238.628 C 197.913 239.038,196.343 239.198,194.194 239.119 L 191.000 239.000 191.000 237.819 C 191.000 236.438,193.279 234.608,195.563 234.157 C 196.312 234.009,197.392 233.644,197.963 233.346 C 198.533 233.048,199.720 232.794,200.600 232.780 C 201.480 232.766,202.830 232.516,203.600 232.225 C 205.938 231.340,206.643 231.480,207.971 233.091 " stroke="none" fill="#000000" fill-rule="evenodd"></path></g></svg>