<svg id="svg" version="1.1" xmlns="http://www.w3.org/2000/svg" xmlns:xlink="http://www.w3.org/1999/xlink" width="400" height="293.7062937062937" viewBox="0, 0, 400,293.7062937062937"><g id="svgg"><path id="path0" d="M128.435 0.332 C 128.435 0.515,127.210 1.870,125.713 3.345 C 120.252 8.723,120.232 8.829,120.216 32.242 C 120.209 42.920,120.102 48.400,119.891 48.863 C 119.146 50.498,122.230 50.392,70.683 50.553 C 17.277 50.720,23.024 50.466,17.132 52.915 C 11.032 55.449,5.578 60.656,2.713 66.679 C 2.026 68.124,1.403 69.006,0.843 69.324 L 0.004 69.802 0.004 172.226 L 0.004 274.651 0.846 275.130 C 1.399 275.445,2.013 276.299,2.638 277.628 C 5.329 283.345,9.735 287.786,16.165 291.264 C 17.569 292.023,18.790 292.896,18.953 293.258 L 19.243 293.902 199.942 293.902 L 380.640 293.902 381.348 293.061 C 381.737 292.598,382.999 291.733,384.153 291.138 C 390.239 287.998,394.471 283.766,397.451 277.841 C 398.032 276.686,398.843 275.476,399.254 275.154 L 400.000 274.566 400.000 172.226 L 400.000 69.886 399.254 69.299 C 398.843 68.976,398.034 67.767,397.455 66.612 C 394.437 60.589,389.227 55.637,383.101 52.968 C 377.414 50.491,382.632 50.725,329.464 50.556 C 291.797 50.435,281.863 50.327,281.344 50.030 C 279.932 49.223,279.950 49.455,279.794 29.684 L 279.647 11.021 278.857 9.334 C 277.554 6.555,276.076 4.576,274.206 3.107 C 273.234 2.343,272.238 1.331,271.994 0.859 L 271.550 -0.000 199.992 -0.000 C 147.001 -0.000,128.435 0.086,128.435 0.332 M257.039 21.130 C 259.226 22.123,259.221 22.090,259.221 35.813 C 259.221 49.026,259.223 49.013,257.491 49.876 C 255.881 50.677,144.520 50.701,142.752 49.900 C 140.811 49.022,140.778 48.791,140.786 36.233 C 140.794 22.791,140.962 21.829,143.451 20.957 C 145.380 20.281,255.540 20.449,257.039 21.130 M376.047 59.304 C 383.321 61.029,389.774 67.673,391.239 74.945 C 391.808 77.769,391.808 266.683,391.239 269.508 C 389.746 276.922,383.081 283.659,375.753 285.163 C 372.560 285.819,26.268 285.678,23.892 285.020 C 16.606 283.003,10.952 277.370,9.060 270.242 C 8.481 268.061,8.481 76.392,9.060 74.210 C 11.258 65.932,18.486 59.743,26.745 59.068 C 31.438 58.684,374.412 58.916,376.047 59.304 M197.198 123.432 C 193.760 123.709,193.339 123.797,188.391 125.274 C 181.327 127.383,176.895 129.901,170.514 135.431 C 168.519 137.160,166.468 138.839,165.956 139.162 C 165.049 139.735,164.372 139.754,138.868 139.914 C 109.831 140.096,111.331 139.984,109.025 142.142 C 105.341 145.588,105.978 150.418,110.464 153.055 L 111.830 153.857 133.151 154.004 C 159.076 154.183,157.285 153.734,155.608 159.633 C 153.849 165.821,158.471 165.173,116.141 165.173 C 78.547 165.173,78.283 165.182,76.267 166.580 C 71.052 170.198,72.744 177.809,79.026 178.984 C 80.034 179.172,93.530 179.280,116.141 179.280 C 158.471 179.280,153.849 178.631,155.608 184.820 C 157.285 190.718,159.076 190.270,133.151 190.448 L 111.830 190.595 110.464 191.398 C 105.978 194.035,105.341 198.865,109.025 202.311 C 111.331 204.468,109.831 204.356,138.868 204.538 C 167.977 204.721,165.713 204.547,167.818 206.765 C 185.828 225.749,216.933 225.818,234.974 206.914 C 237.260 204.520,234.780 204.720,264.217 204.555 C 293.805 204.390,291.609 204.569,294.156 202.117 C 297.660 198.742,296.791 193.636,292.305 191.235 C 291.116 190.599,290.989 190.594,269.788 190.448 C 246.409 190.287,247.158 190.348,246.710 188.563 C 246.524 187.821,247.812 182.657,248.528 181.272 C 249.552 179.290,246.576 179.443,287.423 179.280 C 329.295 179.113,325.640 179.354,328.120 176.596 C 331.237 173.130,330.110 168.171,325.713 166.006 L 324.320 165.320 287.423 165.173 C 246.576 165.010,249.552 165.162,248.528 163.181 C 247.812 161.796,246.524 156.631,246.710 155.889 C 247.158 154.104,246.409 154.166,269.788 154.004 C 290.989 153.858,291.116 153.854,292.305 153.217 C 296.895 150.761,297.675 145.638,293.982 142.199 C 291.594 139.975,293.185 140.097,264.071 139.914 C 238.564 139.754,237.890 139.736,236.990 139.162 C 236.482 138.839,234.718 137.384,233.069 135.929 C 222.187 126.329,210.739 122.340,197.198 123.432 M208.935 134.900 C 231.090 139.963,243.664 164.165,235.505 186.040 C 227.494 207.520,202.709 216.667,183.454 205.250 C 153.223 187.325,162.261 139.286,196.767 134.488 C 198.515 134.245,207.383 134.545,208.935 134.900 M198.677 148.608 C 177.264 151.734,168.820 177.124,184.322 191.772 C 204.033 210.398,235.273 188.564,224.432 163.740 C 220.003 153.599,208.954 147.107,198.677 148.608 M205.128 159.907 C 214.132 161.838,218.524 173.964,213.007 181.658 C 206.438 190.820,193.784 189.528,188.423 179.148 C 187.169 176.720,187.265 170.507,188.599 167.813 C 191.722 161.503,198.176 158.416,205.128 159.907 " stroke="none" fill="#060606" fill-rule="evenodd"></path></g></svg>