<svg id="svg" xmlns="http://www.w3.org/2000/svg" xmlns:xlink="http://www.w3.org/1999/xlink" width="400" height="393.98496240601503" viewBox="0, 0, 400,393.98496240601503" version="1.1"><g id="svgg"><path id="path1" d="M246.108 10.779 C 243.757 11.578,240.927 12.225,239.090 12.383 C 237.242 12.542,234.749 13.114,232.851 13.813 C 230.924 14.524,228.203 15.144,225.880 15.401 C 223.426 15.673,221.054 16.228,219.220 16.960 C 217.368 17.700,215.091 18.230,212.717 18.475 C 210.708 18.682,208.250 19.203,207.255 19.631 C 205.232 20.503,202.436 21.101,198.621 21.479 C 197.212 21.618,194.785 22.241,193.229 22.863 C 191.672 23.485,189.278 24.106,187.908 24.242 C 184.162 24.614,181.357 25.217,179.346 26.081 C 178.351 26.509,175.626 27.111,173.291 27.419 C 170.784 27.749,168.084 28.383,166.701 28.965 C 165.188 29.602,162.919 30.105,160.306 30.384 C 157.490 30.685,155.476 31.152,153.695 31.918 C 152.286 32.524,150.557 33.142,149.852 33.290 C 149.147 33.439,147.864 34.151,146.999 34.873 C 146.135 35.595,144.836 36.552,144.112 36.999 C 143.388 37.447,142.318 38.660,141.733 39.695 C 141.149 40.730,140.276 42.077,139.793 42.689 L 138.916 43.801 138.810 70.563 C 138.682 102.559,138.207 100.501,145.018 97.472 C 146.206 96.944,147.979 96.416,148.958 96.299 C 151.593 95.984,153.189 95.416,153.561 94.661 C 153.743 94.292,153.980 84.000,154.089 71.791 C 154.313 46.482,153.899 49.000,158.030 47.817 C 159.222 47.476,161.189 46.784,162.401 46.279 C 163.763 45.713,166.136 45.205,168.605 44.952 C 171.209 44.684,173.464 44.188,175.070 43.528 C 176.507 42.938,179.309 42.279,181.783 41.948 C 184.259 41.618,187.002 40.972,188.362 40.399 C 189.822 39.785,192.142 39.261,194.560 39.000 C 198.993 38.521,199.164 38.482,202.431 37.206 C 203.825 36.662,206.442 36.093,208.568 35.873 C 211.084 35.612,212.999 35.156,214.532 34.455 C 216.132 33.722,218.133 33.264,221.400 32.882 C 224.432 32.528,226.876 31.991,228.541 31.313 C 230.084 30.685,232.444 30.141,234.585 29.919 C 236.893 29.681,239.132 29.142,241.115 28.347 C 245.080 26.760,248.026 26.604,249.098 27.925 C 249.820 28.816,249.852 29.754,249.852 49.852 C 249.852 74.943,249.344 72.733,254.975 72.140 C 266.187 70.959,265.697 72.213,265.585 44.979 C 265.493 22.796,265.224 18.899,263.654 16.966 C 263.204 16.413,262.354 15.312,261.763 14.519 C 258.785 10.519,251.791 8.848,246.108 10.779 M279.102 53.815 C 277.050 55.253,278.058 56.387,282.370 57.488 C 284.107 57.931,286.323 58.578,287.296 58.925 C 291.064 60.269,303.272 60.975,305.984 60.006 C 309.218 58.849,308.109 57.544,303.882 57.532 C 302.885 57.529,300.562 56.994,298.719 56.343 C 296.343 55.503,293.803 54.990,289.980 54.576 C 287.016 54.255,284.123 53.815,283.551 53.597 C 282.030 53.020,280.104 53.114,279.102 53.815 M232.043 62.081 C 230.678 62.668,228.341 63.208,226.067 63.462 C 222.191 63.894,221.543 64.045,217.931 65.356 C 216.739 65.788,214.433 66.256,212.808 66.395 C 209.108 66.711,206.418 67.292,204.138 68.267 C 203.163 68.684,200.370 69.273,197.932 69.576 C 195.494 69.879,193.011 70.379,192.414 70.687 C 190.763 71.540,188.300 72.118,184.516 72.540 C 182.628 72.751,179.488 73.446,177.537 74.085 C 175.586 74.724,172.590 75.415,170.880 75.622 C 166.260 76.179,166.140 76.360,165.978 83.030 C 165.821 89.498,166.028 90.834,167.312 91.676 C 168.335 92.346,168.689 92.298,173.005 90.902 C 173.980 90.587,176.374 90.147,178.325 89.925 C 180.626 89.663,182.664 89.156,184.128 88.480 C 185.685 87.762,187.543 87.321,190.125 87.056 C 192.295 86.834,194.974 86.257,196.503 85.681 C 197.954 85.135,201.107 84.415,203.511 84.081 C 205.946 83.743,208.876 83.055,210.126 82.529 C 211.461 81.967,213.909 81.413,216.170 81.161 C 218.556 80.895,221.019 80.323,222.792 79.622 C 224.515 78.942,227.075 78.338,229.360 78.073 C 237.353 77.147,237.438 77.048,237.438 68.785 C 237.438 60.575,236.951 59.970,232.043 62.081 M333.800 65.055 C 331.044 66.305,330.640 66.832,330.640 69.175 C 330.640 72.456,331.498 72.288,313.536 72.512 L 297.734 72.709 294.763 73.945 C 292.693 74.806,290.635 75.306,287.980 75.595 C 285.883 75.823,283.407 76.345,282.478 76.756 C 280.269 77.731,279.536 77.902,274.561 78.601 C 272.196 78.933,269.346 79.622,268.003 80.187 C 266.507 80.817,264.261 81.329,261.928 81.570 C 259.488 81.824,257.239 82.349,255.321 83.115 C 253.514 83.836,251.072 84.426,248.867 84.674 C 246.916 84.893,244.167 85.506,242.759 86.037 C 241.350 86.568,238.601 87.207,236.650 87.457 C 234.700 87.707,231.579 88.433,229.715 89.071 C 227.771 89.735,224.663 90.412,222.424 90.658 C 219.945 90.930,217.804 91.419,216.552 91.999 C 213.889 93.231,213.538 93.319,209.441 93.778 C 207.404 94.006,204.839 94.598,203.456 95.160 C 202.125 95.701,199.515 96.316,197.657 96.527 C 195.799 96.739,192.639 97.434,190.637 98.074 C 188.634 98.713,185.310 99.438,183.251 99.685 C 180.907 99.967,178.698 100.505,177.342 101.124 C 175.921 101.774,173.687 102.300,170.840 102.655 C 167.965 103.014,165.770 103.533,164.331 104.194 C 162.953 104.828,160.854 105.340,158.580 105.598 C 156.611 105.821,153.421 106.522,151.490 107.155 C 149.560 107.789,146.210 108.516,144.046 108.772 C 141.882 109.028,139.577 109.515,138.923 109.854 C 138.269 110.193,136.584 110.842,135.178 111.295 C 132.119 112.280,131.765 113.037,133.799 114.237 C 138.194 116.830,132.007 120.591,123.346 120.591 C 120.488 120.591,113.308 119.470,110.198 118.538 C 106.544 117.443,102.602 117.709,98.522 119.325 C 96.608 120.083,94.508 120.579,92.562 120.731 C 89.170 120.997,87.920 121.385,85.842 122.814 C 82.855 124.869,83.641 125.555,89.859 126.323 C 92.460 126.645,94.997 127.227,96.443 127.836 C 97.942 128.467,100.168 128.967,102.580 129.213 C 104.672 129.427,107.147 129.947,108.116 130.376 C 111.339 131.801,112.139 131.819,114.199 130.514 C 118.851 127.564,121.120 126.639,124.890 126.155 C 126.924 125.894,129.614 125.244,130.904 124.701 C 132.344 124.095,134.930 123.505,137.654 123.162 C 140.422 122.814,143.013 122.219,144.600 121.568 C 146.204 120.910,148.514 120.383,150.905 120.130 C 153.171 119.890,155.625 119.346,157.044 118.768 C 158.395 118.218,161.268 117.563,163.744 117.240 C 168.276 116.648,169.439 116.372,171.985 115.278 C 172.832 114.914,175.226 114.444,177.305 114.233 C 179.784 113.982,181.801 113.524,183.169 112.900 C 185.239 111.957,187.602 111.434,192.095 110.928 C 193.383 110.782,195.777 110.170,197.416 109.567 C 199.054 108.964,201.724 108.346,203.350 108.194 C 204.975 108.041,208.167 107.331,210.443 106.616 C 212.719 105.901,215.962 105.198,217.650 105.054 C 219.592 104.888,221.763 104.375,223.561 103.656 C 225.472 102.893,227.755 102.372,230.523 102.069 C 233.164 101.780,235.480 101.265,236.977 100.635 C 238.362 100.052,241.058 99.423,243.606 99.088 C 246.078 98.764,248.859 98.122,250.157 97.577 C 251.435 97.040,254.037 96.435,256.158 96.181 C 260.326 95.681,262.512 95.173,264.162 94.320 C 264.771 94.006,267.199 93.495,269.558 93.185 C 271.916 92.875,275.053 92.164,276.529 91.605 C 278.053 91.028,281.084 90.355,283.547 90.046 C 286.079 89.728,288.700 89.140,289.849 88.631 C 290.947 88.145,293.943 87.454,296.628 87.068 C 299.275 86.686,302.557 85.933,303.922 85.392 C 305.351 84.827,307.992 84.234,310.148 83.994 C 312.409 83.743,314.848 83.183,316.307 82.581 C 317.861 81.939,320.181 81.428,322.810 81.147 C 325.678 80.841,327.661 80.380,329.458 79.603 C 331.354 78.784,333.198 78.376,336.552 78.034 C 339.865 77.697,341.661 77.303,343.232 76.570 C 344.413 76.019,346.541 75.401,347.961 75.198 C 352.690 74.520,354.464 74.149,356.847 73.337 C 358.148 72.894,359.975 72.341,360.907 72.108 C 363.915 71.354,363.570 70.052,360.230 69.555 C 359.237 69.407,356.650 68.702,354.483 67.990 C 352.019 67.179,349.307 66.598,347.246 66.437 C 345.392 66.293,342.734 65.756,341.168 65.209 C 337.804 64.033,336.129 63.999,333.800 65.055 M376.749 80.214 C 375.123 80.746,372.108 81.372,370.049 81.606 C 367.687 81.873,365.254 82.450,363.456 83.167 C 361.582 83.916,359.335 84.435,356.892 84.685 C 354.848 84.894,352.672 85.325,352.056 85.642 C 350.308 86.542,348.094 87.063,344.104 87.516 C 341.800 87.777,339.364 88.358,337.584 89.070 C 335.933 89.731,333.595 90.309,332.002 90.449 C 328.480 90.760,325.772 91.355,323.547 92.307 C 322.571 92.724,319.911 93.312,317.635 93.614 C 315.360 93.915,312.213 94.611,310.642 95.161 C 309.072 95.712,305.880 96.414,303.549 96.723 C 300.860 97.078,298.518 97.647,297.143 98.276 C 295.677 98.948,293.746 99.394,291.177 99.654 C 289.087 99.866,286.516 100.399,285.462 100.838 C 282.867 101.921,280.964 102.345,277.278 102.665 C 275.350 102.833,272.795 103.426,270.578 104.221 C 268.491 104.969,265.778 105.615,264.079 105.766 C 262.475 105.909,259.637 106.547,257.773 107.182 C 255.909 107.818,253.054 108.457,251.429 108.601 C 249.803 108.746,246.966 109.386,245.123 110.023 C 243.183 110.694,240.204 111.347,238.044 111.574 C 235.397 111.853,233.524 112.314,231.595 113.160 C 229.615 114.029,227.874 114.449,225.193 114.702 C 220.793 115.118,219.975 115.299,217.109 116.484 C 215.843 117.007,213.584 117.507,211.789 117.660 C 210.074 117.807,206.808 118.509,204.532 119.220 C 202.256 119.930,199.185 120.625,197.706 120.763 C 196.228 120.900,193.834 121.462,192.386 122.011 C 190.938 122.559,187.959 123.247,185.765 123.538 C 183.571 123.829,180.201 124.601,178.277 125.253 C 176.277 125.930,173.175 126.608,171.034 126.836 C 168.815 127.072,166.502 127.586,165.352 128.098 C 164.286 128.574,161.252 129.289,158.609 129.687 C 155.966 130.086,152.848 130.794,151.680 131.262 C 150.512 131.730,147.695 132.349,145.419 132.639 C 142.943 132.954,140.269 133.579,138.760 134.195 C 137.143 134.856,134.672 135.410,131.864 135.742 C 125.226 136.525,121.805 138.295,119.618 142.079 L 118.030 144.828 117.934 173.990 C 117.882 190.030,117.971 242.086,118.131 289.671 L 118.424 376.189 119.803 378.475 C 121.399 381.120,121.789 381.380,125.285 382.132 C 128.870 382.903,137.128 381.933,141.339 380.247 C 143.193 379.505,145.259 379.023,147.265 378.864 C 149.244 378.707,151.401 378.208,153.300 377.468 C 155.214 376.723,157.533 376.189,159.879 375.954 C 162.050 375.736,164.446 375.208,165.855 374.635 C 168.017 373.756,170.309 373.275,175.567 372.593 C 176.650 372.453,178.601 371.902,179.901 371.368 C 181.316 370.789,184.044 370.175,186.690 369.842 C 189.861 369.442,191.690 368.992,193.150 368.252 C 194.630 367.502,196.181 367.126,198.826 366.876 C 200.981 366.672,203.537 366.129,205.092 365.543 C 206.537 365.000,209.793 364.268,212.329 363.917 C 215.060 363.539,217.889 362.880,219.268 362.300 C 220.719 361.689,223.020 361.169,225.379 360.918 C 227.482 360.696,229.950 360.166,230.936 359.727 C 233.607 358.536,234.612 358.295,238.889 357.825 C 241.409 357.547,243.825 356.994,245.643 356.277 C 247.573 355.516,249.794 355.027,252.627 354.738 C 255.549 354.441,257.478 354.007,259.129 353.276 C 260.728 352.569,262.636 352.128,265.107 351.894 C 267.349 351.682,269.609 351.189,271.019 350.606 C 273.929 349.402,274.624 349.245,279.082 348.780 C 281.330 348.545,283.996 347.944,285.941 347.232 C 287.829 346.542,290.637 345.900,292.848 345.653 C 295.098 345.402,297.571 344.832,299.094 344.214 C 300.660 343.577,303.042 343.037,305.388 342.787 C 307.464 342.565,310.138 342.026,311.330 341.588 C 314.089 340.575,317.830 339.725,319.606 339.708 C 321.092 339.694,323.643 339.049,327.094 337.815 C 328.286 337.388,330.591 336.921,332.217 336.777 C 333.842 336.634,336.748 335.978,338.674 335.321 C 340.754 334.611,343.698 333.970,345.927 333.742 C 348.269 333.502,350.538 332.996,351.970 332.393 C 353.272 331.845,356.164 331.163,358.660 330.815 C 361.078 330.477,364.231 329.759,365.666 329.217 C 367.204 328.638,370.138 328.012,372.808 327.696 C 376.878 327.214,377.682 326.980,380.690 325.407 L 384.039 323.656 385.498 319.365 L 386.956 315.074 386.972 200.000 L 386.987 84.926 385.979 82.760 C 384.121 78.767,382.520 78.326,376.749 80.214 M122.365 86.910 C 122.148 86.992,119.931 87.320,117.438 87.638 C 114.391 88.028,112.188 88.549,110.714 89.227 C 109.209 89.920,107.300 90.364,104.631 90.640 C 101.979 90.915,100.042 91.363,98.549 92.047 C 97.143 92.691,94.828 93.252,92.082 93.614 C 89.730 93.924,86.570 94.624,85.058 95.169 C 83.547 95.714,80.623 96.348,78.560 96.578 C 76.135 96.849,73.781 97.409,71.897 98.163 C 69.955 98.941,67.768 99.451,65.330 99.696 C 63.069 99.922,60.773 100.435,59.310 101.040 C 57.883 101.630,55.119 102.257,52.335 102.621 C 49.407 103.004,46.833 103.600,45.281 104.253 C 43.751 104.897,41.518 105.418,39.316 105.646 C 37.035 105.882,34.764 106.423,32.870 107.182 C 31.261 107.826,28.749 108.472,27.287 108.617 C 21.578 109.185,21.669 109.880,27.763 112.271 C 30.945 113.519,32.691 113.950,35.723 114.236 C 38.440 114.492,40.307 114.912,41.942 115.635 C 43.526 116.336,45.557 116.806,48.247 117.093 C 50.431 117.327,53.186 117.854,54.371 118.266 C 56.984 119.175,58.266 119.210,59.417 118.404 C 59.897 118.067,61.237 117.466,62.396 117.067 C 63.554 116.669,65.079 116.044,65.785 115.680 C 66.490 115.315,68.331 114.753,69.876 114.431 C 74.362 113.495,74.728 112.437,70.882 111.514 C 67.242 110.641,64.949 107.219,67.094 105.860 C 68.730 104.823,76.883 104.247,82.589 104.765 C 85.392 105.019,88.683 105.226,89.902 105.225 C 91.257 105.223,93.614 105.682,95.961 106.404 C 100.625 107.840,101.220 107.852,105.108 106.591 C 106.796 106.044,109.655 105.419,111.461 105.204 C 113.267 104.988,115.750 104.443,116.978 103.991 C 118.207 103.540,120.534 102.849,122.150 102.455 C 126.114 101.488,126.108 101.499,126.108 94.488 C 126.108 87.607,125.230 85.830,122.365 86.910 M9.877 120.696 C 8.251 121.519,8.263 120.539,8.369 241.454 L 8.473 359.212 9.337 361.082 C 10.334 363.242,10.849 363.513,15.172 364.149 C 16.906 364.404,18.946 364.878,19.704 365.203 C 22.048 366.205,23.256 366.474,27.255 366.884 C 29.380 367.102,32.387 367.724,33.937 368.265 C 35.487 368.807,38.815 369.507,41.333 369.822 C 43.851 370.136,46.649 370.658,47.552 370.980 C 49.595 371.710,50.335 371.278,50.847 369.053 C 51.591 365.820,51.346 130.434,50.597 129.607 C 49.515 128.412,45.853 127.287,41.141 126.703 C 38.394 126.362,35.711 125.758,34.121 125.122 C 32.556 124.495,30.141 123.947,27.954 123.720 C 25.917 123.510,22.880 122.842,20.948 122.181 C 19.072 121.539,16.562 120.910,15.369 120.783 C 14.177 120.656,12.670 120.475,12.020 120.381 C 11.369 120.287,10.405 120.428,9.877 120.696 M64.153 132.831 C 62.665 133.699,62.665 133.712,62.663 253.990 C 62.661 365.385,62.699 371.898,63.350 373.202 C 64.263 375.028,65.223 375.410,70.217 375.938 C 72.531 376.182,75.721 376.823,77.307 377.362 C 78.893 377.902,81.872 378.530,83.928 378.760 C 86.029 378.994,89.224 379.706,91.222 380.386 C 94.216 381.404,95.526 381.620,99.507 381.752 C 105.059 381.937,105.792 381.683,107.128 379.112 L 108.049 377.340 107.864 260.195 C 107.723 171.017,107.568 142.916,107.214 142.490 C 106.498 141.627,98.330 139.206,94.563 138.740 C 92.711 138.510,89.696 137.807,87.864 137.176 C 85.945 136.515,82.939 135.861,80.775 135.633 C 78.256 135.368,76.243 134.894,74.666 134.194 C 71.563 132.817,65.521 132.033,64.153 132.831 M273.847 177.149 C 278.304 177.647,279.436 177.916,281.138 178.883 C 282.246 179.513,283.862 180.217,284.729 180.447 C 286.360 180.881,289.644 183.054,291.982 185.246 L 293.323 186.503 297.105 186.306 C 299.842 186.163,301.921 185.773,304.631 184.895 C 306.690 184.227,309.932 183.501,311.836 183.282 C 313.739 183.062,316.093 182.530,317.067 182.100 C 321.911 179.957,331.483 179.848,334.050 181.906 C 334.884 182.576,335.975 183.341,336.474 183.607 C 337.600 184.206,338.913 186.300,338.915 187.499 C 338.921 191.032,332.437 197.806,327.888 199.018 C 326.917 199.277,325.232 199.941,324.145 200.494 C 322.712 201.223,321.156 201.594,318.494 201.841 C 316.147 202.058,313.999 202.527,312.547 203.138 C 311.297 203.664,309.459 204.300,308.462 204.551 C 305.956 205.182,305.129 206.118,306.213 207.099 C 307.600 208.354,315.386 207.629,319.139 205.896 C 320.724 205.164,322.499 204.754,325.206 204.494 C 327.819 204.243,329.944 203.764,331.905 202.984 C 333.680 202.279,336.210 201.673,338.522 201.401 C 342.788 200.898,342.991 200.851,346.207 199.600 C 347.507 199.095,350.167 198.501,352.118 198.282 C 354.203 198.048,356.802 197.437,358.424 196.800 C 360.968 195.800,361.626 195.714,366.897 195.690 L 372.611 195.665 374.975 197.101 C 379.283 199.718,380.229 202.024,378.555 205.825 C 377.350 208.562,372.218 212.952,369.164 213.858 C 368.025 214.196,366.236 214.906,365.188 215.437 C 363.894 216.092,361.936 216.570,359.080 216.927 C 356.740 217.220,353.392 217.969,351.527 218.616 C 349.685 219.256,346.926 219.893,345.396 220.033 C 343.866 220.173,341.117 220.802,339.287 221.431 C 337.458 222.061,334.631 222.702,333.005 222.857 C 331.379 223.013,328.453 223.667,326.502 224.311 C 324.552 224.955,321.042 225.734,318.704 226.041 C 316.365 226.349,313.794 226.931,312.990 227.335 C 312.185 227.739,310.583 228.378,309.430 228.755 C 307.055 229.533,306.483 230.356,307.657 231.307 C 308.666 232.124,313.851 231.678,317.438 230.466 C 324.835 227.966,330.964 227.901,334.822 230.282 C 336.107 231.075,337.364 231.724,337.615 231.724 C 338.343 231.724,339.593 233.567,339.871 235.050 C 340.880 240.431,329.953 248.809,320.543 249.868 C 318.619 250.085,315.094 250.869,312.709 251.611 C 310.325 252.353,307.033 253.122,305.393 253.320 C 300.672 253.888,295.943 255.855,294.464 257.865 C 293.800 258.768,292.614 260.360,291.829 261.403 C 287.958 266.544,278.633 274.419,273.577 276.816 C 272.429 277.361,271.003 278.152,270.409 278.575 C 269.815 278.998,268.183 279.638,266.783 279.997 C 265.382 280.356,263.482 281.088,262.560 281.623 C 258.376 284.053,238.943 284.053,235.272 281.624 C 234.454 281.082,232.765 280.373,231.520 280.048 C 230.274 279.723,228.791 279.037,228.224 278.523 C 227.656 278.010,226.415 277.069,225.465 276.431 C 224.515 275.793,223.274 274.947,222.707 274.551 C 221.063 273.405,213.751 273.883,209.153 275.438 C 207.251 276.081,203.793 276.872,201.468 277.196 C 199.143 277.520,196.355 278.182,195.271 278.667 C 187.687 282.058,176.906 277.551,177.432 271.209 C 177.658 268.487,183.352 262.492,186.510 261.652 C 187.427 261.408,188.709 260.812,189.360 260.329 C 191.046 259.075,191.682 258.893,195.758 258.500 C 198.052 258.279,199.984 257.851,200.981 257.342 C 202.370 256.634,204.327 256.051,208.177 255.200 C 209.607 254.884,209.640 253.555,208.235 252.915 C 206.733 252.230,198.029 253.425,194.821 254.756 C 193.304 255.386,191.014 255.904,188.687 256.146 C 186.272 256.396,184.188 256.878,182.729 257.523 C 181.318 258.147,179.135 258.664,176.844 258.916 C 172.049 259.443,171.263 259.617,168.508 260.767 C 167.053 261.373,164.764 261.883,162.413 262.124 C 159.743 262.397,157.881 262.846,156.007 263.668 C 153.549 264.747,153.026 264.828,148.477 264.828 L 143.588 264.828 140.267 263.089 C 135.714 260.705,134.089 257.611,136.026 255.013 C 136.315 254.625,137.227 253.403,138.053 252.296 C 138.878 251.190,139.902 250.174,140.327 250.039 C 140.752 249.904,141.934 249.157,142.954 248.378 C 143.974 247.600,145.522 246.743,146.394 246.474 C 147.267 246.205,148.963 245.528,150.165 244.971 C 151.576 244.317,153.877 243.751,156.667 243.373 C 159.097 243.043,162.019 242.363,163.350 241.817 C 164.718 241.255,167.229 240.678,169.311 240.448 C 171.539 240.202,173.851 239.654,175.385 239.008 C 176.993 238.332,179.158 237.833,181.558 237.588 C 183.877 237.351,186.443 236.771,188.444 236.033 C 190.524 235.267,193.017 234.715,195.607 234.450 C 198.398 234.163,200.346 233.712,202.155 232.932 C 203.571 232.322,205.261 231.700,205.911 231.550 C 207.314 231.226,208.867 230.282,208.867 229.754 C 208.867 227.910,202.901 228.097,194.514 230.203 C 187.754 231.901,179.227 230.203,177.574 226.830 C 175.910 223.434,177.180 219.342,180.706 216.736 C 181.858 215.886,182.904 215.022,183.031 214.816 C 183.835 213.515,190.691 210.771,194.089 210.390 C 196.107 210.163,198.654 209.573,200.000 209.021 C 201.300 208.487,204.185 207.803,206.409 207.501 C 208.635 207.199,212.372 206.308,214.718 205.520 L 218.982 204.088 221.511 201.079 C 228.009 193.346,236.002 186.186,240.963 183.653 C 242.252 182.995,243.675 182.110,244.126 181.687 C 244.576 181.263,245.916 180.711,247.103 180.459 C 248.290 180.207,250.273 179.477,251.509 178.837 C 253.347 177.885,254.533 177.604,258.012 177.293 C 260.352 177.084,262.443 176.846,262.660 176.764 C 263.576 176.416,268.937 176.600,273.847 177.149 M259.603 184.633 C 258.354 184.948,256.847 185.453,256.253 185.757 C 255.659 186.060,254.197 186.514,253.005 186.765 C 251.813 187.017,250.217 187.631,249.458 188.131 C 248.700 188.631,247.399 189.263,246.567 189.537 C 245.736 189.810,244.494 190.523,243.809 191.120 C 243.123 191.717,241.941 192.521,241.182 192.906 C 238.039 194.500,230.244 201.778,228.484 204.761 C 228.111 205.394,226.812 207.315,225.598 209.031 C 224.383 210.747,223.102 212.875,222.751 213.760 C 222.399 214.645,221.637 216.122,221.057 217.041 C 220.478 217.961,219.887 219.440,219.745 220.329 C 219.603 221.217,218.957 222.961,218.311 224.203 C 215.546 229.516,215.522 248.674,218.274 253.577 C 218.889 254.671,219.610 256.237,219.878 257.056 C 220.828 259.964,225.397 266.165,227.646 267.599 C 228.329 268.034,228.985 268.646,229.105 268.957 C 229.225 269.269,230.173 269.961,231.213 270.495 C 232.253 271.028,233.697 271.910,234.423 272.453 C 235.148 272.997,236.460 273.563,237.339 273.711 C 238.217 273.859,240.147 274.404,241.628 274.921 C 245.360 276.225,253.417 276.287,256.158 275.033 C 257.133 274.587,259.213 273.974,260.779 273.671 C 262.346 273.368,264.577 272.584,265.737 271.929 C 266.898 271.275,268.111 270.739,268.434 270.739 C 268.756 270.739,269.937 270.074,271.057 269.261 C 272.177 268.448,273.850 267.303,274.774 266.716 C 278.957 264.058,287.099 255.719,288.809 252.342 C 289.268 251.436,289.827 250.581,290.051 250.442 C 290.275 250.304,290.922 249.272,291.489 248.149 C 292.056 247.027,292.854 245.681,293.262 245.160 C 293.670 244.638,294.285 243.219,294.629 242.007 C 294.972 240.795,295.698 239.029,296.241 238.083 C 296.950 236.849,297.383 235.195,297.772 232.229 C 298.071 229.956,298.672 226.593,299.108 224.756 C 300.094 220.607,300.101 219.190,299.151 216.395 C 298.739 215.181,298.122 212.330,297.781 210.060 C 297.369 207.319,296.897 205.575,296.373 204.867 C 295.940 204.280,295.249 202.916,294.838 201.836 C 292.804 196.481,283.912 188.304,278.472 186.785 C 277.145 186.414,275.172 185.699,274.089 185.195 C 271.573 184.025,263.290 183.704,259.603 184.633 M325.839 186.213 C 325.705 186.348,323.830 186.623,321.672 186.827 C 317.955 187.176,316.388 187.539,312.696 188.906 C 311.822 189.229,309.458 189.678,307.443 189.903 C 303.422 190.352,298.619 192.212,297.871 193.610 C 296.497 196.177,300.509 199.899,303.739 199.054 C 304.555 198.841,306.552 198.546,308.177 198.398 C 309.803 198.251,312.693 197.618,314.599 196.992 C 316.505 196.366,319.335 195.674,320.887 195.454 C 322.685 195.199,324.359 194.666,325.500 193.987 C 326.485 193.400,327.928 192.628,328.707 192.270 C 330.413 191.488,331.803 188.709,330.982 187.720 C 330.105 186.663,326.458 185.595,325.839 186.213 M267.009 195.898 C 268.288 196.134,270.033 196.684,270.887 197.120 C 271.741 197.555,273.269 198.158,274.283 198.459 C 275.297 198.761,276.466 199.382,276.881 199.841 C 277.296 200.300,278.275 201.001,279.056 201.400 C 279.837 201.799,280.955 202.711,281.540 203.427 C 283.815 206.212,285.751 209.108,285.968 210.049 C 286.093 210.591,286.818 212.323,287.581 213.898 L 288.967 216.761 288.975 224.010 L 288.984 231.259 287.734 233.850 C 287.047 235.275,286.308 237.375,286.093 238.516 C 285.877 239.657,285.196 241.300,284.578 242.167 C 283.961 243.034,283.071 244.453,282.600 245.320 C 279.955 250.196,273.494 256.725,268.895 259.171 C 267.955 259.671,266.699 260.435,266.105 260.869 C 265.511 261.303,263.783 261.918,262.266 262.236 C 260.749 262.553,258.731 263.089,257.783 263.426 C 255.421 264.266,248.583 264.258,246.256 263.413 C 245.308 263.069,243.468 262.483,242.167 262.111 C 236.863 260.593,229.066 252.611,228.391 248.007 C 228.237 246.963,227.761 245.310,227.333 244.335 C 225.249 239.594,225.214 234.272,227.224 227.783 C 227.727 226.158,228.264 224.121,228.417 223.257 C 228.727 221.500,231.953 214.982,233.368 213.253 C 233.873 212.637,235.330 210.784,236.607 209.136 C 237.884 207.487,239.657 205.650,240.548 205.053 C 241.439 204.455,242.901 203.340,243.797 202.574 C 246.266 200.465,248.868 198.991,251.198 198.383 C 252.354 198.081,253.983 197.548,254.819 197.199 C 258.545 195.642,263.033 195.163,267.009 195.898 M363.153 201.650 C 359.048 202.010,356.027 202.665,354.204 203.588 C 352.735 204.333,351.162 204.701,348.224 204.988 C 345.481 205.255,343.561 205.683,342.071 206.356 C 340.743 206.957,338.303 207.549,335.765 207.888 C 333.489 208.191,330.296 208.896,328.670 209.454 C 327.044 210.012,323.852 210.716,321.576 211.019 C 318.986 211.363,316.628 211.941,315.271 212.562 C 314.011 213.139,311.705 213.728,309.762 213.970 C 305.363 214.516,304.541 215.254,304.311 218.868 C 304.158 221.262,304.208 221.441,305.203 222.093 C 306.643 223.036,312.846 222.404,316.273 220.965 C 317.638 220.392,320.188 219.791,322.365 219.528 C 324.424 219.280,327.616 218.564,329.458 217.938 C 331.300 217.311,334.451 216.619,336.460 216.399 C 338.786 216.144,340.932 215.635,342.371 214.996 C 343.822 214.352,346.206 213.789,349.034 213.424 C 351.571 213.096,354.077 212.530,354.945 212.089 C 356.434 211.333,358.912 210.745,362.759 210.235 C 365.845 209.826,372.449 205.151,372.408 203.406 C 372.368 201.756,369.071 201.131,363.153 201.650 M257.931 204.757 C 255.769 205.104,253.970 205.631,253.323 206.106 C 252.740 206.535,251.321 207.307,250.171 207.821 C 247.599 208.971,241.565 214.819,239.719 217.951 C 230.983 232.772,232.419 246.148,243.547 253.609 C 247.048 255.956,257.039 256.522,260.563 254.574 C 261.283 254.176,262.821 253.396,263.981 252.840 C 268.535 250.660,274.900 244.285,276.682 240.119 C 277.127 239.078,277.834 237.861,278.253 237.413 C 278.672 236.966,279.202 235.547,279.431 234.260 C 279.660 232.974,280.315 230.278,280.886 228.269 L 281.924 224.617 281.090 221.964 C 280.631 220.504,280.057 218.314,279.815 217.096 C 278.766 211.822,272.374 205.583,267.289 204.871 C 262.459 204.194,261.510 204.183,257.931 204.757 M209.899 212.415 C 207.939 213.149,205.433 213.717,203.110 213.955 C 200.705 214.201,198.638 214.680,197.152 215.334 C 195.901 215.885,193.594 216.596,192.025 216.914 C 189.337 217.459,187.302 218.560,184.729 220.861 C 183.742 221.744,183.790 224.469,184.802 225.011 C 186.591 225.968,192.859 225.496,197.137 224.081 C 199.489 223.303,202.801 222.558,205.051 222.300 C 210.111 221.722,212.204 220.684,214.350 217.688 C 218.271 212.212,216.390 209.983,209.899 212.415 M264.559 212.620 C 268.944 214.020,269.613 214.449,271.354 216.973 C 274.110 220.969,274.048 220.728,274.042 227.431 L 274.036 233.581 271.764 237.388 C 266.890 245.557,262.807 247.804,253.554 247.411 C 247.623 247.160,245.499 245.811,242.276 240.250 C 239.907 236.164,239.752 228.748,241.972 225.731 C 242.404 225.145,243.125 223.682,243.574 222.481 C 246.262 215.296,257.056 210.224,264.559 212.620 M256.946 220.194 C 253.554 221.513,250.607 225.126,249.259 229.618 L 248.185 233.195 249.430 235.803 C 252.949 243.177,260.867 241.317,265.630 231.997 C 269.120 225.169,263.565 217.619,256.946 220.194 M319.438 235.295 C 318.371 235.473,316.454 236.087,315.180 236.659 C 313.556 237.388,311.723 237.807,309.052 238.060 C 303.833 238.553,302.353 239.484,300.200 243.624 C 297.686 248.458,298.892 249.919,303.697 247.860 C 304.737 247.414,307.456 246.817,309.740 246.533 C 312.283 246.217,314.808 245.629,316.256 245.017 C 317.557 244.468,319.685 243.898,320.985 243.752 C 324.018 243.409,325.906 242.840,326.897 241.968 C 327.330 241.587,328.262 240.983,328.968 240.626 C 330.250 239.978,332.217 237.361,332.217 236.303 C 332.217 234.993,324.756 234.404,319.438 235.295 M204.022 238.039 C 202.091 238.223,200.097 238.715,198.649 239.364 C 196.229 240.450,193.104 241.182,190.888 241.182 C 190.162 241.182,188.014 241.698,186.114 242.329 C 184.214 242.959,180.709 243.753,178.325 244.092 C 175.941 244.431,172.926 245.145,171.626 245.679 C 170.157 246.283,167.818 246.799,165.451 247.041 C 162.683 247.324,160.888 247.761,158.883 248.641 C 157.366 249.307,155.444 249.853,154.614 249.854 C 149.543 249.862,141.154 255.778,143.247 257.871 C 144.884 259.508,155.441 258.947,159.910 256.985 C 161.752 256.177,163.559 255.728,165.725 255.541 C 167.453 255.392,170.403 254.767,172.280 254.151 C 174.157 253.536,177.349 252.828,179.373 252.578 C 181.398 252.328,184.118 251.717,185.419 251.220 C 188.684 249.974,188.898 249.924,192.953 249.470 C 195.304 249.207,197.333 248.708,198.823 248.026 C 200.354 247.325,202.278 246.861,204.688 246.610 C 206.661 246.405,208.650 245.999,209.108 245.707 C 210.496 244.822,210.966 240.134,209.830 238.511 C 209.168 237.566,209.066 237.558,204.022 238.039 M209.064 261.293 C 207.547 261.683,204.887 262.183,203.153 262.404 C 201.419 262.625,199.155 263.181,198.123 263.640 C 197.091 264.099,194.993 264.714,193.462 265.005 C 191.912 265.301,190.298 265.874,189.822 266.299 C 189.351 266.718,188.126 267.540,187.101 268.124 C 184.591 269.555,183.541 271.910,184.926 273.001 C 186.475 274.221,194.791 273.748,198.621 272.221 C 200.030 271.659,202.069 271.087,203.153 270.949 C 208.539 270.264,210.571 269.788,214.002 268.411 C 218.218 266.719,218.365 266.491,216.915 263.897 C 215.155 260.749,213.419 260.173,209.064 261.293 " stroke="none" fill="#000000" fill-rule="evenodd"></path></g></svg>