<svg id="svg" xmlns="http://www.w3.org/2000/svg" xmlns:xlink="http://www.w3.org/1999/xlink" width="400" height="393.98496240601503" viewBox="0, 0, 400,393.98496240601503" version="1.1"><g id="svgg"><path id="path1" d="M240.200 0.780 C 239.955 1.551,237.249 2.984,235.293 3.380 C 234.739 3.491,233.310 3.829,232.118 4.131 C 230.926 4.432,228.532 5.037,226.798 5.476 C 225.064 5.915,222.227 6.572,220.493 6.936 C 218.759 7.299,216.365 7.856,215.172 8.173 C 213.980 8.490,211.409 9.101,209.458 9.531 C 207.507 9.962,203.872 10.818,201.379 11.434 C 198.887 12.051,195.251 12.845,193.300 13.199 C 191.350 13.553,188.601 14.190,187.192 14.614 C 185.783 15.038,182.148 15.907,179.113 16.545 C 176.079 17.183,171.823 18.078,169.655 18.534 C 167.488 18.991,163.675 19.886,161.182 20.523 C 158.690 21.161,154.966 22.014,152.906 22.419 C 143.002 24.369,135.432 29.463,131.958 36.517 L 130.640 39.193 130.443 56.345 C 130.193 78.175,130.446 77.533,121.878 78.071 C 116.184 78.429,111.052 79.278,105.616 80.761 C 103.340 81.383,100.414 82.094,99.113 82.343 C 97.813 82.592,94.177 83.395,91.034 84.129 C 79.543 86.812,76.572 87.484,72.709 88.274 C 70.542 88.717,67.172 89.509,65.222 90.034 C 63.271 90.558,59.547 91.459,56.946 92.036 C 47.109 94.216,40.308 95.750,37.833 96.347 C 36.424 96.686,33.409 97.390,31.133 97.910 C 16.770 101.192,16.472 101.316,11.626 106.002 C 8.070 109.440,3.836 112.709,2.940 112.709 C 2.676 112.709,2.240 112.975,1.970 113.300 C 1.701 113.626,1.147 113.892,0.740 113.892 C 0.018 113.892,0.000 116.930,0.000 241.576 C 0.000 368.513,0.005 369.261,0.779 369.261 C 1.208 369.261,2.538 369.791,3.734 370.438 C 6.078 371.706,13.837 373.799,21.965 375.355 C 30.500 376.988,35.096 377.921,39.606 378.934 C 42.253 379.529,45.169 379.908,47.094 379.907 C 51.537 379.906,54.436 380.465,57.162 381.851 C 58.459 382.509,60.625 383.305,61.977 383.618 C 65.011 384.322,73.649 386.224,80.985 387.803 C 84.020 388.457,87.567 389.276,88.867 389.624 C 92.398 390.570,107.775 390.820,110.263 389.972 C 113.234 388.960,114.940 389.176,120.394 391.254 C 122.901 392.209,131.544 392.364,135.397 391.523 C 137.116 391.148,139.054 390.762,139.704 390.665 C 140.355 390.568,141.241 390.322,141.675 390.118 C 142.108 389.915,143.261 389.577,144.236 389.367 C 145.889 389.012,154.625 386.931,162.365 385.048 C 164.207 384.599,168.906 383.510,172.808 382.627 C 181.319 380.700,191.588 378.311,196.453 377.127 C 198.404 376.652,201.596 375.929,203.547 375.521 C 207.310 374.733,217.211 372.475,222.463 371.207 C 224.197 370.789,228.098 369.906,231.131 369.245 C 234.165 368.585,237.534 367.789,238.619 367.476 C 239.704 367.164,242.099 366.628,243.941 366.285 C 245.783 365.942,249.015 365.229,251.122 364.699 C 253.229 364.169,257.041 363.301,259.594 362.769 C 262.148 362.237,265.655 361.451,267.389 361.021 C 269.123 360.591,273.823 359.512,277.833 358.624 C 281.842 357.735,288.138 356.313,291.823 355.463 C 295.507 354.614,299.586 353.724,300.887 353.486 C 302.187 353.247,304.049 352.805,305.025 352.503 C 306.000 352.202,308.394 351.669,310.345 351.321 C 312.296 350.972,315.842 350.177,318.227 349.552 C 320.611 348.928,323.980 348.153,325.714 347.829 C 327.448 347.505,330.640 346.796,332.808 346.254 C 334.975 345.711,337.901 345.071,339.310 344.832 C 340.719 344.593,342.839 344.123,344.022 343.789 C 346.030 343.222,349.398 342.474,365.012 339.125 C 368.418 338.394,371.353 337.706,371.532 337.595 C 371.712 337.483,374.431 336.858,377.574 336.204 C 388.429 333.947,392.466 330.877,394.484 323.346 C 395.596 319.194,395.740 81.931,394.632 78.121 C 393.347 73.700,389.965 71.244,384.440 70.720 C 379.075 70.212,376.482 69.070,372.650 65.528 C 366.232 59.596,342.496 54.473,330.246 56.374 C 322.632 57.556,322.046 57.423,317.779 53.547 C 314.380 50.460,313.379 49.945,309.044 49.057 C 307.375 48.715,305.123 48.172,304.039 47.850 C 302.956 47.528,299.675 46.911,296.749 46.478 C 293.823 46.046,290.744 45.507,289.906 45.281 C 289.067 45.056,286.036 44.725,283.170 44.547 C 273.977 43.975,274.164 44.311,273.876 27.783 C 273.635 13.950,273.527 13.386,270.312 9.218 C 268.835 7.304,267.769 6.280,263.704 2.867 C 261.493 1.011,261.259 0.748,261.487 0.380 C 261.635 0.140,257.807 -0.000,251.084 -0.000 C 240.829 -0.000,240.438 0.028,240.200 0.780 M256.018 11.102 C 260.048 12.586,263.215 15.796,264.691 19.893 C 265.575 22.349,266.029 63.210,265.205 66.268 C 264.278 69.711,260.597 71.755,255.118 71.869 C 249.958 71.977,249.874 71.614,249.862 49.150 C 249.849 26.170,249.724 25.875,241.042 28.358 C 239.558 28.783,236.810 29.415,234.935 29.764 C 233.061 30.112,230.020 30.824,228.177 31.344 C 226.335 31.865,223.586 32.481,222.069 32.713 C 220.552 32.946,217.360 33.651,214.975 34.280 C 212.591 34.909,209.488 35.624,208.079 35.868 C 206.670 36.113,204.010 36.743,202.167 37.268 C 200.325 37.793,197.044 38.555,194.877 38.961 C 192.709 39.367,188.985 40.175,186.601 40.758 C 178.461 42.746,170.841 44.490,167.488 45.133 C 160.624 46.448,156.485 48.279,155.164 50.584 C 154.806 51.208,154.628 56.678,154.483 71.527 C 154.326 87.552,154.176 91.825,153.744 92.611 C 151.946 95.880,144.105 98.735,140.915 97.281 C 138.709 96.276,138.678 95.865,138.803 69.557 L 138.916 45.517 140.183 42.842 C 143.269 36.329,149.505 32.386,159.606 30.565 C 161.448 30.232,165.084 29.439,167.685 28.803 C 176.609 26.618,184.239 24.869,186.798 24.422 C 188.207 24.176,191.133 23.482,193.300 22.878 C 195.468 22.275,198.128 21.656,199.212 21.502 C 200.296 21.348,203.222 20.716,205.714 20.097 C 208.207 19.477,211.399 18.773,212.808 18.531 C 214.217 18.290,216.880 17.656,218.727 17.122 C 220.573 16.589,223.562 15.893,225.369 15.575 C 227.175 15.258,230.275 14.560,232.258 14.026 C 234.240 13.491,237.326 12.780,239.115 12.446 C 240.905 12.112,243.742 11.492,245.421 11.069 C 250.523 9.782,252.451 9.788,256.018 11.102 M239.485 39.999 C 240.826 40.938,241.723 43.789,241.464 46.290 C 240.996 50.831,239.390 52.219,234.181 52.588 C 229.799 52.898,227.882 53.277,213.202 56.734 C 210.493 57.372,207.123 58.084,205.714 58.317 C 204.305 58.550,200.581 59.350,197.438 60.096 C 194.296 60.841,190.394 61.726,188.768 62.063 C 177.513 64.395,172.629 65.449,171.431 65.801 C 166.330 67.304,163.153 65.679,163.153 61.566 C 163.153 56.966,165.829 54.987,174.471 53.197 C 177.458 52.578,181.320 51.714,183.054 51.276 C 184.788 50.839,187.360 50.297,188.768 50.073 C 190.177 49.848,192.571 49.306,194.089 48.869 C 195.606 48.431,198.709 47.714,200.985 47.274 C 203.261 46.834,206.305 46.123,207.749 45.694 C 209.192 45.265,212.473 44.477,215.039 43.943 C 217.605 43.410,220.680 42.699,221.872 42.364 C 223.064 42.030,226.051 41.393,228.511 40.950 C 230.970 40.506,233.364 39.990,233.831 39.801 C 235.226 39.238,238.566 39.355,239.485 39.999 M293.172 55.609 C 297.481 56.271,301.023 58.149,299.963 59.209 C 299.185 59.987,289.216 58.976,285.939 57.787 C 278.742 55.174,282.662 53.993,293.172 55.609 M236.059 63.307 C 236.960 64.171,237.056 64.595,237.181 68.226 C 237.422 75.218,236.318 76.638,229.562 78.029 C 227.443 78.464,224.093 79.248,222.116 79.771 C 220.140 80.293,217.813 80.829,216.946 80.962 C 216.079 81.095,212.709 81.832,209.458 82.600 C 194.708 86.085,191.971 86.708,189.754 87.088 C 188.453 87.310,185.882 87.924,184.039 88.451 C 177.369 90.361,170.065 91.575,168.844 90.977 C 165.060 89.123,164.899 78.592,168.625 76.677 C 170.053 75.943,179.553 73.486,183.842 72.742 C 185.793 72.404,189.695 71.583,192.512 70.917 C 195.330 70.252,200.207 69.099,203.350 68.356 C 206.493 67.612,210.305 66.818,211.823 66.590 C 213.340 66.362,215.952 65.810,217.628 65.362 C 229.023 62.318,234.405 61.718,236.059 63.307 M342.970 65.582 C 345.401 66.105,348.808 66.815,350.542 67.160 C 360.725 69.187,360.659 72.565,350.395 74.733 C 347.875 75.265,344.702 76.042,343.345 76.460 C 341.987 76.877,339.238 77.497,337.236 77.836 C 335.234 78.176,332.089 78.878,330.246 79.396 C 328.404 79.915,325.389 80.618,323.547 80.960 C 321.704 81.301,317.892 82.124,315.074 82.787 C 302.383 85.775,298.429 86.685,297.143 86.911 C 296.384 87.044,293.103 87.772,289.852 88.528 C 286.601 89.284,280.926 90.590,277.241 91.429 C 273.557 92.269,268.502 93.434,266.010 94.018 C 263.517 94.601,259.084 95.580,256.158 96.192 C 253.232 96.804,249.419 97.655,247.685 98.083 C 240.541 99.845,232.552 101.660,230.148 102.066 C 228.739 102.304,226.079 102.921,224.236 103.436 C 222.394 103.952,219.823 104.560,218.522 104.788 C 216.207 105.193,208.840 106.859,199.015 109.198 C 196.305 109.843,192.049 110.802,189.557 111.329 C 187.064 111.856,183.517 112.656,181.675 113.106 C 173.748 115.045,166.784 116.645,165.320 116.864 C 163.826 117.087,161.511 117.613,145.616 121.336 C 141.931 122.199,137.764 123.025,136.355 123.172 C 134.946 123.318,132.463 123.846,130.837 124.345 C 129.212 124.844,126.377 125.624,124.538 126.079 C 122.699 126.533,119.323 127.790,117.035 128.871 C 112.312 131.104,111.454 131.203,106.685 130.066 C 104.905 129.641,102.030 129.023,100.296 128.693 C 95.829 127.841,88.219 125.265,87.714 124.433 C 86.734 122.820,87.881 122.238,96.946 119.748 C 103.399 117.976,105.972 117.921,114.395 119.379 C 127.151 121.586,132.802 120.583,133.829 115.930 C 134.729 111.850,135.914 110.790,140.904 109.601 C 147.955 107.922,156.453 106.008,159.564 105.400 C 161.384 105.044,163.569 104.507,164.421 104.206 C 165.272 103.906,167.508 103.379,169.388 103.035 C 171.269 102.692,174.759 101.897,177.143 101.271 C 181.492 100.127,186.520 98.976,196.059 96.939 C 198.877 96.338,202.160 95.561,203.355 95.212 C 204.550 94.864,207.333 94.236,209.538 93.815 C 211.744 93.395,214.696 92.697,216.099 92.264 C 217.501 91.830,219.773 91.279,221.147 91.039 C 222.521 90.798,226.483 89.918,229.951 89.083 C 233.419 88.247,239.094 86.916,242.562 86.125 C 246.030 85.333,250.729 84.230,253.005 83.673 C 255.281 83.116,259.448 82.169,262.266 81.569 C 265.084 80.969,267.835 80.302,268.381 80.087 C 268.927 79.871,270.877 79.402,272.716 79.044 C 274.555 78.685,278.631 77.783,281.773 77.039 C 284.916 76.295,289.084 75.327,291.034 74.889 C 292.985 74.451,295.557 73.793,296.749 73.426 C 298.596 72.859,300.928 72.756,312.512 72.731 C 328.065 72.696,328.111 72.688,330.238 69.372 C 333.366 64.499,335.284 63.928,342.970 65.582 M383.773 80.655 C 384.353 81.076,385.271 82.298,385.813 83.370 L 386.798 85.320 386.798 200.000 C 386.798 323.591,386.914 316.601,384.799 320.824 C 383.045 324.326,379.993 326.205,374.277 327.301 C 371.249 327.882,367.145 328.815,354.483 331.803 C 351.665 332.467,347.941 333.277,346.207 333.602 C 344.473 333.927,340.749 334.734,337.931 335.396 C 335.113 336.057,330.236 337.204,327.094 337.943 C 323.951 338.683,320.670 339.397,319.803 339.530 C 318.936 339.663,316.276 340.276,313.892 340.892 C 311.507 341.508,308.404 342.206,306.995 342.442 C 305.586 342.678,301.862 343.478,298.719 344.220 C 285.012 347.457,281.028 348.359,278.621 348.770 C 277.212 349.010,274.108 349.714,271.724 350.333 C 269.340 350.953,266.196 351.657,264.739 351.897 C 263.281 352.138,260.975 352.677,259.615 353.095 C 258.256 353.512,255.137 354.214,252.685 354.653 C 250.233 355.092,247.307 355.731,246.182 356.072 C 245.058 356.413,241.655 357.207,238.621 357.838 C 235.586 358.468,231.685 359.333,229.951 359.760 C 227.037 360.478,223.444 361.309,206.897 365.092 C 203.537 365.860,199.729 366.670,198.435 366.892 C 197.141 367.114,194.658 367.726,192.918 368.251 C 191.178 368.777,189.044 369.322,188.177 369.462 C 187.310 369.602,183.586 370.427,179.901 371.294 C 164.105 375.013,161.648 375.571,159.340 375.964 C 158.001 376.192,155.518 376.792,153.822 377.298 C 152.126 377.803,149.498 378.430,147.980 378.690 C 146.463 378.950,143.271 379.675,140.887 380.300 C 130.102 383.130,124.667 382.988,121.385 379.793 C 118.622 377.102,118.848 382.195,118.531 315.468 C 117.664 133.177,117.574 146.464,119.701 142.555 C 121.657 138.961,124.755 137.195,131.286 135.950 C 133.526 135.523,136.337 134.887,137.532 134.536 C 138.727 134.185,142.010 133.408,144.828 132.809 C 149.823 131.748,152.767 131.087,164.926 128.301 C 168.177 127.556,173.586 126.317,176.946 125.547 C 180.305 124.778,185.005 123.717,187.389 123.189 C 195.332 121.431,197.597 120.909,202.956 119.602 C 205.882 118.888,209.074 118.183,210.049 118.034 C 211.025 117.886,214.217 117.166,217.143 116.434 C 220.069 115.702,223.438 114.984,224.631 114.837 C 225.823 114.691,228.483 114.077,230.542 113.473 C 232.601 112.869,235.739 112.101,237.515 111.766 C 239.291 111.432,242.484 110.724,244.609 110.194 C 246.734 109.663,249.537 109.030,250.837 108.786 C 253.368 108.312,260.341 106.717,267.389 105.001 C 269.773 104.420,273.409 103.604,275.468 103.188 C 277.527 102.772,281.340 101.915,283.941 101.285 C 286.542 100.654,289.823 99.939,291.232 99.696 C 292.640 99.453,295.300 98.826,297.143 98.303 C 298.985 97.780,301.911 97.085,303.645 96.758 C 305.379 96.431,309.015 95.640,311.724 95.000 C 324.212 92.050,328.659 91.044,331.034 90.633 C 332.443 90.389,335.103 89.761,336.946 89.238 C 338.788 88.715,341.803 88.009,343.645 87.669 C 345.488 87.329,348.680 86.624,350.739 86.103 C 352.798 85.582,356.256 84.796,358.424 84.356 C 360.591 83.916,363.783 83.191,365.517 82.744 C 377.587 79.636,381.717 79.163,383.773 80.655 M123.139 87.654 C 125.166 88.501,125.822 90.139,125.828 94.371 C 125.838 101.060,124.045 102.591,113.811 104.632 C 112.013 104.991,108.591 105.730,106.207 106.275 C 101.515 107.348,99.114 107.330,94.975 106.192 C 86.248 103.792,70.885 103.961,68.765 106.479 C 67.697 107.749,67.705 108.141,68.853 110.841 C 70.023 113.594,68.241 115.046,60.493 117.654 L 57.340 118.715 51.429 117.644 C 48.177 117.055,44.010 116.150,42.167 115.633 C 40.325 115.115,37.078 114.345,34.952 113.920 C 24.497 111.834,26.213 108.401,39.015 105.795 C 41.507 105.287,44.433 104.597,45.517 104.260 C 46.601 103.924,49.350 103.289,51.626 102.848 C 53.901 102.407,57.063 101.684,58.651 101.241 C 60.239 100.797,63.342 100.120,65.547 99.735 C 67.752 99.350,71.153 98.586,73.103 98.038 C 75.054 97.490,78.424 96.655,80.591 96.182 C 89.318 94.279,93.358 93.363,96.552 92.565 C 98.394 92.104,101.852 91.325,104.236 90.835 C 106.621 90.345,109.813 89.569,111.330 89.112 C 113.881 88.344,119.456 87.212,121.096 87.129 C 121.483 87.110,122.402 87.346,123.139 87.654 M19.507 121.849 C 21.025 122.262,24.394 123.035,26.995 123.565 C 29.596 124.095,33.054 124.879,34.680 125.308 C 36.305 125.736,39.586 126.456,41.970 126.909 C 46.755 127.818,49.385 128.877,50.292 130.261 C 51.154 131.576,51.130 366.222,50.267 368.286 C 49.136 370.993,44.715 370.952,33.692 368.130 C 31.957 367.686,28.796 367.043,26.669 366.701 C 18.090 365.320,11.701 363.271,10.121 361.392 C 8.208 359.120,8.260 362.693,8.369 239.930 L 8.473 123.802 9.298 122.689 C 10.893 120.538,13.815 120.297,19.507 121.849 M74.519 134.186 C 76.341 134.722,79.429 135.438,81.379 135.776 C 83.330 136.115,86.209 136.746,87.778 137.180 C 89.346 137.614,93.134 138.481,96.196 139.108 C 102.520 140.401,105.720 141.744,106.619 143.482 C 107.527 145.240,108.355 372.670,107.468 376.856 C 106.395 381.919,101.945 382.862,91.232 380.295 C 88.631 379.672,85.350 378.968,83.941 378.730 C 82.532 378.492,78.985 377.760,76.059 377.103 C 73.133 376.446,69.596 375.653,68.199 375.340 C 65.409 374.716,64.087 373.752,63.102 371.626 C 62.438 370.191,61.838 147.790,62.476 139.613 C 63.006 132.827,65.729 131.600,74.519 134.186 M261.675 176.760 C 261.350 176.824,259.571 177.082,257.721 177.334 C 246.568 178.848,234.108 186.607,223.749 198.488 C 218.613 204.379,214.414 206.713,207.274 207.646 C 205.422 207.888,202.552 208.517,200.895 209.043 C 199.238 209.568,196.230 210.275,194.212 210.612 C 183.149 212.462,174.514 221.108,178.227 226.618 C 180.602 230.143,189.027 231.940,195.665 230.337 C 200.061 229.276,203.656 229.713,202.731 231.196 C 201.947 232.454,199.421 233.410,196.073 233.715 C 193.616 233.939,192.003 234.370,189.511 235.471 C 187.544 236.340,184.612 237.224,182.266 237.656 C 180.099 238.054,177.261 238.754,175.961 239.209 C 174.660 239.665,171.842 240.303,169.698 240.627 C 167.554 240.951,164.573 241.645,163.073 242.169 C 161.572 242.693,158.893 243.320,157.118 243.562 C 145.560 245.139,134.659 253.018,136.328 258.589 C 137.934 263.949,147.921 266.460,155.804 263.487 C 157.289 262.926,160.215 262.209,162.306 261.892 C 164.397 261.576,167.413 260.869,169.008 260.322 C 170.603 259.776,173.440 259.135,175.313 258.898 C 177.187 258.661,180.049 258.107,181.675 257.666 C 184.545 256.888,188.389 256.647,189.965 257.147 C 191.609 257.669,190.739 258.800,186.527 261.616 C 176.466 268.345,175.148 273.961,182.748 277.717 C 186.830 279.735,189.925 279.923,194.763 278.447 C 196.637 277.876,199.823 277.154,201.844 276.845 C 203.864 276.535,206.936 275.824,208.670 275.265 C 215.944 272.919,220.526 273.412,226.466 277.177 C 234.516 282.280,239.376 283.519,250.377 283.272 L 257.931 283.103 262.857 281.418 C 273.966 277.619,283.794 270.899,291.156 262.069 C 296.587 255.556,299.042 254.058,306.012 253.007 C 307.745 252.746,310.493 252.100,312.118 251.572 C 313.744 251.044,317.099 250.260,319.575 249.831 C 330.497 247.936,340.187 240.657,339.149 235.127 C 338.588 232.135,330.938 227.783,326.240 227.783 C 320.971 227.783,325.316 224.084,332.020 222.863 C 333.970 222.507,337.006 221.786,338.765 221.259 C 340.525 220.733,343.334 220.112,345.008 219.879 C 346.682 219.646,349.676 218.959,351.661 218.352 C 353.647 217.745,356.761 217.034,358.583 216.771 C 372.836 214.717,383.048 204.560,376.688 198.764 C 373.303 195.679,364.908 194.928,358.424 197.130 C 356.690 197.719,353.849 198.374,352.111 198.585 C 350.374 198.797,347.486 199.433,345.693 199.999 C 343.901 200.565,340.762 201.280,338.717 201.587 C 336.672 201.894,333.531 202.522,331.736 202.984 C 328.369 203.850,323.540 203.895,322.712 203.067 C 322.208 202.563,324.085 201.143,328.324 198.820 C 345.416 189.455,337.621 176.265,318.384 182.000 C 316.130 182.672,312.956 183.400,311.330 183.617 C 309.704 183.835,306.867 184.470,305.025 185.028 C 298.180 187.102,294.896 186.799,290.049 183.644 C 281.446 178.043,269.653 175.182,261.675 176.760 M274.928 185.649 C 288.344 189.937,294.373 196.812,298.352 212.360 C 300.253 219.785,300.252 219.710,298.373 229.052 C 295.962 241.046,292.226 248.855,284.846 257.332 C 255.318 291.246,210.803 274.860,216.729 232.258 C 220.901 202.269,251.144 178.048,274.928 185.649 M328.268 186.991 C 332.738 189.303,328.604 193.662,319.803 195.916 C 317.419 196.526,314.493 197.298,313.300 197.632 C 303.312 200.425,296.439 198.228,299.493 193.218 C 300.573 191.448,303.037 190.324,307.185 189.709 C 309.140 189.420,312.178 188.727,313.937 188.169 C 319.256 186.484,326.185 185.914,328.268 186.991 M256.565 196.700 C 235.866 202.256,222.160 224.320,227.220 243.941 C 235.077 274.411,275.511 268.888,287.038 235.769 C 295.030 212.811,277.980 190.952,256.565 196.700 M368.257 201.937 C 373.347 204.064,369.220 208.951,360.788 210.780 C 358.837 211.203,356.177 211.907,354.877 212.345 C 353.576 212.782,351.060 213.339,349.284 213.581 C 347.509 213.823,344.760 214.463,343.176 215.004 C 341.592 215.544,338.643 216.253,336.623 216.579 C 334.603 216.906,331.589 217.603,329.924 218.128 C 328.259 218.653,325.151 219.363,323.017 219.706 C 320.883 220.048,317.779 220.762,316.120 221.292 C 309.934 223.268,304.981 222.291,304.708 219.040 C 304.517 216.779,306.344 214.989,309.894 213.958 C 311.443 213.509,313.886 212.723,315.325 212.211 C 316.763 211.700,319.423 211.087,321.236 210.849 C 323.049 210.611,326.305 209.899,328.473 209.266 C 330.640 208.633,333.833 207.913,335.567 207.664 C 337.300 207.416,340.049 206.779,341.675 206.250 C 343.300 205.720,345.961 205.109,347.586 204.891 C 349.212 204.674,352.182 203.957,354.187 203.299 C 359.575 201.531,365.834 200.925,368.257 201.937 M320.556 203.292 C 321.228 204.380,317.009 206.502,314.177 206.502 C 310.718 206.502,310.085 205.209,312.833 203.758 C 314.361 202.951,320.130 202.603,320.556 203.292 M267.448 205.082 C 287.790 210.498,284.048 243.103,261.872 253.670 L 258.719 255.172 252.808 255.172 C 245.829 255.172,243.763 254.415,239.824 250.413 C 223.856 234.188,245.202 199.159,267.448 205.082 M214.260 212.877 C 217.636 216.048,212.946 220.750,204.664 222.498 C 202.099 223.040,198.581 223.935,196.847 224.486 C 189.092 226.955,183.683 225.187,185.746 220.859 C 186.966 218.302,195.735 214.758,203.650 213.624 C 205.441 213.367,207.569 212.914,208.379 212.616 C 210.710 211.760,213.189 211.870,214.260 212.877 M255.369 212.763 C 236.857 218.748,235.391 246.021,253.492 247.682 C 267.193 248.940,278.030 234.199,273.335 220.690 C 271.052 214.118,262.647 210.410,255.369 212.763 M262.360 221.071 C 266.251 222.837,267.499 227.643,265.280 232.315 C 261.852 239.534,254.200 242.034,250.500 237.143 C 245.125 230.038,254.406 217.461,262.360 221.071 M319.677 227.980 C 319.795 228.736,316.334 230.180,314.683 230.062 C 312.579 229.913,312.297 228.801,314.157 227.980 C 315.596 227.345,319.577 227.345,319.677 227.980 M329.229 235.805 C 332.912 238.218,329.010 241.926,320.394 244.203 C 303.907 248.560,300.322 248.703,300.302 245.005 C 300.283 241.635,303.533 239.079,309.163 238.038 C 310.680 237.757,313.082 237.113,314.502 236.607 C 318.686 235.114,319.984 234.902,324.205 235.023 C 327.154 235.108,328.481 235.315,329.229 235.805 M209.098 239.332 C 211.295 241.886,209.197 245.860,205.319 246.492 C 204.344 246.651,201.685 247.366,199.409 248.081 C 197.133 248.796,193.941 249.569,192.315 249.797 C 190.690 250.026,188.003 250.657,186.346 251.198 C 184.688 251.740,181.673 252.451,179.646 252.779 C 177.619 253.107,174.473 253.822,172.654 254.368 C 170.835 254.914,167.901 255.541,166.133 255.760 C 164.366 255.980,161.420 256.678,159.588 257.312 C 153.149 259.537,145.979 259.318,145.073 256.867 C 144.038 254.071,147.978 251.023,154.366 249.680 C 155.881 249.361,158.044 248.736,159.173 248.291 C 160.302 247.846,162.945 247.223,165.047 246.906 C 167.148 246.589,170.123 245.902,171.658 245.379 C 173.193 244.855,176.212 244.148,178.368 243.806 C 180.524 243.465,183.435 242.822,184.838 242.379 C 186.241 241.935,189.074 241.311,191.133 240.993 C 193.192 240.675,196.384 239.883,198.227 239.233 C 202.897 237.585,207.632 237.628,209.098 239.332 M201.193 254.993 C 201.887 256.116,198.409 257.616,196.223 257.136 C 194.735 256.809,194.771 256.331,196.355 255.365 C 197.724 254.530,200.763 254.296,201.193 254.993 M213.169 261.271 C 215.208 261.856,216.355 263.134,216.355 264.822 C 216.355 267.678,212.995 269.601,205.938 270.784 C 203.499 271.193,200.455 271.896,199.175 272.348 C 189.207 275.862,181.277 271.550,188.967 266.797 C 193.428 264.040,209.794 260.303,213.169 261.271 " stroke="none" fill="#000000" fill-rule="evenodd"></path></g></svg>