<svg id="svg" version="1.1" xmlns="http://www.w3.org/2000/svg" xmlns:xlink="http://www.w3.org/1999/xlink" width="400" height="400" viewBox="0, 0, 400,400"><g id="svgg"><path id="path0" d="M125.536 53.338 C 121.528 55.119,121.600 54.621,121.600 80.649 L 121.600 103.200 73.420 103.200 C 24.678 103.200,23.565 103.230,19.200 104.666 C 10.425 107.552,3.702 114.620,0.891 123.914 C -0.178 127.451,-0.178 322.149,0.891 325.686 C 4.138 336.421,12.110 343.694,23.120 345.963 C 26.127 346.583,373.873 346.583,376.880 345.963 C 387.890 343.694,395.862 336.421,399.109 325.686 C 400.178 322.149,400.178 127.451,399.109 123.914 C 396.298 114.620,389.575 107.552,380.800 104.666 C 376.438 103.231,375.304 103.200,327.380 103.200 L 280.000 103.200 280.000 80.649 C 280.000 54.531,280.080 55.064,275.881 53.276 C 274.270 52.590,127.083 52.650,125.536 53.338 M263.520 69.280 C 264.210 69.970,264.210 102.030,263.520 102.720 C 262.822 103.418,138.778 103.418,138.080 102.720 C 137.390 102.030,137.390 69.970,138.080 69.280 C 138.778 68.582,262.822 68.582,263.520 69.280 M377.000 120.009 C 379.538 121.242,381.941 123.638,383.210 126.200 L 384.200 128.200 384.200 224.800 L 384.200 321.400 383.210 323.400 C 381.947 325.950,379.550 328.347,377.000 329.610 L 375.000 330.600 200.000 330.600 L 25.000 330.600 23.000 329.610 C 20.450 328.347,18.053 325.950,16.790 323.400 L 15.800 321.400 15.800 224.800 L 15.800 128.200 16.790 126.200 C 18.623 122.499,22.189 119.735,25.800 119.215 C 26.680 119.089,105.610 118.997,201.200 119.011 L 375.000 119.037 377.000 120.009 M193.000 177.233 C 188.603 177.990,184.549 179.071,183.820 179.682 C 183.611 179.857,183.195 180.000,182.895 180.000 C 180.579 180.000,171.206 186.026,166.664 190.436 L 163.406 193.600 136.952 193.600 C 108.498 193.600,108.854 193.576,106.947 195.665 C 104.106 198.778,104.106 202.822,106.947 205.935 C 108.830 207.998,108.853 208.000,132.582 208.000 C 157.130 208.000,155.308 207.824,154.508 210.115 C 153.602 212.707,152.800 215.936,152.800 216.987 C 152.800 219.377,155.852 219.200,114.541 219.200 C 71.467 219.200,74.771 218.926,72.379 222.697 C 70.039 226.387,71.306 230.812,75.284 232.843 C 76.710 233.570,78.269 233.600,114.784 233.600 C 152.216 233.600,152.800 233.612,152.800 234.380 C 152.800 235.310,153.670 238.692,154.554 241.200 C 154.903 242.190,155.191 243.225,155.194 243.500 C 155.199 243.894,150.466 244.000,132.849 244.000 C 108.831 244.000,108.831 244.000,106.947 246.065 C 104.106 249.178,104.106 253.222,106.947 256.335 C 108.854 258.425,108.472 258.399,137.349 258.415 L 164.200 258.430 167.173 261.254 C 185.618 278.774,213.582 278.774,232.027 261.254 L 235.000 258.430 261.851 258.415 C 290.728 258.399,290.346 258.425,292.253 256.335 C 295.094 253.222,295.094 249.178,292.253 246.065 C 290.369 244.000,290.369 244.000,266.351 244.000 C 248.734 244.000,244.001 243.894,244.006 243.500 C 244.009 243.225,244.297 242.190,244.646 241.200 C 245.530 238.692,246.400 235.310,246.400 234.380 C 246.400 233.612,246.984 233.600,284.416 233.600 C 320.931 233.600,322.490 233.570,323.916 232.843 C 328.325 230.592,329.336 225.200,326.052 221.457 C 323.971 219.087,326.038 219.200,284.659 219.200 C 243.348 219.200,246.400 219.377,246.400 216.987 C 246.400 215.936,245.598 212.707,244.692 210.115 C 243.892 207.824,242.070 208.000,266.618 208.000 C 290.347 208.000,290.370 207.998,292.253 205.935 C 295.790 202.059,294.675 196.102,290.051 194.165 C 288.935 193.698,284.133 193.600,262.248 193.600 L 235.794 193.600 232.536 190.436 C 227.936 185.971,218.618 180.000,216.249 180.000 C 215.918 180.000,215.549 179.841,215.430 179.648 C 215.310 179.454,214.804 179.197,214.306 179.076 C 213.808 178.955,212.680 178.659,211.800 178.420 C 206.382 176.943,197.828 176.403,193.000 177.233 M207.710 188.583 C 212.965 190.011,215.526 191.166,219.800 194.033 C 227.791 199.395,233.097 207.439,235.610 218.000 C 236.278 220.804,236.301 230.431,235.647 233.032 C 232.333 246.213,225.630 254.894,214.707 260.149 C 209.618 262.597,206.196 263.314,199.600 263.314 C 194.002 263.314,193.111 263.187,188.195 261.680 C 177.960 258.543,168.201 248.531,164.917 237.800 C 163.323 232.590,163.200 231.717,163.200 225.600 C 163.200 219.483,163.323 218.610,164.917 213.400 C 170.371 195.577,190.495 183.906,207.710 188.583 M194.800 202.040 C 185.035 204.605,178.897 209.955,175.800 218.600 C 170.061 234.620,182.436 251.972,199.600 251.972 C 221.519 251.972,232.914 225.622,217.936 209.567 C 212.288 203.513,201.971 200.156,194.800 202.040 M205.471 213.815 C 214.589 217.844,216.694 230.434,209.378 237.177 C 202.223 243.773,190.909 241.609,186.726 232.846 C 181.079 221.013,193.415 208.489,205.471 213.815 " stroke="none" fill="#000000" fill-rule="evenodd"></path><path id="path1" d="M0.000 63.267 C 0.000 98.063,0.093 126.441,0.206 126.327 C 0.319 126.214,0.675 125.110,0.997 123.875 C 3.292 115.066,10.406 107.558,19.200 104.666 C 23.565 103.230,24.678 103.200,73.420 103.200 L 121.600 103.200 121.600 80.619 C 121.600 56.985,121.608 56.873,123.376 54.865 C 125.298 52.684,120.955 52.800,200.800 52.800 C 280.645 52.800,276.302 52.684,278.224 54.865 C 279.992 56.873,280.000 56.985,280.000 80.619 L 280.000 103.200 327.380 103.200 C 375.304 103.200,376.438 103.231,380.800 104.666 C 389.594 107.558,396.708 115.066,399.003 123.875 C 399.325 125.110,399.681 126.214,399.794 126.327 C 399.907 126.441,400.000 98.063,400.000 63.267 L 400.000 0.000 200.000 0.000 L 0.000 0.000 0.000 63.267 M138.080 69.280 C 137.390 69.970,137.390 102.030,138.080 102.720 C 138.778 103.418,262.822 103.418,263.520 102.720 C 264.210 102.030,264.210 69.970,263.520 69.280 C 262.822 68.582,138.778 68.582,138.080 69.280 M25.800 119.215 C 22.189 119.735,18.623 122.499,16.790 126.200 L 15.800 128.200 15.800 224.800 L 15.800 321.400 16.790 323.400 C 18.053 325.950,20.450 328.347,23.000 329.610 L 25.000 330.600 200.000 330.600 L 375.000 330.600 377.000 329.610 C 379.550 328.347,381.947 325.950,383.210 323.400 L 384.200 321.400 384.200 224.800 L 384.200 128.200 383.210 126.200 C 381.941 123.638,379.538 121.242,377.000 120.009 L 375.000 119.037 201.200 119.011 C 105.610 118.997,26.680 119.089,25.800 119.215 M206.800 177.399 C 208.670 177.720,210.920 178.180,211.800 178.420 C 212.680 178.659,213.808 178.955,214.306 179.076 C 214.804 179.197,215.310 179.454,215.430 179.648 C 215.549 179.841,215.918 180.000,216.249 180.000 C 218.618 180.000,227.936 185.971,232.536 190.436 L 235.794 193.600 262.248 193.600 C 290.702 193.600,290.346 193.576,292.253 195.665 C 295.790 199.541,294.675 205.498,290.051 207.435 C 288.944 207.899,284.739 208.000,266.618 208.000 C 242.070 208.000,243.892 207.824,244.692 210.115 C 245.598 212.707,246.400 215.936,246.400 216.987 C 246.400 219.377,243.348 219.200,284.659 219.200 C 326.038 219.200,323.971 219.087,326.052 221.457 C 329.336 225.200,328.325 230.592,323.916 232.843 C 322.490 233.570,320.931 233.600,284.416 233.600 C 246.984 233.600,246.400 233.612,246.400 234.380 C 246.400 235.310,245.530 238.692,244.646 241.200 C 244.297 242.190,244.009 243.225,244.006 243.500 C 244.001 243.894,248.734 244.000,266.351 244.000 C 290.369 244.000,290.369 244.000,292.253 246.065 C 295.094 249.178,295.094 253.222,292.253 256.335 C 290.346 258.425,290.728 258.399,261.851 258.415 L 235.000 258.430 232.027 261.254 C 213.582 278.774,185.618 278.774,167.173 261.254 L 164.200 258.430 137.349 258.415 C 108.472 258.399,108.854 258.425,106.947 256.335 C 104.106 253.222,104.106 249.178,106.947 246.065 C 108.831 244.000,108.831 244.000,132.849 244.000 C 150.466 244.000,155.199 243.894,155.194 243.500 C 155.191 243.225,154.903 242.190,154.554 241.200 C 153.670 238.692,152.800 235.310,152.800 234.380 C 152.800 233.612,152.216 233.600,114.784 233.600 C 78.269 233.600,76.710 233.570,75.284 232.843 C 71.306 230.812,70.039 226.387,72.379 222.697 C 74.771 218.926,71.467 219.200,114.541 219.200 C 155.852 219.200,152.800 219.377,152.800 216.987 C 152.800 215.936,153.602 212.707,154.508 210.115 C 155.308 207.824,157.130 208.000,132.582 208.000 C 108.853 208.000,108.830 207.998,106.947 205.935 C 104.106 202.822,104.106 198.778,106.947 195.665 C 108.854 193.576,108.498 193.600,136.952 193.600 L 163.406 193.600 166.664 190.436 C 171.206 186.026,180.579 180.000,182.895 180.000 C 183.195 180.000,183.611 179.857,183.820 179.682 C 184.549 179.071,188.603 177.990,193.000 177.233 C 196.204 176.682,203.116 176.765,206.800 177.399 M195.400 187.844 C 181.957 189.220,168.990 200.091,164.917 213.400 C 163.323 218.610,163.200 219.483,163.200 225.600 C 163.200 231.717,163.323 232.590,164.917 237.800 C 168.201 248.531,177.960 258.543,188.195 261.680 C 193.111 263.187,194.002 263.314,199.600 263.314 C 206.196 263.314,209.618 262.597,214.707 260.149 C 225.630 254.894,232.333 246.213,235.647 233.032 C 236.301 230.431,236.278 220.804,235.610 218.000 C 231.379 200.219,218.045 188.498,201.310 187.848 C 198.940 187.756,196.280 187.754,195.400 187.844 M204.800 202.171 C 229.768 208.328,231.854 241.989,207.800 250.600 C 185.327 258.645,165.234 232.317,178.800 212.600 C 182.499 207.223,187.413 203.980,194.800 202.040 C 196.905 201.487,202.314 201.558,204.800 202.171 M197.000 212.761 C 187.926 214.393,182.750 224.513,186.726 232.846 C 191.925 243.739,207.275 243.739,212.474 232.846 C 217.408 222.507,208.330 210.723,197.000 212.761 M0.000 361.533 L 0.000 400.000 200.000 400.000 L 400.000 400.000 400.000 361.533 C 400.000 340.377,399.907 323.159,399.794 323.273 C 399.681 323.386,399.325 324.490,399.003 325.725 C 396.335 335.968,387.889 343.694,376.880 345.963 C 373.873 346.583,26.127 346.583,23.120 345.963 C 12.111 343.694,3.665 335.968,0.997 325.725 C 0.675 324.490,0.319 323.386,0.206 323.273 C 0.093 323.159,0.000 340.377,0.000 361.533 " stroke="none" fill="#ffffff" fill-rule="evenodd"></path></g></svg>