<svg id="svg" xmlns="http://www.w3.org/2000/svg" xmlns:xlink="http://www.w3.org/1999/xlink" width="400" height="393.98496240601503" viewBox="0, 0, 400,393.98496240601503" version="1.1"><g id="svgg"><path id="path1" d="M239.404 0.885 C 238.818 2.218,237.209 2.785,232.846 3.196 C 230.306 3.435,228.094 3.900,226.662 4.497 C 224.034 5.593,223.185 5.782,218.638 6.283 C 216.388 6.530,214.453 7.017,213.017 7.696 C 211.414 8.454,209.754 8.833,206.819 9.109 C 204.326 9.343,202.128 9.794,201.010 10.300 C 198.268 11.541,197.184 11.793,192.822 12.206 C 189.756 12.497,188.326 12.835,186.817 13.624 C 185.545 14.289,183.742 14.789,181.778 15.023 C 176.808 15.614,174.356 16.127,172.422 16.983 C 171.371 17.448,168.983 17.953,166.778 18.176 C 164.129 18.445,162.291 18.874,160.788 19.577 C 159.184 20.327,157.353 20.726,153.739 21.116 C 149.710 21.550,148.610 21.813,147.434 22.624 C 146.651 23.164,145.123 23.801,144.039 24.041 C 142.883 24.297,141.580 24.931,140.887 25.576 C 140.236 26.180,139.053 27.063,138.256 27.538 C 136.499 28.587,132.581 32.744,132.190 33.975 C 132.035 34.465,131.357 35.551,130.683 36.389 L 129.458 37.913 129.261 56.926 C 129.029 79.369,129.602 77.236,123.794 77.254 C 121.491 77.261,118.365 77.443,116.847 77.658 C 115.330 77.873,112.493 78.206,110.542 78.397 C 107.897 78.657,106.332 79.058,104.389 79.976 C 102.320 80.952,100.971 81.277,97.849 81.548 C 94.917 81.802,93.351 82.157,91.696 82.940 C 90.125 83.682,88.362 84.104,85.666 84.379 C 83.333 84.618,80.938 85.142,79.486 85.732 C 78.183 86.262,75.593 86.886,73.731 87.119 C 68.638 87.756,66.315 88.262,65.836 88.839 C 65.224 89.577,62.612 90.164,58.721 90.439 C 56.397 90.603,54.765 90.962,53.388 91.614 C 50.929 92.777,50.450 92.892,45.306 93.555 C 43.022 93.850,40.356 94.454,39.381 94.898 C 37.106 95.935,36.371 96.101,32.315 96.500 C 29.981 96.729,28.255 97.165,26.623 97.937 C 24.862 98.771,23.361 99.124,20.581 99.358 C 17.170 99.646,16.766 99.772,15.400 100.968 C 13.321 102.789,13.089 103.014,9.046 107.094 C 7.060 109.099,5.188 110.739,4.886 110.739 C 4.584 110.739,3.650 111.360,2.811 112.118 C 1.971 112.877,0.995 113.498,0.642 113.498 C 0.050 113.498,0.000 123.490,0.000 241.576 L 0.000 369.655 0.953 369.655 C 1.578 369.655,2.356 370.191,3.219 371.213 C 4.487 372.718,4.654 372.787,8.074 373.233 C 10.022 373.487,12.860 374.184,14.380 374.781 C 16.279 375.527,18.190 375.936,20.493 376.089 C 22.548 376.226,25.348 376.778,27.739 377.518 C 30.071 378.239,32.999 378.822,35.030 378.970 C 37.350 379.140,39.171 379.537,40.788 380.226 C 42.896 381.125,43.850 381.259,49.573 381.455 L 55.993 381.675 57.257 383.181 L 58.522 384.687 63.054 385.076 C 66.258 385.350,68.570 385.804,70.942 386.625 C 72.999 387.337,75.743 387.924,78.035 388.143 C 80.091 388.339,82.571 388.797,83.547 389.159 C 87.878 390.770,89.587 390.989,99.529 391.213 C 108.992 391.425,109.483 391.400,111.293 390.599 C 113.030 389.830,113.329 389.807,115.015 390.303 C 120.548 391.934,122.670 392.189,129.261 392.021 C 137.733 391.804,144.963 390.816,147.644 389.508 C 149.117 388.789,150.773 388.415,153.688 388.141 C 156.721 387.855,158.200 387.509,159.738 386.726 C 161.218 385.971,162.918 385.556,165.970 385.202 C 168.688 384.888,171.119 384.333,172.867 383.630 C 174.722 382.884,177.003 382.386,180.156 382.036 C 183.669 381.647,185.212 381.284,186.732 380.490 C 188.254 379.694,189.666 379.362,192.782 379.070 C 195.839 378.783,197.483 378.404,199.409 377.541 C 201.245 376.719,203.042 376.285,205.754 376.010 C 208.171 375.765,210.386 375.269,211.888 374.637 C 213.449 373.980,215.686 373.493,218.548 373.188 C 221.824 372.839,223.472 372.446,225.419 371.551 C 227.398 370.640,228.886 370.292,231.962 370.018 C 234.844 369.762,236.558 369.383,238.167 368.647 C 239.709 367.941,241.747 367.471,244.825 367.113 C 247.796 366.767,250.081 366.251,251.745 365.550 C 253.549 364.791,255.438 364.393,258.642 364.100 C 262.231 363.771,263.518 363.471,265.540 362.493 C 267.531 361.531,268.790 361.231,271.858 360.990 C 274.304 360.798,276.327 360.400,277.451 359.890 C 279.977 358.745,281.915 358.288,286.133 357.846 C 288.476 357.600,290.946 357.036,292.808 356.322 C 294.761 355.573,296.861 355.107,299.001 354.948 C 301.161 354.787,303.258 354.318,305.306 353.538 C 307.420 352.733,309.715 352.230,312.683 351.922 C 316.006 351.578,317.372 351.253,318.654 350.502 C 319.963 349.735,321.372 349.411,325.288 348.977 C 328.929 348.573,330.855 348.154,332.479 347.410 C 333.962 346.731,335.952 346.259,338.482 345.985 C 340.563 345.760,343.241 345.217,344.433 344.778 C 347.923 343.495,348.764 343.305,352.709 342.906 C 355.249 342.649,357.139 342.207,358.586 341.534 C 359.792 340.973,361.848 340.433,363.315 340.291 C 367.888 339.850,370.544 339.273,372.458 338.303 C 373.871 337.587,375.459 337.251,378.985 336.924 C 382.549 336.593,383.970 336.290,385.025 335.637 C 385.783 335.167,387.202 334.403,388.177 333.939 C 390.839 332.674,393.502 329.692,394.292 327.094 C 394.655 325.901,395.289 324.095,395.702 323.080 C 396.435 321.277,396.453 318.328,396.453 200.124 L 396.453 79.015 395.264 76.502 C 394.571 75.037,393.216 73.133,392.013 71.934 L 389.951 69.879 385.025 69.624 C 378.103 69.266,377.961 69.205,373.337 64.668 C 369.615 61.016,369.216 60.735,367.431 60.522 C 365.717 60.318,363.797 59.742,359.391 58.113 C 358.622 57.829,356.228 57.473,354.071 57.323 C 351.035 57.112,349.554 56.793,347.520 55.914 C 343.719 54.271,330.531 54.178,327.291 55.772 C 323.742 57.518,321.679 56.940,319.190 53.503 C 316.554 49.864,314.812 48.802,310.817 48.396 C 308.398 48.150,306.252 47.643,304.365 46.872 C 302.045 45.924,300.634 45.652,296.484 45.356 C 293.392 45.135,290.740 44.726,289.655 44.301 C 288.368 43.797,286.240 43.545,281.890 43.380 C 277.766 43.223,275.739 42.993,275.388 42.641 C 274.998 42.251,274.825 38.889,274.657 28.454 C 274.404 12.689,274.258 11.785,271.489 8.780 C 267.897 4.882,266.571 3.716,264.643 2.759 C 263.553 2.217,262.485 1.374,262.271 0.887 L 261.882 0.000 250.837 0.000 L 239.793 0.000 239.404 0.885 M257.808 11.410 C 259.930 12.408,261.325 13.310,261.475 13.783 C 261.608 14.203,262.273 15.014,262.951 15.585 C 265.463 17.699,265.601 19.240,265.609 45.169 C 265.617 72.863,266.193 71.141,256.598 72.133 C 254.513 72.348,252.485 72.626,252.090 72.751 C 249.846 73.459,249.853 73.521,249.846 50.481 C 249.842 34.292,249.725 29.130,249.344 28.374 C 248.593 26.884,245.561 26.809,242.277 28.199 C 239.843 29.230,238.776 29.473,232.915 30.334 C 231.294 30.572,229.409 31.097,228.727 31.499 C 227.170 32.418,226.185 32.628,221.263 33.091 C 218.246 33.375,216.698 33.743,214.760 34.638 C 212.846 35.521,211.242 35.908,208.276 36.200 C 205.501 36.473,203.683 36.889,202.131 37.605 C 200.534 38.342,198.741 38.740,195.628 39.050 C 192.468 39.365,190.652 39.773,188.768 40.591 C 186.925 41.393,185.074 41.817,182.165 42.106 C 179.374 42.382,177.465 42.808,175.998 43.479 C 173.386 44.675,172.625 44.843,167.765 45.297 C 165.091 45.547,163.483 45.906,162.535 46.466 C 161.783 46.910,160.062 47.556,158.712 47.902 C 157.361 48.248,155.864 48.783,155.385 49.092 L 154.513 49.653 154.400 72.152 L 154.286 94.651 153.428 95.345 C 152.942 95.739,151.550 96.146,150.210 96.286 C 148.911 96.422,146.814 97.009,145.550 97.590 C 142.567 98.962,139.889 99.259,139.098 98.307 C 138.610 97.719,138.503 93.920,138.397 73.339 C 138.252 45.421,138.327 43.834,139.872 42.041 C 140.466 41.352,141.374 40.026,141.890 39.094 C 142.405 38.162,143.455 37.021,144.221 36.559 C 144.988 36.097,146.251 35.158,147.027 34.472 C 147.934 33.672,149.062 33.126,150.180 32.947 C 151.138 32.794,152.666 32.232,153.576 31.699 C 154.852 30.951,156.203 30.631,159.474 30.302 C 162.421 30.006,164.575 29.534,166.526 28.759 C 168.323 28.045,170.738 27.487,173.229 27.209 C 175.774 26.925,177.861 26.437,179.254 25.799 C 180.739 25.119,182.851 24.652,186.222 24.257 C 189.907 23.826,191.528 23.446,193.025 22.663 C 194.454 21.916,195.998 21.534,198.678 21.262 C 203.404 20.784,204.256 20.600,206.967 19.469 C 208.375 18.882,210.575 18.410,212.907 18.196 C 215.539 17.954,217.277 17.550,218.917 16.799 C 220.474 16.086,222.385 15.622,224.799 15.371 C 228.389 14.998,230.642 14.439,233.414 13.236 C 234.234 12.880,236.779 12.411,239.068 12.194 C 241.852 11.930,243.757 11.531,244.822 10.987 C 249.116 8.797,252.482 8.906,257.808 11.410 M240.067 40.061 C 240.932 40.844,241.127 48.481,240.327 50.237 C 239.749 51.506,239.409 51.574,232.906 51.723 C 228.257 51.830,227.369 51.960,225.864 52.753 C 224.743 53.344,222.887 53.803,220.544 54.071 C 216.374 54.547,213.797 55.145,211.034 56.276 C 209.802 56.780,207.419 57.223,204.671 57.459 C 201.287 57.749,199.749 58.080,197.972 58.899 C 196.357 59.643,194.542 60.074,191.921 60.339 C 189.730 60.559,186.788 61.191,184.828 61.862 C 182.878 62.529,179.910 63.168,177.726 63.391 C 175.239 63.644,173.047 64.150,171.223 64.889 C 165.394 67.255,163.467 66.407,163.631 61.547 L 163.744 58.189 165.517 57.253 C 166.493 56.738,167.645 56.086,168.079 55.804 C 169.455 54.910,171.511 54.423,175.667 54.008 C 178.393 53.736,180.499 53.272,182.135 52.583 C 183.714 51.918,185.880 51.428,188.340 51.179 C 190.891 50.921,192.822 50.474,194.286 49.803 C 195.675 49.167,197.727 48.672,200.000 48.426 C 204.920 47.893,207.548 47.339,208.056 46.727 C 208.668 45.990,211.280 45.398,215.172 45.116 C 217.747 44.929,219.088 44.600,220.966 43.694 C 222.837 42.791,224.313 42.427,227.271 42.141 C 231.841 41.697,232.572 41.546,234.666 40.613 C 237.851 39.195,238.982 39.079,240.067 40.061 M283.744 53.408 C 284.936 53.733,287.951 54.159,290.443 54.356 C 292.936 54.553,295.685 54.979,296.552 55.303 C 300.469 56.770,301.897 57.129,305.149 57.466 C 310.709 58.042,310.747 59.179,305.250 60.473 C 303.562 60.871,301.583 61.080,300.611 60.963 C 299.679 60.851,296.700 60.548,293.990 60.290 C 290.741 59.981,287.924 59.447,285.714 58.722 C 283.872 58.118,281.611 57.500,280.691 57.349 C 278.230 56.945,277.244 56.030,277.846 54.710 C 278.707 52.819,280.296 52.468,283.744 53.408 M237.128 61.872 C 237.852 63.311,237.814 73.687,237.078 75.449 C 236.313 77.279,235.730 77.507,229.985 78.215 C 226.259 78.674,224.454 79.094,222.968 79.846 C 221.480 80.600,219.950 80.956,216.987 81.234 C 214.169 81.499,212.371 81.900,210.837 82.606 C 209.448 83.245,207.133 83.807,204.389 84.170 C 199.179 84.859,198.438 85.031,196.535 85.984 C 195.577 86.464,193.549 86.864,190.895 87.097 C 187.518 87.394,186.318 87.681,184.414 88.648 C 182.530 89.606,181.269 89.912,177.887 90.233 C 174.842 90.521,173.121 90.901,171.601 91.620 C 166.797 93.893,165.508 92.344,165.537 84.335 C 165.564 76.646,165.981 75.854,170.186 75.497 C 171.628 75.374,174.412 74.737,176.372 74.080 C 178.355 73.415,181.589 72.705,183.662 72.479 C 187.994 72.008,189.966 71.539,192.009 70.497 C 192.978 70.003,194.729 69.663,197.134 69.501 C 199.935 69.314,201.595 68.945,204.244 67.922 C 206.949 66.878,208.620 66.514,211.929 66.248 C 215.037 65.997,216.809 65.633,218.614 64.872 C 220.202 64.204,222.390 63.701,224.801 63.451 C 228.241 63.094,229.481 62.774,233.300 61.255 C 235.236 60.486,236.536 60.695,237.128 61.872 M340.997 64.875 C 342.801 65.635,344.573 65.998,347.708 66.250 C 351.009 66.516,352.649 66.868,354.998 67.815 C 356.666 68.488,359.181 69.204,360.589 69.408 C 365.131 70.064,364.956 71.445,360.197 72.518 C 359.005 72.787,357.054 73.411,355.862 73.904 C 354.528 74.457,352.143 74.957,349.663 75.205 C 346.591 75.512,345.182 75.852,343.745 76.634 C 342.245 77.450,340.854 77.765,336.940 78.175 C 333.026 78.585,331.588 78.910,329.908 79.768 C 328.360 80.557,326.834 80.940,324.194 81.202 C 319.151 81.701,318.336 81.874,315.975 82.950 C 314.609 83.573,312.591 84.031,310.113 84.283 C 307.669 84.530,305.487 85.022,303.935 85.675 C 302.476 86.289,300.095 86.848,297.861 87.100 C 293.606 87.580,291.622 88.060,289.564 89.111 C 288.577 89.614,286.678 89.976,283.823 90.206 C 280.871 90.443,279.078 90.793,278.003 91.342 C 275.856 92.437,273.564 93.006,269.690 93.406 C 267.837 93.597,265.307 94.178,263.931 94.728 C 262.484 95.307,259.564 95.961,256.812 96.322 C 253.823 96.714,251.344 97.287,249.915 97.916 C 248.418 98.576,246.404 99.025,243.788 99.282 C 241.007 99.555,239.309 99.950,237.857 100.660 C 235.795 101.669,231.804 102.441,228.571 102.456 C 227.428 102.461,225.899 102.889,224.266 103.661 C 222.345 104.570,220.824 104.947,217.961 105.224 C 215.512 105.460,213.060 106.001,210.976 106.765 C 208.909 107.523,206.372 108.086,203.857 108.344 C 201.227 108.614,199.250 109.064,197.807 109.721 C 196.340 110.390,194.126 110.887,190.783 111.297 C 187.139 111.744,185.411 112.151,183.972 112.904 C 182.552 113.647,181.033 114.011,178.214 114.286 C 174.038 114.694,172.421 115.071,170.986 115.973 C 169.910 116.649,168.687 116.891,163.744 117.406 C 161.398 117.650,159.397 118.133,157.833 118.831 C 156.131 119.590,154.396 119.980,151.641 120.221 C 148.830 120.466,147.052 120.872,144.942 121.750 C 142.853 122.619,140.940 123.060,137.931 123.366 C 135.081 123.655,133.130 124.088,131.662 124.756 C 129.720 125.642,127.705 126.071,122.488 126.711 C 121.472 126.835,119.998 127.374,119.211 127.907 C 118.425 128.441,117.128 129.151,116.329 129.484 C 115.531 129.818,114.417 130.532,113.854 131.071 C 112.694 132.182,111.068 132.030,107.579 130.487 C 106.592 130.050,104.136 129.532,102.032 129.317 C 99.630 129.071,97.400 128.571,95.907 127.942 C 94.379 127.299,92.120 126.800,89.439 126.514 C 82.233 125.745,81.721 125.365,84.828 123.091 C 87.589 121.069,87.883 120.969,92.217 120.581 C 94.910 120.340,96.608 119.949,98.269 119.188 C 102.064 117.449,107.541 117.177,111.144 118.549 C 115.140 120.071,126.947 120.597,130.884 119.429 C 135.197 118.150,136.446 115.592,133.396 114.285 C 130.783 113.164,131.102 112.350,134.587 111.244 C 136.101 110.764,137.850 110.075,138.474 109.715 C 139.098 109.354,141.507 108.825,143.827 108.539 C 146.148 108.254,149.627 107.500,151.560 106.863 C 153.493 106.227,156.493 105.581,158.227 105.428 C 160.381 105.237,162.232 104.777,164.072 103.974 C 166.134 103.075,167.662 102.731,170.599 102.503 C 173.689 102.264,174.928 101.969,176.971 100.986 C 178.852 100.081,180.322 99.698,182.660 99.504 C 186.351 99.197,188.265 98.776,190.840 97.703 C 191.871 97.273,194.620 96.685,196.948 96.395 C 199.571 96.069,202.082 95.488,203.547 94.869 C 205.130 94.199,207.251 93.734,209.963 93.463 C 213.105 93.149,214.433 92.824,215.875 92.018 C 217.314 91.212,218.769 90.855,222.312 90.439 C 225.293 90.089,227.767 89.544,229.405 88.878 C 230.871 88.281,233.666 87.624,236.099 87.304 C 238.527 86.984,241.331 86.325,242.794 85.731 C 244.486 85.043,246.539 84.603,249.059 84.387 C 251.933 84.140,253.304 83.813,254.933 82.983 C 256.535 82.167,257.987 81.812,260.832 81.543 C 264.792 81.169,266.478 80.746,268.779 79.552 C 269.592 79.129,271.789 78.662,274.074 78.425 C 278.521 77.964,280.531 77.489,282.683 76.391 C 283.667 75.889,285.376 75.545,287.612 75.397 C 290.070 75.234,291.766 74.864,293.628 74.084 C 297.514 72.457,298.502 72.374,314.286 72.343 C 331.156 72.311,330.855 72.365,330.455 69.427 C 329.862 65.070,335.589 62.597,340.997 64.875 M384.328 79.507 C 384.662 79.887,385.488 81.243,386.163 82.521 L 387.392 84.845 387.271 200.354 L 387.151 315.862 385.772 319.803 L 384.394 323.744 382.041 324.926 C 380.747 325.576,379.245 326.412,378.703 326.784 C 378.027 327.248,376.236 327.595,372.997 327.890 C 369.865 328.176,367.790 328.570,366.833 329.062 C 364.845 330.083,362.990 330.534,358.621 331.058 C 356.439 331.319,353.899 331.917,352.532 332.491 C 351.090 333.096,348.890 333.598,346.818 333.795 C 342.765 334.180,341.752 334.410,338.855 335.609 C 337.459 336.186,335.176 336.669,332.746 336.901 C 329.991 337.164,328.001 337.620,325.879 338.475 C 323.735 339.338,321.781 339.782,318.962 340.047 C 316.286 340.299,314.256 340.744,312.601 341.440 C 310.985 342.121,308.812 342.606,306.119 342.887 C 303.374 343.174,301.180 343.670,299.310 344.425 C 297.432 345.184,295.293 345.666,292.608 345.934 C 289.907 346.205,287.941 346.649,286.366 347.346 C 284.746 348.062,282.619 348.531,279.173 348.932 C 275.589 349.349,273.675 349.782,272.017 350.549 C 270.373 351.310,268.705 351.690,265.918 351.938 C 263.088 352.191,261.383 352.585,259.415 353.439 C 257.381 354.323,255.700 354.698,252.325 355.022 C 248.989 355.341,247.424 355.687,245.963 356.427 C 244.531 357.152,242.744 357.558,239.112 357.980 C 235.390 358.413,233.705 358.802,232.165 359.582 C 230.606 360.372,229.145 360.704,225.903 361.003 C 222.677 361.302,221.208 361.634,219.704 362.404 C 218.331 363.108,216.421 363.587,213.403 363.983 C 208.610 364.613,206.480 365.109,204.769 365.993 C 204.141 366.317,201.852 366.737,199.682 366.926 C 196.597 367.194,195.214 367.520,193.337 368.425 C 191.492 369.313,189.990 369.675,186.849 369.989 C 183.845 370.289,182.205 370.670,180.657 371.427 C 179.127 372.176,177.226 372.623,173.709 373.063 C 170.421 373.474,168.171 373.983,166.700 374.652 C 165.186 375.338,163.374 375.739,160.696 375.978 C 157.825 376.234,156.181 376.619,154.157 377.507 C 152.138 378.393,150.456 378.787,147.509 379.065 C 144.581 379.340,143.047 379.697,141.562 380.450 C 137.283 382.618,125.137 383.284,121.912 381.527 C 120.820 380.933,118.225 376.907,118.203 375.774 C 118.077 369.382,117.683 240.128,117.662 198.621 C 117.633 139.470,117.400 144.987,120.100 140.774 C 121.854 138.036,126.140 136.064,131.336 135.603 C 134.296 135.340,136.156 134.928,138.325 134.055 C 140.367 133.233,142.552 132.726,145.390 132.415 C 147.684 132.164,150.120 131.654,150.907 131.260 C 152.724 130.351,153.641 130.141,158.739 129.468 C 161.413 129.116,163.753 128.548,165.125 127.921 C 166.650 127.223,168.470 126.818,171.274 126.554 C 174.103 126.288,176.102 125.841,178.174 125.012 C 180.242 124.184,182.296 123.724,185.226 123.433 C 188.179 123.139,189.986 122.732,191.553 122.008 C 193.012 121.334,194.943 120.870,197.315 120.625 C 199.423 120.406,202.268 119.767,204.270 119.060 C 206.429 118.298,209.110 117.715,211.666 117.453 C 214.274 117.186,216.103 116.784,216.901 116.303 C 218.426 115.385,221.132 114.800,225.207 114.507 C 227.563 114.338,228.987 113.979,230.921 113.069 C 232.855 112.158,234.403 111.768,237.126 111.506 C 241.478 111.087,242.301 110.904,245.161 109.721 C 246.481 109.176,248.898 108.653,251.177 108.419 C 253.553 108.176,255.937 107.650,257.511 107.020 C 259.075 106.394,261.482 105.860,263.844 105.616 C 266.583 105.332,268.417 104.885,270.372 104.028 C 272.496 103.095,274.060 102.744,277.530 102.421 C 280.950 102.103,282.574 101.743,284.598 100.856 C 286.588 99.984,288.187 99.624,291.193 99.369 C 294.254 99.110,295.616 98.798,297.148 98.003 C 298.601 97.249,300.161 96.867,302.966 96.578 C 306.581 96.205,308.181 95.826,311.921 94.454 C 312.788 94.137,315.182 93.694,317.241 93.472 C 319.689 93.207,322.009 92.660,323.941 91.893 C 326.072 91.046,328.061 90.608,331.072 90.323 C 334.273 90.019,335.732 89.682,337.322 88.876 C 338.785 88.135,340.424 87.719,342.887 87.464 C 347.228 87.015,349.261 86.566,351.557 85.551 C 352.630 85.076,354.940 84.608,357.303 84.385 C 360.277 84.105,361.737 83.762,363.200 82.997 C 364.649 82.239,366.182 81.873,369.225 81.561 C 371.470 81.331,374.037 80.868,374.929 80.533 C 379.843 78.688,383.276 78.313,384.328 79.507 M125.700 87.462 C 126.349 88.674,126.236 101.078,125.571 101.630 C 125.276 101.875,123.990 102.268,122.714 102.504 C 121.438 102.739,119.387 103.355,118.157 103.873 C 116.886 104.407,114.375 104.988,112.342 105.219 C 110.368 105.442,107.573 106.082,106.107 106.645 C 102.460 108.046,99.250 108.037,95.567 106.615 C 91.030 104.864,70.404 104.240,67.342 105.761 C 65.105 106.872,67.499 110.720,70.783 111.292 C 76.075 112.215,75.648 113.621,69.754 114.676 C 68.345 114.928,66.638 115.457,65.960 115.850 C 65.283 116.244,63.762 116.847,62.581 117.190 C 61.401 117.533,60.110 118.173,59.713 118.612 C 58.797 119.623,57.315 119.623,54.684 118.612 C 53.544 118.174,50.749 117.622,48.473 117.385 C 45.472 117.072,43.603 116.637,41.672 115.801 C 39.645 114.924,38.011 114.561,34.832 114.282 C 31.629 114.000,30.044 113.646,28.037 112.762 C 26.597 112.127,24.576 111.309,23.547 110.944 C 20.319 109.799,21.440 108.910,26.727 108.422 C 29.135 108.200,30.919 107.775,32.514 107.045 C 34.063 106.336,35.992 105.866,38.395 105.613 C 42.362 105.195,43.634 104.870,45.819 103.718 C 46.659 103.275,48.540 102.822,50.154 102.674 C 54.791 102.248,57.376 101.705,59.590 100.692 C 61.028 100.033,62.910 99.621,65.657 99.362 C 68.635 99.082,70.148 98.730,71.661 97.963 C 73.134 97.216,74.745 96.829,77.600 96.536 C 79.956 96.295,82.826 95.681,84.803 94.996 C 86.665 94.351,89.769 93.670,91.963 93.425 C 94.790 93.110,96.494 92.680,98.264 91.837 C 100.211 90.908,101.458 90.626,104.585 90.405 C 107.759 90.181,108.861 89.927,110.539 89.032 C 112.116 88.190,113.553 87.828,116.690 87.483 C 118.941 87.236,120.858 86.958,120.950 86.866 C 121.533 86.283,125.324 86.759,125.700 87.462 M15.441 120.596 C 17.458 120.827,20.046 121.455,21.747 122.127 C 23.764 122.924,25.696 123.349,28.177 123.540 C 30.347 123.708,32.413 124.122,33.498 124.607 C 36.216 125.821,37.329 126.091,41.379 126.514 C 46.420 127.040,49.020 127.847,50.733 129.417 L 52.153 130.718 51.692 133.011 C 51.347 134.729,51.232 164.626,51.232 252.295 C 51.232 353.565,51.155 369.470,50.661 370.653 C 49.982 372.276,49.824 372.293,46.730 371.080 C 45.215 370.486,43.032 370.041,40.789 369.870 C 38.568 369.700,35.928 369.165,33.725 368.439 C 31.515 367.711,28.730 367.148,26.236 366.925 C 23.748 366.702,21.591 366.266,20.458 365.757 C 19.463 365.311,17.335 364.739,15.728 364.487 C 9.988 363.585,9.999 363.590,9.089 361.159 L 8.276 358.985 8.276 240.205 L 8.276 121.424 9.152 120.811 C 10.176 120.093,10.855 120.070,15.441 120.596 M69.951 132.626 C 71.251 132.765,73.539 133.413,75.035 134.066 C 77.133 134.982,78.697 135.335,81.875 135.611 C 85.007 135.883,86.623 136.243,88.613 137.113 C 90.468 137.923,92.381 138.379,95.172 138.675 C 97.845 138.959,100.497 139.572,103.410 140.581 L 107.706 142.069 107.843 172.217 C 108.385 292.156,108.191 378.104,107.376 379.507 C 105.393 382.920,96.869 383.207,89.676 380.103 C 88.821 379.734,86.402 379.270,84.300 379.073 C 82.043 378.860,79.051 378.245,76.989 377.568 C 74.840 376.863,71.847 376.259,69.204 375.996 C 64.530 375.531,64.154 375.357,63.025 373.146 C 62.124 371.378,61.799 139.357,62.693 135.191 C 63.209 132.783,64.230 131.910,66.207 132.183 C 66.966 132.288,68.650 132.487,69.951 132.626 M257.972 177.368 C 254.769 177.675,253.701 177.955,251.986 178.936 C 250.838 179.592,248.793 180.324,247.442 180.562 C 245.761 180.859,244.717 181.285,244.136 181.912 C 243.669 182.415,242.453 183.185,241.434 183.622 C 239.715 184.359,237.493 185.826,234.726 188.052 C 233.039 189.408,223.248 199.111,222.826 199.844 C 221.357 202.399,219.071 204.221,215.890 205.373 C 211.003 207.143,210.692 207.220,206.578 207.678 C 204.117 207.953,202.026 208.447,200.642 209.080 C 199.269 209.709,197.170 210.208,194.775 210.475 C 190.854 210.912,189.366 211.320,188.356 212.234 C 188.019 212.538,186.955 213.064,185.990 213.401 C 185.026 213.739,183.793 214.458,183.251 214.998 C 182.709 215.538,181.506 216.513,180.578 217.165 C 175.710 220.580,175.729 227.689,180.609 228.994 C 181.520 229.237,182.975 229.757,183.842 230.148 C 185.939 231.095,189.757 231.073,193.476 230.093 C 196.536 229.287,204.540 228.066,206.859 228.052 C 210.447 228.031,210.060 230.924,206.369 231.716 C 205.255 231.955,203.388 232.602,202.220 233.155 C 200.696 233.876,198.981 234.264,196.140 234.531 C 193.291 234.799,191.347 235.240,189.195 236.107 C 187.034 236.978,185.061 237.424,182.069 237.719 C 178.969 238.025,177.338 238.404,175.567 239.231 C 173.829 240.043,172.157 240.440,169.261 240.728 C 166.512 241.001,164.662 241.424,163.143 242.125 C 161.671 242.804,159.690 243.269,157.034 243.560 C 154.252 243.864,152.355 244.323,150.542 245.131 C 149.133 245.759,147.255 246.457,146.368 246.682 C 145.481 246.906,144.417 247.465,144.003 247.923 C 143.590 248.381,142.412 249.181,141.386 249.701 C 140.361 250.221,139.220 251.133,138.852 251.727 C 138.484 252.322,137.663 253.369,137.027 254.055 C 134.612 256.660,135.187 260.380,138.223 261.792 C 139.255 262.271,140.808 263.106,141.675 263.647 C 144.171 265.204,152.485 265.127,155.767 263.517 C 157.440 262.695,158.991 262.310,161.678 262.049 C 165.792 261.650,167.000 261.348,169.294 260.144 C 170.444 259.540,172.191 259.179,175.403 258.880 C 178.836 258.560,180.508 258.196,182.463 257.342 C 184.275 256.550,186.130 256.115,188.801 255.855 C 191.425 255.600,193.261 255.175,194.817 254.462 C 196.049 253.898,198.163 253.327,199.514 253.193 C 200.865 253.059,202.920 252.768,204.080 252.547 C 206.477 252.089,208.560 252.360,209.445 253.246 C 210.813 254.613,209.726 255.398,205.714 255.939 C 204.739 256.070,203.143 256.632,202.167 257.187 C 200.794 257.969,199.405 258.303,196.007 258.667 C 192.293 259.066,191.378 259.307,190.036 260.237 C 189.164 260.841,187.603 261.590,186.566 261.902 C 185.522 262.216,184.113 263.040,183.408 263.747 C 182.708 264.450,181.152 265.979,179.951 267.145 C 176.612 270.386,176.494 274.789,179.706 276.323 C 180.464 276.685,182.236 277.568,183.645 278.286 C 187.082 280.038,191.272 280.124,194.786 278.516 C 196.292 277.826,198.301 277.342,200.814 277.061 C 202.887 276.830,206.211 276.101,208.203 275.441 C 213.662 273.632,220.334 273.076,222.475 274.253 C 224.772 275.516,226.490 276.686,228.155 278.119 C 229.074 278.910,230.390 279.554,231.637 279.821 C 232.739 280.057,234.493 280.815,235.534 281.505 L 237.428 282.759 248.896 282.759 L 260.364 282.759 261.998 281.626 C 262.946 280.969,264.887 280.201,266.620 279.799 C 268.263 279.417,269.995 278.750,270.469 278.318 C 270.943 277.886,272.128 277.181,273.103 276.751 C 274.942 275.941,278.165 273.861,280.457 272.006 C 284.672 268.593,288.120 265.384,289.852 263.262 C 290.936 261.934,292.373 260.192,293.047 259.389 C 293.720 258.587,294.469 257.553,294.711 257.090 C 295.437 255.703,301.623 253.460,305.960 253.010 C 308.492 252.747,310.483 252.265,312.397 251.451 C 314.458 250.574,316.219 250.172,319.280 249.882 C 323.772 249.457,324.403 249.298,325.996 248.194 C 326.585 247.787,327.930 247.197,328.986 246.883 C 330.042 246.570,331.235 245.949,331.637 245.504 C 332.040 245.059,333.178 244.252,334.165 243.710 C 335.795 242.817,337.082 241.430,339.013 238.487 C 340.636 236.012,339.701 233.083,336.814 231.594 C 335.694 231.017,334.158 230.180,333.399 229.734 C 331.194 228.437,322.270 228.739,319.212 230.214 C 316.570 231.488,308.161 232.529,307.168 231.704 C 305.827 230.591,306.596 229.382,309.163 228.569 C 310.030 228.294,311.542 227.668,312.522 227.176 C 313.764 226.555,315.596 226.153,318.553 225.856 C 321.589 225.550,323.635 225.094,325.726 224.257 C 327.714 223.461,329.886 222.958,332.503 222.689 C 334.931 222.439,337.265 221.923,338.817 221.291 C 340.330 220.676,342.703 220.142,344.972 219.907 C 347.003 219.696,349.472 219.178,350.460 218.754 C 353.213 217.574,354.941 217.168,359.015 216.744 C 361.822 216.452,363.301 216.075,364.926 215.236 C 366.118 214.621,367.971 213.900,369.044 213.634 C 372.026 212.895,377.972 207.542,378.716 204.926 C 379.536 202.046,378.644 198.621,377.075 198.621 C 376.853 198.621,375.638 197.983,374.376 197.205 L 372.082 195.789 366.238 195.948 C 360.906 196.093,360.204 196.199,358.227 197.151 C 356.626 197.921,355.018 198.292,352.077 198.569 C 349.138 198.845,347.581 199.204,346.129 199.940 C 344.692 200.668,343.004 201.062,339.864 201.402 C 336.878 201.725,334.665 202.225,332.611 203.039 C 330.509 203.872,328.535 204.310,325.774 204.555 C 322.809 204.818,321.275 205.180,319.272 206.088 C 314.774 208.128,306.755 208.590,305.224 206.899 C 304.264 205.838,304.695 205.451,307.898 204.500 C 309.460 204.035,311.433 203.302,312.281 202.871 C 313.293 202.356,315.178 201.968,317.762 201.744 C 320.866 201.474,322.219 201.152,324.146 200.222 C 325.491 199.574,327.327 198.878,328.227 198.675 C 329.127 198.473,330.573 197.713,331.439 196.986 C 335.770 193.355,336.713 192.404,337.240 191.133 C 337.555 190.374,338.089 189.443,338.426 189.063 C 339.300 188.080,338.494 185.561,336.922 184.357 C 336.269 183.857,335.120 182.942,334.369 182.323 C 331.290 179.786,323.697 179.770,317.364 182.288 C 315.919 182.862,313.669 183.357,311.846 183.503 C 310.056 183.645,307.120 184.285,304.828 185.033 C 302.178 185.897,299.685 186.407,297.221 186.589 L 293.555 186.860 291.826 185.351 C 288.761 182.676,286.370 181.169,284.102 180.482 C 282.883 180.113,281.372 179.433,280.745 178.973 C 278.576 177.378,266.654 176.538,257.972 177.368 M271.584 184.214 C 273.024 184.519,274.915 185.133,275.786 185.577 C 276.658 186.022,278.228 186.578,279.276 186.812 C 280.324 187.047,281.537 187.563,281.970 187.958 C 282.404 188.353,283.319 188.959,284.004 189.305 C 286.876 190.756,294.144 198.881,294.943 201.533 C 295.241 202.525,295.911 203.843,296.432 204.462 C 297.195 205.368,297.519 206.538,298.097 210.478 C 298.491 213.168,299.148 216.027,299.555 216.832 C 300.537 218.770,300.489 220.642,299.344 225.080 C 298.821 227.109,298.182 230.542,297.923 232.709 C 297.559 235.757,297.227 236.985,296.457 238.126 C 295.910 238.938,295.133 240.786,294.732 242.232 C 294.332 243.678,293.654 245.233,293.227 245.687 C 292.801 246.142,292.187 247.146,291.864 247.919 C 291.541 248.691,290.972 249.576,290.599 249.884 C 290.226 250.191,289.577 251.241,289.157 252.217 C 288.736 253.192,287.885 254.522,287.265 255.172 C 286.644 255.823,285.333 257.190,284.349 258.212 C 283.366 259.233,282.562 260.230,282.562 260.427 C 282.562 260.623,281.296 261.827,279.750 263.101 C 278.203 264.376,276.651 265.707,276.301 266.060 C 275.951 266.413,274.935 267.069,274.043 267.519 C 273.151 267.969,271.875 268.796,271.208 269.357 C 270.541 269.918,269.143 270.664,268.101 271.014 C 267.059 271.364,265.734 272.042,265.155 272.522 C 264.466 273.092,263.153 273.534,261.347 273.802 C 259.830 274.027,257.519 274.692,256.211 275.279 C 253.069 276.689,244.138 276.635,241.370 275.189 C 240.498 274.733,238.942 274.234,237.911 274.080 C 236.881 273.925,235.467 273.377,234.768 272.861 C 234.069 272.346,232.700 271.546,231.724 271.083 C 230.749 270.621,229.379 269.690,228.680 269.013 C 227.982 268.337,227.006 267.410,226.513 266.953 C 223.723 264.373,220.420 259.586,219.639 256.990 C 219.347 256.022,218.851 254.944,218.535 254.595 C 217.411 253.354,216.749 251.045,216.749 248.371 C 216.749 246.893,216.474 244.629,216.139 243.341 C 215.626 241.373,215.602 240.464,215.987 237.643 C 216.238 235.796,216.560 232.420,216.703 230.140 C 216.923 226.616,217.122 225.720,218.034 224.164 C 218.624 223.158,219.362 221.237,219.675 219.897 C 219.988 218.556,220.535 217.137,220.891 216.744 C 221.247 216.351,221.929 215.083,222.408 213.926 C 223.292 211.788,224.292 210.216,227.291 206.255 C 228.212 205.039,228.966 203.875,228.966 203.669 C 228.966 203.339,234.704 197.546,237.974 194.576 C 238.634 193.976,240.001 193.131,241.012 192.698 C 242.024 192.264,243.188 191.482,243.598 190.960 C 244.009 190.438,245.274 189.709,246.409 189.340 C 247.544 188.971,248.859 188.318,249.331 187.889 C 249.804 187.459,251.395 186.855,252.868 186.546 C 254.341 186.238,255.965 185.710,256.478 185.374 C 258.765 183.876,267.002 183.243,271.584 184.214 M328.746 186.210 C 329.468 186.346,330.491 186.782,331.018 187.180 L 331.977 187.903 331.234 189.617 C 330.214 191.968,329.994 192.207,328.358 192.747 C 327.570 193.007,326.264 193.699,325.456 194.285 C 324.361 195.078,323.329 195.411,321.412 195.590 C 319.996 195.722,317.282 196.368,315.380 197.024 C 313.288 197.747,310.416 198.373,308.111 198.610 C 306.016 198.826,303.876 199.196,303.356 199.433 C 300.807 200.594,295.793 195.402,297.490 193.357 C 298.797 191.783,303.653 189.982,307.687 189.577 C 310.377 189.306,312.524 188.836,314.106 188.170 C 315.732 187.486,317.783 187.046,320.589 186.780 C 322.847 186.566,325.101 186.228,325.599 186.028 C 326.096 185.828,326.712 185.732,326.967 185.814 C 327.223 185.896,328.023 186.075,328.746 186.210 M256.158 196.994 C 254.315 197.632,251.819 198.433,250.611 198.773 C 249.403 199.112,248.096 199.743,247.706 200.173 C 247.317 200.603,246.402 201.152,245.673 201.393 C 244.944 201.633,243.981 202.345,243.533 202.975 C 243.084 203.605,242.107 204.410,241.361 204.764 C 240.000 205.410,239.179 206.257,236.256 210.032 C 235.389 211.152,234.128 212.722,233.455 213.522 C 232.781 214.321,232.017 215.629,231.757 216.429 C 231.498 217.228,230.936 218.326,230.509 218.869 C 229.439 220.229,228.720 222.107,228.387 224.410 C 228.233 225.481,227.788 227.166,227.398 228.154 C 225.599 232.720,225.527 240.725,227.262 243.394 C 227.560 243.852,228.066 245.487,228.387 247.027 C 229.007 250.000,229.688 251.823,230.179 251.823 C 230.343 251.823,230.884 252.488,231.380 253.300 C 233.227 256.325,238.852 261.066,241.317 261.675 C 242.218 261.898,244.370 262.542,246.099 263.107 C 249.576 264.243,254.834 264.216,258.151 263.046 C 259.006 262.744,260.814 262.298,262.168 262.054 C 263.609 261.794,265.154 261.212,265.893 260.651 C 266.588 260.123,267.941 259.355,268.901 258.944 C 269.862 258.532,270.889 257.865,271.186 257.462 C 271.482 257.058,272.648 256.058,273.777 255.239 C 275.592 253.922,278.343 250.949,281.379 247.022 C 281.921 246.321,282.686 245.031,283.079 244.155 C 283.471 243.279,284.163 242.167,284.615 241.685 C 285.118 241.149,285.641 239.737,285.960 238.047 C 286.273 236.391,286.921 234.623,287.576 233.633 C 289.627 230.536,289.360 216.012,287.210 213.712 C 286.763 213.234,286.195 211.946,285.949 210.851 C 285.702 209.755,285.010 208.285,284.411 207.582 C 283.812 206.880,282.744 205.509,282.038 204.537 C 281.332 203.564,280.142 202.379,279.392 201.904 C 278.643 201.430,277.456 200.570,276.754 199.994 C 276.052 199.418,274.634 198.723,273.601 198.449 C 272.569 198.176,270.926 197.535,269.951 197.024 C 266.999 195.477,260.573 195.463,256.158 196.994 M371.622 201.888 C 375.200 203.698,368.187 209.646,361.267 210.670 C 358.751 211.043,356.550 211.625,355.397 212.224 C 354.023 212.936,352.466 213.284,349.297 213.584 C 346.232 213.874,344.488 214.253,343.063 214.939 C 340.304 216.266,340.061 216.327,335.725 216.772 C 333.191 217.032,331.145 217.494,329.774 218.115 C 328.438 218.721,326.035 219.275,323.109 219.651 C 320.117 220.036,317.662 220.607,316.015 221.302 C 313.994 222.155,312.671 222.405,309.305 222.566 L 305.113 222.768 304.424 221.716 C 303.652 220.537,303.793 217.588,304.715 215.657 C 305.306 214.417,307.511 213.679,310.782 213.628 C 312.210 213.605,313.426 213.260,314.962 212.440 C 316.644 211.542,318.018 211.186,321.103 210.846 C 323.373 210.596,326.543 209.913,328.496 209.253 C 330.450 208.593,333.502 207.935,335.622 207.719 C 338.180 207.457,340.031 207.015,341.587 206.295 C 343.240 205.530,344.895 205.157,347.783 204.900 C 350.952 204.618,352.188 204.314,354.091 203.348 C 357.505 201.616,369.165 200.645,371.622 201.888 M266.601 204.584 C 267.901 204.811,269.326 205.064,269.767 205.145 C 271.054 205.382,276.120 209.534,277.080 211.140 C 277.564 211.949,278.275 212.966,278.661 213.399 C 279.046 213.833,279.552 215.074,279.785 216.158 C 280.017 217.241,280.675 219.559,281.245 221.309 L 282.283 224.489 281.066 228.599 C 280.397 230.860,279.736 233.623,279.597 234.739 C 279.423 236.148,279.058 237.040,278.405 237.653 C 277.887 238.139,277.179 239.396,276.830 240.446 C 276.481 241.496,275.794 242.671,275.304 243.057 C 274.813 243.443,274.176 244.199,273.888 244.737 C 273.378 245.690,270.688 248.354,267.629 250.935 C 266.795 251.639,265.364 252.480,264.449 252.802 C 263.534 253.125,262.273 253.820,261.647 254.347 C 259.170 256.432,247.145 256.389,244.216 254.286 C 243.235 253.581,242.277 253.005,242.087 253.005 C 241.623 253.005,237.241 248.416,237.241 247.930 C 237.241 247.720,236.791 247.013,236.241 246.359 C 235.559 245.548,235.119 244.377,234.860 242.683 C 234.652 241.316,234.306 239.219,234.092 238.025 C 233.801 236.404,233.850 234.951,234.283 232.310 C 234.602 230.362,234.866 228.234,234.870 227.580 C 234.874 226.926,235.236 225.774,235.674 225.018 C 236.112 224.263,236.906 222.718,237.438 221.585 C 237.971 220.452,238.942 218.785,239.597 217.881 C 240.252 216.976,240.788 216.044,240.788 215.808 C 240.788 214.878,247.707 208.768,249.852 207.805 C 251.044 207.269,252.398 206.479,252.860 206.050 C 253.745 205.229,261.866 203.655,263.448 203.999 C 263.882 204.093,265.300 204.356,266.601 204.584 M216.129 211.457 C 217.826 213.153,214.578 219.372,211.051 221.180 C 210.027 221.705,207.875 222.181,205.026 222.512 C 201.838 222.882,199.736 223.377,197.538 224.275 C 194.010 225.716,185.680 226.220,184.298 225.075 C 182.718 223.766,183.666 220.703,186.023 219.501 C 186.883 219.062,187.586 218.549,187.586 218.360 C 187.586 217.856,190.247 216.893,192.512 216.577 C 193.596 216.426,195.351 215.856,196.412 215.309 C 197.834 214.578,199.570 214.173,203.004 213.772 C 206.010 213.421,208.228 212.941,209.246 212.421 C 212.202 210.913,215.170 210.497,216.129 211.457 M259.298 211.770 C 259.188 211.879,257.301 212.490,255.105 213.127 C 250.905 214.344,250.539 214.585,246.284 218.916 C 245.020 220.202,244.121 221.571,243.693 222.857 C 243.332 223.941,242.630 225.316,242.133 225.913 C 237.898 231.003,242.607 244.883,249.207 246.763 C 251.308 247.362,258.938 247.348,261.449 246.740 C 264.209 246.073,269.409 241.581,270.621 238.818 C 270.954 238.059,271.781 236.666,272.460 235.721 L 273.695 234.003 273.801 227.642 C 273.915 220.872,273.972 221.140,271.724 217.960 C 269.251 214.461,268.781 214.123,264.828 212.992 C 260.147 211.654,259.546 211.521,259.298 211.770 M263.013 220.137 C 263.783 220.433,266.314 223.925,267.070 225.735 C 267.745 227.351,267.457 229.703,266.423 231.023 C 266.036 231.517,265.318 232.855,264.828 233.996 C 261.755 241.154,250.708 242.649,249.270 236.101 C 249.129 235.458,248.759 234.720,248.448 234.462 C 247.674 233.820,247.713 233.493,249.053 229.395 C 251.444 222.077,257.538 218.036,263.013 220.137 M332.682 235.577 C 333.021 235.917,333.059 236.250,332.799 236.602 C 332.587 236.889,331.920 237.866,331.315 238.774 C 330.711 239.682,329.736 240.606,329.148 240.829 C 328.560 241.051,327.633 241.657,327.088 242.177 C 326.315 242.915,325.237 243.259,322.162 243.751 C 319.998 244.097,317.318 244.808,316.207 245.331 C 314.801 245.993,312.985 246.395,310.231 246.654 C 307.675 246.895,305.601 247.333,304.369 247.892 C 299.177 250.250,296.879 249.119,299.015 245.257 C 299.394 244.572,300.186 243.127,300.774 242.046 C 302.340 239.171,303.871 238.380,308.716 237.942 C 311.659 237.676,313.273 237.313,314.851 236.559 C 318.034 235.039,318.831 234.925,325.794 235.003 C 330.370 235.054,332.322 235.217,332.682 235.577 M209.890 238.074 C 210.496 238.747,210.626 239.435,210.563 241.658 C 210.442 245.968,209.581 246.700,204.631 246.700 C 203.003 246.700,201.711 247.039,199.442 248.064 C 197.028 249.154,195.620 249.504,192.447 249.802 C 189.616 250.069,187.865 250.462,186.355 251.170 C 184.930 251.839,182.748 252.356,179.690 252.750 C 176.970 253.100,174.119 253.742,172.596 254.346 C 170.925 255.010,168.727 255.476,166.203 255.704 C 163.255 255.969,161.877 256.299,160.301 257.116 C 156.198 259.245,143.770 259.636,142.533 257.675 C 142.020 256.862,144.524 253.696,146.573 252.568 C 147.347 252.141,148.569 251.421,149.289 250.967 C 150.141 250.429,151.661 250.034,153.652 249.834 C 155.850 249.612,157.362 249.189,159.043 248.323 C 160.953 247.340,162.134 247.052,165.517 246.746 C 168.505 246.476,170.258 246.096,171.823 245.379 C 173.261 244.720,175.526 244.188,178.556 243.799 C 181.417 243.431,184.067 242.825,185.650 242.177 C 187.387 241.466,189.225 241.073,191.527 240.920 C 194.159 240.744,195.521 240.411,197.882 239.363 C 199.696 238.558,201.571 238.016,202.611 237.995 C 203.559 237.976,205.222 237.822,206.305 237.654 C 207.389 237.485,208.470 237.323,208.707 237.294 C 208.945 237.265,209.477 237.616,209.890 238.074 M215.066 261.126 C 215.549 261.432,216.235 262.257,216.590 262.959 C 216.945 263.662,217.591 264.626,218.027 265.103 C 219.143 266.325,218.700 267.007,216.284 267.786 C 215.131 268.158,213.615 268.789,212.916 269.187 C 211.566 269.958,208.838 270.516,204.335 270.943 C 202.594 271.108,200.558 271.651,198.818 272.414 C 195.740 273.764,187.437 274.450,185.123 273.546 C 182.886 272.672,183.923 269.435,186.923 267.932 C 187.829 267.477,189.040 266.667,189.613 266.131 C 190.372 265.420,191.333 265.068,193.159 264.833 C 194.537 264.655,196.652 264.051,197.858 263.491 C 199.361 262.793,201.242 262.349,203.840 262.079 C 205.924 261.863,208.573 261.351,209.726 260.941 C 211.944 260.153,213.620 260.211,215.066 261.126 " stroke="none" fill="#000000" fill-rule="evenodd"></path></g></svg>