<svg id="svg" version="1.1" xmlns="http://www.w3.org/2000/svg" xmlns:xlink="http://www.w3.org/1999/xlink" width="400" height="400" viewBox="0, 0, 400,400"><g id="svgg"><path id="path0" d="M131.200 53.489 C 128.535 53.987,124.462 57.192,122.504 60.332 L 120.600 63.387 120.400 83.060 C 120.290 93.881,120.050 102.884,119.867 103.067 C 119.684 103.250,97.634 103.490,70.867 103.600 L 22.200 103.800 19.400 105.055 C 17.860 105.746,16.173 106.440,15.652 106.598 C 11.694 107.795,4.385 115.527,2.604 120.400 C 2.086 121.816,1.479 122.741,0.900 122.995 L 0.000 123.390 -0.000 225.467 L -0.000 327.544 0.900 327.672 C 1.603 327.772,1.980 328.324,2.624 330.200 C 4.363 335.270,11.788 342.817,16.400 344.203 C 16.950 344.368,18.300 344.975,19.400 345.552 L 21.400 346.600 200.000 346.600 L 378.600 346.600 380.200 345.762 C 381.080 345.301,382.743 344.613,383.895 344.232 C 385.048 343.851,386.095 343.371,386.222 343.165 C 386.349 342.959,387.386 342.191,388.526 341.458 C 391.962 339.250,396.401 333.737,397.587 330.202 C 398.006 328.957,398.589 328.051,399.130 327.805 L 400.000 327.410 400.000 225.463 L 400.000 123.515 399.010 122.736 C 398.465 122.308,397.805 121.202,397.542 120.279 C 396.382 116.199,386.859 106.400,384.053 106.400 C 383.794 106.400,382.371 105.815,380.891 105.100 L 378.200 103.800 329.628 103.689 C 295.164 103.611,280.903 103.451,280.528 103.140 C 280.107 102.791,279.995 99.330,279.975 86.051 C 279.944 65.788,279.778 63.579,278.081 60.938 C 275.878 57.509,275.597 57.215,272.679 55.292 L 269.806 53.400 201.003 53.351 C 163.161 53.324,131.750 53.386,131.200 53.489 M257.600 74.116 C 259.365 75.007,259.554 76.486,259.571 89.600 C 259.589 102.754,259.608 102.624,257.575 103.207 C 255.133 103.907,143.879 103.727,142.187 103.020 L 140.800 102.441 140.800 89.190 L 140.800 75.938 141.969 74.769 L 143.138 73.600 199.869 73.606 C 244.721 73.611,256.809 73.717,257.600 74.116 M376.909 120.322 C 380.646 121.611,383.240 125.380,383.982 130.600 C 384.847 136.685,384.373 320.015,383.484 323.000 C 382.482 326.368,379.569 329.281,376.200 330.285 C 373.271 331.158,33.842 331.648,27.229 330.789 C 21.028 329.984,17.769 327.419,16.640 322.456 C 15.878 319.105,15.659 132.650,16.413 129.200 C 16.629 128.210,16.902 126.979,17.020 126.465 C 17.529 124.231,21.686 120.744,24.687 120.035 C 27.315 119.415,375.098 119.698,376.909 120.322 M193.600 176.783 C 192.610 176.967,190.900 177.472,189.800 177.904 C 188.700 178.336,186.810 178.920,185.600 179.201 C 184.390 179.482,182.926 180.044,182.346 180.450 C 181.766 180.857,180.443 181.553,179.405 181.998 C 178.368 182.442,176.990 183.210,176.345 183.703 C 174.389 185.197,168.273 190.420,167.102 191.596 C 165.493 193.212,165.706 193.200,137.776 193.200 C 110.220 193.200,110.935 193.145,108.625 195.455 C 105.712 198.368,105.707 201.905,108.612 204.768 C 111.056 207.176,110.915 207.163,134.886 207.183 C 159.889 207.203,157.622 206.572,155.591 212.949 C 154.881 215.177,154.047 217.270,153.736 217.600 C 153.245 218.122,148.259 218.226,115.201 218.400 L 77.230 218.600 75.260 220.541 C 72.122 223.632,72.105 226.905,75.211 230.011 C 77.644 232.444,76.220 232.363,116.600 232.389 C 136.620 232.402,153.229 232.558,153.509 232.735 C 154.065 233.088,156.126 238.615,156.556 240.907 C 157.076 243.680,157.767 243.600,133.285 243.600 C 119.789 243.600,111.268 243.749,110.812 243.994 C 106.173 246.477,105.186 251.545,108.655 255.081 C 110.982 257.454,109.968 257.369,138.830 257.592 L 165.861 257.800 169.830 261.535 C 172.014 263.590,174.340 265.546,175.000 265.882 C 175.660 266.218,176.560 266.818,177.000 267.215 C 177.440 267.611,178.610 268.257,179.600 268.650 C 180.590 269.043,181.987 269.762,182.705 270.248 C 183.423 270.734,184.773 271.258,185.705 271.413 C 186.637 271.567,188.570 272.165,190.000 272.740 C 193.732 274.243,208.802 274.361,212.400 272.916 C 213.610 272.430,215.724 271.751,217.097 271.406 C 218.471 271.061,220.251 270.334,221.053 269.790 C 221.855 269.245,222.736 268.800,223.010 268.800 C 224.345 268.800,232.635 262.449,235.484 259.244 L 236.767 257.800 264.084 257.600 C 294.107 257.380,292.007 257.583,294.725 254.635 C 297.332 251.807,297.229 248.810,294.425 245.870 L 292.451 243.800 269.925 243.600 C 257.536 243.490,247.175 243.254,246.900 243.076 C 245.904 242.432,247.608 234.918,249.179 233.025 C 249.642 232.467,253.603 232.398,286.149 232.383 C 327.175 232.363,325.402 232.480,328.129 229.620 L 330.091 227.564 329.928 224.998 C 329.771 222.541,329.681 222.350,327.821 220.516 L 325.878 218.600 288.039 218.400 C 267.227 218.290,249.906 218.054,249.547 217.875 C 248.863 217.535,246.400 210.634,246.400 209.060 C 246.400 207.179,246.144 207.201,268.380 207.190 C 291.119 207.180,291.658 207.137,293.956 205.141 C 297.290 202.244,297.455 198.670,294.401 195.485 L 292.403 193.400 264.901 193.186 C 249.776 193.069,237.346 192.934,237.279 192.886 C 237.081 192.745,231.082 187.294,230.000 186.273 C 229.450 185.754,228.550 185.098,228.000 184.815 C 227.450 184.533,226.550 183.903,226.000 183.415 C 225.450 182.927,224.370 182.293,223.600 182.007 C 222.830 181.721,221.570 181.070,220.800 180.560 C 220.030 180.051,218.320 179.371,217.000 179.050 C 215.680 178.728,213.520 178.062,212.200 177.570 C 209.565 176.587,197.411 176.072,193.600 176.783 M205.866 187.583 C 209.286 187.866,210.785 188.180,212.266 188.927 C 213.330 189.463,214.779 190.027,215.487 190.180 C 216.194 190.333,217.414 190.893,218.198 191.424 C 218.981 191.956,220.202 192.687,220.911 193.050 C 222.172 193.694,224.260 195.353,226.537 197.519 C 228.255 199.151,232.400 204.441,232.400 204.999 C 232.400 205.269,232.920 206.144,233.555 206.944 C 234.191 207.743,234.836 209.073,234.989 209.899 C 235.142 210.724,235.835 212.660,236.530 214.200 L 237.793 217.000 237.780 225.200 C 237.769 232.187,237.659 233.666,237.038 235.200 C 236.637 236.190,235.875 238.254,235.344 239.786 C 234.813 241.318,234.040 242.938,233.627 243.386 C 233.215 243.834,232.598 244.877,232.257 245.705 C 230.951 248.874,224.080 255.937,220.600 257.688 C 219.720 258.131,218.730 258.729,218.400 259.017 C 218.070 259.306,216.540 260.020,215.000 260.605 C 213.460 261.190,211.480 261.959,210.600 262.314 C 208.143 263.305,194.914 263.247,192.400 262.234 C 191.410 261.835,189.453 261.097,188.051 260.593 C 186.649 260.090,185.029 259.328,184.451 258.901 C 183.873 258.474,182.770 257.802,182.000 257.409 C 178.768 255.758,172.025 248.754,170.689 245.661 C 170.437 245.077,169.824 244.097,169.326 243.482 C 168.828 242.867,168.228 241.607,167.993 240.682 C 167.757 239.757,167.077 237.920,166.482 236.600 C 164.967 233.241,164.795 217.350,166.244 214.595 C 166.708 213.713,167.399 211.913,167.778 210.595 C 168.158 209.278,168.805 207.838,169.215 207.395 C 169.626 206.952,170.255 205.887,170.614 205.028 C 171.862 202.041,178.470 194.982,181.390 193.517 C 182.275 193.072,183.586 192.269,184.303 191.732 C 185.019 191.195,186.522 190.483,187.643 190.150 C 188.764 189.817,190.403 189.169,191.285 188.709 C 192.714 187.964,194.750 187.649,200.600 187.265 C 201.040 187.237,203.410 187.379,205.866 187.583 M195.600 202.072 C 194.830 202.292,194.000 202.637,193.756 202.838 C 193.513 203.040,192.282 203.559,191.023 203.992 C 186.841 205.431,180.374 211.696,178.982 215.658 C 178.645 216.616,177.971 218.210,177.485 219.200 C 176.063 222.093,176.162 231.761,177.643 234.600 C 178.217 235.700,178.905 237.271,179.171 238.091 C 179.736 239.828,180.885 241.297,184.200 244.521 C 188.452 248.657,187.514 248.109,195.400 251.069 C 197.649 251.913,206.803 251.668,208.800 250.711 C 209.570 250.342,211.146 249.688,212.302 249.257 C 216.493 247.698,222.386 241.774,224.176 237.320 C 224.690 236.044,225.425 234.280,225.810 233.400 C 227.105 230.441,226.832 222.480,225.315 219.000 C 224.644 217.460,223.885 215.542,223.629 214.737 C 223.167 213.288,217.911 207.563,215.382 205.755 C 214.316 204.992,211.439 203.670,207.600 202.179 C 205.944 201.536,197.734 201.463,195.600 202.072 M206.862 213.432 C 215.337 217.815,218.194 226.879,213.401 234.177 C 207.451 243.235,195.512 243.147,189.507 234.001 L 187.538 231.002 187.669 226.401 L 187.800 221.800 189.584 219.101 C 193.342 213.416,201.594 210.708,206.862 213.432 " stroke="none" fill="#000000" fill-rule="evenodd"></path></g></svg>