<svg id="svg" xmlns="http://www.w3.org/2000/svg" xmlns:xlink="http://www.w3.org/1999/xlink" width="400" height="400" viewBox="0, 0, 400,400"><g id="svgg"><path id="path0" d="M157.500 43.259 L 118.000 66.327 118.018 114.663 L 118.035 163.000 159.018 186.686 L 200.000 210.373 240.982 186.686 L 281.965 163.000 281.982 114.661 L 282.000 66.323 242.108 43.161 C 220.167 30.423,201.042 20.043,199.608 20.096 C 198.173 20.148,179.225 30.572,157.500 43.259 M232.787 57.205 L 266.000 76.409 265.973 114.705 L 265.946 153.000 234.112 171.500 C 195.859 193.730,204.303 193.727,165.931 171.527 L 134.000 153.053 134.000 114.790 L 134.000 76.528 166.500 57.469 C 184.375 46.987,199.129 38.318,199.287 38.205 C 199.445 38.092,214.520 46.642,232.787 57.205 M60.442 213.386 L 19.932 236.787 20.466 285.613 L 21.000 334.439 60.000 357.170 C 81.450 369.672,100.032 379.923,101.293 379.950 C 102.554 379.978,121.679 369.526,143.793 356.725 L 184.000 333.450 183.968 285.225 L 183.936 237.000 143.896 214.000 C 121.874 201.350,103.202 190.771,102.404 190.492 C 101.605 190.213,82.722 200.515,60.442 213.386 M256.582 213.606 L 216.163 237.000 216.082 285.176 L 216.000 333.353 256.208 356.676 C 278.323 369.504,297.448 379.978,298.708 379.950 C 299.969 379.923,318.550 369.672,340.000 357.170 L 379.000 334.439 379.534 285.607 L 380.068 236.774 340.647 213.887 C 318.966 201.299,300.275 190.823,299.113 190.606 C 297.951 190.389,278.812 200.739,256.582 213.606 M136.659 229.000 L 167.960 247.000 167.980 285.295 L 168.000 323.591 134.760 342.811 L 101.521 362.031 67.770 342.516 L 34.020 323.000 34.510 285.239 L 35.000 247.477 67.000 228.742 C 104.690 206.675,97.793 206.649,136.659 229.000 M333.000 228.783 L 365.000 247.477 365.490 285.239 L 365.980 323.000 332.230 342.516 L 298.479 362.031 265.240 342.811 L 232.000 323.591 232.030 285.295 L 232.060 247.000 263.530 228.666 C 301.781 206.381,294.632 206.369,333.000 228.783 " stroke="none" fill="#000000" fill-rule="evenodd"></path></g></svg>