<svg id="svg" version="1.1" xmlns="http://www.w3.org/2000/svg" xmlns:xlink="http://www.w3.org/1999/xlink" width="400" height="400" viewBox="0, 0, 400,400"><g id="svgg"><path id="path0" d="M193.400 14.234 C 178.376 15.349,173.623 15.889,165.400 17.414 C 50.952 38.640,-15.422 159.065,27.064 268.400 C 77.751 398.839,251.496 427.241,342.478 319.960 C 367.986 289.882,381.553 255.518,385.584 210.777 C 389.499 167.305,370.823 111.506,341.423 78.838 C 313.770 48.111,285.022 30.158,247.600 20.247 C 231.855 16.077,206.483 13.262,193.400 14.234 M207.800 36.411 C 315.060 42.309,387.300 145.395,356.357 248.400 C 338.731 307.072,287.254 351.976,226.391 361.771 C 124.765 378.125,34.263 299.205,36.522 196.200 C 38.429 109.254,106.454 40.171,194.000 36.270 C 199.673 36.017,200.854 36.029,207.800 36.411 M74.000 64.200 C 73.028 65.190,72.143 66.000,72.033 66.000 C 71.923 66.000,72.628 65.190,73.600 64.200 C 74.572 63.210,75.457 62.400,75.567 62.400 C 75.677 62.400,74.972 63.210,74.000 64.200 M64.800 73.400 C 63.828 74.390,62.943 75.200,62.833 75.200 C 62.723 75.200,63.428 74.390,64.400 73.400 C 65.372 72.410,66.257 71.600,66.367 71.600 C 66.477 71.600,65.772 72.410,64.800 73.400 M337.000 74.800 C 337.859 75.680,338.472 76.400,338.362 76.400 C 338.252 76.400,337.459 75.680,336.600 74.800 C 335.741 73.920,335.128 73.200,335.238 73.200 C 335.348 73.200,336.141 73.920,337.000 74.800 M338.400 323.722 C 338.400 323.788,337.725 324.463,336.900 325.222 L 335.400 326.600 336.778 325.100 C 338.062 323.704,338.400 323.416,338.400 323.722 M65.600 327.483 C 65.600 327.784,65.241 327.466,63.583 325.700 L 61.800 323.800 63.700 325.583 C 64.745 326.564,65.600 327.419,65.600 327.483 M74.400 336.200 C 75.146 336.970,75.667 337.600,75.557 337.600 C 75.447 337.600,74.746 336.970,74.000 336.200 C 73.254 335.430,72.733 334.800,72.843 334.800 C 72.953 334.800,73.654 335.430,74.400 336.200 M326.000 336.125 C 326.000 336.194,325.415 336.779,324.700 337.425 L 323.400 338.600 324.575 337.300 C 325.670 336.088,326.000 335.816,326.000 336.125 M203.700 385.498 C 201.665 385.571,198.335 385.571,196.300 385.498 C 194.265 385.425,195.930 385.366,200.000 385.366 C 204.070 385.366,205.735 385.425,203.700 385.498 " stroke="none" fill="#454c54" fill-rule="evenodd"></path><path id="path1" d="M196.554 133.565 C 195.001 134.270,193.365 136.005,192.559 137.800 C 192.362 138.240,192.110 149.940,192.000 163.800 C 191.787 190.668,191.847 189.907,189.841 191.241 C 189.151 191.699,184.466 191.836,163.800 192.000 C 149.940 192.110,138.240 192.362,137.800 192.559 C 131.546 195.367,131.079 203.872,137.000 207.138 C 138.070 207.728,140.947 207.822,163.471 208.000 C 188.335 208.197,188.761 208.213,189.871 209.037 C 191.936 210.569,191.953 210.793,191.980 236.400 C 191.995 251.466,192.156 260.746,192.418 261.688 C 194.243 268.259,203.447 269.187,207.000 263.158 C 207.771 261.849,207.807 260.889,208.000 236.582 C 208.184 213.441,208.258 211.276,208.900 210.296 C 210.304 208.154,209.576 208.214,236.600 208.000 C 264.004 207.783,262.927 207.876,265.053 205.538 C 269.036 201.159,267.185 193.944,261.688 192.418 C 260.746 192.156,251.466 191.995,236.400 191.980 C 210.793 191.953,210.569 191.936,209.037 189.871 C 208.213 188.761,208.197 188.335,208.000 163.471 C 207.822 140.947,207.728 138.070,207.138 137.000 C 205.093 133.293,200.462 131.790,196.554 133.565 " stroke="none" fill="#74c4fc" fill-rule="evenodd"></path></g></svg>