<svg xmlns="http://www.w3.org/2000/svg" xmlns:xlink="http://www.w3.org/1999/xlink" viewBox="0 0 64 64" version="1.1" style="
    height: 80;
"><g id="surface1"><path style=" " d="M 7 8 C 5.347656 8 4 9.347656 4 11 L 4 53 C 4 54.652344 5.347656 56 7 56 L 57 56 C 58.652344 56 60 54.652344 60 53 L 60 11 C 60 9.347656 58.652344 8 57 8 Z M 7 10 L 57 10 C 57.550781 10 58 10.449219 58 11 L 58 53 C 58 53.550781 57.550781 54 57 54 L 7 54 C 6.449219 54 6 53.550781 6 53 L 6 20 L 47 20 C 47.554688 20 48 19.550781 48 19 C 48 18.449219 47.554688 18 47 18 L 6 18 L 6 11 C 6 10.449219 6.449219 10 7 10 Z M 10 12 C 9.445313 12 9 12.449219 9 13 L 9 15 C 9 15.550781 9.445313 16 10 16 C 10.554688 16 11 15.550781 11 15 L 11 13 C 11 12.449219 10.554688 12 10 12 Z M 15 12 C 14.445313 12 14 12.449219 14 13 L 14 15 C 14 15.550781 14.445313 16 15 16 C 15.554688 16 16 15.550781 16 15 L 16 13 C 16 12.449219 15.554688 12 15 12 Z M 20 12 C 19.445313 12 19 12.449219 19 13 L 19 15 C 19 15.550781 19.445313 16 20 16 C 20.554688 16 21 15.550781 21 15 L 21 13 C 21 12.449219 20.554688 12 20 12 Z M 25 12 C 24.445313 12 24 12.449219 24 13 L 24 15 C 24 15.550781 24.445313 16 25 16 C 25.554688 16 26 15.550781 26 15 L 26 13 C 26 12.449219 25.554688 12 25 12 Z M 30 12 C 29.445313 12 29 12.449219 29 13 L 29 15 C 29 15.550781 29.445313 16 30 16 C 30.554688 16 31 15.550781 31 15 L 31 13 C 31 12.449219 30.554688 12 30 12 Z M 35 12 C 34.445313 12 34 12.449219 34 13 L 34 15 C 34 15.550781 34.445313 16 35 16 C 35.554688 16 36 15.550781 36 15 L 36 13 C 36 12.449219 35.554688 12 35 12 Z M 40 12 C 39.445313 12 39 12.449219 39 13 L 39 15 C 39 15.550781 39.445313 16 40 16 C 40.554688 16 41 15.550781 41 15 L 41 13 C 41 12.449219 40.554688 12 40 12 Z M 45 12 C 44.445313 12 44 12.449219 44 13 L 44 15 C 44 15.550781 44.445313 16 45 16 C 45.554688 16 46 15.550781 46 15 L 46 13 C 46 12.449219 45.554688 12 45 12 Z M 50 12 C 49.445313 12 49 12.449219 49 13 L 49 15 C 49 15.550781 49.445313 16 50 16 C 50.554688 16 51 15.550781 51 15 L 51 13 C 51 12.449219 50.554688 12 50 12 Z M 55 12 C 54.445313 12 54 12.449219 54 13 L 54 15 C 54 15.550781 54.445313 16 55 16 C 55.554688 16 56 15.550781 56 15 L 56 13 C 56 12.449219 55.554688 12 55 12 Z M 51 18 C 50.445313 18 50 18.449219 50 19 C 50 19.550781 50.445313 20 51 20 L 55 20 C 55.554688 20 56 19.550781 56 19 C 56 18.449219 55.554688 18 55 18 Z M 19 28 C 18.746094 28 18.488281 28.097656 18.292969 28.292969 C 17.902344 28.683594 17.902344 29.316406 18.292969 29.707031 L 24.585938 36 L 18.292969 42.292969 C 17.902344 42.683594 17.902344 43.316406 18.292969 43.707031 C 18.488281 43.902344 18.742188 44 19 44 C 19.257813 44 19.511719 43.902344 19.707031 43.707031 L 26.707031 36.707031 C 27.097656 36.316406 27.097656 35.683594 26.707031 35.292969 L 19.707031 28.292969 C 19.511719 28.097656 19.253906 28 19 28 Z M 27 42 C 26.445313 42 26 42.449219 26 43 C 26 43.550781 26.445313 44 27 44 L 45 44 C 45.554688 44 46 43.550781 46 43 C 46 42.449219 45.554688 42 45 42 Z "></path></g></svg>