<svg width="128" height="128" xmlns="http://www.w3.org/2000/svg">

 <g>
  <title>background</title>
  <rect fill="none" id="canvas_background" height="402" width="582" y="-1" x="-1"/>
 </g>
 <g>
  <title>Layer 1</title>
  <path id="svg_2" d="m35,97l-6,0c-12.7,0 -23,-10.3 -23,-23s10.3,-23 23,-23l2,0l0,-2c0,-18.2 14.8,-33 33,-33s33,14.8 33,33l0,2l2,0c12.7,0 23,10.3 23,23c0,3.3 -0.7,6.6 -2.1,9.6c-0.7,1.5 -2.5,2.2 -4,1.5c-1.5,-0.7 -2.2,-2.5 -1.5,-4c1,-2.2 1.5,-4.6 1.5,-7.1c0,-9.4 -7.6,-17 -17,-17l-5,0c-1.7,0 -3,-1.3 -3,-3l0,-5c0,-14.9 -12.1,-27 -27,-27s-26.9,12.1 -26.9,27l0,5c0,1.7 -1.3,3 -3,3l-5,0c-9.4,0 -17,7.6 -17,17s7.6,17 17,17l6,0c1.7,0 3,1.3 3,3s-1.3,3 -3,3z" fill="#444b54"/>
  <path id="svg_3" d="m62,121l-5,0c-8.3,0 -15,-6.7 -15,-15s6.7,-15 15,-15l25,0c8.3,0 15,6.7 15,15c0,1.7 -1.3,3 -3,3s-3,-1.3 -3,-3c0,-5 -4,-9 -9,-9l-25,0c-5,0 -9,4 -9,9s4,9 9,9l5,0c1.7,0 3,1.3 3,3s-1.3,3 -3,3z" fill="#71c2ff"/>
  <path id="svg_4" d="m107,121l-25,0c-8.3,0 -15,-6.7 -15,-15c0,-1.7 1.3,-3 3,-3s3,1.3 3,3c0,5 4,9 9,9l25,0c5,0 9,-4 9,-9s-4,-9 -9,-9l-5,0c-1.7,0 -3,-1.3 -3,-3s1.3,-3 3,-3l5,0c8.3,0 15,6.7 15,15s-6.7,15 -15,15z" fill="#71c2ff"/>
 </g>
</svg>